<svg width="1107" height="474" viewBox="0 0 1107 474" fill="none" xmlns="http://www.w3.org/2000/svg">
<rect y="106" width="1107" height="10" fill="#1263FF" fill-opacity="0.5"/>
<path d="M21.2273 9.54545V27H19.1136V9.54545H21.2273ZM27.2038 19.125V27H25.1925V13.9091H27.1357V15.9545H27.3061C27.6129 15.2898 28.0788 14.7557 28.7038 14.3523C29.3288 13.9432 30.1357 13.7386 31.1243 13.7386C32.0107 13.7386 32.7862 13.9205 33.451 14.2841C34.1158 14.642 34.6328 15.1875 35.0021 15.9205C35.3714 16.6477 35.5561 17.5682 35.5561 18.6818V27H33.5447V18.8182C33.5447 17.7898 33.2777 16.9886 32.7436 16.4148C32.2095 15.8352 31.4766 15.5455 30.5447 15.5455C29.9027 15.5455 29.3288 15.6847 28.8232 15.9631C28.3232 16.2415 27.9283 16.6477 27.6385 17.1818C27.3487 17.7159 27.2038 18.3636 27.2038 19.125ZM44.9247 13.9091V15.6136H38.1406V13.9091H44.9247ZM40.1179 10.7727H42.1293V23.25C42.1293 23.8182 42.2116 24.2443 42.3764 24.5284C42.5469 24.8068 42.7628 24.9943 43.0241 25.0909C43.2912 25.1818 43.5724 25.2273 43.8679 25.2273C44.0895 25.2273 44.2713 25.2159 44.4134 25.1932C44.5554 25.1648 44.669 25.142 44.7543 25.125L45.1634 26.9318C45.027 26.983 44.8366 27.0341 44.5923 27.0852C44.348 27.142 44.0384 27.1705 43.6634 27.1705C43.0952 27.1705 42.5384 27.0483 41.9929 26.804C41.4531 26.5597 41.0043 26.1875 40.6463 25.6875C40.294 25.1875 40.1179 24.5568 40.1179 23.7955V10.7727ZM47.9503 27V13.9091H49.8935V15.8864H50.0298C50.2685 15.2386 50.7003 14.7131 51.3253 14.3097C51.9503 13.9062 52.6548 13.7045 53.4389 13.7045C53.5866 13.7045 53.7713 13.7074 53.9929 13.7131C54.2145 13.7187 54.3821 13.7273 54.4957 13.7386V15.7841C54.4276 15.767 54.2713 15.7415 54.027 15.7074C53.7884 15.6676 53.5355 15.6477 53.2685 15.6477C52.6321 15.6477 52.0639 15.7812 51.5639 16.0483C51.0696 16.3097 50.6776 16.6733 50.3878 17.1392C50.1037 17.5994 49.9616 18.125 49.9616 18.7159V27H47.9503ZM61.7997 27.2727C60.6179 27.2727 59.581 26.9915 58.6889 26.429C57.8026 25.8665 57.1094 25.0795 56.6094 24.0682C56.1151 23.0568 55.8679 21.875 55.8679 20.5227C55.8679 19.1591 56.1151 17.9687 56.6094 16.9517C57.1094 15.9347 57.8026 15.1449 58.6889 14.5824C59.581 14.0199 60.6179 13.7386 61.7997 13.7386C62.9815 13.7386 64.0156 14.0199 64.902 14.5824C65.794 15.1449 66.4872 15.9347 66.9815 16.9517C67.4815 17.9687 67.7315 19.1591 67.7315 20.5227C67.7315 21.875 67.4815 23.0568 66.9815 24.0682C66.4872 25.0795 65.794 25.8665 64.902 26.429C64.0156 26.9915 62.9815 27.2727 61.7997 27.2727ZM61.7997 25.4659C62.6974 25.4659 63.4361 25.2358 64.0156 24.7756C64.5952 24.3153 65.0241 23.7102 65.3026 22.9602C65.581 22.2102 65.7202 21.3977 65.7202 20.5227C65.7202 19.6477 65.581 18.8324 65.3026 18.0767C65.0241 17.321 64.5952 16.7102 64.0156 16.2443C63.4361 15.7784 62.6974 15.5455 61.7997 15.5455C60.902 15.5455 60.1634 15.7784 59.5838 16.2443C59.0043 16.7102 58.5753 17.321 58.2969 18.0767C58.0185 18.8324 57.8793 19.6477 57.8793 20.5227C57.8793 21.3977 58.0185 22.2102 58.2969 22.9602C58.5753 23.7102 59.0043 24.3153 59.5838 24.7756C60.1634 25.2358 60.902 25.4659 61.7997 25.4659ZM75.745 27.2727C74.6541 27.2727 73.6911 26.9972 72.8558 26.446C72.0206 25.8892 71.3672 25.1051 70.8956 24.0938C70.424 23.0767 70.1882 21.875 70.1882 20.4886C70.1882 19.1136 70.424 17.9205 70.8956 16.9091C71.3672 15.8977 72.0234 15.1165 72.8643 14.5653C73.7053 14.0142 74.6768 13.7386 75.7791 13.7386C76.6314 13.7386 77.3047 13.8807 77.799 14.1648C78.299 14.4432 78.6797 14.7614 78.9411 15.1193C79.2081 15.4716 79.4155 15.7614 79.5632 15.9886H79.7337V9.54545H81.745V27H79.8018V24.9886H79.5632C79.4155 25.2273 79.2053 25.5284 78.9325 25.892C78.6598 26.25 78.2706 26.571 77.7649 26.8551C77.2592 27.1335 76.5859 27.2727 75.745 27.2727ZM76.0178 25.4659C76.8246 25.4659 77.5064 25.2557 78.0632 24.8352C78.62 24.4091 79.0433 23.821 79.3331 23.071C79.6229 22.3153 79.7678 21.4432 79.7678 20.4545C79.7678 19.4773 79.6257 18.6222 79.3416 17.8892C79.0575 17.1506 78.6371 16.5767 78.0803 16.1676C77.5234 15.7528 76.8359 15.5455 76.0178 15.5455C75.1655 15.5455 74.4553 15.7642 73.8871 16.2017C73.3246 16.6335 72.9013 17.2216 72.6172 17.9659C72.3388 18.7045 72.1996 19.5341 72.1996 20.4545C72.1996 21.3864 72.3416 22.233 72.6257 22.9943C72.9155 23.75 73.3416 24.3523 73.9041 24.8011C74.4723 25.2443 75.1768 25.4659 76.0178 25.4659ZM93.9581 21.6477V13.9091H95.9695V27H93.9581V24.7841H93.8217C93.5149 25.4489 93.0376 26.0142 92.3899 26.4801C91.7422 26.9403 90.924 27.1705 89.9354 27.1705C89.1172 27.1705 88.3899 26.9915 87.7536 26.6335C87.1172 26.2699 86.6172 25.7244 86.2536 24.9972C85.8899 24.2642 85.7081 23.3409 85.7081 22.2273V13.9091H87.7195V22.0909C87.7195 23.0455 87.9865 23.8068 88.5206 24.375C89.0604 24.9432 89.7479 25.2273 90.5831 25.2273C91.0831 25.2273 91.5916 25.0994 92.1087 24.8438C92.6314 24.5881 93.0689 24.196 93.4212 23.6676C93.7791 23.1392 93.9581 22.4659 93.9581 21.6477ZM104.972 27.2727C103.744 27.2727 102.688 26.983 101.801 26.4034C100.915 25.8239 100.233 25.0256 99.7557 24.0085C99.2784 22.9915 99.0398 21.8295 99.0398 20.5227C99.0398 19.1932 99.2841 18.0199 99.7727 17.0028C100.267 15.9801 100.955 15.1818 101.835 14.608C102.722 14.0284 103.756 13.7386 104.938 13.7386C105.858 13.7386 106.688 13.9091 107.426 14.25C108.165 14.5909 108.77 15.0682 109.241 15.6818C109.713 16.2955 110.006 17.0114 110.119 17.8295H108.108C107.955 17.233 107.614 16.7045 107.085 16.2443C106.563 15.7784 105.858 15.5455 104.972 15.5455C104.188 15.5455 103.5 15.75 102.909 16.1591C102.324 16.5625 101.866 17.1335 101.537 17.8722C101.213 18.6051 101.051 19.4659 101.051 20.4545C101.051 21.4659 101.21 22.3466 101.528 23.0966C101.852 23.8466 102.307 24.429 102.892 24.8438C103.483 25.2585 104.176 25.4659 104.972 25.4659C105.494 25.4659 105.969 25.375 106.395 25.1932C106.821 25.0114 107.182 24.75 107.477 24.4091C107.773 24.0682 107.983 23.6591 108.108 23.1818H110.119C110.006 23.9545 109.724 24.6506 109.276 25.2699C108.832 25.8835 108.244 26.3722 107.511 26.7358C106.784 27.0938 105.938 27.2727 104.972 27.2727ZM118.753 13.9091V15.6136H111.969V13.9091H118.753ZM113.946 10.7727H115.957V23.25C115.957 23.8182 116.04 24.2443 116.205 24.5284C116.375 24.8068 116.591 24.9943 116.852 25.0909C117.119 25.1818 117.401 25.2273 117.696 25.2273C117.918 25.2273 118.099 25.2159 118.241 25.1932C118.384 25.1648 118.497 25.142 118.582 25.125L118.991 26.9318C118.855 26.983 118.665 27.0341 118.42 27.0852C118.176 27.142 117.866 27.1705 117.491 27.1705C116.923 27.1705 116.366 27.0483 115.821 26.804C115.281 26.5597 114.832 26.1875 114.474 25.6875C114.122 25.1875 113.946 24.5568 113.946 23.7955V10.7727ZM121.778 27V13.9091H123.79V27H121.778ZM122.801 11.7273C122.409 11.7273 122.071 11.5938 121.787 11.3267C121.509 11.0597 121.369 10.7386 121.369 10.3636C121.369 9.98864 121.509 9.66761 121.787 9.40057C122.071 9.13352 122.409 9 122.801 9C123.193 9 123.528 9.13352 123.807 9.40057C124.091 9.66761 124.233 9.98864 124.233 10.3636C124.233 10.7386 124.091 11.0597 123.807 11.3267C123.528 11.5938 123.193 11.7273 122.801 11.7273ZM132.792 27.2727C131.61 27.2727 130.573 26.9915 129.681 26.429C128.795 25.8665 128.102 25.0795 127.602 24.0682C127.107 23.0568 126.86 21.875 126.86 20.5227C126.86 19.1591 127.107 17.9687 127.602 16.9517C128.102 15.9347 128.795 15.1449 129.681 14.5824C130.573 14.0199 131.61 13.7386 132.792 13.7386C133.974 13.7386 135.008 14.0199 135.894 14.5824C136.786 15.1449 137.479 15.9347 137.974 16.9517C138.474 17.9687 138.724 19.1591 138.724 20.5227C138.724 21.875 138.474 23.0568 137.974 24.0682C137.479 25.0795 136.786 25.8665 135.894 26.429C135.008 26.9915 133.974 27.2727 132.792 27.2727ZM132.792 25.4659C133.69 25.4659 134.428 25.2358 135.008 24.7756C135.587 24.3153 136.016 23.7102 136.295 22.9602C136.573 22.2102 136.712 21.3977 136.712 20.5227C136.712 19.6477 136.573 18.8324 136.295 18.0767C136.016 17.321 135.587 16.7102 135.008 16.2443C134.428 15.7784 133.69 15.5455 132.792 15.5455C131.894 15.5455 131.156 15.7784 130.576 16.2443C129.996 16.7102 129.567 17.321 129.289 18.0767C129.011 18.8324 128.871 19.6477 128.871 20.5227C128.871 21.3977 129.011 22.2102 129.289 22.9602C129.567 23.7102 129.996 24.3153 130.576 24.7756C131.156 25.2358 131.894 25.4659 132.792 25.4659ZM143.805 19.125V27H141.794V13.9091H143.737V15.9545H143.908C144.214 15.2898 144.68 14.7557 145.305 14.3523C145.93 13.9432 146.737 13.7386 147.726 13.7386C148.612 13.7386 149.388 13.9205 150.053 14.2841C150.717 14.642 151.234 15.1875 151.604 15.9205C151.973 16.6477 152.158 17.5682 152.158 18.6818V27H150.146V18.8182C150.146 17.7898 149.879 16.9886 149.345 16.4148C148.811 15.8352 148.078 15.5455 147.146 15.5455C146.504 15.5455 145.93 15.6847 145.425 15.9631C144.925 16.2415 144.53 16.6477 144.24 17.1818C143.95 17.7159 143.805 18.3636 143.805 19.125Z" fill="black"/>
<path d="M573.977 56.0114C573.96 55.0682 574.114 54.3097 574.438 53.7358C574.761 53.1619 575.182 52.7443 575.699 52.483C576.222 52.2216 576.773 52.0909 577.352 52.0909C577.932 52.0909 578.46 52.2187 578.938 52.4744C579.42 52.7244 579.972 53.1193 580.591 53.6591C581.011 54.0227 581.347 54.2784 581.597 54.4261C581.852 54.5739 582.131 54.6477 582.432 54.6477C582.92 54.6477 583.307 54.4716 583.591 54.1193C583.875 53.7614 584.011 53.2443 584 52.5682H585.841C585.858 53.5114 585.705 54.2699 585.381 54.8438C585.063 55.4176 584.642 55.8352 584.119 56.0966C583.597 56.358 583.045 56.4886 582.466 56.4886C581.886 56.4886 581.358 56.3636 580.881 56.1136C580.403 55.858 579.852 55.4602 579.227 54.9205C578.812 54.5568 578.477 54.3011 578.222 54.1534C577.966 54.0057 577.688 53.9318 577.386 53.9318C576.926 53.9318 576.545 54.0938 576.244 54.4176C575.949 54.7358 575.807 55.267 575.818 56.0114H573.977ZM589.634 63L597.44 47.5568V47.4205H588.44V45.5455H599.622V47.5227L591.849 63H589.634ZM602.833 63V49.9091H604.776V51.9545H604.947C605.219 51.2557 605.66 50.7131 606.268 50.3267C606.876 49.9347 607.606 49.7386 608.458 49.7386C609.322 49.7386 610.04 49.9347 610.614 50.3267C611.194 50.7131 611.646 51.2557 611.969 51.9545H612.106C612.441 51.2784 612.944 50.7415 613.614 50.3438C614.285 49.9403 615.089 49.7386 616.026 49.7386C617.197 49.7386 618.154 50.1051 618.898 50.8381C619.643 51.5653 620.015 52.6989 620.015 54.2386V63H618.004V54.2386C618.004 53.2727 617.739 52.5824 617.211 52.1676C616.683 51.7528 616.06 51.5455 615.344 51.5455C614.424 51.5455 613.711 51.8239 613.205 52.3807C612.7 52.9318 612.447 53.6307 612.447 54.4773V63H610.401V54.0341C610.401 53.2898 610.16 52.6903 609.677 52.2358C609.194 51.7756 608.572 51.5455 607.81 51.5455C607.288 51.5455 606.799 51.6847 606.344 51.9631C605.896 52.2415 605.532 52.6278 605.254 53.1222C604.981 53.6108 604.844 54.1761 604.844 54.8182V63H602.833ZM623.692 63V49.9091H625.704V63H623.692ZM624.715 47.7273C624.323 47.7273 623.985 47.5938 623.701 47.3267C623.423 47.0597 623.283 46.7386 623.283 46.3636C623.283 45.9886 623.423 45.6676 623.701 45.4006C623.985 45.1335 624.323 45 624.715 45C625.107 45 625.442 45.1335 625.721 45.4006C626.005 45.6676 626.147 45.9886 626.147 46.3636C626.147 46.7386 626.005 47.0597 625.721 47.3267C625.442 47.5938 625.107 47.7273 624.715 47.7273ZM631.399 55.125V63H629.388V49.9091H631.331V51.9545H631.501C631.808 51.2898 632.274 50.7557 632.899 50.3523C633.524 49.9432 634.331 49.7386 635.32 49.7386C636.206 49.7386 636.982 49.9205 637.646 50.2841C638.311 50.642 638.828 51.1875 639.197 51.9205C639.567 52.6477 639.751 53.5682 639.751 54.6818V63H637.74V54.8182C637.74 53.7898 637.473 52.9886 636.939 52.4148C636.405 51.8352 635.672 51.5455 634.74 51.5455C634.098 51.5455 633.524 51.6847 633.018 51.9631C632.518 52.2415 632.124 52.6477 631.834 53.1818C631.544 53.7159 631.399 54.3636 631.399 55.125Z" fill="black"/>
<path d="M220.977 56.0114C220.96 55.0682 221.114 54.3097 221.438 53.7358C221.761 53.1619 222.182 52.7443 222.699 52.483C223.222 52.2216 223.773 52.0909 224.352 52.0909C224.932 52.0909 225.46 52.2187 225.938 52.4744C226.42 52.7244 226.972 53.1193 227.591 53.6591C228.011 54.0227 228.347 54.2784 228.597 54.4261C228.852 54.5739 229.131 54.6477 229.432 54.6477C229.92 54.6477 230.307 54.4716 230.591 54.1193C230.875 53.7614 231.011 53.2443 231 52.5682H232.841C232.858 53.5114 232.705 54.2699 232.381 54.8438C232.063 55.4176 231.642 55.8352 231.119 56.0966C230.597 56.358 230.045 56.4886 229.466 56.4886C228.886 56.4886 228.358 56.3636 227.881 56.1136C227.403 55.858 226.852 55.4602 226.227 54.9205C225.812 54.5568 225.477 54.3011 225.222 54.1534C224.966 54.0057 224.688 53.9318 224.386 53.9318C223.926 53.9318 223.545 54.0938 223.244 54.4176C222.949 54.7358 222.807 55.267 222.818 56.0114H220.977ZM242.082 63.2386C241.082 63.2386 240.181 63.0398 239.38 62.642C238.579 62.2443 237.937 61.6989 237.454 61.0057C236.971 60.3125 236.707 59.5227 236.661 58.6364H238.707C238.786 59.4261 239.144 60.0795 239.781 60.5966C240.423 61.108 241.19 61.3636 242.082 61.3636C242.798 61.3636 243.434 61.196 243.991 60.8608C244.553 60.5256 244.994 60.0653 245.312 59.4801C245.636 58.8892 245.798 58.2216 245.798 57.4773C245.798 56.7159 245.63 56.0369 245.295 55.4403C244.965 54.8381 244.511 54.3636 243.931 54.017C243.352 53.6705 242.69 53.4943 241.945 53.4886C241.411 53.483 240.863 53.5653 240.3 53.7358C239.738 53.9006 239.275 54.1136 238.911 54.375L236.934 54.1364L237.991 45.5455H247.059V47.4205H239.763L239.15 52.5682H239.252C239.61 52.2841 240.059 52.0483 240.599 51.8608C241.138 51.6733 241.701 51.5795 242.286 51.5795C243.354 51.5795 244.306 51.8352 245.141 52.3466C245.982 52.8523 246.641 53.5455 247.119 54.4261C247.602 55.3068 247.843 56.3125 247.843 57.4432C247.843 58.5568 247.593 59.5511 247.093 60.4261C246.599 61.2955 245.917 61.983 245.048 62.4886C244.178 62.9886 243.19 63.2386 242.082 63.2386ZM251.263 63V49.9091H253.206V51.9545H253.376C253.649 51.2557 254.089 50.7131 254.697 50.3267C255.305 49.9347 256.036 49.7386 256.888 49.7386C257.751 49.7386 258.47 49.9347 259.044 50.3267C259.624 50.7131 260.075 51.2557 260.399 51.9545H260.536C260.871 51.2784 261.374 50.7415 262.044 50.3438C262.714 49.9403 263.518 49.7386 264.456 49.7386C265.626 49.7386 266.584 50.1051 267.328 50.8381C268.072 51.5653 268.445 52.6989 268.445 54.2386V63H266.433V54.2386C266.433 53.2727 266.169 52.5824 265.641 52.1676C265.112 51.7528 264.49 51.5455 263.774 51.5455C262.854 51.5455 262.141 51.8239 261.635 52.3807C261.129 52.9318 260.876 53.6307 260.876 54.4773V63H258.831V54.0341C258.831 53.2898 258.589 52.6903 258.107 52.2358C257.624 51.7756 257.001 51.5455 256.24 51.5455C255.717 51.5455 255.229 51.6847 254.774 51.9631C254.325 52.2415 253.962 52.6278 253.683 53.1222C253.411 53.6108 253.274 54.1761 253.274 54.8182V63H251.263ZM272.122 63V49.9091H274.134V63H272.122ZM273.145 47.7273C272.753 47.7273 272.415 47.5938 272.131 47.3267C271.852 47.0597 271.713 46.7386 271.713 46.3636C271.713 45.9886 271.852 45.6676 272.131 45.4006C272.415 45.1335 272.753 45 273.145 45C273.537 45 273.872 45.1335 274.151 45.4006C274.435 45.6676 274.577 45.9886 274.577 46.3636C274.577 46.7386 274.435 47.0597 274.151 47.3267C273.872 47.5938 273.537 47.7273 273.145 47.7273ZM279.829 55.125V63H277.817V49.9091H279.761V51.9545H279.931C280.238 51.2898 280.704 50.7557 281.329 50.3523C281.954 49.9432 282.761 49.7386 283.749 49.7386C284.636 49.7386 285.411 49.9205 286.076 50.2841C286.741 50.642 287.258 51.1875 287.627 51.9205C287.996 52.6477 288.181 53.5682 288.181 54.6818V63H286.17V54.8182C286.17 53.7898 285.903 52.9886 285.369 52.4148C284.835 51.8352 284.102 51.5455 283.17 51.5455C282.528 51.5455 281.954 51.6847 281.448 51.9631C280.948 52.2415 280.553 52.6477 280.263 53.1818C279.974 53.7159 279.829 54.3636 279.829 55.125Z" fill="black"/>
<path d="M18.9773 56.0114C18.9602 55.0682 19.1136 54.3097 19.4375 53.7358C19.7614 53.1619 20.1818 52.7443 20.6989 52.483C21.2216 52.2216 21.7727 52.0909 22.3523 52.0909C22.9318 52.0909 23.4602 52.2187 23.9375 52.4744C24.4205 52.7244 24.9716 53.1193 25.5909 53.6591C26.0114 54.0227 26.3466 54.2784 26.5966 54.4261C26.8523 54.5739 27.1307 54.6477 27.4318 54.6477C27.9205 54.6477 28.3068 54.4716 28.5909 54.1193C28.875 53.7614 29.0114 53.2443 29 52.5682H30.8409C30.858 53.5114 30.7045 54.2699 30.3807 54.8438C30.0625 55.4176 29.642 55.8352 29.1193 56.0966C28.5966 56.358 28.0455 56.4886 27.4659 56.4886C26.8864 56.4886 26.358 56.3636 25.8807 56.1136C25.4034 55.858 24.8523 55.4602 24.2273 54.9205C23.8125 54.5568 23.4773 54.3011 23.2216 54.1534C22.9659 54.0057 22.6875 53.9318 22.3864 53.9318C21.9261 53.9318 21.5455 54.0938 21.2443 54.4176C20.9489 54.7358 20.8068 55.267 20.8182 56.0114H18.9773ZM40.2436 63.2386C39.1186 63.2386 38.1158 63.0455 37.2351 62.6591C36.3601 62.2727 35.6641 61.7358 35.147 61.0483C34.6357 60.3551 34.3572 59.5511 34.3118 58.6364H36.4595C36.505 59.1989 36.6982 59.6847 37.0391 60.0938C37.38 60.4972 37.826 60.8097 38.3771 61.0312C38.9283 61.2528 39.5391 61.3636 40.2095 61.3636C40.9595 61.3636 41.6243 61.233 42.2038 60.9716C42.7834 60.7102 43.2379 60.3466 43.5675 59.8807C43.897 59.4148 44.0618 58.875 44.0618 58.2614C44.0618 57.6193 43.9027 57.054 43.5845 56.5653C43.2663 56.071 42.8004 55.6847 42.1868 55.4062C41.5732 55.1278 40.8232 54.9886 39.9368 54.9886H38.5391V53.1136H39.9368C40.63 53.1136 41.2379 52.9886 41.7607 52.7386C42.2891 52.4886 42.701 52.1364 42.9964 51.6818C43.2976 51.2273 43.4482 50.6932 43.4482 50.0795C43.4482 49.4886 43.3175 48.9744 43.0561 48.5369C42.7947 48.0994 42.4254 47.7585 41.9482 47.5142C41.4766 47.2699 40.9197 47.1477 40.2777 47.1477C39.6754 47.1477 39.1072 47.2585 38.5732 47.4801C38.0447 47.696 37.6129 48.0114 37.2777 48.4261C36.9425 48.8352 36.7607 49.3295 36.7322 49.9091H34.6868C34.7209 48.9943 34.9964 48.1932 35.5135 47.5057C36.0305 46.8125 36.7067 46.2727 37.5419 45.8864C38.3828 45.5 39.3061 45.3068 40.3118 45.3068C41.3913 45.3068 42.3175 45.5256 43.0902 45.9631C43.8629 46.3949 44.4567 46.9659 44.8714 47.6761C45.2862 48.3864 45.4936 49.1534 45.4936 49.9773C45.4936 50.9602 45.2351 51.7983 44.718 52.4915C44.2067 53.1847 43.5107 53.6648 42.63 53.9318V54.0682C43.7322 54.25 44.593 54.7187 45.2124 55.4744C45.8317 56.2244 46.1413 57.1534 46.1413 58.2614C46.1413 59.2102 45.8828 60.0625 45.3658 60.8182C44.8544 61.5682 44.1555 62.1591 43.2692 62.5909C42.3828 63.0227 41.3743 63.2386 40.2436 63.2386ZM49.6612 63V49.9091H51.6044V51.9545H51.7749C52.0476 51.2557 52.4879 50.7131 53.0959 50.3267C53.7038 49.9347 54.4339 49.7386 55.2862 49.7386C56.1499 49.7386 56.8686 49.9347 57.4425 50.3267C58.022 50.7131 58.4737 51.2557 58.7976 51.9545H58.9339C59.2692 51.2784 59.772 50.7415 60.4425 50.3438C61.1129 49.9403 61.9169 49.7386 62.8544 49.7386C64.0249 49.7386 64.9822 50.1051 65.7266 50.8381C66.4709 51.5653 66.843 52.6989 66.843 54.2386V63H64.8317V54.2386C64.8317 53.2727 64.5675 52.5824 64.0391 52.1676C63.5107 51.7528 62.8885 51.5455 62.1726 51.5455C61.2521 51.5455 60.5391 51.8239 60.0334 52.3807C59.5277 52.9318 59.2749 53.6307 59.2749 54.4773V63H57.2294V54.0341C57.2294 53.2898 56.9879 52.6903 56.505 52.2358C56.022 51.7756 55.3999 51.5455 54.6385 51.5455C54.1158 51.5455 53.6271 51.6847 53.1726 51.9631C52.7237 52.2415 52.3601 52.6278 52.0817 53.1222C51.8089 53.6108 51.6726 54.1761 51.6726 54.8182V63H49.6612ZM70.5206 63V49.9091H72.532V63H70.5206ZM71.5433 47.7273C71.1513 47.7273 70.8132 47.5938 70.5291 47.3267C70.2507 47.0597 70.1115 46.7386 70.1115 46.3636C70.1115 45.9886 70.2507 45.6676 70.5291 45.4006C70.8132 45.1335 71.1513 45 71.5433 45C71.9354 45 72.2706 45.1335 72.549 45.4006C72.8331 45.6676 72.9751 45.9886 72.9751 46.3636C72.9751 46.7386 72.8331 47.0597 72.549 47.3267C72.2706 47.5938 71.9354 47.7273 71.5433 47.7273ZM78.2273 55.125V63H76.2159V49.9091H78.1591V51.9545H78.3295C78.6364 51.2898 79.1023 50.7557 79.7273 50.3523C80.3523 49.9432 81.1591 49.7386 82.1477 49.7386C83.0341 49.7386 83.8097 49.9205 84.4744 50.2841C85.1392 50.642 85.6563 51.1875 86.0256 51.9205C86.3949 52.6477 86.5795 53.5682 86.5795 54.6818V63H84.5682V54.8182C84.5682 53.7898 84.3011 52.9886 83.767 52.4148C83.233 51.8352 82.5 51.5455 81.5682 51.5455C80.9261 51.5455 80.3523 51.6847 79.8466 51.9631C79.3466 52.2415 78.9517 52.6477 78.6619 53.1818C78.3722 53.7159 78.2273 54.3636 78.2273 55.125Z" fill="black"/>
<path d="M580.455 21.5455H582.773L584.716 24.1023L585.227 24.7841L588.125 28.6364H585.807L583.898 26.0795L583.42 25.4318L580.455 21.5455ZM588.841 18.2727C588.841 20.1136 588.509 21.7045 587.844 23.0455C587.179 24.3864 586.267 25.4205 585.108 26.1477C583.949 26.875 582.625 27.2386 581.136 27.2386C579.648 27.2386 578.324 26.875 577.165 26.1477C576.006 25.4205 575.094 24.3864 574.429 23.0455C573.764 21.7045 573.432 20.1136 573.432 18.2727C573.432 16.4318 573.764 14.8409 574.429 13.5C575.094 12.1591 576.006 11.125 577.165 10.3977C578.324 9.67045 579.648 9.30682 581.136 9.30682C582.625 9.30682 583.949 9.67045 585.108 10.3977C586.267 11.125 587.179 12.1591 587.844 13.5C588.509 14.8409 588.841 16.4318 588.841 18.2727ZM586.795 18.2727C586.795 16.7614 586.543 15.4858 586.037 14.446C585.537 13.4062 584.858 12.6193 584 12.0852C583.148 11.5511 582.193 11.2841 581.136 11.2841C580.08 11.2841 579.122 11.5511 578.264 12.0852C577.412 12.6193 576.733 13.4062 576.227 14.446C575.727 15.4858 575.477 16.7614 575.477 18.2727C575.477 19.7841 575.727 21.0597 576.227 22.0994C576.733 23.1392 577.412 23.9261 578.264 24.4602C579.122 24.9943 580.08 25.2614 581.136 25.2614C582.193 25.2614 583.148 24.9943 584 24.4602C584.858 23.9261 585.537 23.1392 586.037 22.0994C586.543 21.0597 586.795 19.7841 586.795 18.2727ZM600.372 21.6477V13.9091H602.384V27H600.372V24.7841H600.236C599.929 25.4489 599.452 26.0142 598.804 26.4801C598.156 26.9403 597.338 27.1705 596.349 27.1705C595.531 27.1705 594.804 26.9915 594.168 26.6335C593.531 26.2699 593.031 25.7244 592.668 24.9972C592.304 24.2642 592.122 23.3409 592.122 22.2273V13.9091H594.134V22.0909C594.134 23.0455 594.401 23.8068 594.935 24.375C595.474 24.9432 596.162 25.2273 596.997 25.2273C597.497 25.2273 598.006 25.0994 598.523 24.8438C599.045 24.5881 599.483 24.196 599.835 23.6676C600.193 23.1392 600.372 22.4659 600.372 21.6477ZM611.556 27.2727C610.295 27.2727 609.207 26.9943 608.292 26.4375C607.383 25.875 606.681 25.0909 606.187 24.0852C605.698 23.0739 605.454 21.8977 605.454 20.5568C605.454 19.2159 605.698 18.0341 606.187 17.0114C606.681 15.983 607.369 15.1818 608.249 14.608C609.136 14.0284 610.17 13.7386 611.352 13.7386C612.033 13.7386 612.707 13.8523 613.371 14.0795C614.036 14.3068 614.641 14.6761 615.187 15.1875C615.732 15.6932 616.167 16.3636 616.491 17.1989C616.815 18.0341 616.977 19.0625 616.977 20.2841V21.1364H606.886V19.3977H614.931C614.931 18.6591 614.783 18 614.488 17.4205C614.198 16.8409 613.783 16.3835 613.244 16.0483C612.71 15.7131 612.079 15.5455 611.352 15.5455C610.55 15.5455 609.857 15.7443 609.272 16.142C608.692 16.5341 608.246 17.0455 607.934 17.6761C607.621 18.3068 607.465 18.983 607.465 19.7045V20.8636C607.465 21.8523 607.636 22.6903 607.977 23.3778C608.323 24.0597 608.803 24.5795 609.417 24.9375C610.031 25.2898 610.744 25.4659 611.556 25.4659C612.085 25.4659 612.562 25.392 612.988 25.2443C613.42 25.0909 613.792 24.8636 614.104 24.5625C614.417 24.2557 614.658 23.875 614.829 23.4205L616.772 23.9659C616.567 24.625 616.224 25.2045 615.741 25.7045C615.258 26.1989 614.661 26.5852 613.951 26.8636C613.241 27.1364 612.442 27.2727 611.556 27.2727ZM629.309 16.8409L627.502 17.3523C627.388 17.0511 627.221 16.7585 626.999 16.4744C626.783 16.1847 626.488 15.946 626.113 15.7585C625.738 15.571 625.258 15.4773 624.673 15.4773C623.871 15.4773 623.204 15.6619 622.67 16.0312C622.141 16.3949 621.877 16.858 621.877 17.4205C621.877 17.9205 622.059 18.3153 622.423 18.6051C622.786 18.8949 623.354 19.1364 624.127 19.3295L626.07 19.8068C627.241 20.0909 628.113 20.5256 628.687 21.1108C629.261 21.6903 629.548 22.4375 629.548 23.3523C629.548 24.1023 629.332 24.7727 628.9 25.3636C628.474 25.9545 627.877 26.4205 627.11 26.7614C626.343 27.1023 625.451 27.2727 624.434 27.2727C623.099 27.2727 621.994 26.983 621.119 26.4034C620.244 25.8239 619.69 24.9773 619.457 23.8636L621.366 23.3864C621.548 24.0909 621.891 24.6193 622.397 24.9716C622.908 25.3239 623.576 25.5 624.4 25.5C625.337 25.5 626.082 25.3011 626.633 24.9034C627.19 24.5 627.468 24.017 627.468 23.4545C627.468 23 627.309 22.6193 626.991 22.3125C626.673 22 626.184 21.767 625.525 21.6136L623.343 21.1023C622.144 20.8182 621.263 20.3778 620.701 19.7812C620.144 19.179 619.866 18.4261 619.866 17.5227C619.866 16.7841 620.073 16.1307 620.488 15.5625C620.908 14.9943 621.479 14.5483 622.201 14.2244C622.928 13.9006 623.752 13.7386 624.673 13.7386C625.968 13.7386 626.985 14.0227 627.724 14.5909C628.468 15.1591 628.996 15.9091 629.309 16.8409ZM638.268 13.9091V15.6136H631.484V13.9091H638.268ZM633.462 10.7727H635.473V23.25C635.473 23.8182 635.555 24.2443 635.72 24.5284C635.891 24.8068 636.107 24.9943 636.368 25.0909C636.635 25.1818 636.916 25.2273 637.212 25.2273C637.433 25.2273 637.615 25.2159 637.757 25.1932C637.899 25.1648 638.013 25.142 638.098 25.125L638.507 26.9318C638.371 26.983 638.18 27.0341 637.936 27.0852C637.692 27.142 637.382 27.1705 637.007 27.1705C636.439 27.1705 635.882 27.0483 635.337 26.804C634.797 26.5597 634.348 26.1875 633.99 25.6875C633.638 25.1875 633.462 24.5568 633.462 23.7955V10.7727ZM641.294 27V13.9091H643.305V27H641.294ZM642.317 11.7273C641.925 11.7273 641.587 11.5938 641.303 11.3267C641.024 11.0597 640.885 10.7386 640.885 10.3636C640.885 9.98864 641.024 9.66761 641.303 9.40057C641.587 9.13352 641.925 9 642.317 9C642.709 9 643.044 9.13352 643.322 9.40057C643.607 9.66761 643.749 9.98864 643.749 10.3636C643.749 10.7386 643.607 11.0597 643.322 11.3267C643.044 11.5938 642.709 11.7273 642.317 11.7273ZM652.308 27.2727C651.126 27.2727 650.089 26.9915 649.197 26.429C648.31 25.8665 647.617 25.0795 647.117 24.0682C646.623 23.0568 646.376 21.875 646.376 20.5227C646.376 19.1591 646.623 17.9687 647.117 16.9517C647.617 15.9347 648.31 15.1449 649.197 14.5824C650.089 14.0199 651.126 13.7386 652.308 13.7386C653.489 13.7386 654.523 14.0199 655.41 14.5824C656.302 15.1449 656.995 15.9347 657.489 16.9517C657.989 17.9687 658.239 19.1591 658.239 20.5227C658.239 21.875 657.989 23.0568 657.489 24.0682C656.995 25.0795 656.302 25.8665 655.41 26.429C654.523 26.9915 653.489 27.2727 652.308 27.2727ZM652.308 25.4659C653.205 25.4659 653.944 25.2358 654.523 24.7756C655.103 24.3153 655.532 23.7102 655.81 22.9602C656.089 22.2102 656.228 21.3977 656.228 20.5227C656.228 19.6477 656.089 18.8324 655.81 18.0767C655.532 17.321 655.103 16.7102 654.523 16.2443C653.944 15.7784 653.205 15.5455 652.308 15.5455C651.41 15.5455 650.671 15.7784 650.092 16.2443C649.512 16.7102 649.083 17.321 648.805 18.0767C648.526 18.8324 648.387 19.6477 648.387 20.5227C648.387 21.3977 648.526 22.2102 648.805 22.9602C649.083 23.7102 649.512 24.3153 650.092 24.7756C650.671 25.2358 651.41 25.4659 652.308 25.4659ZM663.321 19.125V27H661.31V13.9091H663.253V15.9545H663.423C663.73 15.2898 664.196 14.7557 664.821 14.3523C665.446 13.9432 666.253 13.7386 667.241 13.7386C668.128 13.7386 668.903 13.9205 669.568 14.2841C670.233 14.642 670.75 15.1875 671.119 15.9205C671.489 16.6477 671.673 17.5682 671.673 18.6818V27H669.662V18.8182C669.662 17.7898 669.395 16.9886 668.861 16.4148C668.327 15.8352 667.594 15.5455 666.662 15.5455C666.02 15.5455 665.446 15.6847 664.94 15.9631C664.44 16.2415 664.045 16.6477 663.756 17.1818C663.466 17.7159 663.321 18.3636 663.321 19.125ZM677.36 19.125V27H675.349V13.9091H677.292V15.9545H677.462C677.769 15.2898 678.235 14.7557 678.86 14.3523C679.485 13.9432 680.292 13.7386 681.281 13.7386C682.167 13.7386 682.942 13.9205 683.607 14.2841C684.272 14.642 684.789 15.1875 685.158 15.9205C685.528 16.6477 685.712 17.5682 685.712 18.6818V27H683.701V18.8182C683.701 17.7898 683.434 16.9886 682.9 16.4148C682.366 15.8352 681.633 15.5455 680.701 15.5455C680.059 15.5455 679.485 15.6847 678.979 15.9631C678.479 16.2415 678.085 16.6477 677.795 17.1818C677.505 17.7159 677.36 18.3636 677.36 19.125ZM693.24 27.3068C692.411 27.3068 691.658 27.1506 690.982 26.8381C690.305 26.5199 689.768 26.0625 689.371 25.4659C688.973 24.8636 688.774 24.1364 688.774 23.2841C688.774 22.5341 688.922 21.9261 689.217 21.4602C689.513 20.9886 689.908 20.6193 690.402 20.3523C690.896 20.0852 691.442 19.8864 692.038 19.7557C692.641 19.6193 693.246 19.5114 693.854 19.4318C694.649 19.3295 695.294 19.2528 695.788 19.2017C696.288 19.1449 696.652 19.0511 696.879 18.9205C697.112 18.7898 697.229 18.5625 697.229 18.2386V18.1705C697.229 17.3295 696.999 16.6761 696.538 16.2102C696.084 15.7443 695.393 15.5114 694.467 15.5114C693.507 15.5114 692.754 15.7216 692.209 16.142C691.663 16.5625 691.28 17.0114 691.058 17.4886L689.149 16.8068C689.49 16.0114 689.945 15.392 690.513 14.9489C691.087 14.5 691.712 14.1875 692.388 14.0114C693.07 13.8295 693.74 13.7386 694.399 13.7386C694.82 13.7386 695.303 13.7898 695.848 13.892C696.399 13.9886 696.93 14.1903 697.442 14.4972C697.959 14.804 698.388 15.267 698.729 15.8864C699.07 16.5057 699.24 17.3352 699.24 18.375V27H697.229V25.2273H697.126C696.99 25.5114 696.763 25.8153 696.445 26.1392C696.126 26.4631 695.703 26.7386 695.175 26.9659C694.646 27.1932 694.001 27.3068 693.24 27.3068ZM693.547 25.5C694.342 25.5 695.013 25.3438 695.558 25.0312C696.109 24.7188 696.524 24.3153 696.803 23.821C697.087 23.3267 697.229 22.8068 697.229 22.2614V20.4205C697.143 20.5227 696.956 20.6165 696.666 20.7017C696.382 20.7812 696.053 20.8523 695.678 20.9148C695.308 20.9716 694.947 21.0227 694.595 21.0682C694.249 21.108 693.967 21.142 693.751 21.1705C693.229 21.2386 692.74 21.3494 692.286 21.5028C691.837 21.6506 691.473 21.875 691.195 22.1761C690.922 22.4716 690.786 22.875 690.786 23.3864C690.786 24.0852 691.044 24.6136 691.561 24.9716C692.084 25.3239 692.746 25.5 693.547 25.5ZM702.911 27V13.9091H704.923V27H702.911ZM703.934 11.7273C703.542 11.7273 703.204 11.5938 702.92 11.3267C702.641 11.0597 702.502 10.7386 702.502 10.3636C702.502 9.98864 702.641 9.66761 702.92 9.40057C703.204 9.13352 703.542 9 703.934 9C704.326 9 704.661 9.13352 704.94 9.40057C705.224 9.66761 705.366 9.98864 705.366 10.3636C705.366 10.7386 705.224 11.0597 704.94 11.3267C704.661 11.5938 704.326 11.7273 703.934 11.7273ZM708.607 27V13.9091H710.55V15.8864H710.686C710.925 15.2386 711.357 14.7131 711.982 14.3097C712.607 13.9062 713.311 13.7045 714.095 13.7045C714.243 13.7045 714.428 13.7074 714.649 13.7131C714.871 13.7187 715.038 13.7273 715.152 13.7386V15.7841C715.084 15.767 714.928 15.7415 714.683 15.7074C714.445 15.6676 714.192 15.6477 713.925 15.6477C713.288 15.6477 712.72 15.7812 712.22 16.0483C711.726 16.3097 711.334 16.6733 711.044 17.1392C710.76 17.5994 710.618 18.125 710.618 18.7159V27H708.607ZM722.626 27.2727C721.365 27.2727 720.277 26.9943 719.362 26.4375C718.453 25.875 717.751 25.0909 717.257 24.0852C716.768 23.0739 716.524 21.8977 716.524 20.5568C716.524 19.2159 716.768 18.0341 717.257 17.0114C717.751 15.983 718.439 15.1818 719.32 14.608C720.206 14.0284 721.24 13.7386 722.422 13.7386C723.104 13.7386 723.777 13.8523 724.442 14.0795C725.107 14.3068 725.712 14.6761 726.257 15.1875C726.803 15.6932 727.237 16.3636 727.561 17.1989C727.885 18.0341 728.047 19.0625 728.047 20.2841V21.1364H717.956V19.3977H726.001C726.001 18.6591 725.854 18 725.558 17.4205C725.268 16.8409 724.854 16.3835 724.314 16.0483C723.78 15.7131 723.149 15.5455 722.422 15.5455C721.621 15.5455 720.928 15.7443 720.342 16.142C719.763 16.5341 719.317 17.0455 719.004 17.6761C718.692 18.3068 718.536 18.983 718.536 19.7045V20.8636C718.536 21.8523 718.706 22.6903 719.047 23.3778C719.393 24.0597 719.874 24.5795 720.487 24.9375C721.101 25.2898 721.814 25.4659 722.626 25.4659C723.155 25.4659 723.632 25.392 724.058 25.2443C724.49 25.0909 724.862 24.8636 725.175 24.5625C725.487 24.2557 725.729 23.875 725.899 23.4205L727.842 23.9659C727.638 24.625 727.294 25.2045 726.811 25.7045C726.328 26.1989 725.732 26.5852 725.021 26.8636C724.311 27.1364 723.513 27.2727 722.626 27.2727Z" fill="black"/>
<path d="M223.227 9.54545V27H221.114V9.54545H223.227ZM229.204 19.125V27H227.192V13.9091H229.136V15.9545H229.306C229.613 15.2898 230.079 14.7557 230.704 14.3523C231.329 13.9432 232.136 13.7386 233.124 13.7386C234.011 13.7386 234.786 13.9205 235.451 14.2841C236.116 14.642 236.633 15.1875 237.002 15.9205C237.371 16.6477 237.556 17.5682 237.556 18.6818V27H235.545V18.8182C235.545 17.7898 235.278 16.9886 234.744 16.4148C234.21 15.8352 233.477 15.5455 232.545 15.5455C231.903 15.5455 231.329 15.6847 230.823 15.9631C230.323 16.2415 229.928 16.6477 229.638 17.1818C229.349 17.7159 229.204 18.3636 229.204 19.125ZM253.675 13.9091V15.6136H246.891V13.9091H253.675ZM248.868 10.7727H250.879V23.25C250.879 23.8182 250.962 24.2443 251.126 24.5284C251.297 24.8068 251.513 24.9943 251.774 25.0909C252.041 25.1818 252.322 25.2273 252.618 25.2273C252.839 25.2273 253.021 25.2159 253.163 25.1932C253.305 25.1648 253.419 25.142 253.504 25.125L253.913 26.9318C253.777 26.983 253.587 27.0341 253.342 27.0852C253.098 27.142 252.788 27.1705 252.413 27.1705C251.845 27.1705 251.288 27.0483 250.743 26.804C250.203 26.5597 249.754 26.1875 249.396 25.6875C249.044 25.1875 248.868 24.5568 248.868 23.7955V10.7727ZM258.993 19.125V27H256.982V9.54545H258.993V15.9545H259.163C259.47 15.2784 259.93 14.7415 260.544 14.3438C261.163 13.9403 261.987 13.7386 263.016 13.7386C263.908 13.7386 264.689 13.9176 265.359 14.2756C266.03 14.6278 266.55 15.1705 266.919 15.9034C267.294 16.6307 267.482 17.5568 267.482 18.6818V27H265.47V18.8182C265.47 17.7784 265.2 16.9744 264.661 16.4062C264.126 15.8324 263.385 15.5455 262.436 15.5455C261.777 15.5455 261.186 15.6847 260.663 15.9631C260.146 16.2415 259.737 16.6477 259.436 17.1818C259.141 17.7159 258.993 18.3636 258.993 19.125ZM276.65 27.2727C275.388 27.2727 274.3 26.9943 273.386 26.4375C272.477 25.875 271.775 25.0909 271.281 24.0852C270.792 23.0739 270.548 21.8977 270.548 20.5568C270.548 19.2159 270.792 18.0341 271.281 17.0114C271.775 15.983 272.462 15.1818 273.343 14.608C274.229 14.0284 275.263 13.7386 276.445 13.7386C277.127 13.7386 277.8 13.8523 278.465 14.0795C279.13 14.3068 279.735 14.6761 280.281 15.1875C280.826 15.6932 281.261 16.3636 281.585 17.1989C281.908 18.0341 282.07 19.0625 282.07 20.2841V21.1364H271.979V19.3977H280.025C280.025 18.6591 279.877 18 279.582 17.4205C279.292 16.8409 278.877 16.3835 278.337 16.0483C277.803 15.7131 277.173 15.5455 276.445 15.5455C275.644 15.5455 274.951 15.7443 274.366 16.142C273.786 16.5341 273.34 17.0455 273.028 17.6761C272.715 18.3068 272.559 18.983 272.559 19.7045V20.8636C272.559 21.8523 272.729 22.6903 273.07 23.3778C273.417 24.0597 273.897 24.5795 274.511 24.9375C275.124 25.2898 275.837 25.4659 276.65 25.4659C277.178 25.4659 277.656 25.392 278.082 25.2443C278.513 25.0909 278.886 24.8636 279.198 24.5625C279.511 24.2557 279.752 23.875 279.923 23.4205L281.866 23.9659C281.661 24.625 281.317 25.2045 280.835 25.7045C280.352 26.1989 279.755 26.5852 279.045 26.8636C278.335 27.1364 277.536 27.2727 276.65 27.2727ZM301.698 13.9091C301.596 13.0455 301.181 12.375 300.454 11.8977C299.727 11.4205 298.835 11.1818 297.778 11.1818C297.005 11.1818 296.329 11.3068 295.749 11.5568C295.175 11.8068 294.727 12.1506 294.403 12.5881C294.085 13.0256 293.925 13.5227 293.925 14.0795C293.925 14.5455 294.036 14.946 294.258 15.2812C294.485 15.6108 294.775 15.8864 295.127 16.108C295.479 16.3239 295.849 16.5028 296.235 16.6449C296.621 16.7812 296.977 16.892 297.3 16.9773L299.073 17.4545C299.528 17.5739 300.033 17.7386 300.59 17.9489C301.153 18.1591 301.69 18.446 302.201 18.8097C302.718 19.1676 303.144 19.6278 303.479 20.1903C303.815 20.7528 303.982 21.4432 303.982 22.2614C303.982 23.2045 303.735 24.0568 303.241 24.8182C302.752 25.5795 302.036 26.1847 301.093 26.6335C300.156 27.0824 299.016 27.3068 297.675 27.3068C296.425 27.3068 295.343 27.1051 294.428 26.7017C293.519 26.2983 292.803 25.7358 292.281 25.0142C291.763 24.2926 291.471 23.4545 291.403 22.5H293.585C293.641 23.1591 293.863 23.7045 294.249 24.1364C294.641 24.5625 295.136 24.8807 295.732 25.0909C296.335 25.2955 296.982 25.3977 297.675 25.3977C298.482 25.3977 299.207 25.267 299.849 25.0057C300.491 24.7386 300.999 24.3693 301.374 23.8977C301.749 23.4205 301.937 22.8636 301.937 22.2273C301.937 21.6477 301.775 21.1761 301.451 20.8125C301.127 20.4489 300.701 20.1534 300.173 19.9261C299.644 19.6989 299.073 19.5 298.46 19.3295L296.312 18.7159C294.948 18.3239 293.869 17.7642 293.073 17.0369C292.278 16.3097 291.88 15.358 291.88 14.1818C291.88 13.2045 292.144 12.3523 292.673 11.625C293.207 10.892 293.923 10.3239 294.82 9.92045C295.724 9.51136 296.732 9.30682 297.846 9.30682C298.971 9.30682 299.971 9.50852 300.846 9.91193C301.721 10.3097 302.414 10.8551 302.925 11.5483C303.442 12.2415 303.715 13.0284 303.744 13.9091H301.698ZM312.878 13.9091V15.6136H306.094V13.9091H312.878ZM308.071 10.7727H310.082V23.25C310.082 23.8182 310.165 24.2443 310.33 24.5284C310.5 24.8068 310.716 24.9943 310.977 25.0909C311.244 25.1818 311.526 25.2273 311.821 25.2273C312.043 25.2273 312.224 25.2159 312.366 25.1932C312.509 25.1648 312.622 25.142 312.707 25.125L313.116 26.9318C312.98 26.983 312.79 27.0341 312.545 27.0852C312.301 27.142 311.991 27.1705 311.616 27.1705C311.048 27.1705 310.491 27.0483 309.946 26.804C309.406 26.5597 308.957 26.1875 308.599 25.6875C308.247 25.1875 308.071 24.5568 308.071 23.7955V10.7727ZM315.903 27V13.9091H317.847V15.8864H317.983C318.222 15.2386 318.653 14.7131 319.278 14.3097C319.903 13.9062 320.608 13.7045 321.392 13.7045C321.54 13.7045 321.724 13.7074 321.946 13.7131C322.168 13.7187 322.335 13.7273 322.449 13.7386V15.7841C322.381 15.767 322.224 15.7415 321.98 15.7074C321.741 15.6676 321.489 15.6477 321.222 15.6477C320.585 15.6477 320.017 15.7812 319.517 16.0483C319.023 16.3097 318.631 16.6733 318.341 17.1392C318.057 17.5994 317.915 18.125 317.915 18.7159V27H315.903ZM329.923 27.2727C328.662 27.2727 327.574 26.9943 326.659 26.4375C325.75 25.875 325.048 25.0909 324.554 24.0852C324.065 23.0739 323.821 21.8977 323.821 20.5568C323.821 19.2159 324.065 18.0341 324.554 17.0114C325.048 15.983 325.736 15.1818 326.616 14.608C327.503 14.0284 328.537 13.7386 329.719 13.7386C330.401 13.7386 331.074 13.8523 331.739 14.0795C332.403 14.3068 333.009 14.6761 333.554 15.1875C334.099 15.6932 334.534 16.3636 334.858 17.1989C335.182 18.0341 335.344 19.0625 335.344 20.2841V21.1364H325.253V19.3977H333.298C333.298 18.6591 333.151 18 332.855 17.4205C332.565 16.8409 332.151 16.3835 331.611 16.0483C331.077 15.7131 330.446 15.5455 329.719 15.5455C328.918 15.5455 328.224 15.7443 327.639 16.142C327.06 16.5341 326.614 17.0455 326.301 17.6761C325.989 18.3068 325.832 18.983 325.832 19.7045V20.8636C325.832 21.8523 326.003 22.6903 326.344 23.3778C326.69 24.0597 327.17 24.5795 327.784 24.9375C328.398 25.2898 329.111 25.4659 329.923 25.4659C330.452 25.4659 330.929 25.392 331.355 25.2443C331.787 25.0909 332.159 24.8636 332.472 24.5625C332.784 24.2557 333.026 23.875 333.196 23.4205L335.139 23.9659C334.935 24.625 334.591 25.2045 334.108 25.7045C333.625 26.1989 333.028 26.5852 332.318 26.8636C331.608 27.1364 330.81 27.2727 329.923 27.2727ZM343.892 27.2727C342.631 27.2727 341.543 26.9943 340.628 26.4375C339.719 25.875 339.017 25.0909 338.523 24.0852C338.034 23.0739 337.79 21.8977 337.79 20.5568C337.79 19.2159 338.034 18.0341 338.523 17.0114C339.017 15.983 339.705 15.1818 340.585 14.608C341.472 14.0284 342.506 13.7386 343.688 13.7386C344.369 13.7386 345.043 13.8523 345.707 14.0795C346.372 14.3068 346.977 14.6761 347.523 15.1875C348.068 15.6932 348.503 16.3636 348.827 17.1989C349.151 18.0341 349.312 19.0625 349.312 20.2841V21.1364H339.222V19.3977H347.267C347.267 18.6591 347.119 18 346.824 17.4205C346.534 16.8409 346.119 16.3835 345.58 16.0483C345.045 15.7131 344.415 15.5455 343.688 15.5455C342.886 15.5455 342.193 15.7443 341.608 16.142C341.028 16.5341 340.582 17.0455 340.27 17.6761C339.957 18.3068 339.801 18.983 339.801 19.7045V20.8636C339.801 21.8523 339.972 22.6903 340.312 23.3778C340.659 24.0597 341.139 24.5795 341.753 24.9375C342.366 25.2898 343.08 25.4659 343.892 25.4659C344.42 25.4659 344.898 25.392 345.324 25.2443C345.756 25.0909 346.128 24.8636 346.44 24.5625C346.753 24.2557 346.994 23.875 347.165 23.4205L349.108 23.9659C348.903 24.625 348.56 25.2045 348.077 25.7045C347.594 26.1989 346.997 26.5852 346.287 26.8636C345.577 27.1364 344.778 27.2727 343.892 27.2727ZM358.065 13.9091V15.6136H351.281V13.9091H358.065ZM353.259 10.7727H355.27V23.25C355.27 23.8182 355.352 24.2443 355.517 24.5284C355.688 24.8068 355.903 24.9943 356.165 25.0909C356.432 25.1818 356.713 25.2273 357.009 25.2273C357.23 25.2273 357.412 25.2159 357.554 25.1932C357.696 25.1648 357.81 25.142 357.895 25.125L358.304 26.9318C358.168 26.983 357.977 27.0341 357.733 27.0852C357.489 27.142 357.179 27.1705 356.804 27.1705C356.236 27.1705 355.679 27.0483 355.134 26.804C354.594 26.5597 354.145 26.1875 353.787 25.6875C353.435 25.1875 353.259 24.5568 353.259 23.7955V10.7727ZM368.83 9.54545L374.011 24.2386H374.216L379.398 9.54545H381.614L375.205 27H373.023L366.614 9.54545H368.83ZM384.332 27V9.54545H394.866V11.4205H386.446V17.3182H394.321V19.1932H386.446V25.125H395.003V27H384.332Z" fill="black"/>
<path d="M134.05 248.43C134.05 251.981 131.171 254.86 127.62 254.86C124.069 254.86 121.19 251.981 121.19 248.43C121.19 244.879 124.069 242 127.62 242C131.171 242 134.05 244.879 134.05 248.43Z" fill="#999999"/>
<path d="M135.786 259.747C134.693 257.689 132.571 256.403 130.192 256.403H124.919C122.604 256.403 120.482 257.689 119.325 259.747L113.346 271C112.574 272.414 113.153 274.151 114.503 274.858C114.953 275.115 115.403 275.18 115.853 275.18C116.882 275.18 117.846 274.601 118.361 273.701L121.898 267.014L119.132 296.335C118.94 298.135 120.29 299.807 122.155 300H122.476C124.148 300 125.627 298.714 125.755 296.978L127.556 278.009L129.421 296.978C129.614 298.714 131.028 300 132.7 300H133.022C134.822 299.807 136.172 298.2 136.044 296.335L133.214 267.014L136.751 273.701C137.523 275.115 139.195 275.63 140.609 274.858C142.024 274.086 142.538 272.414 141.767 271L135.786 259.747Z" fill="#999999"/>
<path d="M91 225H267.151V173M425.787 173V225H674" stroke="black" stroke-width="2"/>
<rect x="91" y="317" width="580" height="105" fill="#D9D9D9"/>
<rect x="277" y="173" width="55" height="127" fill="#D9D9D9"/>
<rect x="556" y="329" width="90" height="15" fill="white"/>
<path d="M283.114 242V224.545H289.216C290.432 224.545 291.435 224.756 292.224 225.176C293.014 225.591 293.602 226.151 293.989 226.855C294.375 227.554 294.568 228.33 294.568 229.182C294.568 229.932 294.435 230.551 294.168 231.04C293.906 231.528 293.56 231.915 293.128 232.199C292.702 232.483 292.239 232.693 291.739 232.83V233C292.273 233.034 292.81 233.222 293.349 233.562C293.889 233.903 294.341 234.392 294.705 235.028C295.068 235.665 295.25 236.443 295.25 237.364C295.25 238.239 295.051 239.026 294.653 239.724C294.256 240.423 293.628 240.977 292.77 241.386C291.912 241.795 290.795 242 289.42 242H283.114ZM285.227 240.125H289.42C290.801 240.125 291.781 239.858 292.361 239.324C292.946 238.784 293.239 238.131 293.239 237.364C293.239 236.773 293.088 236.227 292.787 235.727C292.486 235.222 292.057 234.818 291.5 234.517C290.943 234.21 290.284 234.057 289.523 234.057H285.227V240.125ZM285.227 232.216H289.148C289.784 232.216 290.358 232.091 290.869 231.841C291.386 231.591 291.795 231.239 292.097 230.784C292.403 230.33 292.557 229.795 292.557 229.182C292.557 228.415 292.29 227.764 291.756 227.23C291.222 226.69 290.375 226.42 289.216 226.42H285.227V232.216ZM306.7 236.648V228.909H308.712V242H306.7V239.784H306.564C306.257 240.449 305.78 241.014 305.132 241.48C304.484 241.94 303.666 242.17 302.678 242.17C301.859 242.17 301.132 241.991 300.496 241.634C299.859 241.27 299.359 240.724 298.996 239.997C298.632 239.264 298.45 238.341 298.45 237.227V228.909H300.462V237.091C300.462 238.045 300.729 238.807 301.263 239.375C301.803 239.943 302.49 240.227 303.325 240.227C303.825 240.227 304.334 240.099 304.851 239.844C305.374 239.588 305.811 239.196 306.163 238.668C306.521 238.139 306.7 237.466 306.7 236.648ZM321.668 231.841L319.862 232.352C319.748 232.051 319.58 231.759 319.359 231.474C319.143 231.185 318.847 230.946 318.472 230.759C318.097 230.571 317.617 230.477 317.032 230.477C316.231 230.477 315.563 230.662 315.029 231.031C314.501 231.395 314.237 231.858 314.237 232.42C314.237 232.92 314.418 233.315 314.782 233.605C315.146 233.895 315.714 234.136 316.487 234.33L318.43 234.807C319.6 235.091 320.472 235.526 321.046 236.111C321.62 236.69 321.907 237.437 321.907 238.352C321.907 239.102 321.691 239.773 321.259 240.364C320.833 240.955 320.237 241.42 319.469 241.761C318.702 242.102 317.81 242.273 316.793 242.273C315.458 242.273 314.353 241.983 313.478 241.403C312.603 240.824 312.049 239.977 311.816 238.864L313.725 238.386C313.907 239.091 314.251 239.619 314.756 239.972C315.268 240.324 315.935 240.5 316.759 240.5C317.697 240.5 318.441 240.301 318.992 239.903C319.549 239.5 319.827 239.017 319.827 238.455C319.827 238 319.668 237.619 319.35 237.312C319.032 237 318.543 236.767 317.884 236.614L315.702 236.102C314.504 235.818 313.623 235.378 313.06 234.781C312.504 234.179 312.225 233.426 312.225 232.523C312.225 231.784 312.433 231.131 312.847 230.562C313.268 229.994 313.839 229.548 314.56 229.224C315.288 228.901 316.112 228.739 317.032 228.739C318.327 228.739 319.344 229.023 320.083 229.591C320.827 230.159 321.356 230.909 321.668 231.841Z" fill="black"/>
<rect x="556" y="352" width="90" height="15" fill="white"/>
<rect x="556" y="374" width="90" height="15" fill="white"/>
<rect x="556" y="396" width="90" height="15" fill="white"/>
<path d="M346.293 284.707C346.683 285.098 347.317 285.098 347.707 284.707L354.071 278.343C354.462 277.953 354.462 277.319 354.071 276.929C353.681 276.538 353.047 276.538 352.657 276.929L347 282.586L341.343 276.929C340.953 276.538 340.319 276.538 339.929 276.929C339.538 277.319 339.538 277.953 339.929 278.343L346.293 284.707ZM346 154V284H348V154H346Z" fill="black"/>
<path d="M241.5 274H242.5V273H241.5V274ZM241.5 337H240.5V338H241.5V337ZM403 337V338H404V337H403ZM403 274V273H402V274H403ZM597 274H598V273H597V274ZM597 466.5H596V467.5H597V466.5ZM876.207 467.207C876.598 466.817 876.598 466.183 876.207 465.793L869.843 459.429C869.453 459.038 868.819 459.038 868.429 459.429C868.038 459.819 868.038 460.453 868.429 460.843L874.086 466.5L868.429 472.157C868.038 472.547 868.038 473.181 868.429 473.571C868.819 473.962 869.453 473.962 869.843 473.571L876.207 467.207ZM172 275H176.344V273H172V275ZM185.031 275H193.719V273H185.031V275ZM202.406 275H211.094V273H202.406V275ZM219.781 275H228.469V273H219.781V275ZM237.156 275H241.5V273H237.156V275ZM240.5 274V277.938H242.5V274H240.5ZM240.5 285.812V293.688H242.5V285.812H240.5ZM240.5 301.562V309.438H242.5V301.562H240.5ZM240.5 317.312V325.188H242.5V317.312H240.5ZM240.5 333.062V337H242.5V333.062H240.5ZM241.5 338H245.537V336H241.5V338ZM253.613 338H261.688V336H253.613V338ZM269.763 338H277.838V336H269.763V338ZM285.912 338H293.988V336H285.912V338ZM302.062 338H310.138V336H302.062V338ZM318.213 338H326.287V336H318.213V338ZM334.363 338H342.437V336H334.363V338ZM350.512 338H358.587V336H350.512V338ZM366.662 338H374.737V336H366.662V338ZM382.812 338H390.887V336H382.812V338ZM398.962 338H403V336H398.962V338ZM404 337V333.062H402V337H404ZM404 325.188V317.312H402V325.188H404ZM404 309.438V301.562H402V309.438H404ZM404 293.688V285.812H402V293.688H404ZM404 277.938V274H402V277.938H404ZM403 275H407.042V273H403V275ZM415.125 275H423.208V273H415.125V275ZM431.292 275H439.375V273H431.292V275ZM447.458 275H455.542V273H447.458V275ZM463.625 275H471.708V273H463.625V275ZM479.792 275H487.875V273H479.792V275ZM495.958 275H504.042V273H495.958V275ZM512.125 275H520.208V273H512.125V275ZM528.292 275H536.375V273H528.292V275ZM544.458 275H552.542V273H544.458V275ZM560.625 275H568.708V273H560.625V275ZM576.792 275H584.875V273H576.792V275ZM592.958 275H597V273H592.958V275ZM596 274V278.01H598V274H596ZM596 286.031V294.052H598V286.031H596ZM596 302.073V310.094H598V302.073H596ZM596 318.115V326.135H598V318.115H596ZM596 334.156V342.177H598V334.156H596ZM596 350.198V358.219H598V350.198H596ZM596 366.24V374.26H598V366.24H596ZM596 382.281V390.302H598V382.281H596ZM596 398.323V406.344H598V398.323H596ZM596 414.365V422.385H598V414.365H596ZM596 430.406V438.427H598V430.406H596ZM596 446.448V454.469H598V446.448H596ZM596 462.49V466.5H598V462.49H596ZM597 467.5H601.096V465.5H597V467.5ZM609.287 467.5H617.478V465.5H609.287V467.5ZM625.669 467.5H633.86V465.5H625.669V467.5ZM642.051 467.5H650.243V465.5H642.051V467.5ZM658.434 467.5H666.625V465.5H658.434V467.5ZM674.816 467.5H683.007V465.5H674.816V467.5ZM691.199 467.5H699.39V465.5H691.199V467.5ZM707.581 467.5H715.772V465.5H707.581V467.5ZM723.963 467.5H732.154V465.5H723.963V467.5ZM740.346 467.5H748.537V465.5H740.346V467.5ZM756.728 467.5H764.919V465.5H756.728V467.5ZM773.11 467.5H781.301V465.5H773.11V467.5ZM789.493 467.5H797.684V465.5H789.493V467.5ZM805.875 467.5H814.066V465.5H805.875V467.5ZM822.257 467.5H830.449V465.5H822.257V467.5ZM838.64 467.5H846.831V465.5H838.64V467.5ZM855.022 467.5H863.213V465.5H855.022V467.5ZM871.404 467.5H875.5V465.5H871.404V467.5Z" fill="#1263FF"/>
<rect x="247" y="375" width="91" height="17" fill="#999999"/>
<path d="M261.776 354H299.25L315 382H252L261.776 354Z" fill="#999999"/>
<path d="M278.159 369H276.045C275.92 368.392 275.702 367.858 275.389 367.398C275.082 366.938 274.707 366.551 274.264 366.239C273.827 365.92 273.341 365.682 272.807 365.523C272.273 365.364 271.716 365.284 271.136 365.284C270.08 365.284 269.122 365.551 268.264 366.085C267.412 366.619 266.733 367.406 266.227 368.446C265.727 369.486 265.477 370.761 265.477 372.273C265.477 373.784 265.727 375.06 266.227 376.099C266.733 377.139 267.412 377.926 268.264 378.46C269.122 378.994 270.08 379.261 271.136 379.261C271.716 379.261 272.273 379.182 272.807 379.023C273.341 378.864 273.827 378.628 274.264 378.315C274.707 377.997 275.082 377.608 275.389 377.148C275.702 376.682 275.92 376.148 276.045 375.545H278.159C278 376.437 277.71 377.236 277.29 377.94C276.869 378.645 276.347 379.244 275.722 379.739C275.097 380.227 274.395 380.599 273.616 380.855C272.844 381.111 272.017 381.239 271.136 381.239C269.648 381.239 268.324 380.875 267.165 380.148C266.006 379.42 265.094 378.386 264.429 377.045C263.764 375.705 263.432 374.114 263.432 372.273C263.432 370.432 263.764 368.841 264.429 367.5C265.094 366.159 266.006 365.125 267.165 364.398C268.324 363.67 269.648 363.307 271.136 363.307C272.017 363.307 272.844 363.435 273.616 363.69C274.395 363.946 275.097 364.321 275.722 364.815C276.347 365.304 276.869 365.901 277.29 366.605C277.71 367.304 278 368.102 278.159 369ZM285.154 381.307C284.325 381.307 283.572 381.151 282.896 380.838C282.219 380.52 281.683 380.062 281.285 379.466C280.887 378.864 280.688 378.136 280.688 377.284C280.688 376.534 280.836 375.926 281.131 375.46C281.427 374.989 281.822 374.619 282.316 374.352C282.81 374.085 283.356 373.886 283.952 373.756C284.555 373.619 285.16 373.511 285.768 373.432C286.563 373.33 287.208 373.253 287.702 373.202C288.202 373.145 288.566 373.051 288.793 372.92C289.026 372.79 289.143 372.562 289.143 372.239V372.17C289.143 371.33 288.913 370.676 288.452 370.21C287.998 369.744 287.308 369.511 286.381 369.511C285.421 369.511 284.668 369.722 284.123 370.142C283.577 370.562 283.194 371.011 282.972 371.489L281.063 370.807C281.404 370.011 281.859 369.392 282.427 368.949C283.001 368.5 283.626 368.187 284.302 368.011C284.984 367.83 285.654 367.739 286.313 367.739C286.734 367.739 287.217 367.79 287.762 367.892C288.313 367.989 288.844 368.19 289.356 368.497C289.873 368.804 290.302 369.267 290.643 369.886C290.984 370.506 291.154 371.335 291.154 372.375V381H289.143V379.227H289.04C288.904 379.511 288.677 379.815 288.359 380.139C288.04 380.463 287.617 380.739 287.089 380.966C286.56 381.193 285.915 381.307 285.154 381.307ZM285.461 379.5C286.256 379.5 286.927 379.344 287.472 379.031C288.023 378.719 288.438 378.315 288.717 377.821C289.001 377.327 289.143 376.807 289.143 376.261V374.42C289.058 374.523 288.87 374.616 288.58 374.702C288.296 374.781 287.967 374.852 287.592 374.915C287.222 374.972 286.862 375.023 286.509 375.068C286.163 375.108 285.881 375.142 285.665 375.17C285.143 375.239 284.654 375.349 284.2 375.503C283.751 375.651 283.387 375.875 283.109 376.176C282.836 376.472 282.7 376.875 282.7 377.386C282.7 378.085 282.958 378.614 283.475 378.972C283.998 379.324 284.66 379.5 285.461 379.5ZM294.825 381V367.909H296.768V369.886H296.905C297.143 369.239 297.575 368.713 298.2 368.31C298.825 367.906 299.53 367.705 300.314 367.705C300.462 367.705 300.646 367.707 300.868 367.713C301.089 367.719 301.257 367.727 301.371 367.739V369.784C301.303 369.767 301.146 369.741 300.902 369.707C300.663 369.668 300.411 369.648 300.143 369.648C299.507 369.648 298.939 369.781 298.439 370.048C297.945 370.31 297.553 370.673 297.263 371.139C296.979 371.599 296.837 372.125 296.837 372.716V381H294.825Z" fill="black"/>
<circle cx="264.5" cy="391.5" r="9.5" fill="#999999" stroke="#D9D9D9" stroke-width="3"/>
<circle cx="319.5" cy="391.5" r="9.5" fill="#999999" stroke="#D9D9D9" stroke-width="3"/>
<rect x="17" y="90" width="141" height="43" fill="#1263FF" fill-opacity="0.2"/>
<rect x="219" y="90" width="293" height="43" fill="#1263FF" fill-opacity="0.2"/>
<rect x="572" y="90" width="293" height="43" fill="#1263FF" fill-opacity="0.2"/>
<path d="M389.707 382.707C390.098 382.317 390.098 381.683 389.707 381.293L383.343 374.929C382.953 374.538 382.319 374.538 381.929 374.929C381.538 375.319 381.538 375.953 381.929 376.343L387.586 382L381.929 387.657C381.538 388.047 381.538 388.681 381.929 389.071C382.319 389.462 382.953 389.462 383.343 389.071L389.707 382.707ZM345 383L389 383L389 381L345 381L345 383Z" fill="black"/>
</svg>
