<svg width="830" height="185" viewBox="0 0 830 185" fill="none" xmlns="http://www.w3.org/2000/svg">
<path d="M38.6332 93V75.5455H44.5309C45.9002 75.5455 47.0195 75.7926 47.8888 76.2869C48.7638 76.7756 49.4116 77.4375 49.832 78.2727C50.2525 79.108 50.4627 80.0398 50.4627 81.0682C50.4627 82.0966 50.2525 83.0312 49.832 83.8722C49.4173 84.7131 48.7752 85.3835 47.9059 85.8835C47.0366 86.3778 45.9229 86.625 44.565 86.625H40.3377V84.75H44.4968C45.4343 84.75 46.1871 84.5881 46.7553 84.2642C47.3235 83.9403 47.7354 83.5028 47.9911 82.9517C48.2525 82.3949 48.3832 81.767 48.3832 81.0682C48.3832 80.3693 48.2525 79.7443 47.9911 79.1932C47.7354 78.642 47.3207 78.2102 46.7468 77.8977C46.1729 77.5795 45.4116 77.4205 44.4627 77.4205H40.7468V93H38.6332ZM53.5948 93V79.9091H55.6062V93H53.5948ZM54.6175 77.7273C54.2255 77.7273 53.8874 77.5938 53.6033 77.3267C53.3249 77.0597 53.1857 76.7386 53.1857 76.3636C53.1857 75.9886 53.3249 75.6676 53.6033 75.4006C53.8874 75.1335 54.2255 75 54.6175 75C55.0096 75 55.3448 75.1335 55.6232 75.4006C55.9073 75.6676 56.0494 75.9886 56.0494 76.3636C56.0494 76.7386 55.9073 77.0597 55.6232 77.3267C55.3448 77.5938 55.0096 77.7273 54.6175 77.7273ZM64.9833 79.9091V81.6136H58.1992V79.9091H64.9833ZM60.1765 76.7727H62.1879V89.25C62.1879 89.8182 62.2702 90.2443 62.435 90.5284C62.6055 90.8068 62.8214 90.9943 63.0827 91.0909C63.3498 91.1818 63.631 91.2273 63.9265 91.2273C64.1481 91.2273 64.3299 91.2159 64.4719 91.1932C64.614 91.1648 64.7276 91.142 64.8129 91.125L65.2219 92.9318C65.0856 92.983 64.8952 93.0341 64.6509 93.0852C64.4066 93.142 64.0969 93.1705 63.7219 93.1705C63.1538 93.1705 62.5969 93.0483 62.0515 92.804C61.5117 92.5597 61.0629 92.1875 60.7049 91.6875C60.3526 91.1875 60.1765 90.5568 60.1765 89.7955V76.7727ZM75.7475 75.5455L80.9293 90.2386H81.1339L86.3157 75.5455H88.5316L82.1225 93H79.9407L73.5316 75.5455H75.7475ZM91.2504 93V75.5455H101.784V77.4205H93.364V83.3182H101.239V85.1932H93.364V91.125H101.921V93H91.2504Z" fill="black"/>
<path d="M253.031 23.2386C251.86 23.2386 250.826 23.0312 249.928 22.6165C249.036 22.196 248.34 21.6193 247.84 20.8864C247.34 20.1477 247.093 19.3068 247.099 18.3636C247.093 17.625 247.238 16.9432 247.533 16.3182C247.829 15.6875 248.232 15.1619 248.744 14.7415C249.261 14.3153 249.837 14.0455 250.474 13.9318V13.8295C249.638 13.6136 248.974 13.1449 248.479 12.4233C247.985 11.696 247.741 10.8693 247.746 9.94318C247.741 9.05682 247.965 8.2642 248.42 7.56534C248.874 6.86648 249.499 6.31534 250.295 5.91193C251.096 5.50852 252.008 5.30682 253.031 5.30682C254.042 5.30682 254.945 5.50852 255.741 5.91193C256.536 6.31534 257.161 6.86648 257.616 7.56534C258.076 8.2642 258.309 9.05682 258.315 9.94318C258.309 10.8693 258.056 11.696 257.556 12.4233C257.062 13.1449 256.406 13.6136 255.587 13.8295V13.9318C256.218 14.0455 256.786 14.3153 257.292 14.7415C257.798 15.1619 258.201 15.6875 258.502 16.3182C258.803 16.9432 258.957 17.625 258.962 18.3636C258.957 19.3068 258.701 20.1477 258.195 20.8864C257.695 21.6193 256.999 22.196 256.107 22.6165C255.221 23.0312 254.195 23.2386 253.031 23.2386ZM253.031 21.3636C253.82 21.3636 254.502 21.2358 255.076 20.9801C255.65 20.7244 256.093 20.3636 256.406 19.8977C256.718 19.4318 256.877 18.8864 256.883 18.2614C256.877 17.6023 256.707 17.0199 256.371 16.5142C256.036 16.0085 255.579 15.6108 254.999 15.321C254.425 15.0312 253.769 14.8864 253.031 14.8864C252.286 14.8864 251.621 15.0312 251.036 15.321C250.457 15.6108 249.999 16.0085 249.664 16.5142C249.335 17.0199 249.173 17.6023 249.178 18.2614C249.173 18.8864 249.323 19.4318 249.63 19.8977C249.942 20.3636 250.388 20.7244 250.968 20.9801C251.548 21.2358 252.235 21.3636 253.031 21.3636ZM253.031 13.0795C253.656 13.0795 254.21 12.9545 254.692 12.7045C255.181 12.4545 255.565 12.1051 255.843 11.6562C256.121 11.2074 256.263 10.6818 256.269 10.0795C256.263 9.48864 256.124 8.97443 255.852 8.53693C255.579 8.09375 255.201 7.75284 254.718 7.5142C254.235 7.26989 253.673 7.14773 253.031 7.14773C252.377 7.14773 251.806 7.26989 251.317 7.5142C250.829 7.75284 250.451 8.09375 250.184 8.53693C249.917 8.97443 249.786 9.48864 249.792 10.0795C249.786 10.6818 249.92 11.2074 250.192 11.6562C250.471 12.1051 250.854 12.4545 251.343 12.7045C251.832 12.9545 252.394 13.0795 253.031 13.0795ZM274.331 23.2727C273.104 23.2727 272.047 22.983 271.161 22.4034C270.274 21.8239 269.592 21.0256 269.115 20.0085C268.638 18.9915 268.399 17.8295 268.399 16.5227C268.399 15.1932 268.643 14.0199 269.132 13.0028C269.626 11.9801 270.314 11.1818 271.195 10.608C272.081 10.0284 273.115 9.73864 274.297 9.73864C275.217 9.73864 276.047 9.90909 276.786 10.25C277.524 10.5909 278.129 11.0682 278.601 11.6818C279.072 12.2955 279.365 13.0114 279.479 13.8295H277.467C277.314 13.233 276.973 12.7045 276.445 12.2443C275.922 11.7784 275.217 11.5455 274.331 11.5455C273.547 11.5455 272.859 11.75 272.268 12.1591C271.683 12.5625 271.226 13.1335 270.896 13.8722C270.572 14.6051 270.411 15.4659 270.411 16.4545C270.411 17.4659 270.57 18.3466 270.888 19.0966C271.212 19.8466 271.666 20.429 272.251 20.8438C272.842 21.2585 273.536 21.4659 274.331 21.4659C274.854 21.4659 275.328 21.375 275.754 21.1932C276.18 21.0114 276.541 20.75 276.837 20.4091C277.132 20.0682 277.342 19.6591 277.467 19.1818H279.479C279.365 19.9545 279.084 20.6506 278.635 21.2699C278.192 21.8835 277.604 22.3722 276.871 22.7358C276.143 23.0938 275.297 23.2727 274.331 23.2727ZM287.737 23.2727C286.555 23.2727 285.518 22.9915 284.626 22.429C283.74 21.8665 283.047 21.0795 282.547 20.0682C282.053 19.0568 281.805 17.875 281.805 16.5227C281.805 15.1591 282.053 13.9687 282.547 12.9517C283.047 11.9347 283.74 11.1449 284.626 10.5824C285.518 10.0199 286.555 9.73864 287.737 9.73864C288.919 9.73864 289.953 10.0199 290.839 10.5824C291.732 11.1449 292.425 11.9347 292.919 12.9517C293.419 13.9687 293.669 15.1591 293.669 16.5227C293.669 17.875 293.419 19.0568 292.919 20.0682C292.425 21.0795 291.732 21.8665 290.839 22.429C289.953 22.9915 288.919 23.2727 287.737 23.2727ZM287.737 21.4659C288.635 21.4659 289.374 21.2358 289.953 20.7756C290.533 20.3153 290.962 19.7102 291.24 18.9602C291.518 18.2102 291.658 17.3977 291.658 16.5227C291.658 15.6477 291.518 14.8324 291.24 14.0767C290.962 13.321 290.533 12.7102 289.953 12.2443C289.374 11.7784 288.635 11.5455 287.737 11.5455C286.839 11.5455 286.101 11.7784 285.521 12.2443C284.942 12.7102 284.513 13.321 284.234 14.0767C283.956 14.8324 283.817 15.6477 283.817 16.5227C283.817 17.3977 283.956 18.2102 284.234 18.9602C284.513 19.7102 284.942 20.3153 285.521 20.7756C286.101 21.2358 286.839 21.4659 287.737 21.4659ZM296.739 23V9.90909H298.683V11.9545H298.853C299.126 11.2557 299.566 10.7131 300.174 10.3267C300.782 9.93466 301.512 9.73864 302.364 9.73864C303.228 9.73864 303.947 9.93466 304.521 10.3267C305.1 10.7131 305.552 11.2557 305.876 11.9545H306.012C306.347 11.2784 306.85 10.7415 307.521 10.3438C308.191 9.94034 308.995 9.73864 309.933 9.73864C311.103 9.73864 312.06 10.1051 312.805 10.8381C313.549 11.5653 313.921 12.6989 313.921 14.2386V23H311.91V14.2386C311.91 13.2727 311.646 12.5824 311.117 12.1676C310.589 11.7528 309.967 11.5455 309.251 11.5455C308.33 11.5455 307.617 11.8239 307.112 12.3807C306.606 12.9318 306.353 13.6307 306.353 14.4773V23H304.308V14.0341C304.308 13.2898 304.066 12.6903 303.583 12.2358C303.1 11.7756 302.478 11.5455 301.717 11.5455C301.194 11.5455 300.705 11.6847 300.251 11.9631C299.802 12.2415 299.438 12.6278 299.16 13.1222C298.887 13.6108 298.751 14.1761 298.751 14.8182V23H296.739ZM317.599 23V9.90909H319.542V11.9545H319.712C319.985 11.2557 320.425 10.7131 321.033 10.3267C321.641 9.93466 322.371 9.73864 323.224 9.73864C324.087 9.73864 324.806 9.93466 325.38 10.3267C325.96 10.7131 326.411 11.2557 326.735 11.9545H326.871C327.207 11.2784 327.71 10.7415 328.38 10.3438C329.05 9.94034 329.854 9.73864 330.792 9.73864C331.962 9.73864 332.92 10.1051 333.664 10.8381C334.408 11.5653 334.781 12.6989 334.781 14.2386V23H332.769V14.2386C332.769 13.2727 332.505 12.5824 331.977 12.1676C331.448 11.7528 330.826 11.5455 330.11 11.5455C329.19 11.5455 328.477 11.8239 327.971 12.3807C327.465 12.9318 327.212 13.6307 327.212 14.4773V23H325.167V14.0341C325.167 13.2898 324.925 12.6903 324.442 12.2358C323.96 11.7756 323.337 11.5455 322.576 11.5455C322.053 11.5455 321.565 11.6847 321.11 11.9631C320.661 12.2415 320.298 12.6278 320.019 13.1222C319.746 13.6108 319.61 14.1761 319.61 14.8182V23H317.599ZM343.776 23.2727C342.594 23.2727 341.558 22.9915 340.665 22.429C339.779 21.8665 339.086 21.0795 338.586 20.0682C338.092 19.0568 337.844 17.875 337.844 16.5227C337.844 15.1591 338.092 13.9687 338.586 12.9517C339.086 11.9347 339.779 11.1449 340.665 10.5824C341.558 10.0199 342.594 9.73864 343.776 9.73864C344.958 9.73864 345.992 10.0199 346.879 10.5824C347.771 11.1449 348.464 11.9347 348.958 12.9517C349.458 13.9687 349.708 15.1591 349.708 16.5227C349.708 17.875 349.458 19.0568 348.958 20.0682C348.464 21.0795 347.771 21.8665 346.879 22.429C345.992 22.9915 344.958 23.2727 343.776 23.2727ZM343.776 21.4659C344.674 21.4659 345.413 21.2358 345.992 20.7756C346.572 20.3153 347.001 19.7102 347.279 18.9602C347.558 18.2102 347.697 17.3977 347.697 16.5227C347.697 15.6477 347.558 14.8324 347.279 14.0767C347.001 13.321 346.572 12.7102 345.992 12.2443C345.413 11.7784 344.674 11.5455 343.776 11.5455C342.879 11.5455 342.14 11.7784 341.56 12.2443C340.981 12.7102 340.552 13.321 340.273 14.0767C339.995 14.8324 339.856 15.6477 339.856 16.5227C339.856 17.3977 339.995 18.2102 340.273 18.9602C340.552 19.7102 340.981 20.3153 341.56 20.7756C342.14 21.2358 342.879 21.4659 343.776 21.4659ZM354.79 15.125V23H352.778V9.90909H354.722V11.9545H354.892C355.199 11.2898 355.665 10.7557 356.29 10.3523C356.915 9.94318 357.722 9.73864 358.71 9.73864C359.597 9.73864 360.372 9.92045 361.037 10.2841C361.702 10.642 362.219 11.1875 362.588 11.9205C362.957 12.6477 363.142 13.5682 363.142 14.6818V23H361.131V14.8182C361.131 13.7898 360.864 12.9886 360.33 12.4148C359.795 11.8352 359.063 11.5455 358.131 11.5455C357.489 11.5455 356.915 11.6847 356.409 11.9631C355.909 12.2415 355.514 12.6477 355.224 13.1818C354.935 13.7159 354.79 14.3636 354.79 15.125ZM373.567 23V9.90909H375.579V23H373.567ZM374.59 7.72727C374.198 7.72727 373.86 7.59375 373.576 7.3267C373.298 7.05966 373.158 6.73864 373.158 6.36364C373.158 5.98864 373.298 5.66761 373.576 5.40057C373.86 5.13352 374.198 5 374.59 5C374.982 5 375.317 5.13352 375.596 5.40057C375.88 5.66761 376.022 5.98864 376.022 6.36364C376.022 6.73864 375.88 7.05966 375.596 7.3267C375.317 7.59375 374.982 7.72727 374.59 7.72727ZM384.956 9.90909V11.6136H378.172V9.90909H384.956ZM380.149 6.77273H382.161V19.25C382.161 19.8182 382.243 20.2443 382.408 20.5284C382.578 20.8068 382.794 20.9943 383.055 21.0909C383.322 21.1818 383.604 21.2273 383.899 21.2273C384.121 21.2273 384.303 21.2159 384.445 21.1932C384.587 21.1648 384.7 21.142 384.786 21.125L385.195 22.9318C385.058 22.983 384.868 23.0341 384.624 23.0852C384.379 23.142 384.07 23.1705 383.695 23.1705C383.126 23.1705 382.57 23.0483 382.024 22.804C381.484 22.5597 381.036 22.1875 380.678 21.6875C380.325 21.1875 380.149 20.5568 380.149 19.7955V6.77273ZM393.33 23.2727C392.068 23.2727 390.98 22.9943 390.065 22.4375C389.156 21.875 388.455 21.0909 387.96 20.0852C387.472 19.0739 387.227 17.8977 387.227 16.5568C387.227 15.2159 387.472 14.0341 387.96 13.0114C388.455 11.983 389.142 11.1818 390.023 10.608C390.909 10.0284 391.943 9.73864 393.125 9.73864C393.807 9.73864 394.48 9.85227 395.145 10.0795C395.81 10.3068 396.415 10.6761 396.96 11.1875C397.506 11.6932 397.94 12.3636 398.264 13.1989C398.588 14.0341 398.75 15.0625 398.75 16.2841V17.1364H388.659V15.3977H396.705C396.705 14.6591 396.557 14 396.261 13.4205C395.972 12.8409 395.557 12.3835 395.017 12.0483C394.483 11.7131 393.852 11.5455 393.125 11.5455C392.324 11.5455 391.631 11.7443 391.045 12.142C390.466 12.5341 390.02 13.0455 389.707 13.6761C389.395 14.3068 389.239 14.983 389.239 15.7045V16.8636C389.239 17.8523 389.409 18.6903 389.75 19.3778C390.097 20.0597 390.577 20.5795 391.19 20.9375C391.804 21.2898 392.517 21.4659 393.33 21.4659C393.858 21.4659 394.335 21.392 394.761 21.2443C395.193 21.0909 395.565 20.8636 395.878 20.5625C396.19 20.2557 396.432 19.875 396.602 19.4205L398.545 19.9659C398.341 20.625 397.997 21.2045 397.514 21.7045C397.031 22.1989 396.435 22.5852 395.724 22.8636C395.014 23.1364 394.216 23.2727 393.33 23.2727ZM401.81 23V9.90909H403.753V11.9545H403.923C404.196 11.2557 404.636 10.7131 405.244 10.3267C405.852 9.93466 406.582 9.73864 407.435 9.73864C408.298 9.73864 409.017 9.93466 409.591 10.3267C410.17 10.7131 410.622 11.2557 410.946 11.9545H411.082C411.418 11.2784 411.92 10.7415 412.591 10.3438C413.261 9.94034 414.065 9.73864 415.003 9.73864C416.173 9.73864 417.131 10.1051 417.875 10.8381C418.619 11.5653 418.991 12.6989 418.991 14.2386V23H416.98V14.2386C416.98 13.2727 416.716 12.5824 416.188 12.1676C415.659 11.7528 415.037 11.5455 414.321 11.5455C413.401 11.5455 412.688 11.8239 412.182 12.3807C411.676 12.9318 411.423 13.6307 411.423 14.4773V23H409.378V14.0341C409.378 13.2898 409.136 12.6903 408.653 12.2358C408.17 11.7756 407.548 11.5455 406.787 11.5455C406.264 11.5455 405.776 11.6847 405.321 11.9631C404.872 12.2415 404.509 12.6278 404.23 13.1222C403.957 13.6108 403.821 14.1761 403.821 14.8182V23H401.81ZM431.942 12.8409L430.135 13.3523C430.021 13.0511 429.854 12.7585 429.632 12.4744C429.416 12.1847 429.121 11.946 428.746 11.7585C428.371 11.571 427.891 11.4773 427.305 11.4773C426.504 11.4773 425.837 11.6619 425.303 12.0312C424.774 12.3949 424.51 12.858 424.51 13.4205C424.51 13.9205 424.692 14.3153 425.055 14.6051C425.419 14.8949 425.987 15.1364 426.76 15.3295L428.703 15.8068C429.874 16.0909 430.746 16.5256 431.32 17.1108C431.893 17.6903 432.18 18.4375 432.18 19.3523C432.18 20.1023 431.964 20.7727 431.533 21.3636C431.107 21.9545 430.51 22.4205 429.743 22.7614C428.976 23.1023 428.084 23.2727 427.067 23.2727C425.732 23.2727 424.626 22.983 423.751 22.4034C422.876 21.8239 422.322 20.9773 422.089 19.8636L423.999 19.3864C424.18 20.0909 424.524 20.6193 425.03 20.9716C425.541 21.3239 426.209 21.5 427.033 21.5C427.97 21.5 428.714 21.3011 429.266 20.9034C429.822 20.5 430.101 20.017 430.101 19.4545C430.101 19 429.942 18.6193 429.624 18.3125C429.305 18 428.817 17.767 428.158 17.6136L425.976 17.1023C424.777 16.8182 423.896 16.3778 423.334 15.7812C422.777 15.179 422.499 14.4261 422.499 13.5227C422.499 12.7841 422.706 12.1307 423.121 11.5625C423.541 10.9943 424.112 10.5483 424.834 10.2244C425.561 9.90057 426.385 9.73864 427.305 9.73864C428.601 9.73864 429.618 10.0227 430.357 10.5909C431.101 11.1591 431.629 11.9091 431.942 12.8409Z" fill="black"/>
<path d="M537.006 5.54545V23H534.892V7.76136H534.79L530.528 10.5909V8.44318L534.892 5.54545H537.006ZM542.026 23V21.4659L547.787 15.1591C548.463 14.4205 549.02 13.7784 549.457 13.233C549.895 12.6818 550.219 12.1648 550.429 11.6818C550.645 11.1932 550.753 10.6818 550.753 10.1477C550.753 9.53409 550.605 9.00284 550.31 8.55398C550.02 8.10511 549.622 7.75852 549.116 7.5142C548.611 7.26989 548.043 7.14773 547.412 7.14773C546.741 7.14773 546.156 7.28693 545.656 7.56534C545.162 7.83807 544.778 8.22159 544.506 8.71591C544.239 9.21023 544.105 9.78977 544.105 10.4545H542.094C542.094 9.43182 542.33 8.53409 542.801 7.76136C543.273 6.98864 543.915 6.38636 544.727 5.95454C545.545 5.52273 546.463 5.30682 547.48 5.30682C548.503 5.30682 549.409 5.52273 550.199 5.95454C550.989 6.38636 551.608 6.96875 552.057 7.7017C552.506 8.43466 552.73 9.25 552.73 10.1477C552.73 10.7898 552.614 11.4176 552.381 12.0312C552.153 12.6392 551.756 13.3182 551.188 14.0682C550.625 14.8125 549.844 15.7216 548.844 16.7955L544.923 20.9886V21.125H553.037V23H542.026ZM571.591 17.6477V9.90909H573.602V23H571.591V20.7841H571.455C571.148 21.4489 570.67 22.0142 570.023 22.4801C569.375 22.9403 568.557 23.1705 567.568 23.1705C566.75 23.1705 566.023 22.9915 565.386 22.6335C564.75 22.2699 564.25 21.7244 563.886 20.9972C563.523 20.2642 563.341 19.3409 563.341 18.2273V9.90909H565.352V18.0909C565.352 19.0455 565.619 19.8068 566.153 20.375C566.693 20.9432 567.381 21.2273 568.216 21.2273C568.716 21.2273 569.224 21.0994 569.741 20.8438C570.264 20.5881 570.702 20.196 571.054 19.6676C571.412 19.1392 571.591 18.4659 571.591 17.6477ZM579.298 15.125V23H577.286V9.90909H579.229V11.9545H579.4C579.707 11.2898 580.173 10.7557 580.798 10.3523C581.423 9.94318 582.229 9.73864 583.218 9.73864C584.104 9.73864 584.88 9.92045 585.545 10.2841C586.21 10.642 586.727 11.1875 587.096 11.9205C587.465 12.6477 587.65 13.5682 587.65 14.6818V23H585.638V14.8182C585.638 13.7898 585.371 12.9886 584.837 12.4148C584.303 11.8352 583.57 11.5455 582.638 11.5455C581.996 11.5455 581.423 11.6847 580.917 11.9631C580.417 12.2415 580.022 12.6477 579.732 13.1818C579.442 13.7159 579.298 14.3636 579.298 15.125ZM591.325 23V9.90909H593.337V23H591.325ZM592.348 7.72727C591.956 7.72727 591.618 7.59375 591.334 7.3267C591.055 7.05966 590.916 6.73864 590.916 6.36364C590.916 5.98864 591.055 5.66761 591.334 5.40057C591.618 5.13352 591.956 5 592.348 5C592.74 5 593.075 5.13352 593.354 5.40057C593.638 5.66761 593.78 5.98864 593.78 6.36364C593.78 6.73864 593.638 7.05966 593.354 7.3267C593.075 7.59375 592.74 7.72727 592.348 7.72727ZM605.952 27.9091V20.9886H605.782C605.634 21.2273 605.424 21.5284 605.151 21.892C604.879 22.25 604.489 22.571 603.984 22.8551C603.478 23.1335 602.805 23.2727 601.964 23.2727C600.873 23.2727 599.91 22.9972 599.075 22.446C598.239 21.8892 597.586 21.1051 597.114 20.0938C596.643 19.0767 596.407 17.875 596.407 16.4886C596.407 15.1136 596.643 13.9205 597.114 12.9091C597.586 11.8977 598.242 11.1165 599.083 10.5653C599.924 10.0142 600.896 9.73864 601.998 9.73864C602.85 9.73864 603.523 9.88068 604.018 10.1648C604.518 10.4432 604.898 10.7614 605.16 11.1193C605.427 11.4716 605.634 11.7614 605.782 11.9886H606.021V9.90909H607.964V27.9091H605.952ZM602.237 21.4659C603.043 21.4659 603.725 21.2557 604.282 20.8352C604.839 20.4091 605.262 19.821 605.552 19.071C605.842 18.3153 605.987 17.4432 605.987 16.4545C605.987 15.4773 605.844 14.6222 605.56 13.8892C605.276 13.1506 604.856 12.5767 604.299 12.1676C603.742 11.7528 603.055 11.5455 602.237 11.5455C601.384 11.5455 600.674 11.7642 600.106 12.2017C599.543 12.6335 599.12 13.2216 598.836 13.9659C598.558 14.7045 598.418 15.5341 598.418 16.4545C598.418 17.3864 598.56 18.233 598.844 18.9943C599.134 19.75 599.56 20.3523 600.123 20.8011C600.691 21.2443 601.396 21.4659 602.237 21.4659ZM619.896 17.6477V9.90909H621.907V23H619.896V20.7841H619.759C619.452 21.4489 618.975 22.0142 618.327 22.4801C617.68 22.9403 616.862 23.1705 615.873 23.1705C615.055 23.1705 614.327 22.9915 613.691 22.6335C613.055 22.2699 612.555 21.7244 612.191 20.9972C611.827 20.2642 611.646 19.3409 611.646 18.2273V9.90909H613.657V18.0909C613.657 19.0455 613.924 19.8068 614.458 20.375C614.998 20.9432 615.685 21.2273 616.521 21.2273C617.021 21.2273 617.529 21.0994 618.046 20.8438C618.569 20.5881 619.006 20.196 619.359 19.6676C619.717 19.1392 619.896 18.4659 619.896 17.6477ZM631.08 23.2727C629.818 23.2727 628.73 22.9943 627.815 22.4375C626.906 21.875 626.205 21.0909 625.71 20.0852C625.222 19.0739 624.977 17.8977 624.977 16.5568C624.977 15.2159 625.222 14.0341 625.71 13.0114C626.205 11.983 626.892 11.1818 627.773 10.608C628.659 10.0284 629.693 9.73864 630.875 9.73864C631.557 9.73864 632.23 9.85227 632.895 10.0795C633.56 10.3068 634.165 10.6761 634.71 11.1875C635.256 11.6932 635.69 12.3636 636.014 13.1989C636.338 14.0341 636.5 15.0625 636.5 16.2841V17.1364H626.409V15.3977H634.455C634.455 14.6591 634.307 14 634.011 13.4205C633.722 12.8409 633.307 12.3835 632.767 12.0483C632.233 11.7131 631.602 11.5455 630.875 11.5455C630.074 11.5455 629.381 11.7443 628.795 12.142C628.216 12.5341 627.77 13.0455 627.457 13.6761C627.145 14.3068 626.989 14.983 626.989 15.7045V16.8636C626.989 17.8523 627.159 18.6903 627.5 19.3778C627.847 20.0597 628.327 20.5795 628.94 20.9375C629.554 21.2898 630.267 21.4659 631.08 21.4659C631.608 21.4659 632.085 21.392 632.511 21.2443C632.943 21.0909 633.315 20.8636 633.628 20.5625C633.94 20.2557 634.182 19.875 634.352 19.4205L636.295 19.9659C636.091 20.625 635.747 21.2045 635.264 21.7045C634.781 22.1989 634.185 22.5852 633.474 22.8636C632.764 23.1364 631.966 23.2727 631.08 23.2727ZM646.31 23V9.90909H648.321V23H646.31ZM647.332 7.72727C646.94 7.72727 646.602 7.59375 646.318 7.3267C646.04 7.05966 645.901 6.73864 645.901 6.36364C645.901 5.98864 646.04 5.66761 646.318 5.40057C646.602 5.13352 646.94 5 647.332 5C647.724 5 648.06 5.13352 648.338 5.40057C648.622 5.66761 648.764 5.98864 648.764 6.36364C648.764 6.73864 648.622 7.05966 648.338 7.3267C648.06 7.59375 647.724 7.72727 647.332 7.72727ZM657.698 9.90909V11.6136H650.914V9.90909H657.698ZM652.891 6.77273H654.903V19.25C654.903 19.8182 654.985 20.2443 655.15 20.5284C655.32 20.8068 655.536 20.9943 655.798 21.0909C656.065 21.1818 656.346 21.2273 656.641 21.2273C656.863 21.2273 657.045 21.2159 657.187 21.1932C657.329 21.1648 657.442 21.142 657.528 21.125L657.937 22.9318C657.8 22.983 657.61 23.0341 657.366 23.0852C657.121 23.142 656.812 23.1705 656.437 23.1705C655.869 23.1705 655.312 23.0483 654.766 22.804C654.227 22.5597 653.778 22.1875 653.42 21.6875C653.067 21.1875 652.891 20.5568 652.891 19.7955V6.77273ZM666.072 23.2727C664.81 23.2727 663.722 22.9943 662.808 22.4375C661.898 21.875 661.197 21.0909 660.702 20.0852C660.214 19.0739 659.969 17.8977 659.969 16.5568C659.969 15.2159 660.214 14.0341 660.702 13.0114C661.197 11.983 661.884 11.1818 662.765 10.608C663.651 10.0284 664.685 9.73864 665.867 9.73864C666.549 9.73864 667.222 9.85227 667.887 10.0795C668.552 10.3068 669.157 10.6761 669.702 11.1875C670.248 11.6932 670.683 12.3636 671.006 13.1989C671.33 14.0341 671.492 15.0625 671.492 16.2841V17.1364H661.401V15.3977H669.447C669.447 14.6591 669.299 14 669.004 13.4205C668.714 12.8409 668.299 12.3835 667.759 12.0483C667.225 11.7131 666.594 11.5455 665.867 11.5455C665.066 11.5455 664.373 11.7443 663.788 12.142C663.208 12.5341 662.762 13.0455 662.45 13.6761C662.137 14.3068 661.981 14.983 661.981 15.7045V16.8636C661.981 17.8523 662.151 18.6903 662.492 19.3778C662.839 20.0597 663.319 20.5795 663.933 20.9375C664.546 21.2898 665.259 21.4659 666.072 21.4659C666.6 21.4659 667.077 21.392 667.504 21.2443C667.935 21.0909 668.308 20.8636 668.62 20.5625C668.933 20.2557 669.174 19.875 669.344 19.4205L671.288 19.9659C671.083 20.625 670.739 21.2045 670.256 21.7045C669.773 22.1989 669.177 22.5852 668.467 22.8636C667.756 23.1364 666.958 23.2727 666.072 23.2727ZM674.552 23V9.90909H676.495V11.9545H676.665C676.938 11.2557 677.379 10.7131 677.987 10.3267C678.594 9.93466 679.325 9.73864 680.177 9.73864C681.04 9.73864 681.759 9.93466 682.333 10.3267C682.913 10.7131 683.364 11.2557 683.688 11.9545H683.825C684.16 11.2784 684.663 10.7415 685.333 10.3438C686.004 9.94034 686.808 9.73864 687.745 9.73864C688.915 9.73864 689.873 10.1051 690.617 10.8381C691.362 11.5653 691.734 12.6989 691.734 14.2386V23H689.722V14.2386C689.722 13.2727 689.458 12.5824 688.93 12.1676C688.401 11.7528 687.779 11.5455 687.063 11.5455C686.143 11.5455 685.43 11.8239 684.924 12.3807C684.418 12.9318 684.165 13.6307 684.165 14.4773V23H682.12V14.0341C682.12 13.2898 681.879 12.6903 681.396 12.2358C680.913 11.7756 680.29 11.5455 679.529 11.5455C679.006 11.5455 678.518 11.6847 678.063 11.9631C677.614 12.2415 677.251 12.6278 676.972 13.1222C676.7 13.6108 676.563 14.1761 676.563 14.8182V23H674.552ZM704.684 12.8409L702.877 13.3523C702.763 13.0511 702.596 12.7585 702.374 12.4744C702.158 12.1847 701.863 11.946 701.488 11.7585C701.113 11.571 700.633 11.4773 700.048 11.4773C699.246 11.4773 698.579 11.6619 698.045 12.0312C697.516 12.3949 697.252 12.858 697.252 13.4205C697.252 13.9205 697.434 14.3153 697.798 14.6051C698.161 14.8949 698.729 15.1364 699.502 15.3295L701.445 15.8068C702.616 16.0909 703.488 16.5256 704.062 17.1108C704.636 17.6903 704.923 18.4375 704.923 19.3523C704.923 20.1023 704.707 20.7727 704.275 21.3636C703.849 21.9545 703.252 22.4205 702.485 22.7614C701.718 23.1023 700.826 23.2727 699.809 23.2727C698.474 23.2727 697.369 22.983 696.494 22.4034C695.619 21.8239 695.065 20.9773 694.832 19.8636L696.741 19.3864C696.923 20.0909 697.266 20.6193 697.772 20.9716C698.283 21.3239 698.951 21.5 699.775 21.5C700.712 21.5 701.457 21.3011 702.008 20.9034C702.565 20.5 702.843 20.017 702.843 19.4545C702.843 19 702.684 18.6193 702.366 18.3125C702.048 18 701.559 17.767 700.9 17.6136L698.718 17.1023C697.519 16.8182 696.638 16.3778 696.076 15.7812C695.519 15.179 695.241 14.4261 695.241 13.5227C695.241 12.7841 695.448 12.1307 695.863 11.5625C696.283 10.9943 696.854 10.5483 697.576 10.2244C698.303 9.90057 699.127 9.73864 700.048 9.73864C701.343 9.73864 702.36 10.0227 703.099 10.5909C703.843 11.1591 704.371 11.9091 704.684 12.8409ZM720.189 23.2727C718.928 23.2727 717.839 22.9943 716.925 22.4375C716.016 21.875 715.314 21.0909 714.82 20.0852C714.331 19.0739 714.087 17.8977 714.087 16.5568C714.087 15.2159 714.331 14.0341 714.82 13.0114C715.314 11.983 716.001 11.1818 716.882 10.608C717.768 10.0284 718.803 9.73864 719.984 9.73864C720.666 9.73864 721.339 9.85227 722.004 10.0795C722.669 10.3068 723.274 10.6761 723.82 11.1875C724.365 11.6932 724.8 12.3636 725.124 13.1989C725.447 14.0341 725.609 15.0625 725.609 16.2841V17.1364H715.518V15.3977H723.564C723.564 14.6591 723.416 14 723.121 13.4205C722.831 12.8409 722.416 12.3835 721.876 12.0483C721.342 11.7131 720.712 11.5455 719.984 11.5455C719.183 11.5455 718.49 11.7443 717.905 12.142C717.325 12.5341 716.879 13.0455 716.567 13.6761C716.254 14.3068 716.098 14.983 716.098 15.7045V16.8636C716.098 17.8523 716.268 18.6903 716.609 19.3778C716.956 20.0597 717.436 20.5795 718.05 20.9375C718.663 21.2898 719.376 21.4659 720.189 21.4659C720.717 21.4659 721.195 21.392 721.621 21.2443C722.053 21.0909 722.425 20.8636 722.737 20.5625C723.05 20.2557 723.291 19.875 723.462 19.4205L725.405 19.9659C725.2 20.625 724.857 21.2045 724.374 21.7045C723.891 22.1989 723.294 22.5852 722.584 22.8636C721.874 23.1364 721.075 23.2727 720.189 23.2727ZM732.521 23.3068C731.692 23.3068 730.939 23.1506 730.263 22.8381C729.587 22.5199 729.05 22.0625 728.652 21.4659C728.254 20.8636 728.055 20.1364 728.055 19.2841C728.055 18.5341 728.203 17.9261 728.499 17.4602C728.794 16.9886 729.189 16.6193 729.683 16.3523C730.178 16.0852 730.723 15.8864 731.32 15.7557C731.922 15.6193 732.527 15.5114 733.135 15.4318C733.93 15.3295 734.575 15.2528 735.07 15.2017C735.57 15.1449 735.933 15.0511 736.161 14.9205C736.393 14.7898 736.51 14.5625 736.51 14.2386V14.1705C736.51 13.3295 736.28 12.6761 735.82 12.2102C735.365 11.7443 734.675 11.5114 733.749 11.5114C732.788 11.5114 732.036 11.7216 731.49 12.142C730.945 12.5625 730.561 13.0114 730.339 13.4886L728.43 12.8068C728.771 12.0114 729.226 11.392 729.794 10.9489C730.368 10.5 730.993 10.1875 731.669 10.0114C732.351 9.82955 733.021 9.73864 733.68 9.73864C734.101 9.73864 734.584 9.78977 735.129 9.89204C735.68 9.98864 736.212 10.1903 736.723 10.4972C737.24 10.804 737.669 11.267 738.01 11.8864C738.351 12.5057 738.521 13.3352 738.521 14.375V23H736.51V21.2273H736.408C736.271 21.5114 736.044 21.8153 735.726 22.1392C735.408 22.4631 734.984 22.7386 734.456 22.9659C733.928 23.1932 733.283 23.3068 732.521 23.3068ZM732.828 21.5C733.624 21.5 734.294 21.3438 734.839 21.0312C735.391 20.7188 735.805 20.3153 736.084 19.821C736.368 19.3267 736.51 18.8068 736.51 18.2614V16.4205C736.425 16.5227 736.237 16.6165 735.947 16.7017C735.663 16.7812 735.334 16.8523 734.959 16.9148C734.589 16.9716 734.229 17.0227 733.876 17.0682C733.53 17.108 733.249 17.142 733.033 17.1705C732.51 17.2386 732.021 17.3494 731.567 17.5028C731.118 17.6506 730.754 17.875 730.476 18.1761C730.203 18.4716 730.067 18.875 730.067 19.3864C730.067 20.0852 730.325 20.6136 730.842 20.9716C731.365 21.3239 732.027 21.5 732.828 21.5ZM747.511 23.2727C746.283 23.2727 745.227 22.983 744.34 22.4034C743.454 21.8239 742.772 21.0256 742.295 20.0085C741.817 18.9915 741.579 17.8295 741.579 16.5227C741.579 15.1932 741.823 14.0199 742.312 13.0028C742.806 11.9801 743.494 11.1818 744.374 10.608C745.261 10.0284 746.295 9.73864 747.477 9.73864C748.397 9.73864 749.227 9.90909 749.965 10.25C750.704 10.5909 751.309 11.0682 751.781 11.6818C752.252 12.2955 752.545 13.0114 752.658 13.8295H750.647C750.494 13.233 750.153 12.7045 749.624 12.2443C749.102 11.7784 748.397 11.5455 747.511 11.5455C746.727 11.5455 746.039 11.75 745.448 12.1591C744.863 12.5625 744.406 13.1335 744.076 13.8722C743.752 14.6051 743.59 15.4659 743.59 16.4545C743.59 17.4659 743.749 18.3466 744.067 19.0966C744.391 19.8466 744.846 20.429 745.431 20.8438C746.022 21.2585 746.715 21.4659 747.511 21.4659C748.033 21.4659 748.508 21.375 748.934 21.1932C749.36 21.0114 749.721 20.75 750.016 20.4091C750.312 20.0682 750.522 19.6591 750.647 19.1818H752.658C752.545 19.9545 752.263 20.6506 751.815 21.2699C751.371 21.8835 750.783 22.3722 750.05 22.7358C749.323 23.0938 748.477 23.2727 747.511 23.2727ZM757.61 15.125V23H755.599V5.54545H757.61V11.9545H757.781C758.087 11.2784 758.548 10.7415 759.161 10.3438C759.781 9.94034 760.604 9.73864 761.633 9.73864C762.525 9.73864 763.306 9.91761 763.977 10.2756C764.647 10.6278 765.167 11.1705 765.536 11.9034C765.911 12.6307 766.099 13.5568 766.099 14.6818V23H764.087V14.8182C764.087 13.7784 763.817 12.9744 763.278 12.4062C762.744 11.8324 762.002 11.5455 761.053 11.5455C760.394 11.5455 759.803 11.6847 759.281 11.9631C758.763 12.2415 758.354 12.6477 758.053 13.1818C757.758 13.7159 757.61 14.3636 757.61 15.125Z" fill="black"/>
<path d="M44.8974 170.909C44.7951 170.045 44.3803 169.375 43.6531 168.898C42.9258 168.42 42.0337 168.182 40.9769 168.182C40.2042 168.182 39.5281 168.307 38.9485 168.557C38.3746 168.807 37.9258 169.151 37.6019 169.588C37.2837 170.026 37.1246 170.523 37.1246 171.08C37.1246 171.545 37.2354 171.946 37.457 172.281C37.6843 172.611 37.9741 172.886 38.3263 173.108C38.6786 173.324 39.0479 173.503 39.4343 173.645C39.8207 173.781 40.1758 173.892 40.4996 173.977L42.2724 174.455C42.7269 174.574 43.2326 174.739 43.7894 174.949C44.3519 175.159 44.8888 175.446 45.4002 175.81C45.9173 176.168 46.3434 176.628 46.6786 177.19C47.0139 177.753 47.1815 178.443 47.1815 179.261C47.1815 180.205 46.9343 181.057 46.44 181.818C45.9513 182.58 45.2354 183.185 44.2923 183.634C43.3548 184.082 42.2156 184.307 40.8746 184.307C39.6246 184.307 38.5423 184.105 37.6275 183.702C36.7184 183.298 36.0025 182.736 35.4798 182.014C34.9627 181.293 34.6701 180.455 34.6019 179.5H36.7837C36.8406 180.159 37.0621 180.705 37.4485 181.136C37.8406 181.562 38.3349 181.881 38.9315 182.091C39.5337 182.295 40.1815 182.398 40.8746 182.398C41.6815 182.398 42.4059 182.267 43.0479 182.006C43.69 181.739 44.1985 181.369 44.5735 180.898C44.9485 180.42 45.136 179.864 45.136 179.227C45.136 178.648 44.9741 178.176 44.6502 177.812C44.3263 177.449 43.9002 177.153 43.3718 176.926C42.8434 176.699 42.2724 176.5 41.6587 176.33L39.511 175.716C38.1474 175.324 37.0678 174.764 36.2724 174.037C35.4769 173.31 35.0792 172.358 35.0792 171.182C35.0792 170.205 35.3434 169.352 35.8718 168.625C36.4059 167.892 37.1218 167.324 38.0195 166.92C38.9229 166.511 39.9315 166.307 41.0451 166.307C42.1701 166.307 43.1701 166.509 44.0451 166.912C44.9201 167.31 45.6133 167.855 46.1246 168.548C46.6417 169.241 46.9144 170.028 46.9428 170.909H44.8974ZM56.0771 170.909V172.614H49.293V170.909H56.0771ZM51.2702 167.773H53.2816V180.25C53.2816 180.818 53.364 181.244 53.5288 181.528C53.6992 181.807 53.9151 181.994 54.1765 182.091C54.4435 182.182 54.7248 182.227 55.0202 182.227C55.2418 182.227 55.4237 182.216 55.5657 182.193C55.7077 182.165 55.8214 182.142 55.9066 182.125L56.3157 183.932C56.1793 183.983 55.989 184.034 55.7447 184.085C55.5004 184.142 55.1907 184.17 54.8157 184.17C54.2475 184.17 53.6907 184.048 53.1452 183.804C52.6055 183.56 52.1566 183.188 51.7987 182.688C51.4464 182.188 51.2702 181.557 51.2702 180.795V167.773ZM59.1026 184V170.909H61.0458V172.886H61.1822C61.4208 172.239 61.8526 171.713 62.4776 171.31C63.1026 170.906 63.8072 170.705 64.5913 170.705C64.739 170.705 64.9237 170.707 65.1452 170.713C65.3668 170.719 65.5344 170.727 65.6481 170.739V172.784C65.5799 172.767 65.4237 172.741 65.1793 172.707C64.9407 172.668 64.6879 172.648 64.4208 172.648C63.7844 172.648 63.2163 172.781 62.7163 173.048C62.2219 173.31 61.8299 173.673 61.5401 174.139C61.256 174.599 61.114 175.125 61.114 175.716V184H59.1026ZM73.1225 184.273C71.8612 184.273 70.7731 183.994 69.8583 183.438C68.9492 182.875 68.2475 182.091 67.7532 181.085C67.2646 180.074 67.0202 178.898 67.0202 177.557C67.0202 176.216 67.2646 175.034 67.7532 174.011C68.2475 172.983 68.935 172.182 69.8157 171.608C70.7021 171.028 71.7362 170.739 72.918 170.739C73.5998 170.739 74.2731 170.852 74.9379 171.08C75.6026 171.307 76.2077 171.676 76.7532 172.188C77.2987 172.693 77.7333 173.364 78.0572 174.199C78.381 175.034 78.543 176.062 78.543 177.284V178.136H68.4521V176.398H76.4975C76.4975 175.659 76.3498 175 76.0543 174.42C75.7646 173.841 75.3498 173.384 74.81 173.048C74.2759 172.713 73.6452 172.545 72.918 172.545C72.1168 172.545 71.4237 172.744 70.8384 173.142C70.2589 173.534 69.8129 174.045 69.5004 174.676C69.1879 175.307 69.0316 175.983 69.0316 176.705V177.864C69.0316 178.852 69.2021 179.69 69.543 180.378C69.8896 181.06 70.3697 181.58 70.9833 181.938C71.5969 182.29 72.31 182.466 73.1225 182.466C73.6509 182.466 74.1282 182.392 74.5543 182.244C74.9862 182.091 75.3583 181.864 75.6708 181.562C75.9833 181.256 76.2248 180.875 76.3952 180.42L78.3384 180.966C78.1339 181.625 77.7901 182.205 77.3072 182.705C76.8242 183.199 76.2276 183.585 75.5174 183.864C74.8072 184.136 74.0089 184.273 73.1225 184.273ZM87.0913 184.273C85.8299 184.273 84.7418 183.994 83.8271 183.438C82.918 182.875 82.2163 182.091 81.7219 181.085C81.2333 180.074 80.989 178.898 80.989 177.557C80.989 176.216 81.2333 175.034 81.7219 174.011C82.2163 172.983 82.9038 172.182 83.7844 171.608C84.6708 171.028 85.7049 170.739 86.8867 170.739C87.5685 170.739 88.2418 170.852 88.9066 171.08C89.5714 171.307 90.1765 171.676 90.7219 172.188C91.2674 172.693 91.7021 173.364 92.0259 174.199C92.3498 175.034 92.5117 176.062 92.5117 177.284V178.136H82.4208V176.398H90.4663C90.4663 175.659 90.3185 175 90.0231 174.42C89.7333 173.841 89.3185 173.384 88.7788 173.048C88.2447 172.713 87.614 172.545 86.8867 172.545C86.0856 172.545 85.3924 172.744 84.8072 173.142C84.2276 173.534 83.7816 174.045 83.4691 174.676C83.1566 175.307 83.0004 175.983 83.0004 176.705V177.864C83.0004 178.852 83.1708 179.69 83.5117 180.378C83.8583 181.06 84.3384 181.58 84.9521 181.938C85.5657 182.29 86.2788 182.466 87.0913 182.466C87.6197 182.466 88.0969 182.392 88.5231 182.244C88.9549 182.091 89.3271 181.864 89.6396 181.562C89.9521 181.256 90.1935 180.875 90.364 180.42L92.3072 180.966C92.1026 181.625 91.7589 182.205 91.2759 182.705C90.793 183.199 90.1964 183.585 89.4862 183.864C88.7759 184.136 87.9776 184.273 87.0913 184.273ZM101.265 170.909V172.614H94.4805V170.909H101.265ZM96.4577 167.773H98.4691V180.25C98.4691 180.818 98.5515 181.244 98.7163 181.528C98.8867 181.807 99.1026 181.994 99.364 182.091C99.631 182.182 99.9123 182.227 100.208 182.227C100.429 182.227 100.611 182.216 100.753 182.193C100.895 182.165 101.009 182.142 101.094 182.125L101.503 183.932C101.367 183.983 101.176 184.034 100.932 184.085C100.688 184.142 100.378 184.17 100.003 184.17C99.435 184.17 98.8782 184.048 98.3327 183.804C97.793 183.56 97.3441 183.188 96.9862 182.688C96.6339 182.188 96.4577 181.557 96.4577 180.795V167.773ZM112.029 166.545L117.211 181.239H117.415L122.597 166.545H124.813L118.404 184H116.222L109.813 166.545H112.029ZM127.532 184V166.545H138.066V168.42H129.645V174.318H137.52V176.193H129.645V182.125H138.202V184H127.532Z" fill="black"/>
<circle cx="249.5" cy="82.5" r="10.5" fill="#1263FF"/>
<circle cx="279.5" cy="82.5" r="10.5" fill="#1263FF"/>
<circle cx="249.5" cy="173.5" r="10.5" fill="#1263FF"/>
<circle cx="309.5" cy="82.5" r="10.5" fill="#1263FF"/>
<circle cx="339.5" cy="82.5" r="10.5" fill="#1263FF"/>
<circle cx="279.5" cy="173.5" r="10.5" fill="#1263FF"/>
<circle cx="369.5" cy="82.5" r="10.5" fill="#1263FF"/>
<circle cx="399.5" cy="82.5" r="10.5" fill="#1263FF"/>
<circle cx="309.5" cy="173.5" r="10.5" fill="#1263FF"/>
<circle cx="429.5" cy="82.5" r="10.5" fill="#1263FF"/>
<circle cx="459.5" cy="82.5" r="10.5" fill="#1263FF"/>
<circle cx="339.5" cy="173.5" r="10.5" fill="#1263FF"/>
<circle cx="489.5" cy="82.5" r="10.5" fill="#D9D9D9"/>
<circle cx="519.5" cy="82.5" r="10.5" fill="#D9D9D9"/>
<circle cx="369.5" cy="173.5" r="10.5" fill="#1263FF"/>
<circle cx="549.5" cy="82.5" r="10.5" fill="#D9D9D9"/>
<circle cx="579.5" cy="82.5" r="10.5" fill="#D9D9D9"/>
<circle cx="399.5" cy="173.5" r="10.5" fill="#1263FF"/>
<circle cx="609.5" cy="82.5" r="10.5" fill="#D9D9D9"/>
<circle cx="639.5" cy="82.5" r="10.5" fill="#D9D9D9"/>
<circle cx="429.5" cy="173.5" r="10.5" fill="#1263FF"/>
<circle cx="669.5" cy="82.5" r="10.5" fill="#D9D9D9"/>
<circle cx="699.5" cy="82.5" r="10.5" fill="#D9D9D9"/>
<circle cx="459.5" cy="173.5" r="10.5" fill="#1263FF"/>
<circle cx="729.5" cy="82.5" r="10.5" fill="#D9D9D9"/>
<circle cx="759.5" cy="82.5" r="10.5" fill="#D9D9D9"/>
<circle cx="489.5" cy="173.5" r="10.5" fill="#D9D9D9"/>
<circle cx="789.5" cy="82.5" r="10.5" fill="#D9D9D9"/>
<circle cx="819.5" cy="82.5" r="10.5" fill="#D9D9D9"/>
<circle cx="519.5" cy="173.5" r="10.5" fill="#D9D9D9"/>
<circle cx="549.5" cy="173.5" r="10.5" fill="#D9D9D9"/>
<circle cx="579.5" cy="173.5" r="10.5" fill="#D9D9D9"/>
<circle cx="609.5" cy="173.5" r="10.5" fill="#D9D9D9"/>
<circle cx="639.5" cy="173.5" r="10.5" fill="#D9D9D9"/>
<circle cx="669.5" cy="173.5" r="10.5" fill="#D9D9D9"/>
<circle cx="699.5" cy="173.5" r="10.5" fill="#D9D9D9"/>
<circle cx="729.5" cy="173.5" r="10.5" fill="#D9D9D9"/>
<circle cx="759.5" cy="173.5" r="10.5" fill="#D9D9D9"/>
<circle cx="789.5" cy="173.5" r="10.5" fill="#D9D9D9"/>
<circle cx="819.5" cy="173.5" r="10.5" fill="#D9D9D9"/>
</svg>
