<svg width="1133" height="441" viewBox="0 0 1133 441" fill="none" xmlns="http://www.w3.org/2000/svg">
<path d="M475.5 60.5C475.5 68.3505 471.825 75.9519 464.926 83.0001C458.021 90.0551 447.955 96.4772 435.4 101.903C410.294 112.752 375.505 119.5 337 119.5C298.495 119.5 263.706 112.752 238.6 101.903C226.045 96.4772 215.979 90.0551 209.074 83.0001C202.175 75.9519 198.5 68.3505 198.5 60.5C198.5 52.6495 202.175 45.0481 209.074 37.9999C215.979 30.9449 226.045 24.5228 238.6 19.097C263.706 8.24753 298.495 1.5 337 1.5C375.505 1.5 410.294 8.24753 435.4 19.097C447.955 24.5228 458.021 30.9449 464.926 37.9999C471.825 45.0481 475.5 52.6495 475.5 60.5Z" stroke="black" stroke-width="3"/>
<path d="M475.5 220.5C475.5 228.35 471.825 235.952 464.926 243C458.021 250.055 447.955 256.477 435.4 261.903C410.294 272.752 375.505 279.5 337 279.5C298.495 279.5 263.706 272.752 238.6 261.903C226.045 256.477 215.979 250.055 209.074 243C202.175 235.952 198.5 228.35 198.5 220.5C198.5 212.65 202.175 205.048 209.074 198C215.979 190.945 226.045 184.523 238.6 179.097C263.706 168.248 298.495 161.5 337 161.5C375.505 161.5 410.294 168.248 435.4 179.097C447.955 184.523 458.021 190.945 464.926 198C471.825 205.048 475.5 212.65 475.5 220.5Z" stroke="black" stroke-width="3"/>
<path d="M475.5 380.5C475.5 388.35 471.825 395.952 464.926 403C458.021 410.055 447.955 416.477 435.4 421.903C410.294 432.752 375.505 439.5 337 439.5C298.495 439.5 263.706 432.752 238.6 421.903C226.045 416.477 215.979 410.055 209.074 403C202.175 395.952 198.5 388.35 198.5 380.5C198.5 372.65 202.175 365.048 209.074 358C215.979 350.945 226.045 344.523 238.6 339.097C263.706 328.248 298.495 321.5 337 321.5C375.505 321.5 410.294 328.248 435.4 339.097C447.955 344.523 458.021 350.945 464.926 358C471.825 365.048 475.5 372.65 475.5 380.5Z" stroke="black" stroke-width="3"/>
<path d="M967.5 220.5C967.5 228.35 963.825 235.952 956.926 243C950.021 250.055 939.955 256.477 927.4 261.903C902.294 272.752 867.505 279.5 829 279.5C790.495 279.5 755.706 272.752 730.6 261.903C718.045 256.477 707.979 250.055 701.074 243C694.175 235.952 690.5 228.35 690.5 220.5C690.5 212.65 694.175 205.048 701.074 198C707.979 190.945 718.045 184.523 730.6 179.097C755.706 168.248 790.495 161.5 829 161.5C867.505 161.5 902.294 168.248 927.4 179.097C939.955 184.523 950.021 190.945 956.926 198C963.825 205.048 967.5 212.65 967.5 220.5Z" stroke="black" stroke-width="3"/>
<path d="M486 64.5L683 187M486 382.5L683 257M486 219H683" stroke="black" stroke-width="3"/>
<path d="M253.413 56.9091C253.311 56.0455 252.896 55.375 252.169 54.8977C251.441 54.4205 250.549 54.1818 249.493 54.1818C248.72 54.1818 248.044 54.3068 247.464 54.5568C246.89 54.8068 246.441 55.1506 246.118 55.5881C245.799 56.0256 245.64 56.5227 245.64 57.0795C245.64 57.5455 245.751 57.946 245.973 58.2812C246.2 58.6108 246.49 58.8864 246.842 59.108C247.194 59.3239 247.564 59.5028 247.95 59.6449C248.336 59.7812 248.691 59.892 249.015 59.9773L250.788 60.4545C251.243 60.5739 251.748 60.7386 252.305 60.9489C252.868 61.1591 253.404 61.446 253.916 61.8097C254.433 62.1676 254.859 62.6278 255.194 63.1903C255.529 63.7528 255.697 64.4432 255.697 65.2614C255.697 66.2045 255.45 67.0568 254.956 67.8182C254.467 68.5795 253.751 69.1847 252.808 69.6335C251.87 70.0824 250.731 70.3068 249.39 70.3068C248.14 70.3068 247.058 70.1051 246.143 69.7017C245.234 69.2983 244.518 68.7358 243.995 68.0142C243.478 67.2926 243.186 66.4545 243.118 65.5H245.299C245.356 66.1591 245.578 66.7045 245.964 67.1364C246.356 67.5625 246.85 67.8807 247.447 68.0909C248.049 68.2955 248.697 68.3977 249.39 68.3977C250.197 68.3977 250.922 68.267 251.564 68.0057C252.206 67.7386 252.714 67.3693 253.089 66.8977C253.464 66.4205 253.652 65.8636 253.652 65.2273C253.652 64.6477 253.49 64.1761 253.166 63.8125C252.842 63.4489 252.416 63.1534 251.887 62.9261C251.359 62.6989 250.788 62.5 250.174 62.3295L248.027 61.7159C246.663 61.3239 245.583 60.7642 244.788 60.0369C243.993 59.3097 243.595 58.358 243.595 57.1818C243.595 56.2045 243.859 55.3523 244.387 54.625C244.922 53.892 245.637 53.3239 246.535 52.9205C247.439 52.5114 248.447 52.3068 249.561 52.3068C250.686 52.3068 251.686 52.5085 252.561 52.9119C253.436 53.3097 254.129 53.8551 254.64 54.5483C255.157 55.2415 255.43 56.0284 255.458 56.9091H253.413ZM258.9 74.9091V56.9091H260.843V58.9886H261.081C261.229 58.7614 261.434 58.4716 261.695 58.1193C261.962 57.7614 262.343 57.4432 262.837 57.1648C263.337 56.8807 264.013 56.7386 264.865 56.7386C265.968 56.7386 266.939 57.0142 267.78 57.5653C268.621 58.1165 269.277 58.8977 269.749 59.9091C270.221 60.9205 270.456 62.1136 270.456 63.4886C270.456 64.875 270.221 66.0767 269.749 67.0938C269.277 68.1051 268.624 68.8892 267.789 69.446C266.953 69.9972 265.99 70.2727 264.9 70.2727C264.059 70.2727 263.385 70.1335 262.88 69.8551C262.374 69.571 261.985 69.25 261.712 68.892C261.439 68.5284 261.229 68.2273 261.081 67.9886H260.911V74.9091H258.9ZM260.877 63.4545C260.877 64.4432 261.022 65.3153 261.311 66.071C261.601 66.821 262.025 67.4091 262.581 67.8352C263.138 68.2557 263.82 68.4659 264.627 68.4659C265.468 68.4659 266.169 68.2443 266.732 67.8011C267.3 67.3523 267.726 66.75 268.01 65.9943C268.3 65.233 268.445 64.3864 268.445 63.4545C268.445 62.5341 268.303 61.7045 268.019 60.9659C267.74 60.2216 267.317 59.6335 266.749 59.2017C266.186 58.7642 265.479 58.5455 264.627 58.5455C263.809 58.5455 263.121 58.7528 262.564 59.1676C262.007 59.5767 261.587 60.1506 261.303 60.8892C261.019 61.6222 260.877 62.4773 260.877 63.4545ZM277.377 70.3068C276.547 70.3068 275.794 70.1506 275.118 69.8381C274.442 69.5199 273.905 69.0625 273.507 68.4659C273.11 67.8636 272.911 67.1364 272.911 66.2841C272.911 65.5341 273.059 64.9261 273.354 64.4602C273.65 63.9886 274.044 63.6193 274.539 63.3523C275.033 63.0852 275.578 62.8864 276.175 62.7557C276.777 62.6193 277.382 62.5114 277.99 62.4318C278.786 62.3295 279.431 62.2528 279.925 62.2017C280.425 62.1449 280.789 62.0511 281.016 61.9205C281.249 61.7898 281.365 61.5625 281.365 61.2386V61.1705C281.365 60.3295 281.135 59.6761 280.675 59.2102C280.221 58.7443 279.53 58.5114 278.604 58.5114C277.644 58.5114 276.891 58.7216 276.346 59.142C275.8 59.5625 275.417 60.0114 275.195 60.4886L273.286 59.8068C273.627 59.0114 274.081 58.392 274.65 57.9489C275.223 57.5 275.848 57.1875 276.525 57.0114C277.206 56.8295 277.877 56.7386 278.536 56.7386C278.956 56.7386 279.439 56.7898 279.985 56.892C280.536 56.9886 281.067 57.1903 281.578 57.4972C282.096 57.804 282.525 58.267 282.865 58.8864C283.206 59.5057 283.377 60.3352 283.377 61.375V70H281.365V68.2273H281.263C281.127 68.5114 280.9 68.8153 280.581 69.1392C280.263 69.4631 279.84 69.7386 279.311 69.9659C278.783 70.1932 278.138 70.3068 277.377 70.3068ZM277.684 68.5C278.479 68.5 279.15 68.3438 279.695 68.0312C280.246 67.7188 280.661 67.3153 280.939 66.821C281.223 66.3267 281.365 65.8068 281.365 65.2614V63.4205C281.28 63.5227 281.093 63.6165 280.803 63.7017C280.519 63.7812 280.189 63.8523 279.814 63.9148C279.445 63.9716 279.084 64.0227 278.732 64.0682C278.385 64.108 278.104 64.142 277.888 64.1705C277.365 64.2386 276.877 64.3494 276.422 64.5028C275.973 64.6506 275.61 64.875 275.331 65.1761C275.059 65.4716 274.922 65.875 274.922 66.3864C274.922 67.0852 275.181 67.6136 275.698 67.9716C276.221 68.3239 276.882 68.5 277.684 68.5ZM292.741 56.9091V58.6136H285.957V56.9091H292.741ZM287.934 53.7727H289.946V66.25C289.946 66.8182 290.028 67.2443 290.193 67.5284C290.363 67.8068 290.579 67.9943 290.841 68.0909C291.108 68.1818 291.389 68.2273 291.684 68.2273C291.906 68.2273 292.088 68.2159 292.23 68.1932C292.372 68.1648 292.485 68.142 292.571 68.125L292.98 69.9318C292.843 69.983 292.653 70.0341 292.409 70.0852C292.164 70.142 291.855 70.1705 291.48 70.1705C290.912 70.1705 290.355 70.0483 289.809 69.804C289.27 69.5597 288.821 69.1875 288.463 68.6875C288.11 68.1875 287.934 67.5568 287.934 66.7955V53.7727ZM295.767 70V56.9091H297.778V70H295.767ZM296.789 54.7273C296.397 54.7273 296.059 54.5938 295.775 54.3267C295.497 54.0597 295.358 53.7386 295.358 53.3636C295.358 52.9886 295.497 52.6676 295.775 52.4006C296.059 52.1335 296.397 52 296.789 52C297.181 52 297.517 52.1335 297.795 52.4006C298.079 52.6676 298.221 52.9886 298.221 53.3636C298.221 53.7386 298.079 54.0597 297.795 54.3267C297.517 54.5938 297.181 54.7273 296.789 54.7273ZM305.314 70.3068C304.485 70.3068 303.732 70.1506 303.056 69.8381C302.38 69.5199 301.843 69.0625 301.445 68.4659C301.047 67.8636 300.848 67.1364 300.848 66.2841C300.848 65.5341 300.996 64.9261 301.292 64.4602C301.587 63.9886 301.982 63.6193 302.476 63.3523C302.971 63.0852 303.516 62.8864 304.113 62.7557C304.715 62.6193 305.32 62.5114 305.928 62.4318C306.723 62.3295 307.368 62.2528 307.863 62.2017C308.363 62.1449 308.726 62.0511 308.953 61.9205C309.186 61.7898 309.303 61.5625 309.303 61.2386V61.1705C309.303 60.3295 309.073 59.6761 308.613 59.2102C308.158 58.7443 307.468 58.5114 306.542 58.5114C305.581 58.5114 304.828 58.7216 304.283 59.142C303.738 59.5625 303.354 60.0114 303.132 60.4886L301.223 59.8068C301.564 59.0114 302.019 58.392 302.587 57.9489C303.161 57.5 303.786 57.1875 304.462 57.0114C305.144 56.8295 305.814 56.7386 306.473 56.7386C306.894 56.7386 307.377 56.7898 307.922 56.892C308.473 56.9886 309.005 57.1903 309.516 57.4972C310.033 57.804 310.462 58.267 310.803 58.8864C311.144 59.5057 311.314 60.3352 311.314 61.375V70H309.303V68.2273H309.201C309.064 68.5114 308.837 68.8153 308.519 69.1392C308.201 69.4631 307.777 69.7386 307.249 69.9659C306.721 70.1932 306.076 70.3068 305.314 70.3068ZM305.621 68.5C306.417 68.5 307.087 68.3438 307.632 68.0312C308.184 67.7188 308.598 67.3153 308.877 66.821C309.161 66.3267 309.303 65.8068 309.303 65.2614V63.4205C309.218 63.5227 309.03 63.6165 308.74 63.7017C308.456 63.7812 308.127 63.8523 307.752 63.9148C307.382 63.9716 307.022 64.0227 306.669 64.0682C306.323 64.108 306.042 64.142 305.826 64.1705C305.303 64.2386 304.814 64.3494 304.36 64.5028C303.911 64.6506 303.547 64.875 303.269 65.1761C302.996 65.4716 302.86 65.875 302.86 66.3864C302.86 67.0852 303.118 67.6136 303.635 67.9716C304.158 68.3239 304.82 68.5 305.621 68.5ZM316.997 52.5455V70H314.985V52.5455H316.997ZM327.703 70V52.5455H333.601C334.971 52.5455 336.09 52.7926 336.959 53.2869C337.834 53.7756 338.482 54.4375 338.902 55.2727C339.323 56.108 339.533 57.0398 339.533 58.0682C339.533 59.0966 339.323 60.0312 338.902 60.8722C338.488 61.7131 337.846 62.3835 336.976 62.8835C336.107 63.3778 334.993 63.625 333.635 63.625H329.408V61.75H333.567C334.505 61.75 335.257 61.5881 335.826 61.2642C336.394 60.9403 336.806 60.5028 337.061 59.9517C337.323 59.3949 337.453 58.767 337.453 58.0682C337.453 57.3693 337.323 56.7443 337.061 56.1932C336.806 55.642 336.391 55.2102 335.817 54.8977C335.243 54.5795 334.482 54.4205 333.533 54.4205H329.817V70H327.703ZM342.665 70V56.9091H344.608V58.8864H344.745C344.983 58.2386 345.415 57.7131 346.04 57.3097C346.665 56.9062 347.37 56.7045 348.154 56.7045C348.301 56.7045 348.486 56.7074 348.708 56.7131C348.929 56.7187 349.097 56.7273 349.211 56.7386V58.7841C349.142 58.767 348.986 58.7415 348.742 58.7074C348.503 58.6676 348.25 58.6477 347.983 58.6477C347.347 58.6477 346.779 58.7812 346.279 59.0483C345.784 59.3097 345.392 59.6733 345.103 60.1392C344.819 60.5994 344.676 61.125 344.676 61.7159V70H342.665ZM356.685 70.2727C355.424 70.2727 354.336 69.9943 353.421 69.4375C352.512 68.875 351.81 68.0909 351.316 67.0852C350.827 66.0739 350.583 64.8977 350.583 63.5568C350.583 62.2159 350.827 61.0341 351.316 60.0114C351.81 58.983 352.498 58.1818 353.378 57.608C354.265 57.0284 355.299 56.7386 356.48 56.7386C357.162 56.7386 357.836 56.8523 358.5 57.0795C359.165 57.3068 359.77 57.6761 360.316 58.1875C360.861 58.6932 361.296 59.3636 361.62 60.1989C361.944 61.0341 362.105 62.0625 362.105 63.2841V64.1364H352.015V62.3977H360.06C360.06 61.6591 359.912 61 359.617 60.4205C359.327 59.8409 358.912 59.3835 358.373 59.0483C357.838 58.7131 357.208 58.5455 356.48 58.5455C355.679 58.5455 354.986 58.7443 354.401 59.142C353.821 59.5341 353.375 60.0455 353.063 60.6761C352.75 61.3068 352.594 61.983 352.594 62.7045V63.8636C352.594 64.8523 352.765 65.6903 353.105 66.3778C353.452 67.0597 353.932 67.5795 354.546 67.9375C355.159 68.2898 355.873 68.4659 356.685 68.4659C357.213 68.4659 357.691 68.392 358.117 68.2443C358.549 68.0909 358.921 67.8636 359.233 67.5625C359.546 67.2557 359.787 66.875 359.958 66.4205L361.901 66.9659C361.696 67.625 361.353 68.2045 360.87 68.7045C360.387 69.1989 359.79 69.5852 359.08 69.8636C358.37 70.1364 357.571 70.2727 356.685 70.2727ZM374.438 59.8409L372.631 60.3523C372.517 60.0511 372.35 59.7585 372.128 59.4744C371.912 59.1847 371.617 58.946 371.242 58.7585C370.867 58.571 370.387 58.4773 369.801 58.4773C369 58.4773 368.333 58.6619 367.799 59.0312C367.27 59.3949 367.006 59.858 367.006 60.4205C367.006 60.9205 367.188 61.3153 367.551 61.6051C367.915 61.8949 368.483 62.1364 369.256 62.3295L371.199 62.8068C372.37 63.0909 373.242 63.5256 373.816 64.1108C374.39 64.6903 374.676 65.4375 374.676 66.3523C374.676 67.1023 374.461 67.7727 374.029 68.3636C373.603 68.9545 373.006 69.4205 372.239 69.7614C371.472 70.1023 370.58 70.2727 369.563 70.2727C368.228 70.2727 367.123 69.983 366.248 69.4034C365.373 68.8239 364.819 67.9773 364.586 66.8636L366.495 66.3864C366.676 67.0909 367.02 67.6193 367.526 67.9716C368.037 68.3239 368.705 68.5 369.529 68.5C370.466 68.5 371.211 68.3011 371.762 67.9034C372.319 67.5 372.597 67.017 372.597 66.4545C372.597 66 372.438 65.6193 372.12 65.3125C371.801 65 371.313 64.767 370.654 64.6136L368.472 64.1023C367.273 63.8182 366.392 63.3778 365.83 62.7812C365.273 62.179 364.995 61.4261 364.995 60.5227C364.995 59.7841 365.202 59.1307 365.617 58.5625C366.037 57.9943 366.608 57.5483 367.33 57.2244C368.057 56.9006 368.881 56.7386 369.801 56.7386C371.097 56.7386 372.114 57.0227 372.853 57.5909C373.597 58.1591 374.125 58.9091 374.438 59.8409ZM383.193 70.2727C381.931 70.2727 380.843 69.9943 379.929 69.4375C379.02 68.875 378.318 68.0909 377.824 67.0852C377.335 66.0739 377.091 64.8977 377.091 63.5568C377.091 62.2159 377.335 61.0341 377.824 60.0114C378.318 58.983 379.005 58.1818 379.886 57.608C380.772 57.0284 381.806 56.7386 382.988 56.7386C383.67 56.7386 384.343 56.8523 385.008 57.0795C385.673 57.3068 386.278 57.6761 386.824 58.1875C387.369 58.6932 387.804 59.3636 388.127 60.1989C388.451 61.0341 388.613 62.0625 388.613 63.2841V64.1364H378.522V62.3977H386.568C386.568 61.6591 386.42 61 386.125 60.4205C385.835 59.8409 385.42 59.3835 384.88 59.0483C384.346 58.7131 383.716 58.5455 382.988 58.5455C382.187 58.5455 381.494 58.7443 380.909 59.142C380.329 59.5341 379.883 60.0455 379.571 60.6761C379.258 61.3068 379.102 61.983 379.102 62.7045V63.8636C379.102 64.8523 379.272 65.6903 379.613 66.3778C379.96 67.0597 380.44 67.5795 381.054 67.9375C381.667 68.2898 382.38 68.4659 383.193 68.4659C383.721 68.4659 384.199 68.392 384.625 68.2443C385.056 68.0909 385.429 67.8636 385.741 67.5625C386.054 67.2557 386.295 66.875 386.466 66.4205L388.409 66.9659C388.204 67.625 387.86 68.2045 387.377 68.7045C386.895 69.1989 386.298 69.5852 385.588 69.8636C384.877 70.1364 384.079 70.2727 383.193 70.2727ZM393.684 62.125V70H391.673V56.9091H393.616V58.9545H393.787C394.093 58.2898 394.559 57.7557 395.184 57.3523C395.809 56.9432 396.616 56.7386 397.605 56.7386C398.491 56.7386 399.267 56.9205 399.931 57.2841C400.596 57.642 401.113 58.1875 401.483 58.9205C401.852 59.6477 402.037 60.5682 402.037 61.6818V70H400.025V61.8182C400.025 60.7898 399.758 59.9886 399.224 59.4148C398.69 58.8352 397.957 58.5455 397.025 58.5455C396.383 58.5455 395.809 58.6847 395.304 58.9631C394.804 59.2415 394.409 59.6477 394.119 60.1818C393.829 60.7159 393.684 61.3636 393.684 62.125ZM411.03 70.2727C409.803 70.2727 408.746 69.983 407.86 69.4034C406.973 68.8239 406.292 68.0256 405.814 67.0085C405.337 65.9915 405.098 64.8295 405.098 63.5227C405.098 62.1932 405.343 61.0199 405.831 60.0028C406.326 58.9801 407.013 58.1818 407.894 57.608C408.78 57.0284 409.814 56.7386 410.996 56.7386C411.917 56.7386 412.746 56.9091 413.485 57.25C414.223 57.5909 414.828 58.0682 415.3 58.6818C415.772 59.2955 416.064 60.0114 416.178 60.8295H414.167C414.013 60.233 413.672 59.7045 413.144 59.2443C412.621 58.7784 411.917 58.5455 411.03 58.5455C410.246 58.5455 409.559 58.75 408.968 59.1591C408.382 59.5625 407.925 60.1335 407.596 60.8722C407.272 61.6051 407.11 62.4659 407.11 63.4545C407.11 64.4659 407.269 65.3466 407.587 66.0966C407.911 66.8466 408.365 67.429 408.951 67.8438C409.542 68.2585 410.235 68.4659 411.03 68.4659C411.553 68.4659 412.027 68.375 412.453 68.1932C412.88 68.0114 413.24 67.75 413.536 67.4091C413.831 67.0682 414.042 66.6591 414.167 66.1818H416.178C416.064 66.9545 415.783 67.6506 415.334 68.2699C414.891 68.8835 414.303 69.3722 413.57 69.7358C412.843 70.0938 411.996 70.2727 411.03 70.2727ZM424.607 70.2727C423.346 70.2727 422.257 69.9943 421.343 69.4375C420.434 68.875 419.732 68.0909 419.238 67.0852C418.749 66.0739 418.505 64.8977 418.505 63.5568C418.505 62.2159 418.749 61.0341 419.238 60.0114C419.732 58.983 420.419 58.1818 421.3 57.608C422.186 57.0284 423.221 56.7386 424.402 56.7386C425.084 56.7386 425.757 56.8523 426.422 57.0795C427.087 57.3068 427.692 57.6761 428.238 58.1875C428.783 58.6932 429.218 59.3636 429.542 60.1989C429.865 61.0341 430.027 62.0625 430.027 63.2841V64.1364H419.936V62.3977H427.982C427.982 61.6591 427.834 61 427.539 60.4205C427.249 59.8409 426.834 59.3835 426.294 59.0483C425.76 58.7131 425.13 58.5455 424.402 58.5455C423.601 58.5455 422.908 58.7443 422.323 59.142C421.743 59.5341 421.297 60.0455 420.985 60.6761C420.672 61.3068 420.516 61.983 420.516 62.7045V63.8636C420.516 64.8523 420.686 65.6903 421.027 66.3778C421.374 67.0597 421.854 67.5795 422.468 67.9375C423.081 68.2898 423.794 68.4659 424.607 68.4659C425.135 68.4659 425.613 68.392 426.039 68.2443C426.471 68.0909 426.843 67.8636 427.155 67.5625C427.468 67.2557 427.709 66.875 427.88 66.4205L429.823 66.9659C429.618 67.625 429.275 68.2045 428.792 68.7045C428.309 69.1989 427.712 69.5852 427.002 69.8636C426.292 70.1364 425.493 70.2727 424.607 70.2727Z" fill="black"/>
<path d="M272.091 212.545V230H269.977V212.545H272.091ZM278.067 222.125V230H276.056V216.909H277.999V218.955H278.169C278.476 218.29 278.942 217.756 279.567 217.352C280.192 216.943 280.999 216.739 281.988 216.739C282.874 216.739 283.65 216.92 284.314 217.284C284.979 217.642 285.496 218.188 285.865 218.92C286.235 219.648 286.419 220.568 286.419 221.682V230H284.408V221.818C284.408 220.79 284.141 219.989 283.607 219.415C283.073 218.835 282.34 218.545 281.408 218.545C280.766 218.545 280.192 218.685 279.686 218.963C279.186 219.241 278.792 219.648 278.502 220.182C278.212 220.716 278.067 221.364 278.067 222.125ZM300.331 216.909L295.49 230H293.444L288.603 216.909H290.785L294.399 227.341H294.535L298.149 216.909H300.331ZM307.835 230.273C306.653 230.273 305.616 229.991 304.724 229.429C303.838 228.866 303.145 228.08 302.645 227.068C302.15 226.057 301.903 224.875 301.903 223.523C301.903 222.159 302.15 220.969 302.645 219.952C303.145 218.935 303.838 218.145 304.724 217.582C305.616 217.02 306.653 216.739 307.835 216.739C309.017 216.739 310.051 217.02 310.937 217.582C311.829 218.145 312.522 218.935 313.017 219.952C313.517 220.969 313.767 222.159 313.767 223.523C313.767 224.875 313.517 226.057 313.017 227.068C312.522 228.08 311.829 228.866 310.937 229.429C310.051 229.991 309.017 230.273 307.835 230.273ZM307.835 228.466C308.733 228.466 309.471 228.236 310.051 227.776C310.63 227.315 311.059 226.71 311.338 225.96C311.616 225.21 311.755 224.398 311.755 223.523C311.755 222.648 311.616 221.832 311.338 221.077C311.059 220.321 310.63 219.71 310.051 219.244C309.471 218.778 308.733 218.545 307.835 218.545C306.937 218.545 306.199 218.778 305.619 219.244C305.039 219.71 304.61 220.321 304.332 221.077C304.054 221.832 303.914 222.648 303.914 223.523C303.914 224.398 304.054 225.21 304.332 225.96C304.61 226.71 305.039 227.315 305.619 227.776C306.199 228.236 306.937 228.466 307.835 228.466ZM318.848 212.545V230H316.837V212.545H318.848ZM333.237 216.909L328.396 230H326.35L321.51 216.909H323.691L327.305 227.341H327.441L331.055 216.909H333.237ZM340.912 230.273C339.65 230.273 338.562 229.994 337.647 229.438C336.738 228.875 336.037 228.091 335.542 227.085C335.054 226.074 334.809 224.898 334.809 223.557C334.809 222.216 335.054 221.034 335.542 220.011C336.037 218.983 336.724 218.182 337.605 217.608C338.491 217.028 339.525 216.739 340.707 216.739C341.389 216.739 342.062 216.852 342.727 217.08C343.392 217.307 343.997 217.676 344.542 218.188C345.088 218.693 345.522 219.364 345.846 220.199C346.17 221.034 346.332 222.062 346.332 223.284V224.136H336.241V222.398H344.287C344.287 221.659 344.139 221 343.843 220.42C343.554 219.841 343.139 219.384 342.599 219.048C342.065 218.713 341.434 218.545 340.707 218.545C339.906 218.545 339.213 218.744 338.627 219.142C338.048 219.534 337.602 220.045 337.289 220.676C336.977 221.307 336.821 221.983 336.821 222.705V223.864C336.821 224.852 336.991 225.69 337.332 226.378C337.679 227.06 338.159 227.58 338.772 227.938C339.386 228.29 340.099 228.466 340.912 228.466C341.44 228.466 341.917 228.392 342.343 228.244C342.775 228.091 343.147 227.864 343.46 227.562C343.772 227.256 344.014 226.875 344.184 226.42L346.127 226.966C345.923 227.625 345.579 228.205 345.096 228.705C344.613 229.199 344.017 229.585 343.306 229.864C342.596 230.136 341.798 230.273 340.912 230.273ZM349.392 230V216.909H351.335V218.955H351.505C351.778 218.256 352.218 217.713 352.826 217.327C353.434 216.935 354.164 216.739 355.017 216.739C355.88 216.739 356.599 216.935 357.173 217.327C357.752 217.713 358.204 218.256 358.528 218.955H358.664C359 218.278 359.502 217.741 360.173 217.344C360.843 216.94 361.647 216.739 362.585 216.739C363.755 216.739 364.713 217.105 365.457 217.838C366.201 218.565 366.574 219.699 366.574 221.239V230H364.562V221.239C364.562 220.273 364.298 219.582 363.77 219.168C363.241 218.753 362.619 218.545 361.903 218.545C360.983 218.545 360.27 218.824 359.764 219.381C359.258 219.932 359.005 220.631 359.005 221.477V230H356.96V221.034C356.96 220.29 356.718 219.69 356.235 219.236C355.752 218.776 355.13 218.545 354.369 218.545C353.846 218.545 353.358 218.685 352.903 218.963C352.454 219.241 352.091 219.628 351.812 220.122C351.539 220.611 351.403 221.176 351.403 221.818V230H349.392ZM375.74 230.273C374.478 230.273 373.39 229.994 372.475 229.438C371.566 228.875 370.865 228.091 370.37 227.085C369.882 226.074 369.637 224.898 369.637 223.557C369.637 222.216 369.882 221.034 370.37 220.011C370.865 218.983 371.552 218.182 372.433 217.608C373.319 217.028 374.353 216.739 375.535 216.739C376.217 216.739 376.89 216.852 377.555 217.08C378.22 217.307 378.825 217.676 379.37 218.188C379.916 218.693 380.35 219.364 380.674 220.199C380.998 221.034 381.16 222.062 381.16 223.284V224.136H371.069V222.398H379.115C379.115 221.659 378.967 221 378.672 220.42C378.382 219.841 377.967 219.384 377.427 219.048C376.893 218.713 376.262 218.545 375.535 218.545C374.734 218.545 374.041 218.744 373.456 219.142C372.876 219.534 372.43 220.045 372.118 220.676C371.805 221.307 371.649 221.983 371.649 222.705V223.864C371.649 224.852 371.819 225.69 372.16 226.378C372.507 227.06 372.987 227.58 373.6 227.938C374.214 228.29 374.927 228.466 375.74 228.466C376.268 228.466 376.745 228.392 377.172 228.244C377.603 228.091 377.975 227.864 378.288 227.562C378.6 227.256 378.842 226.875 379.012 226.42L380.956 226.966C380.751 227.625 380.407 228.205 379.924 228.705C379.441 229.199 378.845 229.585 378.135 229.864C377.424 230.136 376.626 230.273 375.74 230.273ZM386.231 222.125V230H384.22V216.909H386.163V218.955H386.333C386.64 218.29 387.106 217.756 387.731 217.352C388.356 216.943 389.163 216.739 390.152 216.739C391.038 216.739 391.814 216.92 392.478 217.284C393.143 217.642 393.66 218.188 394.029 218.92C394.399 219.648 394.583 220.568 394.583 221.682V230H392.572V221.818C392.572 220.79 392.305 219.989 391.771 219.415C391.237 218.835 390.504 218.545 389.572 218.545C388.93 218.545 388.356 218.685 387.85 218.963C387.35 219.241 386.956 219.648 386.666 220.182C386.376 220.716 386.231 221.364 386.231 222.125ZM403.952 216.909V218.614H397.168V216.909H403.952ZM399.145 213.773H401.157V226.25C401.157 226.818 401.239 227.244 401.404 227.528C401.574 227.807 401.79 227.994 402.051 228.091C402.319 228.182 402.6 228.227 402.895 228.227C403.117 228.227 403.299 228.216 403.441 228.193C403.583 228.165 403.696 228.142 403.782 228.125L404.191 229.932C404.054 229.983 403.864 230.034 403.62 230.085C403.375 230.142 403.066 230.17 402.691 230.17C402.123 230.17 401.566 230.048 401.02 229.804C400.48 229.56 400.032 229.188 399.674 228.688C399.321 228.188 399.145 227.557 399.145 226.795V213.773Z" fill="black"/>
<path d="M777.786 230V212.545H783.683C785.053 212.545 786.172 212.793 787.041 213.287C787.916 213.776 788.564 214.438 788.984 215.273C789.405 216.108 789.615 217.04 789.615 218.068C789.615 219.097 789.405 220.031 788.984 220.872C788.57 221.713 787.928 222.384 787.058 222.884C786.189 223.378 785.075 223.625 783.717 223.625H779.49V221.75H783.649C784.587 221.75 785.339 221.588 785.908 221.264C786.476 220.94 786.888 220.503 787.143 219.952C787.405 219.395 787.536 218.767 787.536 218.068C787.536 217.369 787.405 216.744 787.143 216.193C786.888 215.642 786.473 215.21 785.899 214.898C785.325 214.58 784.564 214.42 783.615 214.42H779.899V230H777.786ZM792.747 230V216.909H794.69V218.886H794.827C795.065 218.239 795.497 217.713 796.122 217.31C796.747 216.906 797.452 216.705 798.236 216.705C798.384 216.705 798.568 216.707 798.79 216.713C799.011 216.719 799.179 216.727 799.293 216.739V218.784C799.224 218.767 799.068 218.741 798.824 218.707C798.585 218.668 798.332 218.648 798.065 218.648C797.429 218.648 796.861 218.781 796.361 219.048C795.866 219.31 795.474 219.673 795.185 220.139C794.901 220.599 794.759 221.125 794.759 221.716V230H792.747ZM806.767 230.273C805.506 230.273 804.418 229.994 803.503 229.438C802.594 228.875 801.892 228.091 801.398 227.085C800.909 226.074 800.665 224.898 800.665 223.557C800.665 222.216 800.909 221.034 801.398 220.011C801.892 218.983 802.58 218.182 803.46 217.608C804.347 217.028 805.381 216.739 806.562 216.739C807.244 216.739 807.918 216.852 808.582 217.08C809.247 217.307 809.852 217.676 810.398 218.188C810.943 218.693 811.378 219.364 811.702 220.199C812.026 221.034 812.188 222.062 812.188 223.284V224.136H802.097V222.398H810.142C810.142 221.659 809.994 221 809.699 220.42C809.409 219.841 808.994 219.384 808.455 219.048C807.92 218.713 807.29 218.545 806.562 218.545C805.761 218.545 805.068 218.744 804.483 219.142C803.903 219.534 803.457 220.045 803.145 220.676C802.832 221.307 802.676 221.983 802.676 222.705V223.864C802.676 224.852 802.847 225.69 803.188 226.378C803.534 227.06 804.014 227.58 804.628 227.938C805.241 228.29 805.955 228.466 806.767 228.466C807.295 228.466 807.773 228.392 808.199 228.244C808.631 228.091 809.003 227.864 809.315 227.562C809.628 227.256 809.869 226.875 810.04 226.42L811.983 226.966C811.778 227.625 811.435 228.205 810.952 228.705C810.469 229.199 809.872 229.585 809.162 229.864C808.452 230.136 807.653 230.273 806.767 230.273ZM824.52 219.841L822.713 220.352C822.599 220.051 822.432 219.759 822.21 219.474C821.994 219.185 821.699 218.946 821.324 218.759C820.949 218.571 820.469 218.477 819.884 218.477C819.082 218.477 818.415 218.662 817.881 219.031C817.352 219.395 817.088 219.858 817.088 220.42C817.088 220.92 817.27 221.315 817.634 221.605C817.997 221.895 818.565 222.136 819.338 222.33L821.281 222.807C822.452 223.091 823.324 223.526 823.898 224.111C824.472 224.69 824.759 225.437 824.759 226.352C824.759 227.102 824.543 227.773 824.111 228.364C823.685 228.955 823.088 229.42 822.321 229.761C821.554 230.102 820.662 230.273 819.645 230.273C818.31 230.273 817.205 229.983 816.33 229.403C815.455 228.824 814.901 227.977 814.668 226.864L816.577 226.386C816.759 227.091 817.102 227.619 817.608 227.972C818.119 228.324 818.787 228.5 819.611 228.5C820.548 228.5 821.293 228.301 821.844 227.903C822.401 227.5 822.679 227.017 822.679 226.455C822.679 226 822.52 225.619 822.202 225.312C821.884 225 821.395 224.767 820.736 224.614L818.554 224.102C817.355 223.818 816.474 223.378 815.912 222.781C815.355 222.179 815.077 221.426 815.077 220.523C815.077 219.784 815.284 219.131 815.699 218.562C816.119 217.994 816.69 217.548 817.412 217.224C818.139 216.901 818.963 216.739 819.884 216.739C821.179 216.739 822.196 217.023 822.935 217.591C823.679 218.159 824.207 218.909 824.52 219.841ZM833.275 230.273C832.013 230.273 830.925 229.994 830.011 229.438C829.102 228.875 828.4 228.091 827.906 227.085C827.417 226.074 827.173 224.898 827.173 223.557C827.173 222.216 827.417 221.034 827.906 220.011C828.4 218.983 829.087 218.182 829.968 217.608C830.854 217.028 831.888 216.739 833.07 216.739C833.752 216.739 834.425 216.852 835.09 217.08C835.755 217.307 836.36 217.676 836.906 218.188C837.451 218.693 837.886 219.364 838.21 220.199C838.533 221.034 838.695 222.062 838.695 223.284V224.136H828.604V222.398H836.65C836.65 221.659 836.502 221 836.207 220.42C835.917 219.841 835.502 219.384 834.962 219.048C834.428 218.713 833.798 218.545 833.07 218.545C832.269 218.545 831.576 218.744 830.991 219.142C830.411 219.534 829.965 220.045 829.653 220.676C829.34 221.307 829.184 221.983 829.184 222.705V223.864C829.184 224.852 829.354 225.69 829.695 226.378C830.042 227.06 830.522 227.58 831.136 227.938C831.749 228.29 832.462 228.466 833.275 228.466C833.803 228.466 834.281 228.392 834.707 228.244C835.138 228.091 835.511 227.864 835.823 227.562C836.136 227.256 836.377 226.875 836.548 226.42L838.491 226.966C838.286 227.625 837.942 228.205 837.46 228.705C836.977 229.199 836.38 229.585 835.67 229.864C834.96 230.136 834.161 230.273 833.275 230.273ZM843.766 222.125V230H841.755V216.909H843.698V218.955H843.869C844.175 218.29 844.641 217.756 845.266 217.352C845.891 216.943 846.698 216.739 847.687 216.739C848.573 216.739 849.349 216.92 850.013 217.284C850.678 217.642 851.195 218.188 851.565 218.92C851.934 219.648 852.119 220.568 852.119 221.682V230H850.107V221.818C850.107 220.79 849.84 219.989 849.306 219.415C848.772 218.835 848.039 218.545 847.107 218.545C846.465 218.545 845.891 218.685 845.386 218.963C844.886 219.241 844.491 219.648 844.201 220.182C843.911 220.716 843.766 221.364 843.766 222.125ZM861.112 230.273C859.885 230.273 858.828 229.983 857.942 229.403C857.055 228.824 856.374 228.026 855.896 227.009C855.419 225.991 855.18 224.83 855.18 223.523C855.18 222.193 855.425 221.02 855.913 220.003C856.408 218.98 857.095 218.182 857.976 217.608C858.862 217.028 859.896 216.739 861.078 216.739C861.999 216.739 862.828 216.909 863.567 217.25C864.305 217.591 864.911 218.068 865.382 218.682C865.854 219.295 866.146 220.011 866.26 220.83H864.249C864.095 220.233 863.754 219.705 863.226 219.244C862.703 218.778 861.999 218.545 861.112 218.545C860.328 218.545 859.641 218.75 859.05 219.159C858.464 219.562 858.007 220.134 857.678 220.872C857.354 221.605 857.192 222.466 857.192 223.455C857.192 224.466 857.351 225.347 857.669 226.097C857.993 226.847 858.447 227.429 859.033 227.844C859.624 228.259 860.317 228.466 861.112 228.466C861.635 228.466 862.109 228.375 862.536 228.193C862.962 228.011 863.322 227.75 863.618 227.409C863.913 227.068 864.124 226.659 864.249 226.182H866.26C866.146 226.955 865.865 227.651 865.416 228.27C864.973 228.884 864.385 229.372 863.652 229.736C862.925 230.094 862.078 230.273 861.112 230.273ZM874.689 230.273C873.428 230.273 872.339 229.994 871.425 229.438C870.516 228.875 869.814 228.091 869.32 227.085C868.831 226.074 868.587 224.898 868.587 223.557C868.587 222.216 868.831 221.034 869.32 220.011C869.814 218.983 870.501 218.182 871.382 217.608C872.268 217.028 873.303 216.739 874.484 216.739C875.166 216.739 875.839 216.852 876.504 217.08C877.169 217.307 877.774 217.676 878.32 218.188C878.865 218.693 879.3 219.364 879.624 220.199C879.947 221.034 880.109 222.062 880.109 223.284V224.136H870.018V222.398H878.064C878.064 221.659 877.916 221 877.621 220.42C877.331 219.841 876.916 219.384 876.376 219.048C875.842 218.713 875.212 218.545 874.484 218.545C873.683 218.545 872.99 218.744 872.405 219.142C871.825 219.534 871.379 220.045 871.067 220.676C870.754 221.307 870.598 221.983 870.598 222.705V223.864C870.598 224.852 870.768 225.69 871.109 226.378C871.456 227.06 871.936 227.58 872.55 227.938C873.163 228.29 873.876 228.466 874.689 228.466C875.217 228.466 875.695 228.392 876.121 228.244C876.553 228.091 876.925 227.864 877.237 227.562C877.55 227.256 877.791 226.875 877.962 226.42L879.905 226.966C879.7 227.625 879.357 228.205 878.874 228.705C878.391 229.199 877.794 229.585 877.084 229.864C876.374 230.136 875.575 230.273 874.689 230.273Z" fill="black"/>
<path d="M64.2653 65.2386C63.2653 65.2386 62.3647 65.0398 61.5636 64.642C60.7624 64.2443 60.1204 63.6989 59.6374 63.0057C59.1545 62.3125 58.8903 61.5227 58.8448 60.6364H60.8903C60.9698 61.4261 61.3278 62.0795 61.9641 62.5966C62.6062 63.108 63.3732 63.3636 64.2653 63.3636C64.9812 63.3636 65.6175 63.196 66.1744 62.8608C66.7369 62.5256 67.1772 62.0653 67.4954 61.4801C67.8192 60.8892 67.9812 60.2216 67.9812 59.4773C67.9812 58.7159 67.8136 58.0369 67.4783 57.4403C67.1488 56.8381 66.6942 56.3636 66.1147 56.017C65.5352 55.6705 64.8732 55.4943 64.1289 55.4886C63.5948 55.483 63.0465 55.5653 62.484 55.7358C61.9215 55.9006 61.4585 56.1136 61.0948 56.375L59.1175 56.1364L60.1744 47.5455H69.2425V49.4205H61.9471L61.3335 54.5682H61.4357C61.7937 54.2841 62.2425 54.0483 62.7823 53.8608C63.3221 53.6733 63.8846 53.5795 64.4698 53.5795C65.538 53.5795 66.4897 53.8352 67.3249 54.3466C68.1658 54.8523 68.8249 55.5455 69.3022 56.4261C69.7852 57.3068 70.0266 58.3125 70.0266 59.4432C70.0266 60.5568 69.7766 61.5511 69.2766 62.4261C68.7823 63.2955 68.1005 63.983 67.2312 64.4886C66.3619 64.9886 65.3732 65.2386 64.2653 65.2386ZM80.1964 65V51.9091H82.2077V65H80.1964ZM81.2191 49.7273C80.8271 49.7273 80.489 49.5938 80.2049 49.3267C79.9265 49.0597 79.7873 48.7386 79.7873 48.3636C79.7873 47.9886 79.9265 47.6676 80.2049 47.4006C80.489 47.1335 80.8271 47 81.2191 47C81.6112 47 81.9464 47.1335 82.2248 47.4006C82.5089 47.6676 82.6509 47.9886 82.6509 48.3636C82.6509 48.7386 82.5089 49.0597 82.2248 49.3267C81.9464 49.5938 81.6112 49.7273 81.2191 49.7273ZM91.5849 51.9091V53.6136H84.8008V51.9091H91.5849ZM86.7781 48.7727H88.7894V61.25C88.7894 61.8182 88.8718 62.2443 89.0366 62.5284C89.207 62.8068 89.4229 62.9943 89.6843 63.0909C89.9513 63.1818 90.2326 63.2273 90.5281 63.2273C90.7496 63.2273 90.9315 63.2159 91.0735 63.1932C91.2156 63.1648 91.3292 63.142 91.4144 63.125L91.8235 64.9318C91.6871 64.983 91.4968 65.0341 91.2525 65.0852C91.0082 65.142 90.6985 65.1705 90.3235 65.1705C89.7553 65.1705 89.1985 65.0483 88.6531 64.804C88.1133 64.5597 87.6644 64.1875 87.3065 63.6875C86.9542 63.1875 86.7781 62.5568 86.7781 61.7955V48.7727ZM99.9585 65.2727C98.6971 65.2727 97.609 64.9943 96.6942 64.4375C95.7852 63.875 95.0835 63.0909 94.5891 62.0852C94.1005 61.0739 93.8562 59.8977 93.8562 58.5568C93.8562 57.2159 94.1005 56.0341 94.5891 55.0114C95.0835 53.983 95.771 53.1818 96.6516 52.608C97.538 52.0284 98.5721 51.7386 99.7539 51.7386C100.436 51.7386 101.109 51.8523 101.774 52.0795C102.439 52.3068 103.044 52.6761 103.589 53.1875C104.135 53.6932 104.569 54.3636 104.893 55.1989C105.217 56.0341 105.379 57.0625 105.379 58.2841V59.1364H95.288V57.3977H103.333C103.333 56.6591 103.186 56 102.89 55.4205C102.6 54.8409 102.186 54.3835 101.646 54.0483C101.112 53.7131 100.481 53.5455 99.7539 53.5455C98.9528 53.5455 98.2596 53.7443 97.6744 54.142C97.0948 54.5341 96.6488 55.0455 96.3363 55.6761C96.0238 56.3068 95.8675 56.983 95.8675 57.7045V58.8636C95.8675 59.8523 96.038 60.6903 96.3789 61.3778C96.7255 62.0597 97.2056 62.5795 97.8192 62.9375C98.4329 63.2898 99.146 63.4659 99.9585 63.4659C100.487 63.4659 100.964 63.392 101.39 63.2443C101.822 63.0909 102.194 62.8636 102.507 62.5625C102.819 62.2557 103.061 61.875 103.231 61.4205L105.174 61.9659C104.97 62.625 104.626 63.2045 104.143 63.7045C103.66 64.1989 103.064 64.5852 102.353 64.8636C101.643 65.1364 100.845 65.2727 99.9585 65.2727ZM108.439 65V51.9091H110.382V53.9545H110.552C110.825 53.2557 111.265 52.7131 111.873 52.3267C112.481 51.9347 113.211 51.7386 114.064 51.7386C114.927 51.7386 115.646 51.9347 116.22 52.3267C116.799 52.7131 117.251 53.2557 117.575 53.9545H117.711C118.047 53.2784 118.549 52.7415 119.22 52.3438C119.89 51.9403 120.694 51.7386 121.632 51.7386C122.802 51.7386 123.76 52.1051 124.504 52.8381C125.248 53.5653 125.62 54.6989 125.62 56.2386V65H123.609V56.2386C123.609 55.2727 123.345 54.5824 122.816 54.1676C122.288 53.7528 121.666 53.5455 120.95 53.5455C120.029 53.5455 119.316 53.8239 118.811 54.3807C118.305 54.9318 118.052 55.6307 118.052 56.4773V65H116.007V56.0341C116.007 55.2898 115.765 54.6903 115.282 54.2358C114.799 53.7756 114.177 53.5455 113.416 53.5455C112.893 53.5455 112.404 53.6847 111.95 53.9631C111.501 54.2415 111.137 54.6278 110.859 55.1222C110.586 55.6108 110.45 56.1761 110.45 56.8182V65H108.439ZM138.571 54.8409L136.764 55.3523C136.65 55.0511 136.483 54.7585 136.261 54.4744C136.045 54.1847 135.75 53.946 135.375 53.7585C135 53.571 134.52 53.4773 133.934 53.4773C133.133 53.4773 132.466 53.6619 131.931 54.0312C131.403 54.3949 131.139 54.858 131.139 55.4205C131.139 55.9205 131.321 56.3153 131.684 56.6051C132.048 56.8949 132.616 57.1364 133.389 57.3295L135.332 57.8068C136.502 58.0909 137.375 58.5256 137.949 59.1108C138.522 59.6903 138.809 60.4375 138.809 61.3523C138.809 62.1023 138.593 62.7727 138.162 63.3636C137.735 63.9545 137.139 64.4205 136.372 64.7614C135.605 65.1023 134.713 65.2727 133.696 65.2727C132.36 65.2727 131.255 64.983 130.38 64.4034C129.505 63.8239 128.951 62.9773 128.718 61.8636L130.627 61.3864C130.809 62.0909 131.153 62.6193 131.659 62.9716C132.17 63.3239 132.838 63.5 133.662 63.5C134.599 63.5 135.343 63.3011 135.895 62.9034C136.451 62.5 136.73 62.017 136.73 61.4545C136.73 61 136.571 60.6193 136.252 60.3125C135.934 60 135.446 59.767 134.787 59.6136L132.605 59.1023C131.406 58.8182 130.525 58.3778 129.963 57.7812C129.406 57.179 129.127 56.4261 129.127 55.5227C129.127 54.7841 129.335 54.1307 129.75 53.5625C130.17 52.9943 130.741 52.5483 131.463 52.2244C132.19 51.9006 133.014 51.7386 133.934 51.7386C135.23 51.7386 136.247 52.0227 136.985 52.5909C137.73 53.1591 138.258 53.9091 138.571 54.8409Z" fill="black"/>
<path d="M58.0032 235.42V233.682L65.6737 221.545H66.935V224.239H66.0827L60.2873 233.409V233.545H70.6168V235.42H58.0032ZM66.2191 239V234.892V234.082V221.545H68.2305V239H66.2191ZM80.5948 239V225.909H82.6062V239H80.5948ZM81.6175 223.727C81.2255 223.727 80.8874 223.594 80.6033 223.327C80.3249 223.06 80.1857 222.739 80.1857 222.364C80.1857 221.989 80.3249 221.668 80.6033 221.401C80.8874 221.134 81.2255 221 81.6175 221C82.0096 221 82.3448 221.134 82.6232 221.401C82.9073 221.668 83.0494 221.989 83.0494 222.364C83.0494 222.739 82.9073 223.06 82.6232 223.327C82.3448 223.594 82.0096 223.727 81.6175 223.727ZM91.9833 225.909V227.614H85.1992V225.909H91.9833ZM87.1765 222.773H89.1879V235.25C89.1879 235.818 89.2702 236.244 89.435 236.528C89.6055 236.807 89.8214 236.994 90.0827 237.091C90.3498 237.182 90.631 237.227 90.9265 237.227C91.1481 237.227 91.3299 237.216 91.4719 237.193C91.614 237.165 91.7276 237.142 91.8129 237.125L92.2219 238.932C92.0856 238.983 91.8952 239.034 91.6509 239.085C91.4066 239.142 91.0969 239.17 90.7219 239.17C90.1538 239.17 89.5969 239.048 89.0515 238.804C88.5117 238.56 88.0629 238.188 87.7049 237.688C87.3526 237.188 87.1765 236.557 87.1765 235.795V222.773ZM100.357 239.273C99.0955 239.273 98.0075 238.994 97.0927 238.438C96.1836 237.875 95.4819 237.091 94.9876 236.085C94.4989 235.074 94.2546 233.898 94.2546 232.557C94.2546 231.216 94.4989 230.034 94.9876 229.011C95.4819 227.983 96.1694 227.182 97.0501 226.608C97.9364 226.028 98.9705 225.739 100.152 225.739C100.834 225.739 101.507 225.852 102.172 226.08C102.837 226.307 103.442 226.676 103.988 227.188C104.533 227.693 104.968 228.364 105.292 229.199C105.615 230.034 105.777 231.062 105.777 232.284V233.136H95.6864V231.398H103.732C103.732 230.659 103.584 230 103.289 229.42C102.999 228.841 102.584 228.384 102.044 228.048C101.51 227.713 100.88 227.545 100.152 227.545C99.3512 227.545 98.658 227.744 98.0728 228.142C97.4933 228.534 97.0472 229.045 96.7347 229.676C96.4222 230.307 96.266 230.983 96.266 231.705V232.864C96.266 233.852 96.4364 234.69 96.7773 235.378C97.1239 236.06 97.604 236.58 98.2177 236.938C98.8313 237.29 99.5444 237.466 100.357 237.466C100.885 237.466 101.363 237.392 101.789 237.244C102.221 237.091 102.593 236.864 102.905 236.562C103.218 236.256 103.459 235.875 103.63 235.42L105.573 235.966C105.368 236.625 105.025 237.205 104.542 237.705C104.059 238.199 103.462 238.585 102.752 238.864C102.042 239.136 101.243 239.273 100.357 239.273ZM108.837 239V225.909H110.78V227.955H110.951C111.223 227.256 111.664 226.713 112.272 226.327C112.88 225.935 113.61 225.739 114.462 225.739C115.326 225.739 116.044 225.935 116.618 226.327C117.198 226.713 117.65 227.256 117.973 227.955H118.11C118.445 227.278 118.948 226.741 119.618 226.344C120.289 225.94 121.093 225.739 122.03 225.739C123.201 225.739 124.158 226.105 124.902 226.838C125.647 227.565 126.019 228.699 126.019 230.239V239H124.007V230.239C124.007 229.273 123.743 228.582 123.215 228.168C122.686 227.753 122.064 227.545 121.348 227.545C120.428 227.545 119.715 227.824 119.209 228.381C118.703 228.932 118.451 229.631 118.451 230.477V239H116.405V230.034C116.405 229.29 116.164 228.69 115.681 228.236C115.198 227.776 114.576 227.545 113.814 227.545C113.292 227.545 112.803 227.685 112.348 227.963C111.9 228.241 111.536 228.628 111.257 229.122C110.985 229.611 110.848 230.176 110.848 230.818V239H108.837ZM138.969 228.841L137.162 229.352C137.049 229.051 136.881 228.759 136.659 228.474C136.444 228.185 136.148 227.946 135.773 227.759C135.398 227.571 134.918 227.477 134.333 227.477C133.532 227.477 132.864 227.662 132.33 228.031C131.801 228.395 131.537 228.858 131.537 229.42C131.537 229.92 131.719 230.315 132.083 230.605C132.446 230.895 133.015 231.136 133.787 231.33L135.73 231.807C136.901 232.091 137.773 232.526 138.347 233.111C138.921 233.69 139.208 234.437 139.208 235.352C139.208 236.102 138.992 236.773 138.56 237.364C138.134 237.955 137.537 238.42 136.77 238.761C136.003 239.102 135.111 239.273 134.094 239.273C132.759 239.273 131.654 238.983 130.779 238.403C129.904 237.824 129.35 236.977 129.117 235.864L131.026 235.386C131.208 236.091 131.551 236.619 132.057 236.972C132.569 237.324 133.236 237.5 134.06 237.5C134.998 237.5 135.742 237.301 136.293 236.903C136.85 236.5 137.128 236.017 137.128 235.455C137.128 235 136.969 234.619 136.651 234.312C136.333 234 135.844 233.767 135.185 233.614L133.003 233.102C131.804 232.818 130.924 232.378 130.361 231.781C129.804 231.179 129.526 230.426 129.526 229.523C129.526 228.784 129.733 228.131 130.148 227.562C130.569 226.994 131.14 226.548 131.861 226.224C132.588 225.901 133.412 225.739 134.333 225.739C135.628 225.739 136.645 226.023 137.384 226.591C138.128 227.159 138.657 227.909 138.969 228.841Z" fill="black"/>
<path d="M58.0032 388.42V386.682L65.6737 374.545H66.935V377.239H66.0827L60.2873 386.409V386.545H70.6168V388.42H58.0032ZM66.2191 392V387.892V387.082V374.545H68.2305V392H66.2191ZM80.5948 392V378.909H82.6062V392H80.5948ZM81.6175 376.727C81.2255 376.727 80.8874 376.594 80.6033 376.327C80.3249 376.06 80.1857 375.739 80.1857 375.364C80.1857 374.989 80.3249 374.668 80.6033 374.401C80.8874 374.134 81.2255 374 81.6175 374C82.0096 374 82.3448 374.134 82.6232 374.401C82.9073 374.668 83.0494 374.989 83.0494 375.364C83.0494 375.739 82.9073 376.06 82.6232 376.327C82.3448 376.594 82.0096 376.727 81.6175 376.727ZM91.9833 378.909V380.614H85.1992V378.909H91.9833ZM87.1765 375.773H89.1879V388.25C89.1879 388.818 89.2702 389.244 89.435 389.528C89.6055 389.807 89.8214 389.994 90.0827 390.091C90.3498 390.182 90.631 390.227 90.9265 390.227C91.1481 390.227 91.3299 390.216 91.4719 390.193C91.614 390.165 91.7276 390.142 91.8129 390.125L92.2219 391.932C92.0856 391.983 91.8952 392.034 91.6509 392.085C91.4066 392.142 91.0969 392.17 90.7219 392.17C90.1538 392.17 89.5969 392.048 89.0515 391.804C88.5117 391.56 88.0629 391.188 87.7049 390.688C87.3526 390.188 87.1765 389.557 87.1765 388.795V375.773ZM100.357 392.273C99.0955 392.273 98.0075 391.994 97.0927 391.438C96.1836 390.875 95.4819 390.091 94.9876 389.085C94.4989 388.074 94.2546 386.898 94.2546 385.557C94.2546 384.216 94.4989 383.034 94.9876 382.011C95.4819 380.983 96.1694 380.182 97.0501 379.608C97.9364 379.028 98.9705 378.739 100.152 378.739C100.834 378.739 101.507 378.852 102.172 379.08C102.837 379.307 103.442 379.676 103.988 380.188C104.533 380.693 104.968 381.364 105.292 382.199C105.615 383.034 105.777 384.062 105.777 385.284V386.136H95.6864V384.398H103.732C103.732 383.659 103.584 383 103.289 382.42C102.999 381.841 102.584 381.384 102.044 381.048C101.51 380.713 100.88 380.545 100.152 380.545C99.3512 380.545 98.658 380.744 98.0728 381.142C97.4933 381.534 97.0472 382.045 96.7347 382.676C96.4222 383.307 96.266 383.983 96.266 384.705V385.864C96.266 386.852 96.4364 387.69 96.7773 388.378C97.1239 389.06 97.604 389.58 98.2177 389.938C98.8313 390.29 99.5444 390.466 100.357 390.466C100.885 390.466 101.363 390.392 101.789 390.244C102.221 390.091 102.593 389.864 102.905 389.562C103.218 389.256 103.459 388.875 103.63 388.42L105.573 388.966C105.368 389.625 105.025 390.205 104.542 390.705C104.059 391.199 103.462 391.585 102.752 391.864C102.042 392.136 101.243 392.273 100.357 392.273ZM108.837 392V378.909H110.78V380.955H110.951C111.223 380.256 111.664 379.713 112.272 379.327C112.88 378.935 113.61 378.739 114.462 378.739C115.326 378.739 116.044 378.935 116.618 379.327C117.198 379.713 117.65 380.256 117.973 380.955H118.11C118.445 380.278 118.948 379.741 119.618 379.344C120.289 378.94 121.093 378.739 122.03 378.739C123.201 378.739 124.158 379.105 124.902 379.838C125.647 380.565 126.019 381.699 126.019 383.239V392H124.007V383.239C124.007 382.273 123.743 381.582 123.215 381.168C122.686 380.753 122.064 380.545 121.348 380.545C120.428 380.545 119.715 380.824 119.209 381.381C118.703 381.932 118.451 382.631 118.451 383.477V392H116.405V383.034C116.405 382.29 116.164 381.69 115.681 381.236C115.198 380.776 114.576 380.545 113.814 380.545C113.292 380.545 112.803 380.685 112.348 380.963C111.9 381.241 111.536 381.628 111.257 382.122C110.985 382.611 110.848 383.176 110.848 383.818V392H108.837ZM138.969 381.841L137.162 382.352C137.049 382.051 136.881 381.759 136.659 381.474C136.444 381.185 136.148 380.946 135.773 380.759C135.398 380.571 134.918 380.477 134.333 380.477C133.532 380.477 132.864 380.662 132.33 381.031C131.801 381.395 131.537 381.858 131.537 382.42C131.537 382.92 131.719 383.315 132.083 383.605C132.446 383.895 133.015 384.136 133.787 384.33L135.73 384.807C136.901 385.091 137.773 385.526 138.347 386.111C138.921 386.69 139.208 387.437 139.208 388.352C139.208 389.102 138.992 389.773 138.56 390.364C138.134 390.955 137.537 391.42 136.77 391.761C136.003 392.102 135.111 392.273 134.094 392.273C132.759 392.273 131.654 391.983 130.779 391.403C129.904 390.824 129.35 389.977 129.117 388.864L131.026 388.386C131.208 389.091 131.551 389.619 132.057 389.972C132.569 390.324 133.236 390.5 134.06 390.5C134.998 390.5 135.742 390.301 136.293 389.903C136.85 389.5 137.128 389.017 137.128 388.455C137.128 388 136.969 387.619 136.651 387.312C136.333 387 135.844 386.767 135.185 386.614L133.003 386.102C131.804 385.818 130.924 385.378 130.361 384.781C129.804 384.179 129.526 383.426 129.526 382.523C129.526 381.784 129.733 381.131 130.148 380.562C130.569 379.994 131.14 379.548 131.861 379.224C132.588 378.901 133.412 378.739 134.333 378.739C135.628 378.739 136.645 379.023 137.384 379.591C138.128 380.159 138.657 380.909 138.969 381.841Z" fill="black"/>
<path d="M1002.67 215.545V233H1000.56V217.761H1000.45L996.192 220.591V218.443L1000.56 215.545H1002.67ZM1014.47 233V219.909H1016.49V233H1014.47ZM1015.5 217.727C1015.1 217.727 1014.77 217.594 1014.48 217.327C1014.2 217.06 1014.06 216.739 1014.06 216.364C1014.06 215.989 1014.2 215.668 1014.48 215.401C1014.77 215.134 1015.1 215 1015.5 215C1015.89 215 1016.22 215.134 1016.5 215.401C1016.79 215.668 1016.93 215.989 1016.93 216.364C1016.93 216.739 1016.79 217.06 1016.5 217.327C1016.22 217.594 1015.89 217.727 1015.5 217.727ZM1025.86 219.909V221.614H1019.08V219.909H1025.86ZM1021.06 216.773H1023.07V229.25C1023.07 229.818 1023.15 230.244 1023.31 230.528C1023.48 230.807 1023.7 230.994 1023.96 231.091C1024.23 231.182 1024.51 231.227 1024.81 231.227C1025.03 231.227 1025.21 231.216 1025.35 231.193C1025.49 231.165 1025.61 231.142 1025.69 231.125L1026.1 232.932C1025.96 232.983 1025.77 233.034 1025.53 233.085C1025.29 233.142 1024.98 233.17 1024.6 233.17C1024.03 233.17 1023.48 233.048 1022.93 232.804C1022.39 232.56 1021.94 232.188 1021.58 231.688C1021.23 231.188 1021.06 230.557 1021.06 229.795V216.773ZM1034.24 233.273C1032.97 233.273 1031.89 232.994 1030.97 232.438C1030.06 231.875 1029.36 231.091 1028.87 230.085C1028.38 229.074 1028.13 227.898 1028.13 226.557C1028.13 225.216 1028.38 224.034 1028.87 223.011C1029.36 221.983 1030.05 221.182 1030.93 220.608C1031.82 220.028 1032.85 219.739 1034.03 219.739C1034.71 219.739 1035.39 219.852 1036.05 220.08C1036.72 220.307 1037.32 220.676 1037.87 221.188C1038.41 221.693 1038.85 222.364 1039.17 223.199C1039.49 224.034 1039.66 225.062 1039.66 226.284V227.136H1029.57V225.398H1037.61C1037.61 224.659 1037.46 224 1037.17 223.42C1036.88 222.841 1036.46 222.384 1035.92 222.048C1035.39 221.713 1034.76 221.545 1034.03 221.545C1033.23 221.545 1032.54 221.744 1031.95 222.142C1031.37 222.534 1030.93 223.045 1030.61 223.676C1030.3 224.307 1030.14 224.983 1030.14 225.705V226.864C1030.14 227.852 1030.32 228.69 1030.66 229.378C1031 230.06 1031.48 230.58 1032.1 230.938C1032.71 231.29 1033.42 231.466 1034.24 231.466C1034.76 231.466 1035.24 231.392 1035.67 231.244C1036.1 231.091 1036.47 230.864 1036.78 230.562C1037.1 230.256 1037.34 229.875 1037.51 229.42L1039.45 229.966C1039.25 230.625 1038.9 231.205 1038.42 231.705C1037.94 232.199 1037.34 232.585 1036.63 232.864C1035.92 233.136 1035.12 233.273 1034.24 233.273ZM1042.72 233V219.909H1044.66V221.955H1044.83C1045.1 221.256 1045.54 220.713 1046.15 220.327C1046.76 219.935 1047.49 219.739 1048.34 219.739C1049.2 219.739 1049.92 219.935 1050.5 220.327C1051.08 220.713 1051.53 221.256 1051.85 221.955H1051.99C1052.32 221.278 1052.83 220.741 1053.5 220.344C1054.17 219.94 1054.97 219.739 1055.91 219.739C1057.08 219.739 1058.04 220.105 1058.78 220.838C1059.53 221.565 1059.9 222.699 1059.9 224.239V233H1057.89V224.239C1057.89 223.273 1057.62 222.582 1057.09 222.168C1056.57 221.753 1055.94 221.545 1055.23 221.545C1054.31 221.545 1053.59 221.824 1053.09 222.381C1052.58 222.932 1052.33 223.631 1052.33 224.477V233H1050.28V224.034C1050.28 223.29 1050.04 222.69 1049.56 222.236C1049.08 221.776 1048.45 221.545 1047.69 221.545C1047.17 221.545 1046.68 221.685 1046.23 221.963C1045.78 222.241 1045.41 222.628 1045.14 223.122C1044.86 223.611 1044.73 224.176 1044.73 224.818V233H1042.72ZM1072.85 222.841L1071.04 223.352C1070.93 223.051 1070.76 222.759 1070.54 222.474C1070.32 222.185 1070.03 221.946 1069.65 221.759C1069.28 221.571 1068.8 221.477 1068.21 221.477C1067.41 221.477 1066.74 221.662 1066.21 222.031C1065.68 222.395 1065.42 222.858 1065.42 223.42C1065.42 223.92 1065.6 224.315 1065.96 224.605C1066.33 224.895 1066.89 225.136 1067.67 225.33L1069.61 225.807C1070.78 226.091 1071.65 226.526 1072.23 227.111C1072.8 227.69 1073.09 228.437 1073.09 229.352C1073.09 230.102 1072.87 230.773 1072.44 231.364C1072.01 231.955 1071.42 232.42 1070.65 232.761C1069.88 233.102 1068.99 233.273 1067.97 233.273C1066.64 233.273 1065.53 232.983 1064.66 232.403C1063.78 231.824 1063.23 230.977 1063 229.864L1064.9 229.386C1065.09 230.091 1065.43 230.619 1065.94 230.972C1066.45 231.324 1067.12 231.5 1067.94 231.5C1068.88 231.5 1069.62 231.301 1070.17 230.903C1070.73 230.5 1071.01 230.017 1071.01 229.455C1071.01 229 1070.85 228.619 1070.53 228.312C1070.21 228 1069.72 227.767 1069.06 227.614L1066.88 227.102C1065.68 226.818 1064.8 226.378 1064.24 225.781C1063.68 225.179 1063.4 224.426 1063.4 223.523C1063.4 222.784 1063.61 222.131 1064.03 221.562C1064.45 220.994 1065.02 220.548 1065.74 220.224C1066.47 219.901 1067.29 219.739 1068.21 219.739C1069.51 219.739 1070.52 220.023 1071.26 220.591C1072.01 221.159 1072.54 221.909 1072.85 222.841Z" fill="black"/>
<path d="M234.539 390V372.545H245.074V374.42H236.653V380.318H244.528V382.193H236.653V388.125H245.21V390H234.539ZM250.11 376.909L253.247 382.261L256.383 376.909H258.701L254.474 383.455L258.701 390H256.383L253.247 384.92L250.11 390H247.792L251.951 383.455L247.792 376.909H250.11ZM261.571 394.909V376.909H263.515V378.989H263.753C263.901 378.761 264.105 378.472 264.367 378.119C264.634 377.761 265.015 377.443 265.509 377.165C266.009 376.881 266.685 376.739 267.537 376.739C268.64 376.739 269.611 377.014 270.452 377.565C271.293 378.116 271.949 378.898 272.421 379.909C272.892 380.92 273.128 382.114 273.128 383.489C273.128 384.875 272.892 386.077 272.421 387.094C271.949 388.105 271.296 388.889 270.461 389.446C269.625 389.997 268.662 390.273 267.571 390.273C266.73 390.273 266.057 390.134 265.551 389.855C265.046 389.571 264.657 389.25 264.384 388.892C264.111 388.528 263.901 388.227 263.753 387.989H263.583V394.909H261.571ZM263.549 383.455C263.549 384.443 263.694 385.315 263.983 386.071C264.273 386.821 264.696 387.409 265.253 387.835C265.81 388.256 266.492 388.466 267.299 388.466C268.14 388.466 268.841 388.244 269.404 387.801C269.972 387.352 270.398 386.75 270.682 385.994C270.972 385.233 271.117 384.386 271.117 383.455C271.117 382.534 270.975 381.705 270.691 380.966C270.412 380.222 269.989 379.634 269.421 379.202C268.858 378.764 268.151 378.545 267.299 378.545C266.48 378.545 265.793 378.753 265.236 379.168C264.679 379.577 264.259 380.151 263.975 380.889C263.691 381.622 263.549 382.477 263.549 383.455ZM281.685 390.273C280.424 390.273 279.336 389.994 278.421 389.438C277.512 388.875 276.81 388.091 276.316 387.085C275.827 386.074 275.583 384.898 275.583 383.557C275.583 382.216 275.827 381.034 276.316 380.011C276.81 378.983 277.498 378.182 278.378 377.608C279.265 377.028 280.299 376.739 281.48 376.739C282.162 376.739 282.836 376.852 283.5 377.08C284.165 377.307 284.77 377.676 285.316 378.188C285.861 378.693 286.296 379.364 286.62 380.199C286.944 381.034 287.105 382.062 287.105 383.284V384.136H277.015V382.398H285.06C285.06 381.659 284.912 381 284.617 380.42C284.327 379.841 283.912 379.384 283.373 379.048C282.838 378.713 282.208 378.545 281.48 378.545C280.679 378.545 279.986 378.744 279.401 379.142C278.821 379.534 278.375 380.045 278.063 380.676C277.75 381.307 277.594 381.983 277.594 382.705V383.864C277.594 384.852 277.765 385.69 278.105 386.378C278.452 387.06 278.932 387.58 279.546 387.938C280.159 388.29 280.873 388.466 281.685 388.466C282.213 388.466 282.691 388.392 283.117 388.244C283.549 388.091 283.921 387.864 284.233 387.562C284.546 387.256 284.787 386.875 284.958 386.42L286.901 386.966C286.696 387.625 286.353 388.205 285.87 388.705C285.387 389.199 284.79 389.585 284.08 389.864C283.37 390.136 282.571 390.273 281.685 390.273ZM290.165 390V376.909H292.108V378.886H292.245C292.483 378.239 292.915 377.713 293.54 377.31C294.165 376.906 294.87 376.705 295.654 376.705C295.801 376.705 295.986 376.707 296.208 376.713C296.429 376.719 296.597 376.727 296.711 376.739V378.784C296.642 378.767 296.486 378.741 296.242 378.707C296.003 378.668 295.75 378.648 295.483 378.648C294.847 378.648 294.279 378.781 293.779 379.048C293.284 379.31 292.892 379.673 292.603 380.139C292.319 380.599 292.176 381.125 292.176 381.716V390H290.165ZM299.095 390V376.909H301.106V390H299.095ZM300.118 374.727C299.725 374.727 299.387 374.594 299.103 374.327C298.825 374.06 298.686 373.739 298.686 373.364C298.686 372.989 298.825 372.668 299.103 372.401C299.387 372.134 299.725 372 300.118 372C300.51 372 300.845 372.134 301.123 372.401C301.407 372.668 301.549 372.989 301.549 373.364C301.549 373.739 301.407 374.06 301.123 374.327C300.845 374.594 300.51 374.727 300.118 374.727ZM310.279 390.273C309.017 390.273 307.929 389.994 307.015 389.438C306.105 388.875 305.404 388.091 304.909 387.085C304.421 386.074 304.176 384.898 304.176 383.557C304.176 382.216 304.421 381.034 304.909 380.011C305.404 378.983 306.091 378.182 306.972 377.608C307.858 377.028 308.892 376.739 310.074 376.739C310.756 376.739 311.429 376.852 312.094 377.08C312.759 377.307 313.364 377.676 313.909 378.188C314.455 378.693 314.89 379.364 315.213 380.199C315.537 381.034 315.699 382.062 315.699 383.284V384.136H305.608V382.398H313.654C313.654 381.659 313.506 381 313.211 380.42C312.921 379.841 312.506 379.384 311.966 379.048C311.432 378.713 310.801 378.545 310.074 378.545C309.273 378.545 308.58 378.744 307.995 379.142C307.415 379.534 306.969 380.045 306.657 380.676C306.344 381.307 306.188 381.983 306.188 382.705V383.864C306.188 384.852 306.358 385.69 306.699 386.378C307.046 387.06 307.526 387.58 308.14 387.938C308.753 388.29 309.466 388.466 310.279 388.466C310.807 388.466 311.284 388.392 311.711 388.244C312.142 388.091 312.515 387.864 312.827 387.562C313.14 387.256 313.381 386.875 313.551 386.42L315.495 386.966C315.29 387.625 314.946 388.205 314.463 388.705C313.98 389.199 313.384 389.585 312.674 389.864C311.963 390.136 311.165 390.273 310.279 390.273ZM320.77 382.125V390H318.759V376.909H320.702V378.955H320.873C321.179 378.29 321.645 377.756 322.27 377.352C322.895 376.943 323.702 376.739 324.691 376.739C325.577 376.739 326.353 376.92 327.017 377.284C327.682 377.642 328.199 378.188 328.569 378.92C328.938 379.648 329.123 380.568 329.123 381.682V390H327.111V381.818C327.111 380.79 326.844 379.989 326.31 379.415C325.776 378.835 325.043 378.545 324.111 378.545C323.469 378.545 322.895 378.685 322.39 378.963C321.89 379.241 321.495 379.648 321.205 380.182C320.915 380.716 320.77 381.364 320.77 382.125ZM338.116 390.273C336.889 390.273 335.832 389.983 334.946 389.403C334.059 388.824 333.377 388.026 332.9 387.009C332.423 385.991 332.184 384.83 332.184 383.523C332.184 382.193 332.429 381.02 332.917 380.003C333.412 378.98 334.099 378.182 334.98 377.608C335.866 377.028 336.9 376.739 338.082 376.739C339.002 376.739 339.832 376.909 340.571 377.25C341.309 377.591 341.914 378.068 342.386 378.682C342.858 379.295 343.15 380.011 343.264 380.83H341.252C341.099 380.233 340.758 379.705 340.23 379.244C339.707 378.778 339.002 378.545 338.116 378.545C337.332 378.545 336.645 378.75 336.054 379.159C335.468 379.562 335.011 380.134 334.681 380.872C334.358 381.605 334.196 382.466 334.196 383.455C334.196 384.466 334.355 385.347 334.673 386.097C334.997 386.847 335.451 387.429 336.037 387.844C336.627 388.259 337.321 388.466 338.116 388.466C338.639 388.466 339.113 388.375 339.539 388.193C339.966 388.011 340.326 387.75 340.622 387.409C340.917 387.068 341.127 386.659 341.252 386.182H343.264C343.15 386.955 342.869 387.651 342.42 388.27C341.977 388.884 341.389 389.372 340.656 389.736C339.929 390.094 339.082 390.273 338.116 390.273ZM351.693 390.273C350.431 390.273 349.343 389.994 348.429 389.438C347.52 388.875 346.818 388.091 346.324 387.085C345.835 386.074 345.591 384.898 345.591 383.557C345.591 382.216 345.835 381.034 346.324 380.011C346.818 378.983 347.505 378.182 348.386 377.608C349.272 377.028 350.306 376.739 351.488 376.739C352.17 376.739 352.843 376.852 353.508 377.08C354.173 377.307 354.778 377.676 355.324 378.188C355.869 378.693 356.304 379.364 356.627 380.199C356.951 381.034 357.113 382.062 357.113 383.284V384.136H347.022V382.398H355.068C355.068 381.659 354.92 381 354.625 380.42C354.335 379.841 353.92 379.384 353.38 379.048C352.846 378.713 352.216 378.545 351.488 378.545C350.687 378.545 349.994 378.744 349.409 379.142C348.829 379.534 348.383 380.045 348.071 380.676C347.758 381.307 347.602 381.983 347.602 382.705V383.864C347.602 384.852 347.772 385.69 348.113 386.378C348.46 387.06 348.94 387.58 349.554 387.938C350.167 388.29 350.88 388.466 351.693 388.466C352.221 388.466 352.699 388.392 353.125 388.244C353.556 388.091 353.929 387.864 354.241 387.562C354.554 387.256 354.795 386.875 354.966 386.42L356.909 386.966C356.704 387.625 356.36 388.205 355.877 388.705C355.395 389.199 354.798 389.585 354.088 389.864C353.377 390.136 352.579 390.273 351.693 390.273ZM367.196 390V372.545H373.093C374.457 372.545 375.576 372.778 376.451 373.244C377.326 373.705 377.974 374.338 378.395 375.145C378.815 375.952 379.025 376.869 379.025 377.898C379.025 378.926 378.815 379.838 378.395 380.634C377.974 381.429 377.329 382.054 376.46 382.509C375.591 382.957 374.48 383.182 373.127 383.182H368.355V381.273H373.059C373.991 381.273 374.741 381.136 375.309 380.864C375.883 380.591 376.298 380.205 376.554 379.705C376.815 379.199 376.946 378.597 376.946 377.898C376.946 377.199 376.815 376.588 376.554 376.065C376.292 375.543 375.875 375.139 375.301 374.855C374.727 374.565 373.968 374.42 373.025 374.42H369.309V390H367.196ZM375.412 382.159L379.707 390H377.252L373.025 382.159H375.412ZM387.623 390.273C386.361 390.273 385.273 389.994 384.358 389.438C383.449 388.875 382.748 388.091 382.253 387.085C381.765 386.074 381.52 384.898 381.52 383.557C381.52 382.216 381.765 381.034 382.253 380.011C382.748 378.983 383.435 378.182 384.316 377.608C385.202 377.028 386.236 376.739 387.418 376.739C388.1 376.739 388.773 376.852 389.438 377.08C390.103 377.307 390.708 377.676 391.253 378.188C391.799 378.693 392.233 379.364 392.557 380.199C392.881 381.034 393.043 382.062 393.043 383.284V384.136H382.952V382.398H390.998C390.998 381.659 390.85 381 390.554 380.42C390.265 379.841 389.85 379.384 389.31 379.048C388.776 378.713 388.145 378.545 387.418 378.545C386.617 378.545 385.924 378.744 385.338 379.142C384.759 379.534 384.313 380.045 384 380.676C383.688 381.307 383.532 381.983 383.532 382.705V383.864C383.532 384.852 383.702 385.69 384.043 386.378C384.39 387.06 384.87 387.58 385.483 387.938C386.097 388.29 386.81 388.466 387.623 388.466C388.151 388.466 388.628 388.392 389.054 388.244C389.486 388.091 389.858 387.864 390.171 387.562C390.483 387.256 390.725 386.875 390.895 386.42L392.838 386.966C392.634 387.625 392.29 388.205 391.807 388.705C391.324 389.199 390.728 389.585 390.017 389.864C389.307 390.136 388.509 390.273 387.623 390.273ZM399.955 390.307C399.125 390.307 398.373 390.151 397.696 389.838C397.02 389.52 396.483 389.062 396.086 388.466C395.688 387.864 395.489 387.136 395.489 386.284C395.489 385.534 395.637 384.926 395.932 384.46C396.228 383.989 396.623 383.619 397.117 383.352C397.611 383.085 398.157 382.886 398.753 382.756C399.355 382.619 399.961 382.511 400.569 382.432C401.364 382.33 402.009 382.253 402.503 382.202C403.003 382.145 403.367 382.051 403.594 381.92C403.827 381.79 403.944 381.562 403.944 381.239V381.17C403.944 380.33 403.713 379.676 403.253 379.21C402.799 378.744 402.108 378.511 401.182 378.511C400.222 378.511 399.469 378.722 398.924 379.142C398.378 379.562 397.995 380.011 397.773 380.489L395.864 379.807C396.205 379.011 396.659 378.392 397.228 377.949C397.801 377.5 398.426 377.187 399.103 377.011C399.784 376.83 400.455 376.739 401.114 376.739C401.534 376.739 402.017 376.79 402.563 376.892C403.114 376.989 403.645 377.19 404.157 377.497C404.674 377.804 405.103 378.267 405.444 378.886C405.784 379.506 405.955 380.335 405.955 381.375V390H403.944V388.227H403.841C403.705 388.511 403.478 388.815 403.159 389.139C402.841 389.463 402.418 389.739 401.89 389.966C401.361 390.193 400.716 390.307 399.955 390.307ZM400.262 388.5C401.057 388.5 401.728 388.344 402.273 388.031C402.824 387.719 403.239 387.315 403.517 386.821C403.801 386.327 403.944 385.807 403.944 385.261V383.42C403.858 383.523 403.671 383.616 403.381 383.702C403.097 383.781 402.767 383.852 402.392 383.915C402.023 383.972 401.662 384.023 401.31 384.068C400.963 384.108 400.682 384.142 400.466 384.17C399.944 384.239 399.455 384.349 399 384.503C398.551 384.651 398.188 384.875 397.909 385.176C397.637 385.472 397.5 385.875 397.5 386.386C397.5 387.085 397.759 387.614 398.276 387.972C398.799 388.324 399.461 388.5 400.262 388.5ZM411.637 372.545V390H409.626V372.545H411.637ZM415.321 390V376.909H417.333V390H415.321ZM416.344 374.727C415.952 374.727 415.614 374.594 415.33 374.327C415.051 374.06 414.912 373.739 414.912 373.364C414.912 372.989 415.051 372.668 415.33 372.401C415.614 372.134 415.952 372 416.344 372C416.736 372 417.071 372.134 417.35 372.401C417.634 372.668 417.776 372.989 417.776 373.364C417.776 373.739 417.634 374.06 417.35 374.327C417.071 374.594 416.736 374.727 416.344 374.727ZM430.289 379.841L428.483 380.352C428.369 380.051 428.201 379.759 427.98 379.474C427.764 379.185 427.468 378.946 427.093 378.759C426.718 378.571 426.238 378.477 425.653 378.477C424.852 378.477 424.184 378.662 423.65 379.031C423.122 379.395 422.858 379.858 422.858 380.42C422.858 380.92 423.039 381.315 423.403 381.605C423.767 381.895 424.335 382.136 425.108 382.33L427.051 382.807C428.221 383.091 429.093 383.526 429.667 384.111C430.241 384.69 430.528 385.437 430.528 386.352C430.528 387.102 430.312 387.773 429.88 388.364C429.454 388.955 428.858 389.42 428.091 389.761C427.324 390.102 426.431 390.273 425.414 390.273C424.079 390.273 422.974 389.983 422.099 389.403C421.224 388.824 420.67 387.977 420.437 386.864L422.346 386.386C422.528 387.091 422.872 387.619 423.377 387.972C423.889 388.324 424.556 388.5 425.38 388.5C426.318 388.5 427.062 388.301 427.613 387.903C428.17 387.5 428.449 387.017 428.449 386.455C428.449 386 428.289 385.619 427.971 385.312C427.653 385 427.164 384.767 426.505 384.614L424.324 384.102C423.125 383.818 422.244 383.378 421.681 382.781C421.125 382.179 420.846 381.426 420.846 380.523C420.846 379.784 421.054 379.131 421.468 378.562C421.889 377.994 422.46 377.548 423.181 377.224C423.909 376.901 424.733 376.739 425.653 376.739C426.949 376.739 427.966 377.023 428.704 377.591C429.449 378.159 429.977 378.909 430.289 379.841ZM433.556 390V376.909H435.499V378.955H435.669C435.942 378.256 436.382 377.713 436.99 377.327C437.598 376.935 438.328 376.739 439.181 376.739C440.044 376.739 440.763 376.935 441.337 377.327C441.917 377.713 442.368 378.256 442.692 378.955H442.828C443.164 378.278 443.667 377.741 444.337 377.344C445.007 376.94 445.811 376.739 446.749 376.739C447.919 376.739 448.877 377.105 449.621 377.838C450.365 378.565 450.738 379.699 450.738 381.239V390H448.726V381.239C448.726 380.273 448.462 379.582 447.934 379.168C447.405 378.753 446.783 378.545 446.067 378.545C445.147 378.545 444.434 378.824 443.928 379.381C443.422 379.932 443.169 380.631 443.169 381.477V390H441.124V381.034C441.124 380.29 440.882 379.69 440.4 379.236C439.917 378.776 439.294 378.545 438.533 378.545C438.01 378.545 437.522 378.685 437.067 378.963C436.618 379.241 436.255 379.628 435.976 380.122C435.703 380.611 435.567 381.176 435.567 381.818V390H433.556Z" fill="black"/>
</svg>
