<svg width="560" height="673" viewBox="0 0 560 673" fill="none" xmlns="http://www.w3.org/2000/svg">
<rect width="560" height="673" fill="#F5F5F5"/>
<path d="M42.5341 203.091V188.091H44.1534V189.824H44.3523C44.4754 189.634 44.6458 189.393 44.8636 189.099C45.0862 188.801 45.4034 188.536 45.8153 188.304C46.232 188.067 46.7955 187.949 47.5057 187.949C48.4242 187.949 49.2339 188.179 49.9347 188.638C50.6354 189.097 51.1823 189.748 51.5753 190.591C51.9683 191.434 52.1648 192.428 52.1648 193.574C52.1648 194.729 51.9683 195.731 51.5753 196.578C51.1823 197.421 50.6378 198.074 49.9418 198.538C49.2457 198.998 48.4432 199.227 47.5341 199.227C46.8333 199.227 46.2723 199.111 45.8509 198.879C45.4295 198.643 45.1051 198.375 44.8778 198.077C44.6506 197.774 44.4754 197.523 44.3523 197.324H44.2102V203.091H42.5341ZM44.1818 193.545C44.1818 194.369 44.3026 195.096 44.544 195.726C44.7855 196.351 45.1383 196.841 45.6023 197.196C46.0663 197.546 46.6345 197.722 47.3068 197.722C48.0076 197.722 48.5923 197.537 49.0611 197.168C49.5346 196.794 49.8897 196.292 50.1264 195.662C50.3679 195.027 50.4886 194.322 50.4886 193.545C50.4886 192.778 50.3703 192.087 50.1335 191.472C49.9015 190.851 49.5488 190.361 49.0753 190.001C48.6065 189.637 48.017 189.455 47.3068 189.455C46.625 189.455 46.0521 189.627 45.5881 189.973C45.1241 190.314 44.7737 190.792 44.5369 191.408C44.3002 192.018 44.1818 192.731 44.1818 193.545ZM59.2955 199.227C58.2443 199.227 57.3376 198.995 56.5753 198.531C55.8177 198.062 55.233 197.409 54.821 196.571C54.4138 195.728 54.2102 194.748 54.2102 193.631C54.2102 192.513 54.4138 191.528 54.821 190.676C55.233 189.819 55.8059 189.152 56.5398 188.673C57.2784 188.19 58.1402 187.949 59.125 187.949C59.6932 187.949 60.2543 188.044 60.8082 188.233C61.3622 188.422 61.8665 188.73 62.321 189.156C62.7756 189.578 63.1378 190.136 63.4077 190.832C63.6776 191.528 63.8125 192.385 63.8125 193.403V194.114H55.4034V192.665H62.108C62.108 192.049 61.9848 191.5 61.7386 191.017C61.4972 190.534 61.1515 190.153 60.7017 189.874C60.2566 189.594 59.7311 189.455 59.125 189.455C58.4574 189.455 57.8797 189.62 57.392 189.952C56.9091 190.278 56.5374 190.705 56.277 191.23C56.0166 191.756 55.8864 192.319 55.8864 192.92V193.886C55.8864 194.71 56.0284 195.409 56.3125 195.982C56.6013 196.55 57.0014 196.983 57.5128 197.281C58.0241 197.575 58.6184 197.722 59.2955 197.722C59.7358 197.722 60.1335 197.66 60.4886 197.537C60.8485 197.409 61.1586 197.22 61.419 196.969C61.6795 196.713 61.8807 196.396 62.0227 196.017L63.642 196.472C63.4716 197.021 63.1851 197.504 62.7827 197.92C62.3802 198.332 61.883 198.654 61.2912 198.886C60.6993 199.114 60.0341 199.227 59.2955 199.227ZM70.794 199.227C69.8092 199.227 68.9451 198.993 68.2017 198.524C67.4631 198.055 66.8854 197.4 66.4688 196.557C66.0568 195.714 65.8509 194.729 65.8509 193.602C65.8509 192.466 66.0568 191.474 66.4688 190.626C66.8854 189.779 67.4631 189.121 68.2017 188.652C68.9451 188.183 69.8092 187.949 70.794 187.949C71.7789 187.949 72.6406 188.183 73.3793 188.652C74.1226 189.121 74.7003 189.779 75.1122 190.626C75.5289 191.474 75.7372 192.466 75.7372 193.602C75.7372 194.729 75.5289 195.714 75.1122 196.557C74.7003 197.4 74.1226 198.055 73.3793 198.524C72.6406 198.993 71.7789 199.227 70.794 199.227ZM70.794 197.722C71.5421 197.722 72.1577 197.53 72.6406 197.146C73.1236 196.763 73.4811 196.259 73.7131 195.634C73.9451 195.009 74.0611 194.331 74.0611 193.602C74.0611 192.873 73.9451 192.194 73.7131 191.564C73.4811 190.934 73.1236 190.425 72.6406 190.037C72.1577 189.649 71.5421 189.455 70.794 189.455C70.0459 189.455 69.4304 189.649 68.9474 190.037C68.4645 190.425 68.107 190.934 67.875 191.564C67.643 192.194 67.527 192.873 67.527 193.602C67.527 194.331 67.643 195.009 67.875 195.634C68.107 196.259 68.4645 196.763 68.9474 197.146C69.4304 197.53 70.0459 197.722 70.794 197.722ZM78.2958 203.091V188.091H79.9151V189.824H80.114C80.2371 189.634 80.4076 189.393 80.6254 189.099C80.8479 188.801 81.1651 188.536 81.5771 188.304C81.9937 188.067 82.5572 187.949 83.2674 187.949C84.186 187.949 84.9956 188.179 85.6964 188.638C86.3971 189.097 86.944 189.748 87.337 190.591C87.73 191.434 87.9265 192.428 87.9265 193.574C87.9265 194.729 87.73 195.731 87.337 196.578C86.944 197.421 86.3995 198.074 85.7035 198.538C85.0075 198.998 84.2049 199.227 83.2958 199.227C82.5951 199.227 82.034 199.111 81.6126 198.879C81.1912 198.643 80.8668 198.375 80.6396 198.077C80.4123 197.774 80.2371 197.523 80.114 197.324H79.9719V203.091H78.2958ZM79.9435 193.545C79.9435 194.369 80.0643 195.096 80.3058 195.726C80.5472 196.351 80.9 196.841 81.364 197.196C81.828 197.546 82.3962 197.722 83.0685 197.722C83.7693 197.722 84.354 197.537 84.8228 197.168C85.2963 196.794 85.6514 196.292 85.8881 195.662C86.1296 195.027 86.2504 194.322 86.2504 193.545C86.2504 192.778 86.132 192.087 85.8952 191.472C85.6632 190.851 85.3105 190.361 84.837 190.001C84.3683 189.637 83.7788 189.455 83.0685 189.455C82.3867 189.455 81.8138 189.627 81.3498 189.973C80.8858 190.314 80.5354 190.792 80.2987 191.408C80.0619 192.018 79.9435 192.731 79.9435 193.545ZM92.1594 184.455V199H90.4833V184.455H92.1594ZM99.8033 199.227C98.7521 199.227 97.8454 198.995 97.0831 198.531C96.3255 198.062 95.7408 197.409 95.3288 196.571C94.9216 195.728 94.718 194.748 94.718 193.631C94.718 192.513 94.9216 191.528 95.3288 190.676C95.7408 189.819 96.3137 189.152 97.0476 188.673C97.7862 188.19 98.648 187.949 99.6328 187.949C100.201 187.949 100.762 188.044 101.316 188.233C101.87 188.422 102.374 188.73 102.829 189.156C103.283 189.578 103.646 190.136 103.915 190.832C104.185 191.528 104.32 192.385 104.32 193.403V194.114H95.9112V192.665H102.616C102.616 192.049 102.493 191.5 102.246 191.017C102.005 190.534 101.659 190.153 101.21 189.874C100.764 189.594 100.239 189.455 99.6328 189.455C98.9652 189.455 98.3875 189.62 97.8999 189.952C97.4169 190.278 97.0452 190.705 96.7848 191.23C96.5244 191.756 96.3942 192.319 96.3942 192.92V193.886C96.3942 194.71 96.5362 195.409 96.8203 195.982C97.1091 196.55 97.5092 196.983 98.0206 197.281C98.532 197.575 99.1262 197.722 99.8033 197.722C100.244 197.722 100.641 197.66 100.996 197.537C101.356 197.409 101.666 197.22 101.927 196.969C102.187 196.713 102.388 196.396 102.531 196.017L104.15 196.472C103.979 197.021 103.693 197.504 103.29 197.92C102.888 198.332 102.391 198.654 101.799 198.886C101.207 199.114 100.542 199.227 99.8033 199.227ZM114.967 199L111.643 188.091H113.404L115.762 196.443H115.876L118.205 188.091H119.995L122.296 196.415H122.41L124.768 188.091H126.529L123.205 199H121.558L119.171 190.619H119.001L116.614 199H114.967ZM128.745 199V188.091H130.421V199H128.745ZM129.597 186.273C129.271 186.273 128.989 186.161 128.752 185.939C128.52 185.716 128.404 185.449 128.404 185.136C128.404 184.824 128.52 184.556 128.752 184.334C128.989 184.111 129.271 184 129.597 184C129.924 184 130.203 184.111 130.435 184.334C130.672 184.556 130.79 184.824 130.79 185.136C130.79 185.449 130.672 185.716 130.435 185.939C130.203 186.161 129.924 186.273 129.597 186.273ZM138.235 188.091V189.511H132.582V188.091H138.235ZM134.23 185.477H135.906V195.875C135.906 196.348 135.975 196.704 136.112 196.94C136.254 197.172 136.434 197.329 136.652 197.409C136.874 197.485 137.109 197.523 137.355 197.523C137.539 197.523 137.691 197.513 137.809 197.494C137.928 197.471 138.022 197.452 138.093 197.438L138.434 198.943C138.321 198.986 138.162 199.028 137.958 199.071C137.755 199.118 137.497 199.142 137.184 199.142C136.711 199.142 136.247 199.04 135.792 198.837C135.342 198.633 134.968 198.323 134.67 197.906C134.377 197.49 134.23 196.964 134.23 196.33V185.477ZM142.667 192.438V199H140.991V184.455H142.667V189.795H142.809C143.065 189.232 143.449 188.785 143.96 188.453C144.476 188.117 145.163 187.949 146.02 187.949C146.763 187.949 147.414 188.098 147.973 188.396C148.531 188.69 148.965 189.142 149.272 189.753C149.585 190.359 149.741 191.131 149.741 192.068V199H148.065V192.182C148.065 191.315 147.84 190.645 147.39 190.172C146.945 189.694 146.327 189.455 145.537 189.455C144.987 189.455 144.495 189.571 144.059 189.803C143.628 190.035 143.288 190.373 143.037 190.818C142.79 191.263 142.667 191.803 142.667 192.438ZM160.109 192.438V199H158.433V184.455H160.109V189.795H160.251C160.506 189.232 160.89 188.785 161.401 188.453C161.917 188.117 162.604 187.949 163.461 187.949C164.204 187.949 164.855 188.098 165.414 188.396C165.973 188.69 166.406 189.142 166.714 189.753C167.026 190.359 167.183 191.131 167.183 192.068V199H165.506V192.182C165.506 191.315 165.281 190.645 164.832 190.172C164.387 189.694 163.769 189.455 162.978 189.455C162.429 189.455 161.936 189.571 161.501 189.803C161.07 190.035 160.729 190.373 160.478 190.818C160.232 191.263 160.109 191.803 160.109 192.438ZM170.249 199V188.091H171.925V199H170.249ZM171.101 186.273C170.775 186.273 170.493 186.161 170.256 185.939C170.024 185.716 169.908 185.449 169.908 185.136C169.908 184.824 170.024 184.556 170.256 184.334C170.493 184.111 170.775 184 171.101 184C171.428 184 171.707 184.111 171.939 184.334C172.176 184.556 172.294 184.824 172.294 185.136C172.294 185.449 172.176 185.716 171.939 185.939C171.707 186.161 171.428 186.273 171.101 186.273ZM179.398 203.318C178.589 203.318 177.893 203.214 177.31 203.006C176.728 202.802 176.243 202.532 175.854 202.196C175.471 201.865 175.165 201.509 174.938 201.131L176.273 200.193C176.425 200.392 176.617 200.619 176.849 200.875C177.081 201.135 177.398 201.36 177.8 201.55C178.208 201.744 178.74 201.841 179.398 201.841C180.279 201.841 181.006 201.628 181.579 201.202C182.152 200.776 182.438 200.108 182.438 199.199V196.983H182.296C182.173 197.182 181.998 197.428 181.771 197.722C181.548 198.01 181.226 198.268 180.805 198.496C180.388 198.718 179.825 198.83 179.114 198.83C178.234 198.83 177.443 198.621 176.742 198.205C176.046 197.788 175.495 197.182 175.087 196.386C174.685 195.591 174.484 194.625 174.484 193.489C174.484 192.371 174.68 191.398 175.073 190.57C175.466 189.736 176.013 189.092 176.714 188.638C177.415 188.179 178.224 187.949 179.143 187.949C179.853 187.949 180.416 188.067 180.833 188.304C181.254 188.536 181.576 188.801 181.799 189.099C182.026 189.393 182.201 189.634 182.325 189.824H182.495V188.091H184.114V199.312C184.114 200.25 183.901 201.012 183.475 201.599C183.054 202.191 182.486 202.625 181.771 202.899C181.06 203.179 180.27 203.318 179.398 203.318ZM179.342 197.324C180.014 197.324 180.582 197.17 181.046 196.862C181.51 196.554 181.863 196.112 182.104 195.534C182.346 194.956 182.467 194.265 182.467 193.46C182.467 192.674 182.348 191.981 182.112 191.379C181.875 190.778 181.524 190.307 181.06 189.966C180.596 189.625 180.023 189.455 179.342 189.455C178.631 189.455 178.04 189.634 177.566 189.994C177.097 190.354 176.745 190.837 176.508 191.443C176.276 192.049 176.16 192.722 176.16 193.46C176.16 194.218 176.278 194.888 176.515 195.47C176.756 196.048 177.112 196.502 177.58 196.834C178.054 197.161 178.641 197.324 179.342 197.324ZM188.859 192.438V199H187.183V184.455H188.859V189.795H189.001C189.256 189.232 189.64 188.785 190.151 188.453C190.667 188.117 191.354 187.949 192.211 187.949C192.954 187.949 193.605 188.098 194.164 188.396C194.723 188.69 195.156 189.142 195.464 189.753C195.776 190.359 195.933 191.131 195.933 192.068V199H194.256V192.182C194.256 191.315 194.031 190.645 193.582 190.172C193.137 189.694 192.519 189.455 191.728 189.455C191.179 189.455 190.686 189.571 190.251 189.803C189.82 190.035 189.479 190.373 189.228 190.818C188.982 191.263 188.859 191.803 188.859 192.438ZM203.573 199.227C202.522 199.227 201.615 198.995 200.853 198.531C200.095 198.062 199.51 197.409 199.098 196.571C198.691 195.728 198.488 194.748 198.488 193.631C198.488 192.513 198.691 191.528 199.098 190.676C199.51 189.819 200.083 189.152 200.817 188.673C201.556 188.19 202.417 187.949 203.402 187.949C203.971 187.949 204.532 188.044 205.086 188.233C205.64 188.422 206.144 188.73 206.598 189.156C207.053 189.578 207.415 190.136 207.685 190.832C207.955 191.528 208.09 192.385 208.09 193.403V194.114H199.681V192.665H206.385C206.385 192.049 206.262 191.5 206.016 191.017C205.775 190.534 205.429 190.153 204.979 189.874C204.534 189.594 204.008 189.455 203.402 189.455C202.735 189.455 202.157 189.62 201.669 189.952C201.186 190.278 200.815 190.705 200.554 191.23C200.294 191.756 200.164 192.319 200.164 192.92V193.886C200.164 194.71 200.306 195.409 200.59 195.982C200.879 196.55 201.279 196.983 201.79 197.281C202.301 197.575 202.896 197.722 203.573 197.722C204.013 197.722 204.411 197.66 204.766 197.537C205.126 197.409 205.436 197.22 205.696 196.969C205.957 196.713 206.158 196.396 206.3 196.017L207.919 196.472C207.749 197.021 207.462 197.504 207.06 197.92C206.658 198.332 206.16 198.654 205.569 198.886C204.977 199.114 204.311 199.227 203.573 199.227ZM210.64 199V188.091H212.259V189.739H212.373C212.571 189.199 212.931 188.761 213.452 188.425C213.973 188.089 214.56 187.92 215.213 187.92C215.337 187.92 215.49 187.923 215.675 187.928C215.86 187.932 215.999 187.939 216.094 187.949V189.653C216.037 189.639 215.907 189.618 215.703 189.589C215.505 189.556 215.294 189.54 215.071 189.54C214.541 189.54 214.068 189.651 213.651 189.874C213.239 190.091 212.912 190.394 212.671 190.783C212.434 191.166 212.316 191.604 212.316 192.097V199H210.64ZM42.5341 239.091V224.091H44.1534V225.824H44.3523C44.4754 225.634 44.6458 225.393 44.8636 225.099C45.0862 224.801 45.4034 224.536 45.8153 224.304C46.232 224.067 46.7955 223.949 47.5057 223.949C48.4242 223.949 49.2339 224.179 49.9347 224.638C50.6354 225.097 51.1823 225.748 51.5753 226.591C51.9683 227.434 52.1648 228.428 52.1648 229.574C52.1648 230.729 51.9683 231.731 51.5753 232.578C51.1823 233.421 50.6378 234.074 49.9418 234.538C49.2457 234.998 48.4432 235.227 47.5341 235.227C46.8333 235.227 46.2723 235.111 45.8509 234.879C45.4295 234.643 45.1051 234.375 44.8778 234.077C44.6506 233.774 44.4754 233.523 44.3523 233.324H44.2102V239.091H42.5341ZM44.1818 229.545C44.1818 230.369 44.3026 231.096 44.544 231.726C44.7855 232.351 45.1383 232.841 45.6023 233.196C46.0663 233.546 46.6345 233.722 47.3068 233.722C48.0076 233.722 48.5923 233.537 49.0611 233.168C49.5346 232.794 49.8897 232.292 50.1264 231.662C50.3679 231.027 50.4886 230.322 50.4886 229.545C50.4886 228.778 50.3703 228.087 50.1335 227.472C49.9015 226.851 49.5488 226.361 49.0753 226.001C48.6065 225.637 48.017 225.455 47.3068 225.455C46.625 225.455 46.0521 225.627 45.5881 225.973C45.1241 226.314 44.7737 226.792 44.5369 227.408C44.3002 228.018 44.1818 228.731 44.1818 229.545ZM54.7216 235V224.091H56.3409V225.739H56.4545C56.6534 225.199 57.0133 224.761 57.5341 224.425C58.0549 224.089 58.642 223.92 59.2955 223.92C59.4186 223.92 59.5724 223.923 59.7571 223.928C59.9418 223.932 60.0814 223.939 60.1761 223.949V225.653C60.1193 225.639 59.9891 225.618 59.7855 225.589C59.5866 225.556 59.3759 225.54 59.1534 225.54C58.6231 225.54 58.1496 225.651 57.733 225.874C57.321 226.091 56.9943 226.394 56.7528 226.783C56.5161 227.166 56.3977 227.604 56.3977 228.097V235H54.7216ZM66.4048 235.227C65.3537 235.227 64.447 234.995 63.6847 234.531C62.9271 234.062 62.3423 233.409 61.9304 232.571C61.5232 231.728 61.3196 230.748 61.3196 229.631C61.3196 228.513 61.5232 227.528 61.9304 226.676C62.3423 225.819 62.9152 225.152 63.6491 224.673C64.3878 224.19 65.2495 223.949 66.2344 223.949C66.8026 223.949 67.3636 224.044 67.9176 224.233C68.4716 224.422 68.9759 224.73 69.4304 225.156C69.8849 225.578 70.2472 226.136 70.517 226.832C70.7869 227.528 70.9219 228.385 70.9219 229.403V230.114H62.5128V228.665H69.2173C69.2173 228.049 69.0942 227.5 68.848 227.017C68.6065 226.534 68.2609 226.153 67.8111 225.874C67.366 225.594 66.8404 225.455 66.2344 225.455C65.5668 225.455 64.9891 225.62 64.5014 225.952C64.0185 226.278 63.6468 226.705 63.3864 227.23C63.1259 227.756 62.9957 228.319 62.9957 228.92V229.886C62.9957 230.71 63.1378 231.409 63.4219 231.982C63.7107 232.55 64.1108 232.983 64.6222 233.281C65.1335 233.575 65.7277 233.722 66.4048 233.722C66.8452 233.722 67.2429 233.66 67.598 233.537C67.9579 233.409 68.268 233.22 68.5284 232.969C68.7888 232.713 68.9901 232.396 69.1321 232.017L70.7514 232.472C70.581 233.021 70.2945 233.504 69.892 233.92C69.4896 234.332 68.9924 234.654 68.4006 234.886C67.8087 235.114 67.1435 235.227 66.4048 235.227ZM81.1989 226.534L79.6932 226.96C79.5985 226.709 79.4588 226.465 79.2741 226.229C79.0942 225.987 78.848 225.788 78.5355 225.632C78.223 225.476 77.8229 225.398 77.3352 225.398C76.6676 225.398 76.1113 225.552 75.6662 225.859C75.2259 226.162 75.0057 226.548 75.0057 227.017C75.0057 227.434 75.1572 227.763 75.4602 228.004C75.7633 228.246 76.2367 228.447 76.8807 228.608L78.5 229.006C79.4754 229.242 80.2022 229.605 80.6804 230.092C81.1586 230.575 81.3977 231.198 81.3977 231.96C81.3977 232.585 81.2178 233.144 80.858 233.636C80.5028 234.129 80.0057 234.517 79.3665 234.801C78.7273 235.085 77.9839 235.227 77.1364 235.227C76.0237 235.227 75.1027 234.986 74.3736 234.503C73.6444 234.02 73.1828 233.314 72.9886 232.386L74.5795 231.989C74.7311 232.576 75.0175 233.016 75.4389 233.31C75.8651 233.603 76.4214 233.75 77.108 233.75C77.8892 233.75 78.5095 233.584 78.9688 233.253C79.4328 232.917 79.6648 232.514 79.6648 232.045C79.6648 231.667 79.5322 231.349 79.267 231.094C79.0019 230.833 78.5947 230.639 78.0455 230.511L76.2273 230.085C75.2282 229.848 74.4943 229.482 74.0256 228.984C73.5616 228.482 73.3295 227.855 73.3295 227.102C73.3295 226.487 73.5024 225.942 73.848 225.469C74.1984 224.995 74.6742 224.624 75.2756 224.354C75.8816 224.084 76.5682 223.949 77.3352 223.949C78.4148 223.949 79.2623 224.186 79.8778 224.659C80.4981 225.133 80.9384 225.758 81.1989 226.534ZM88.4947 235.227C87.4435 235.227 86.5368 234.995 85.7745 234.531C85.0169 234.062 84.4322 233.409 84.0202 232.571C83.613 231.728 83.4094 230.748 83.4094 229.631C83.4094 228.513 83.613 227.528 84.0202 226.676C84.4322 225.819 85.0051 225.152 85.739 224.673C86.4776 224.19 87.3394 223.949 88.3242 223.949C88.8924 223.949 89.4535 224.044 90.0075 224.233C90.5614 224.422 91.0657 224.73 91.5202 225.156C91.9748 225.578 92.337 226.136 92.6069 226.832C92.8768 227.528 93.0117 228.385 93.0117 229.403V230.114H84.6026V228.665H91.3072C91.3072 228.049 91.1841 227.5 90.9379 227.017C90.6964 226.534 90.3507 226.153 89.9009 225.874C89.4558 225.594 88.9303 225.455 88.3242 225.455C87.6566 225.455 87.079 225.62 86.5913 225.952C86.1083 226.278 85.7366 226.705 85.4762 227.23C85.2158 227.756 85.0856 228.319 85.0856 228.92V229.886C85.0856 230.71 85.2276 231.409 85.5117 231.982C85.8005 232.55 86.2006 232.983 86.712 233.281C87.2234 233.575 87.8176 233.722 88.4947 233.722C88.935 233.722 89.3327 233.66 89.6879 233.537C90.0477 233.409 90.3578 233.22 90.6183 232.969C90.8787 232.713 91.0799 232.396 91.2219 232.017L92.8413 232.472C92.6708 233.021 92.3844 233.504 91.9819 233.92C91.5794 234.332 91.0823 234.654 90.4904 234.886C89.8986 235.114 89.2333 235.227 88.4947 235.227ZM97.2376 228.438V235H95.5614V224.091H97.1808V225.795H97.3228C97.5785 225.241 97.9667 224.796 98.4876 224.46C99.0084 224.119 99.6808 223.949 100.505 223.949C101.243 223.949 101.89 224.1 102.444 224.403C102.998 224.702 103.428 225.156 103.736 225.767C104.044 226.373 104.198 227.14 104.198 228.068V235H102.522V228.182C102.522 227.325 102.299 226.657 101.854 226.179C101.409 225.696 100.798 225.455 100.022 225.455C99.4866 225.455 99.0084 225.571 98.587 225.803C98.1703 226.035 97.8413 226.373 97.5998 226.818C97.3583 227.263 97.2376 227.803 97.2376 228.438ZM111.692 235.227C110.67 235.227 109.789 234.986 109.05 234.503C108.312 234.02 107.744 233.355 107.346 232.507C106.948 231.66 106.749 230.691 106.749 229.602C106.749 228.494 106.953 227.517 107.36 226.669C107.772 225.817 108.345 225.152 109.079 224.673C109.817 224.19 110.679 223.949 111.664 223.949C112.431 223.949 113.122 224.091 113.738 224.375C114.353 224.659 114.858 225.057 115.251 225.568C115.644 226.08 115.888 226.676 115.982 227.358H114.306C114.178 226.861 113.894 226.42 113.454 226.037C113.018 225.649 112.431 225.455 111.692 225.455C111.039 225.455 110.466 225.625 109.974 225.966C109.486 226.302 109.105 226.778 108.83 227.393C108.56 228.004 108.425 228.722 108.425 229.545C108.425 230.388 108.558 231.122 108.823 231.747C109.093 232.372 109.472 232.857 109.96 233.203C110.452 233.549 111.03 233.722 111.692 233.722C112.128 233.722 112.523 233.646 112.879 233.494C113.234 233.343 113.534 233.125 113.781 232.841C114.027 232.557 114.202 232.216 114.306 231.818H115.982C115.888 232.462 115.653 233.042 115.279 233.558C114.91 234.07 114.42 234.477 113.809 234.78C113.203 235.078 112.497 235.227 111.692 235.227ZM123.006 235.227C121.955 235.227 121.049 234.995 120.286 234.531C119.529 234.062 118.944 233.409 118.532 232.571C118.125 231.728 117.921 230.748 117.921 229.631C117.921 228.513 118.125 227.528 118.532 226.676C118.944 225.819 119.517 225.152 120.251 224.673C120.989 224.19 121.851 223.949 122.836 223.949C123.404 223.949 123.965 224.044 124.519 224.233C125.073 224.422 125.577 224.73 126.032 225.156C126.487 225.578 126.849 226.136 127.119 226.832C127.388 227.528 127.523 228.385 127.523 229.403V230.114H119.114V228.665H125.819C125.819 228.049 125.696 227.5 125.45 227.017C125.208 226.534 124.862 226.153 124.413 225.874C123.968 225.594 123.442 225.455 122.836 225.455C122.168 225.455 121.591 225.62 121.103 225.952C120.62 226.278 120.248 226.705 119.988 227.23C119.728 227.756 119.597 228.319 119.597 228.92V229.886C119.597 230.71 119.739 231.409 120.023 231.982C120.312 232.55 120.712 232.983 121.224 233.281C121.735 233.575 122.329 233.722 123.006 233.722C123.447 233.722 123.844 233.66 124.2 233.537C124.559 233.409 124.87 233.22 125.13 232.969C125.39 232.713 125.592 232.396 125.734 232.017L127.353 232.472C127.183 233.021 126.896 233.504 126.494 233.92C126.091 234.332 125.594 234.654 125.002 234.886C124.41 235.114 123.745 235.227 123.006 235.227ZM137.374 220.455V235H135.698V220.455H137.374ZM145.018 235.227C143.967 235.227 143.06 234.995 142.298 234.531C141.54 234.062 140.956 233.409 140.544 232.571C140.136 231.728 139.933 230.748 139.933 229.631C139.933 228.513 140.136 227.528 140.544 226.676C140.956 225.819 141.529 225.152 142.262 224.673C143.001 224.19 143.863 223.949 144.848 223.949C145.416 223.949 145.977 224.044 146.531 224.233C147.085 224.422 147.589 224.73 148.044 225.156C148.498 225.578 148.86 226.136 149.13 226.832C149.4 227.528 149.535 228.385 149.535 229.403V230.114H141.126V228.665H147.831C147.831 228.049 147.708 227.5 147.461 227.017C147.22 226.534 146.874 226.153 146.424 225.874C145.979 225.594 145.454 225.455 144.848 225.455C144.18 225.455 143.602 225.62 143.115 225.952C142.632 226.278 142.26 226.705 142 227.23C141.739 227.756 141.609 228.319 141.609 228.92V229.886C141.609 230.71 141.751 231.409 142.035 231.982C142.324 232.55 142.724 232.983 143.235 233.281C143.747 233.575 144.341 233.722 145.018 233.722C145.458 233.722 145.856 233.66 146.211 233.537C146.571 233.409 146.881 233.22 147.142 232.969C147.402 232.713 147.603 232.396 147.745 232.017L149.365 232.472C149.194 233.021 148.908 233.504 148.505 233.92C148.103 234.332 147.606 234.654 147.014 234.886C146.422 235.114 145.757 235.227 145.018 235.227ZM160.673 224.091L156.639 235H154.935L150.901 224.091H152.719L155.73 232.784H155.844L158.855 224.091H160.673ZM167.069 235.227C166.018 235.227 165.111 234.995 164.349 234.531C163.591 234.062 163.006 233.409 162.594 232.571C162.187 231.728 161.984 230.748 161.984 229.631C161.984 228.513 162.187 227.528 162.594 226.676C163.006 225.819 163.579 225.152 164.313 224.673C165.052 224.19 165.914 223.949 166.898 223.949C167.467 223.949 168.028 224.044 168.582 224.233C169.136 224.422 169.64 224.73 170.094 225.156C170.549 225.578 170.911 226.136 171.181 226.832C171.451 227.528 171.586 228.385 171.586 229.403V230.114H163.177V228.665H169.881C169.881 228.049 169.758 227.5 169.512 227.017C169.271 226.534 168.925 226.153 168.475 225.874C168.03 225.594 167.504 225.455 166.898 225.455C166.231 225.455 165.653 225.62 165.165 225.952C164.683 226.278 164.311 226.705 164.05 227.23C163.79 227.756 163.66 228.319 163.66 228.92V229.886C163.66 230.71 163.802 231.409 164.086 231.982C164.375 232.55 164.775 232.983 165.286 233.281C165.798 233.575 166.392 233.722 167.069 233.722C167.509 233.722 167.907 233.66 168.262 233.537C168.622 233.409 168.932 233.22 169.192 232.969C169.453 232.713 169.654 232.396 169.796 232.017L171.415 232.472C171.245 233.021 170.959 233.504 170.556 233.92C170.154 234.332 169.656 234.654 169.065 234.886C168.473 235.114 167.808 235.227 167.069 235.227ZM174.136 235V224.091H175.755V225.739H175.869C176.067 225.199 176.427 224.761 176.948 224.425C177.469 224.089 178.056 223.92 178.71 223.92C178.833 223.92 178.987 223.923 179.171 223.928C179.356 223.932 179.496 223.939 179.59 223.949V225.653C179.533 225.639 179.403 225.618 179.2 225.589C179.001 225.556 178.79 225.54 178.567 225.54C178.037 225.54 177.564 225.651 177.147 225.874C176.735 226.091 176.408 226.394 176.167 226.783C175.93 227.166 175.812 227.604 175.812 228.097V235H174.136Z" fill="black"/>
<path d="M42.5341 482.091V467.091H44.1534V468.824H44.3523C44.4754 468.634 44.6458 468.393 44.8636 468.099C45.0862 467.801 45.4034 467.536 45.8153 467.304C46.232 467.067 46.7955 466.949 47.5057 466.949C48.4242 466.949 49.2339 467.179 49.9347 467.638C50.6354 468.097 51.1823 468.748 51.5753 469.591C51.9683 470.434 52.1648 471.428 52.1648 472.574C52.1648 473.729 51.9683 474.731 51.5753 475.578C51.1823 476.421 50.6378 477.074 49.9418 477.538C49.2457 477.998 48.4432 478.227 47.5341 478.227C46.8333 478.227 46.2723 478.111 45.8509 477.879C45.4295 477.643 45.1051 477.375 44.8778 477.077C44.6506 476.774 44.4754 476.523 44.3523 476.324H44.2102V482.091H42.5341ZM44.1818 472.545C44.1818 473.369 44.3026 474.096 44.544 474.726C44.7855 475.351 45.1383 475.841 45.6023 476.196C46.0663 476.546 46.6345 476.722 47.3068 476.722C48.0076 476.722 48.5923 476.537 49.0611 476.168C49.5346 475.794 49.8897 475.292 50.1264 474.662C50.3679 474.027 50.4886 473.322 50.4886 472.545C50.4886 471.778 50.3703 471.087 50.1335 470.472C49.9015 469.851 49.5488 469.361 49.0753 469.001C48.6065 468.637 48.017 468.455 47.3068 468.455C46.625 468.455 46.0521 468.627 45.5881 468.973C45.1241 469.314 44.7737 469.792 44.5369 470.408C44.3002 471.018 44.1818 471.731 44.1818 472.545ZM59.2955 478.227C58.2443 478.227 57.3376 477.995 56.5753 477.531C55.8177 477.062 55.233 476.409 54.821 475.571C54.4138 474.728 54.2102 473.748 54.2102 472.631C54.2102 471.513 54.4138 470.528 54.821 469.676C55.233 468.819 55.8059 468.152 56.5398 467.673C57.2784 467.19 58.1402 466.949 59.125 466.949C59.6932 466.949 60.2543 467.044 60.8082 467.233C61.3622 467.422 61.8665 467.73 62.321 468.156C62.7756 468.578 63.1378 469.136 63.4077 469.832C63.6776 470.528 63.8125 471.385 63.8125 472.403V473.114H55.4034V471.665H62.108C62.108 471.049 61.9848 470.5 61.7386 470.017C61.4972 469.534 61.1515 469.153 60.7017 468.874C60.2566 468.594 59.7311 468.455 59.125 468.455C58.4574 468.455 57.8797 468.62 57.392 468.952C56.9091 469.278 56.5374 469.705 56.277 470.23C56.0166 470.756 55.8864 471.319 55.8864 471.92V472.886C55.8864 473.71 56.0284 474.409 56.3125 474.982C56.6013 475.55 57.0014 475.983 57.5128 476.281C58.0241 476.575 58.6184 476.722 59.2955 476.722C59.7358 476.722 60.1335 476.66 60.4886 476.537C60.8485 476.409 61.1586 476.22 61.419 475.969C61.6795 475.713 61.8807 475.396 62.0227 475.017L63.642 475.472C63.4716 476.021 63.1851 476.504 62.7827 476.92C62.3802 477.332 61.883 477.654 61.2912 477.886C60.6993 478.114 60.0341 478.227 59.2955 478.227ZM70.794 478.227C69.8092 478.227 68.9451 477.993 68.2017 477.524C67.4631 477.055 66.8854 476.4 66.4688 475.557C66.0568 474.714 65.8509 473.729 65.8509 472.602C65.8509 471.466 66.0568 470.474 66.4688 469.626C66.8854 468.779 67.4631 468.121 68.2017 467.652C68.9451 467.183 69.8092 466.949 70.794 466.949C71.7789 466.949 72.6406 467.183 73.3793 467.652C74.1226 468.121 74.7003 468.779 75.1122 469.626C75.5289 470.474 75.7372 471.466 75.7372 472.602C75.7372 473.729 75.5289 474.714 75.1122 475.557C74.7003 476.4 74.1226 477.055 73.3793 477.524C72.6406 477.993 71.7789 478.227 70.794 478.227ZM70.794 476.722C71.5421 476.722 72.1577 476.53 72.6406 476.146C73.1236 475.763 73.4811 475.259 73.7131 474.634C73.9451 474.009 74.0611 473.331 74.0611 472.602C74.0611 471.873 73.9451 471.194 73.7131 470.564C73.4811 469.934 73.1236 469.425 72.6406 469.037C72.1577 468.649 71.5421 468.455 70.794 468.455C70.0459 468.455 69.4304 468.649 68.9474 469.037C68.4645 469.425 68.107 469.934 67.875 470.564C67.643 471.194 67.527 471.873 67.527 472.602C67.527 473.331 67.643 474.009 67.875 474.634C68.107 475.259 68.4645 475.763 68.9474 476.146C69.4304 476.53 70.0459 476.722 70.794 476.722ZM78.2958 482.091V467.091H79.9151V468.824H80.114C80.2371 468.634 80.4076 468.393 80.6254 468.099C80.8479 467.801 81.1651 467.536 81.5771 467.304C81.9937 467.067 82.5572 466.949 83.2674 466.949C84.186 466.949 84.9956 467.179 85.6964 467.638C86.3971 468.097 86.944 468.748 87.337 469.591C87.73 470.434 87.9265 471.428 87.9265 472.574C87.9265 473.729 87.73 474.731 87.337 475.578C86.944 476.421 86.3995 477.074 85.7035 477.538C85.0075 477.998 84.2049 478.227 83.2958 478.227C82.5951 478.227 82.034 478.111 81.6126 477.879C81.1912 477.643 80.8668 477.375 80.6396 477.077C80.4123 476.774 80.2371 476.523 80.114 476.324H79.9719V482.091H78.2958ZM79.9435 472.545C79.9435 473.369 80.0643 474.096 80.3058 474.726C80.5472 475.351 80.9 475.841 81.364 476.196C81.828 476.546 82.3962 476.722 83.0685 476.722C83.7693 476.722 84.354 476.537 84.8228 476.168C85.2963 475.794 85.6514 475.292 85.8881 474.662C86.1296 474.027 86.2504 473.322 86.2504 472.545C86.2504 471.778 86.132 471.087 85.8952 470.472C85.6632 469.851 85.3105 469.361 84.837 469.001C84.3683 468.637 83.7788 468.455 83.0685 468.455C82.3867 468.455 81.8138 468.627 81.3498 468.973C80.8858 469.314 80.5354 469.792 80.2987 470.408C80.0619 471.018 79.9435 471.731 79.9435 472.545ZM92.1594 463.455V478H90.4833V463.455H92.1594ZM99.8033 478.227C98.7521 478.227 97.8454 477.995 97.0831 477.531C96.3255 477.062 95.7408 476.409 95.3288 475.571C94.9216 474.728 94.718 473.748 94.718 472.631C94.718 471.513 94.9216 470.528 95.3288 469.676C95.7408 468.819 96.3137 468.152 97.0476 467.673C97.7862 467.19 98.648 466.949 99.6328 466.949C100.201 466.949 100.762 467.044 101.316 467.233C101.87 467.422 102.374 467.73 102.829 468.156C103.283 468.578 103.646 469.136 103.915 469.832C104.185 470.528 104.32 471.385 104.32 472.403V473.114H95.9112V471.665H102.616C102.616 471.049 102.493 470.5 102.246 470.017C102.005 469.534 101.659 469.153 101.21 468.874C100.764 468.594 100.239 468.455 99.6328 468.455C98.9652 468.455 98.3875 468.62 97.8999 468.952C97.4169 469.278 97.0452 469.705 96.7848 470.23C96.5244 470.756 96.3942 471.319 96.3942 471.92V472.886C96.3942 473.71 96.5362 474.409 96.8203 474.982C97.1091 475.55 97.5092 475.983 98.0206 476.281C98.532 476.575 99.1262 476.722 99.8033 476.722C100.244 476.722 100.641 476.66 100.996 476.537C101.356 476.409 101.666 476.22 101.927 475.969C102.187 475.713 102.388 475.396 102.531 475.017L104.15 475.472C103.979 476.021 103.693 476.504 103.29 476.92C102.888 477.332 102.391 477.654 101.799 477.886C101.207 478.114 100.542 478.227 99.8033 478.227ZM114.967 478L111.643 467.091H113.404L115.762 475.443H115.876L118.205 467.091H119.995L122.296 475.415H122.41L124.768 467.091H126.529L123.205 478H121.558L119.171 469.619H119.001L116.614 478H114.967ZM128.745 478V467.091H130.421V478H128.745ZM129.597 465.273C129.271 465.273 128.989 465.161 128.752 464.939C128.52 464.716 128.404 464.449 128.404 464.136C128.404 463.824 128.52 463.556 128.752 463.334C128.989 463.111 129.271 463 129.597 463C129.924 463 130.203 463.111 130.435 463.334C130.672 463.556 130.79 463.824 130.79 464.136C130.79 464.449 130.672 464.716 130.435 464.939C130.203 465.161 129.924 465.273 129.597 465.273ZM138.235 467.091V468.511H132.582V467.091H138.235ZM134.23 464.477H135.906V474.875C135.906 475.348 135.975 475.704 136.112 475.94C136.254 476.172 136.434 476.329 136.652 476.409C136.874 476.485 137.109 476.523 137.355 476.523C137.539 476.523 137.691 476.513 137.809 476.494C137.928 476.471 138.022 476.452 138.093 476.438L138.434 477.943C138.321 477.986 138.162 478.028 137.958 478.071C137.755 478.118 137.497 478.142 137.184 478.142C136.711 478.142 136.247 478.04 135.792 477.837C135.342 477.633 134.968 477.323 134.67 476.906C134.377 476.49 134.23 475.964 134.23 475.33V464.477ZM142.667 471.438V478H140.991V463.455H142.667V468.795H142.809C143.065 468.232 143.449 467.785 143.96 467.453C144.476 467.117 145.163 466.949 146.02 466.949C146.763 466.949 147.414 467.098 147.973 467.396C148.531 467.69 148.965 468.142 149.272 468.753C149.585 469.359 149.741 470.131 149.741 471.068V478H148.065V471.182C148.065 470.315 147.84 469.645 147.39 469.172C146.945 468.694 146.327 468.455 145.537 468.455C144.987 468.455 144.495 468.571 144.059 468.803C143.628 469.035 143.288 469.373 143.037 469.818C142.79 470.263 142.667 470.803 142.667 471.438ZM160.109 463.455V478H158.433V463.455H160.109ZM167.61 478.227C166.626 478.227 165.761 477.993 165.018 477.524C164.279 477.055 163.702 476.4 163.285 475.557C162.873 474.714 162.667 473.729 162.667 472.602C162.667 471.466 162.873 470.474 163.285 469.626C163.702 468.779 164.279 468.121 165.018 467.652C165.761 467.183 166.626 466.949 167.61 466.949C168.595 466.949 169.457 467.183 170.196 467.652C170.939 468.121 171.517 468.779 171.929 469.626C172.345 470.474 172.554 471.466 172.554 472.602C172.554 473.729 172.345 474.714 171.929 475.557C171.517 476.4 170.939 477.055 170.196 477.524C169.457 477.993 168.595 478.227 167.61 478.227ZM167.61 476.722C168.359 476.722 168.974 476.53 169.457 476.146C169.94 475.763 170.297 475.259 170.529 474.634C170.761 474.009 170.877 473.331 170.877 472.602C170.877 471.873 170.761 471.194 170.529 470.564C170.297 469.934 169.94 469.425 169.457 469.037C168.974 468.649 168.359 468.455 167.61 468.455C166.862 468.455 166.247 468.649 165.764 469.037C165.281 469.425 164.923 469.934 164.691 470.564C164.459 471.194 164.343 471.873 164.343 472.602C164.343 473.331 164.459 474.009 164.691 474.634C164.923 475.259 165.281 475.763 165.764 476.146C166.247 476.53 166.862 476.722 167.61 476.722ZM177.213 478L173.889 467.091H175.65L178.008 475.443H178.122L180.451 467.091H182.241L184.542 475.415H184.656L187.014 467.091H188.775L185.451 478H183.804L181.417 469.619H181.247L178.86 478H177.213ZM195.194 478.227C194.143 478.227 193.236 477.995 192.474 477.531C191.716 477.062 191.131 476.409 190.719 475.571C190.312 474.728 190.109 473.748 190.109 472.631C190.109 471.513 190.312 470.528 190.719 469.676C191.131 468.819 191.704 468.152 192.438 467.673C193.177 467.19 194.039 466.949 195.023 466.949C195.592 466.949 196.153 467.044 196.707 467.233C197.261 467.422 197.765 467.73 198.219 468.156C198.674 468.578 199.036 469.136 199.306 469.832C199.576 470.528 199.711 471.385 199.711 472.403V473.114H191.302V471.665H198.006C198.006 471.049 197.883 470.5 197.637 470.017C197.396 469.534 197.05 469.153 196.6 468.874C196.155 468.594 195.629 468.455 195.023 468.455C194.356 468.455 193.778 468.62 193.29 468.952C192.808 469.278 192.436 469.705 192.175 470.23C191.915 470.756 191.785 471.319 191.785 471.92V472.886C191.785 473.71 191.927 474.409 192.211 474.982C192.5 475.55 192.9 475.983 193.411 476.281C193.923 476.575 194.517 476.722 195.194 476.722C195.634 476.722 196.032 476.66 196.387 476.537C196.747 476.409 197.057 476.22 197.317 475.969C197.578 475.713 197.779 475.396 197.921 475.017L199.54 475.472C199.37 476.021 199.084 476.504 198.681 476.92C198.279 477.332 197.781 477.654 197.19 477.886C196.598 478.114 195.933 478.227 195.194 478.227ZM202.261 478V467.091H203.88V468.739H203.994C204.192 468.199 204.552 467.761 205.073 467.425C205.594 467.089 206.181 466.92 206.835 466.92C206.958 466.92 207.112 466.923 207.296 466.928C207.481 466.932 207.621 466.939 207.715 466.949V468.653C207.658 468.639 207.528 468.618 207.325 468.589C207.126 468.556 206.915 468.54 206.692 468.54C206.162 468.54 205.689 468.651 205.272 468.874C204.86 469.091 204.533 469.394 204.292 469.783C204.055 470.166 203.937 470.604 203.937 471.097V478H202.261ZM42.5341 518.091V503.091H44.1534V504.824H44.3523C44.4754 504.634 44.6458 504.393 44.8636 504.099C45.0862 503.801 45.4034 503.536 45.8153 503.304C46.232 503.067 46.7955 502.949 47.5057 502.949C48.4242 502.949 49.2339 503.179 49.9347 503.638C50.6354 504.097 51.1823 504.748 51.5753 505.591C51.9683 506.434 52.1648 507.428 52.1648 508.574C52.1648 509.729 51.9683 510.731 51.5753 511.578C51.1823 512.421 50.6378 513.074 49.9418 513.538C49.2457 513.998 48.4432 514.227 47.5341 514.227C46.8333 514.227 46.2723 514.111 45.8509 513.879C45.4295 513.643 45.1051 513.375 44.8778 513.077C44.6506 512.774 44.4754 512.523 44.3523 512.324H44.2102V518.091H42.5341ZM44.1818 508.545C44.1818 509.369 44.3026 510.096 44.544 510.726C44.7855 511.351 45.1383 511.841 45.6023 512.196C46.0663 512.546 46.6345 512.722 47.3068 512.722C48.0076 512.722 48.5923 512.537 49.0611 512.168C49.5346 511.794 49.8897 511.292 50.1264 510.662C50.3679 510.027 50.4886 509.322 50.4886 508.545C50.4886 507.778 50.3703 507.087 50.1335 506.472C49.9015 505.851 49.5488 505.361 49.0753 505.001C48.6065 504.637 48.017 504.455 47.3068 504.455C46.625 504.455 46.0521 504.627 45.5881 504.973C45.1241 505.314 44.7737 505.792 44.5369 506.408C44.3002 507.018 44.1818 507.731 44.1818 508.545ZM54.7216 514V503.091H56.3409V504.739H56.4545C56.6534 504.199 57.0133 503.761 57.5341 503.425C58.0549 503.089 58.642 502.92 59.2955 502.92C59.4186 502.92 59.5724 502.923 59.7571 502.928C59.9418 502.932 60.0814 502.939 60.1761 502.949V504.653C60.1193 504.639 59.9891 504.618 59.7855 504.589C59.5866 504.556 59.3759 504.54 59.1534 504.54C58.6231 504.54 58.1496 504.651 57.733 504.874C57.321 505.091 56.9943 505.394 56.7528 505.783C56.5161 506.166 56.3977 506.604 56.3977 507.097V514H54.7216ZM66.4048 514.227C65.3537 514.227 64.447 513.995 63.6847 513.531C62.9271 513.062 62.3423 512.409 61.9304 511.571C61.5232 510.728 61.3196 509.748 61.3196 508.631C61.3196 507.513 61.5232 506.528 61.9304 505.676C62.3423 504.819 62.9152 504.152 63.6491 503.673C64.3878 503.19 65.2495 502.949 66.2344 502.949C66.8026 502.949 67.3636 503.044 67.9176 503.233C68.4716 503.422 68.9759 503.73 69.4304 504.156C69.8849 504.578 70.2472 505.136 70.517 505.832C70.7869 506.528 70.9219 507.385 70.9219 508.403V509.114H62.5128V507.665H69.2173C69.2173 507.049 69.0942 506.5 68.848 506.017C68.6065 505.534 68.2609 505.153 67.8111 504.874C67.366 504.594 66.8404 504.455 66.2344 504.455C65.5668 504.455 64.9891 504.62 64.5014 504.952C64.0185 505.278 63.6468 505.705 63.3864 506.23C63.1259 506.756 62.9957 507.319 62.9957 507.92V508.886C62.9957 509.71 63.1378 510.409 63.4219 510.982C63.7107 511.55 64.1108 511.983 64.6222 512.281C65.1335 512.575 65.7277 512.722 66.4048 512.722C66.8452 512.722 67.2429 512.66 67.598 512.537C67.9579 512.409 68.268 512.22 68.5284 511.969C68.7888 511.713 68.9901 511.396 69.1321 511.017L70.7514 511.472C70.581 512.021 70.2945 512.504 69.892 512.92C69.4896 513.332 68.9924 513.654 68.4006 513.886C67.8087 514.114 67.1435 514.227 66.4048 514.227ZM81.1989 505.534L79.6932 505.96C79.5985 505.709 79.4588 505.465 79.2741 505.229C79.0942 504.987 78.848 504.788 78.5355 504.632C78.223 504.476 77.8229 504.398 77.3352 504.398C76.6676 504.398 76.1113 504.552 75.6662 504.859C75.2259 505.162 75.0057 505.548 75.0057 506.017C75.0057 506.434 75.1572 506.763 75.4602 507.004C75.7633 507.246 76.2367 507.447 76.8807 507.608L78.5 508.006C79.4754 508.242 80.2022 508.605 80.6804 509.092C81.1586 509.575 81.3977 510.198 81.3977 510.96C81.3977 511.585 81.2178 512.144 80.858 512.636C80.5028 513.129 80.0057 513.517 79.3665 513.801C78.7273 514.085 77.9839 514.227 77.1364 514.227C76.0237 514.227 75.1027 513.986 74.3736 513.503C73.6444 513.02 73.1828 512.314 72.9886 511.386L74.5795 510.989C74.7311 511.576 75.0175 512.016 75.4389 512.31C75.8651 512.603 76.4214 512.75 77.108 512.75C77.8892 512.75 78.5095 512.584 78.9688 512.253C79.4328 511.917 79.6648 511.514 79.6648 511.045C79.6648 510.667 79.5322 510.349 79.267 510.094C79.0019 509.833 78.5947 509.639 78.0455 509.511L76.2273 509.085C75.2282 508.848 74.4943 508.482 74.0256 507.984C73.5616 507.482 73.3295 506.855 73.3295 506.102C73.3295 505.487 73.5024 504.942 73.848 504.469C74.1984 503.995 74.6742 503.624 75.2756 503.354C75.8816 503.084 76.5682 502.949 77.3352 502.949C78.4148 502.949 79.2623 503.186 79.8778 503.659C80.4981 504.133 80.9384 504.758 81.1989 505.534ZM88.4947 514.227C87.4435 514.227 86.5368 513.995 85.7745 513.531C85.0169 513.062 84.4322 512.409 84.0202 511.571C83.613 510.728 83.4094 509.748 83.4094 508.631C83.4094 507.513 83.613 506.528 84.0202 505.676C84.4322 504.819 85.0051 504.152 85.739 503.673C86.4776 503.19 87.3394 502.949 88.3242 502.949C88.8924 502.949 89.4535 503.044 90.0075 503.233C90.5614 503.422 91.0657 503.73 91.5202 504.156C91.9748 504.578 92.337 505.136 92.6069 505.832C92.8768 506.528 93.0117 507.385 93.0117 508.403V509.114H84.6026V507.665H91.3072C91.3072 507.049 91.1841 506.5 90.9379 506.017C90.6964 505.534 90.3507 505.153 89.9009 504.874C89.4558 504.594 88.9303 504.455 88.3242 504.455C87.6566 504.455 87.079 504.62 86.5913 504.952C86.1083 505.278 85.7366 505.705 85.4762 506.23C85.2158 506.756 85.0856 507.319 85.0856 507.92V508.886C85.0856 509.71 85.2276 510.409 85.5117 510.982C85.8005 511.55 86.2006 511.983 86.712 512.281C87.2234 512.575 87.8176 512.722 88.4947 512.722C88.935 512.722 89.3327 512.66 89.6879 512.537C90.0477 512.409 90.3578 512.22 90.6183 511.969C90.8787 511.713 91.0799 511.396 91.2219 511.017L92.8413 511.472C92.6708 512.021 92.3844 512.504 91.9819 512.92C91.5794 513.332 91.0823 513.654 90.4904 513.886C89.8986 514.114 89.2333 514.227 88.4947 514.227ZM97.2376 507.438V514H95.5614V503.091H97.1808V504.795H97.3228C97.5785 504.241 97.9667 503.796 98.4876 503.46C99.0084 503.119 99.6808 502.949 100.505 502.949C101.243 502.949 101.89 503.1 102.444 503.403C102.998 503.702 103.428 504.156 103.736 504.767C104.044 505.373 104.198 506.14 104.198 507.068V514H102.522V507.182C102.522 506.325 102.299 505.657 101.854 505.179C101.409 504.696 100.798 504.455 100.022 504.455C99.4866 504.455 99.0084 504.571 98.587 504.803C98.1703 505.035 97.8413 505.373 97.5998 505.818C97.3583 506.263 97.2376 506.803 97.2376 507.438ZM111.692 514.227C110.67 514.227 109.789 513.986 109.05 513.503C108.312 513.02 107.744 512.355 107.346 511.507C106.948 510.66 106.749 509.691 106.749 508.602C106.749 507.494 106.953 506.517 107.36 505.669C107.772 504.817 108.345 504.152 109.079 503.673C109.817 503.19 110.679 502.949 111.664 502.949C112.431 502.949 113.122 503.091 113.738 503.375C114.353 503.659 114.858 504.057 115.251 504.568C115.644 505.08 115.888 505.676 115.982 506.358H114.306C114.178 505.861 113.894 505.42 113.454 505.037C113.018 504.649 112.431 504.455 111.692 504.455C111.039 504.455 110.466 504.625 109.974 504.966C109.486 505.302 109.105 505.778 108.83 506.393C108.56 507.004 108.425 507.722 108.425 508.545C108.425 509.388 108.558 510.122 108.823 510.747C109.093 511.372 109.472 511.857 109.96 512.203C110.452 512.549 111.03 512.722 111.692 512.722C112.128 512.722 112.523 512.646 112.879 512.494C113.234 512.343 113.534 512.125 113.781 511.841C114.027 511.557 114.202 511.216 114.306 510.818H115.982C115.888 511.462 115.653 512.042 115.279 512.558C114.91 513.07 114.42 513.477 113.809 513.78C113.203 514.078 112.497 514.227 111.692 514.227ZM123.006 514.227C121.955 514.227 121.049 513.995 120.286 513.531C119.529 513.062 118.944 512.409 118.532 511.571C118.125 510.728 117.921 509.748 117.921 508.631C117.921 507.513 118.125 506.528 118.532 505.676C118.944 504.819 119.517 504.152 120.251 503.673C120.989 503.19 121.851 502.949 122.836 502.949C123.404 502.949 123.965 503.044 124.519 503.233C125.073 503.422 125.577 503.73 126.032 504.156C126.487 504.578 126.849 505.136 127.119 505.832C127.388 506.528 127.523 507.385 127.523 508.403V509.114H119.114V507.665H125.819C125.819 507.049 125.696 506.5 125.45 506.017C125.208 505.534 124.862 505.153 124.413 504.874C123.968 504.594 123.442 504.455 122.836 504.455C122.168 504.455 121.591 504.62 121.103 504.952C120.62 505.278 120.248 505.705 119.988 506.23C119.728 506.756 119.597 507.319 119.597 507.92V508.886C119.597 509.71 119.739 510.409 120.023 510.982C120.312 511.55 120.712 511.983 121.224 512.281C121.735 512.575 122.329 512.722 123.006 512.722C123.447 512.722 123.844 512.66 124.2 512.537C124.559 512.409 124.87 512.22 125.13 511.969C125.39 511.713 125.592 511.396 125.734 511.017L127.353 511.472C127.183 512.021 126.896 512.504 126.494 512.92C126.091 513.332 125.594 513.654 125.002 513.886C124.41 514.114 123.745 514.227 123.006 514.227ZM137.374 499.455V514H135.698V499.455H137.374ZM145.018 514.227C143.967 514.227 143.06 513.995 142.298 513.531C141.54 513.062 140.956 512.409 140.544 511.571C140.136 510.728 139.933 509.748 139.933 508.631C139.933 507.513 140.136 506.528 140.544 505.676C140.956 504.819 141.529 504.152 142.262 503.673C143.001 503.19 143.863 502.949 144.848 502.949C145.416 502.949 145.977 503.044 146.531 503.233C147.085 503.422 147.589 503.73 148.044 504.156C148.498 504.578 148.86 505.136 149.13 505.832C149.4 506.528 149.535 507.385 149.535 508.403V509.114H141.126V507.665H147.831C147.831 507.049 147.708 506.5 147.461 506.017C147.22 505.534 146.874 505.153 146.424 504.874C145.979 504.594 145.454 504.455 144.848 504.455C144.18 504.455 143.602 504.62 143.115 504.952C142.632 505.278 142.26 505.705 142 506.23C141.739 506.756 141.609 507.319 141.609 507.92V508.886C141.609 509.71 141.751 510.409 142.035 510.982C142.324 511.55 142.724 511.983 143.235 512.281C143.747 512.575 144.341 512.722 145.018 512.722C145.458 512.722 145.856 512.66 146.211 512.537C146.571 512.409 146.881 512.22 147.142 511.969C147.402 511.713 147.603 511.396 147.745 511.017L149.365 511.472C149.194 512.021 148.908 512.504 148.505 512.92C148.103 513.332 147.606 513.654 147.014 513.886C146.422 514.114 145.757 514.227 145.018 514.227ZM160.673 503.091L156.639 514H154.935L150.901 503.091H152.719L155.73 511.784H155.844L158.855 503.091H160.673ZM167.069 514.227C166.018 514.227 165.111 513.995 164.349 513.531C163.591 513.062 163.006 512.409 162.594 511.571C162.187 510.728 161.984 509.748 161.984 508.631C161.984 507.513 162.187 506.528 162.594 505.676C163.006 504.819 163.579 504.152 164.313 503.673C165.052 503.19 165.914 502.949 166.898 502.949C167.467 502.949 168.028 503.044 168.582 503.233C169.136 503.422 169.64 503.73 170.094 504.156C170.549 504.578 170.911 505.136 171.181 505.832C171.451 506.528 171.586 507.385 171.586 508.403V509.114H163.177V507.665H169.881C169.881 507.049 169.758 506.5 169.512 506.017C169.271 505.534 168.925 505.153 168.475 504.874C168.03 504.594 167.504 504.455 166.898 504.455C166.231 504.455 165.653 504.62 165.165 504.952C164.683 505.278 164.311 505.705 164.05 506.23C163.79 506.756 163.66 507.319 163.66 507.92V508.886C163.66 509.71 163.802 510.409 164.086 510.982C164.375 511.55 164.775 511.983 165.286 512.281C165.798 512.575 166.392 512.722 167.069 512.722C167.509 512.722 167.907 512.66 168.262 512.537C168.622 512.409 168.932 512.22 169.192 511.969C169.453 511.713 169.654 511.396 169.796 511.017L171.415 511.472C171.245 512.021 170.959 512.504 170.556 512.92C170.154 513.332 169.656 513.654 169.065 513.886C168.473 514.114 167.808 514.227 167.069 514.227ZM174.136 514V503.091H175.755V504.739H175.869C176.067 504.199 176.427 503.761 176.948 503.425C177.469 503.089 178.056 502.92 178.71 502.92C178.833 502.92 178.987 502.923 179.171 502.928C179.356 502.932 179.496 502.939 179.59 502.949V504.653C179.533 504.639 179.403 504.618 179.2 504.589C179.001 504.556 178.79 504.54 178.567 504.54C178.037 504.54 177.564 504.651 177.147 504.874C176.735 505.091 176.408 505.394 176.167 505.783C175.93 506.166 175.812 506.604 175.812 507.097V514H174.136Z" fill="black"/>
<path d="M309.07 201V183.938H308.895L302.438 186.422V188.402L306.902 186.703V201H309.07ZM309.07 237V219.938H308.895L302.438 222.422V224.402L306.902 222.703V237H309.07ZM309.07 273V255.938H308.895L302.438 258.422V260.402L306.902 258.703V273H309.07ZM309.07 309V291.938H308.895L302.438 294.422V296.402L306.902 294.703V309H309.07ZM309.07 345V327.938H308.895L302.438 330.422V332.402L306.902 330.703V345H309.07ZM312.75 374.473V370.477C312.75 369.391 312.625 368.43 312.375 367.594C312.125 366.75 311.766 366.039 311.297 365.461C310.82 364.883 310.238 364.445 309.551 364.148C308.871 363.844 308.094 363.691 307.219 363.691C306.352 363.691 305.574 363.844 304.887 364.148C304.207 364.445 303.633 364.883 303.164 365.461C302.688 366.039 302.324 366.75 302.074 367.594C301.824 368.43 301.699 369.391 301.699 370.477V374.473C301.699 375.559 301.824 376.523 302.074 377.367C302.324 378.203 302.688 378.906 303.164 379.477C303.641 380.062 304.223 380.504 304.91 380.801C305.598 381.09 306.375 381.234 307.242 381.234C308.117 381.234 308.895 381.086 309.574 380.789C310.254 380.492 310.828 380.055 311.297 379.477C311.766 378.906 312.125 378.203 312.375 377.367C312.625 376.523 312.75 375.559 312.75 374.473ZM303.879 374.039C303.879 373.836 303.879 373.637 303.879 373.441C303.879 373.246 303.879 373.051 303.879 372.855V369.996C303.879 369.199 303.957 368.5 304.113 367.898C304.277 367.289 304.523 366.793 304.852 366.41C305.125 366.105 305.457 365.875 305.848 365.719C306.246 365.555 306.703 365.473 307.219 365.473C307.727 365.473 308.172 365.547 308.555 365.695C308.945 365.844 309.273 366.066 309.539 366.363C309.812 366.652 310.027 367.016 310.184 367.453C310.348 367.883 310.461 368.379 310.523 368.941L303.879 374.039ZM310.57 374.93C310.57 375.766 310.484 376.492 310.312 377.109C310.148 377.727 309.887 378.227 309.527 378.609C309.262 378.891 308.938 379.105 308.555 379.254C308.172 379.402 307.734 379.477 307.242 379.477C306.773 379.477 306.352 379.41 305.977 379.277C305.602 379.137 305.281 378.934 305.016 378.668C304.727 378.387 304.492 378.031 304.312 377.602C304.133 377.164 304.008 376.66 303.938 376.09L310.57 371.016C310.57 371.234 310.57 371.512 310.57 371.848C310.57 372.176 310.57 372.398 310.57 372.516V374.93ZM312.75 410.473V406.477C312.75 405.391 312.625 404.43 312.375 403.594C312.125 402.75 311.766 402.039 311.297 401.461C310.82 400.883 310.238 400.445 309.551 400.148C308.871 399.844 308.094 399.691 307.219 399.691C306.352 399.691 305.574 399.844 304.887 400.148C304.207 400.445 303.633 400.883 303.164 401.461C302.688 402.039 302.324 402.75 302.074 403.594C301.824 404.43 301.699 405.391 301.699 406.477V410.473C301.699 411.559 301.824 412.523 302.074 413.367C302.324 414.203 302.688 414.906 303.164 415.477C303.641 416.062 304.223 416.504 304.91 416.801C305.598 417.09 306.375 417.234 307.242 417.234C308.117 417.234 308.895 417.086 309.574 416.789C310.254 416.492 310.828 416.055 311.297 415.477C311.766 414.906 312.125 414.203 312.375 413.367C312.625 412.523 312.75 411.559 312.75 410.473ZM303.879 410.039C303.879 409.836 303.879 409.637 303.879 409.441C303.879 409.246 303.879 409.051 303.879 408.855V405.996C303.879 405.199 303.957 404.5 304.113 403.898C304.277 403.289 304.523 402.793 304.852 402.41C305.125 402.105 305.457 401.875 305.848 401.719C306.246 401.555 306.703 401.473 307.219 401.473C307.727 401.473 308.172 401.547 308.555 401.695C308.945 401.844 309.273 402.066 309.539 402.363C309.812 402.652 310.027 403.016 310.184 403.453C310.348 403.883 310.461 404.379 310.523 404.941L303.879 410.039ZM310.57 410.93C310.57 411.766 310.484 412.492 310.312 413.109C310.148 413.727 309.887 414.227 309.527 414.609C309.262 414.891 308.938 415.105 308.555 415.254C308.172 415.402 307.734 415.477 307.242 415.477C306.773 415.477 306.352 415.41 305.977 415.277C305.602 415.137 305.281 414.934 305.016 414.668C304.727 414.387 304.492 414.031 304.312 413.602C304.133 413.164 304.008 412.66 303.938 412.09L310.57 407.016C310.57 407.234 310.57 407.512 310.57 407.848C310.57 408.176 310.57 408.398 310.57 408.516V410.93ZM312.75 446.473V442.477C312.75 441.391 312.625 440.43 312.375 439.594C312.125 438.75 311.766 438.039 311.297 437.461C310.82 436.883 310.238 436.445 309.551 436.148C308.871 435.844 308.094 435.691 307.219 435.691C306.352 435.691 305.574 435.844 304.887 436.148C304.207 436.445 303.633 436.883 303.164 437.461C302.688 438.039 302.324 438.75 302.074 439.594C301.824 440.43 301.699 441.391 301.699 442.477V446.473C301.699 447.559 301.824 448.523 302.074 449.367C302.324 450.203 302.688 450.906 303.164 451.477C303.641 452.062 304.223 452.504 304.91 452.801C305.598 453.09 306.375 453.234 307.242 453.234C308.117 453.234 308.895 453.086 309.574 452.789C310.254 452.492 310.828 452.055 311.297 451.477C311.766 450.906 312.125 450.203 312.375 449.367C312.625 448.523 312.75 447.559 312.75 446.473ZM303.879 446.039C303.879 445.836 303.879 445.637 303.879 445.441C303.879 445.246 303.879 445.051 303.879 444.855V441.996C303.879 441.199 303.957 440.5 304.113 439.898C304.277 439.289 304.523 438.793 304.852 438.41C305.125 438.105 305.457 437.875 305.848 437.719C306.246 437.555 306.703 437.473 307.219 437.473C307.727 437.473 308.172 437.547 308.555 437.695C308.945 437.844 309.273 438.066 309.539 438.363C309.812 438.652 310.027 439.016 310.184 439.453C310.348 439.883 310.461 440.379 310.523 440.941L303.879 446.039ZM310.57 446.93C310.57 447.766 310.484 448.492 310.312 449.109C310.148 449.727 309.887 450.227 309.527 450.609C309.262 450.891 308.938 451.105 308.555 451.254C308.172 451.402 307.734 451.477 307.242 451.477C306.773 451.477 306.352 451.41 305.977 451.277C305.602 451.137 305.281 450.934 305.016 450.668C304.727 450.387 304.492 450.031 304.312 449.602C304.133 449.164 304.008 448.66 303.938 448.09L310.57 443.016C310.57 443.234 310.57 443.512 310.57 443.848C310.57 444.176 310.57 444.398 310.57 444.516V446.93ZM312.75 482.473V478.477C312.75 477.391 312.625 476.43 312.375 475.594C312.125 474.75 311.766 474.039 311.297 473.461C310.82 472.883 310.238 472.445 309.551 472.148C308.871 471.844 308.094 471.691 307.219 471.691C306.352 471.691 305.574 471.844 304.887 472.148C304.207 472.445 303.633 472.883 303.164 473.461C302.688 474.039 302.324 474.75 302.074 475.594C301.824 476.43 301.699 477.391 301.699 478.477V482.473C301.699 483.559 301.824 484.523 302.074 485.367C302.324 486.203 302.688 486.906 303.164 487.477C303.641 488.062 304.223 488.504 304.91 488.801C305.598 489.09 306.375 489.234 307.242 489.234C308.117 489.234 308.895 489.086 309.574 488.789C310.254 488.492 310.828 488.055 311.297 487.477C311.766 486.906 312.125 486.203 312.375 485.367C312.625 484.523 312.75 483.559 312.75 482.473ZM303.879 482.039C303.879 481.836 303.879 481.637 303.879 481.441C303.879 481.246 303.879 481.051 303.879 480.855V477.996C303.879 477.199 303.957 476.5 304.113 475.898C304.277 475.289 304.523 474.793 304.852 474.41C305.125 474.105 305.457 473.875 305.848 473.719C306.246 473.555 306.703 473.473 307.219 473.473C307.727 473.473 308.172 473.547 308.555 473.695C308.945 473.844 309.273 474.066 309.539 474.363C309.812 474.652 310.027 475.016 310.184 475.453C310.348 475.883 310.461 476.379 310.523 476.941L303.879 482.039ZM310.57 482.93C310.57 483.766 310.484 484.492 310.312 485.109C310.148 485.727 309.887 486.227 309.527 486.609C309.262 486.891 308.938 487.105 308.555 487.254C308.172 487.402 307.734 487.477 307.242 487.477C306.773 487.477 306.352 487.41 305.977 487.277C305.602 487.137 305.281 486.934 305.016 486.668C304.727 486.387 304.492 486.031 304.312 485.602C304.133 485.164 304.008 484.66 303.938 484.09L310.57 479.016C310.57 479.234 310.57 479.512 310.57 479.848C310.57 480.176 310.57 480.398 310.57 480.516V482.93ZM312.75 518.473V514.477C312.75 513.391 312.625 512.43 312.375 511.594C312.125 510.75 311.766 510.039 311.297 509.461C310.82 508.883 310.238 508.445 309.551 508.148C308.871 507.844 308.094 507.691 307.219 507.691C306.352 507.691 305.574 507.844 304.887 508.148C304.207 508.445 303.633 508.883 303.164 509.461C302.688 510.039 302.324 510.75 302.074 511.594C301.824 512.43 301.699 513.391 301.699 514.477V518.473C301.699 519.559 301.824 520.523 302.074 521.367C302.324 522.203 302.688 522.906 303.164 523.477C303.641 524.062 304.223 524.504 304.91 524.801C305.598 525.09 306.375 525.234 307.242 525.234C308.117 525.234 308.895 525.086 309.574 524.789C310.254 524.492 310.828 524.055 311.297 523.477C311.766 522.906 312.125 522.203 312.375 521.367C312.625 520.523 312.75 519.559 312.75 518.473ZM303.879 518.039C303.879 517.836 303.879 517.637 303.879 517.441C303.879 517.246 303.879 517.051 303.879 516.855V513.996C303.879 513.199 303.957 512.5 304.113 511.898C304.277 511.289 304.523 510.793 304.852 510.41C305.125 510.105 305.457 509.875 305.848 509.719C306.246 509.555 306.703 509.473 307.219 509.473C307.727 509.473 308.172 509.547 308.555 509.695C308.945 509.844 309.273 510.066 309.539 510.363C309.812 510.652 310.027 511.016 310.184 511.453C310.348 511.883 310.461 512.379 310.523 512.941L303.879 518.039ZM310.57 518.93C310.57 519.766 310.484 520.492 310.312 521.109C310.148 521.727 309.887 522.227 309.527 522.609C309.262 522.891 308.938 523.105 308.555 523.254C308.172 523.402 307.734 523.477 307.242 523.477C306.773 523.477 306.352 523.41 305.977 523.277C305.602 523.137 305.281 522.934 305.016 522.668C304.727 522.387 304.492 522.031 304.312 521.602C304.133 521.164 304.008 520.66 303.938 520.09L310.57 515.016C310.57 515.234 310.57 515.512 310.57 515.848C310.57 516.176 310.57 516.398 310.57 516.516V518.93Z" fill="black"/>
<path d="M395.07 201V183.938H394.895L388.438 186.422V188.402L392.902 186.703V201H395.07ZM395.07 237V219.938H394.895L388.438 222.422V224.402L392.902 222.703V237H395.07ZM395.07 273V255.938H394.895L388.438 258.422V260.402L392.902 258.703V273H395.07ZM398.75 446.473V442.477C398.75 441.391 398.625 440.43 398.375 439.594C398.125 438.75 397.766 438.039 397.297 437.461C396.82 436.883 396.238 436.445 395.551 436.148C394.871 435.844 394.094 435.691 393.219 435.691C392.352 435.691 391.574 435.844 390.887 436.148C390.207 436.445 389.633 436.883 389.164 437.461C388.688 438.039 388.324 438.75 388.074 439.594C387.824 440.43 387.699 441.391 387.699 442.477V446.473C387.699 447.559 387.824 448.523 388.074 449.367C388.324 450.203 388.688 450.906 389.164 451.477C389.641 452.062 390.223 452.504 390.91 452.801C391.598 453.09 392.375 453.234 393.242 453.234C394.117 453.234 394.895 453.086 395.574 452.789C396.254 452.492 396.828 452.055 397.297 451.477C397.766 450.906 398.125 450.203 398.375 449.367C398.625 448.523 398.75 447.559 398.75 446.473ZM389.879 446.039C389.879 445.836 389.879 445.637 389.879 445.441C389.879 445.246 389.879 445.051 389.879 444.855V441.996C389.879 441.199 389.957 440.5 390.113 439.898C390.277 439.289 390.523 438.793 390.852 438.41C391.125 438.105 391.457 437.875 391.848 437.719C392.246 437.555 392.703 437.473 393.219 437.473C393.727 437.473 394.172 437.547 394.555 437.695C394.945 437.844 395.273 438.066 395.539 438.363C395.812 438.652 396.027 439.016 396.184 439.453C396.348 439.883 396.461 440.379 396.523 440.941L389.879 446.039ZM396.57 446.93C396.57 447.766 396.484 448.492 396.312 449.109C396.148 449.727 395.887 450.227 395.527 450.609C395.262 450.891 394.938 451.105 394.555 451.254C394.172 451.402 393.734 451.477 393.242 451.477C392.773 451.477 392.352 451.41 391.977 451.277C391.602 451.137 391.281 450.934 391.016 450.668C390.727 450.387 390.492 450.031 390.312 449.602C390.133 449.164 390.008 448.66 389.938 448.09L396.57 443.016C396.57 443.234 396.57 443.512 396.57 443.848C396.57 444.176 396.57 444.398 396.57 444.516V446.93ZM398.75 482.473V478.477C398.75 477.391 398.625 476.43 398.375 475.594C398.125 474.75 397.766 474.039 397.297 473.461C396.82 472.883 396.238 472.445 395.551 472.148C394.871 471.844 394.094 471.691 393.219 471.691C392.352 471.691 391.574 471.844 390.887 472.148C390.207 472.445 389.633 472.883 389.164 473.461C388.688 474.039 388.324 474.75 388.074 475.594C387.824 476.43 387.699 477.391 387.699 478.477V482.473C387.699 483.559 387.824 484.523 388.074 485.367C388.324 486.203 388.688 486.906 389.164 487.477C389.641 488.062 390.223 488.504 390.91 488.801C391.598 489.09 392.375 489.234 393.242 489.234C394.117 489.234 394.895 489.086 395.574 488.789C396.254 488.492 396.828 488.055 397.297 487.477C397.766 486.906 398.125 486.203 398.375 485.367C398.625 484.523 398.75 483.559 398.75 482.473ZM389.879 482.039C389.879 481.836 389.879 481.637 389.879 481.441C389.879 481.246 389.879 481.051 389.879 480.855V477.996C389.879 477.199 389.957 476.5 390.113 475.898C390.277 475.289 390.523 474.793 390.852 474.41C391.125 474.105 391.457 473.875 391.848 473.719C392.246 473.555 392.703 473.473 393.219 473.473C393.727 473.473 394.172 473.547 394.555 473.695C394.945 473.844 395.273 474.066 395.539 474.363C395.812 474.652 396.027 475.016 396.184 475.453C396.348 475.883 396.461 476.379 396.523 476.941L389.879 482.039ZM396.57 482.93C396.57 483.766 396.484 484.492 396.312 485.109C396.148 485.727 395.887 486.227 395.527 486.609C395.262 486.891 394.938 487.105 394.555 487.254C394.172 487.402 393.734 487.477 393.242 487.477C392.773 487.477 392.352 487.41 391.977 487.277C391.602 487.137 391.281 486.934 391.016 486.668C390.727 486.387 390.492 486.031 390.312 485.602C390.133 485.164 390.008 484.66 389.938 484.09L396.57 479.016C396.57 479.234 396.57 479.512 396.57 479.848C396.57 480.176 396.57 480.398 396.57 480.516V482.93ZM398.75 518.473V514.477C398.75 513.391 398.625 512.43 398.375 511.594C398.125 510.75 397.766 510.039 397.297 509.461C396.82 508.883 396.238 508.445 395.551 508.148C394.871 507.844 394.094 507.691 393.219 507.691C392.352 507.691 391.574 507.844 390.887 508.148C390.207 508.445 389.633 508.883 389.164 509.461C388.688 510.039 388.324 510.75 388.074 511.594C387.824 512.43 387.699 513.391 387.699 514.477V518.473C387.699 519.559 387.824 520.523 388.074 521.367C388.324 522.203 388.688 522.906 389.164 523.477C389.641 524.062 390.223 524.504 390.91 524.801C391.598 525.09 392.375 525.234 393.242 525.234C394.117 525.234 394.895 525.086 395.574 524.789C396.254 524.492 396.828 524.055 397.297 523.477C397.766 522.906 398.125 522.203 398.375 521.367C398.625 520.523 398.75 519.559 398.75 518.473ZM389.879 518.039C389.879 517.836 389.879 517.637 389.879 517.441C389.879 517.246 389.879 517.051 389.879 516.855V513.996C389.879 513.199 389.957 512.5 390.113 511.898C390.277 511.289 390.523 510.793 390.852 510.41C391.125 510.105 391.457 509.875 391.848 509.719C392.246 509.555 392.703 509.473 393.219 509.473C393.727 509.473 394.172 509.547 394.555 509.695C394.945 509.844 395.273 510.066 395.539 510.363C395.812 510.652 396.027 511.016 396.184 511.453C396.348 511.883 396.461 512.379 396.523 512.941L389.879 518.039ZM396.57 518.93C396.57 519.766 396.484 520.492 396.312 521.109C396.148 521.727 395.887 522.227 395.527 522.609C395.262 522.891 394.938 523.105 394.555 523.254C394.172 523.402 393.734 523.477 393.242 523.477C392.773 523.477 392.352 523.41 391.977 523.277C391.602 523.137 391.281 522.934 391.016 522.668C390.727 522.387 390.492 522.031 390.312 521.602C390.133 521.164 390.008 520.66 389.938 520.09L396.57 515.016C396.57 515.234 396.57 515.512 396.57 515.848C396.57 516.176 396.57 516.398 396.57 516.516V518.93Z" fill="black"/>
<path d="M398.75 302.473V298.477C398.75 297.391 398.625 296.43 398.375 295.594C398.125 294.75 397.766 294.039 397.297 293.461C396.82 292.883 396.238 292.445 395.551 292.148C394.871 291.844 394.094 291.691 393.219 291.691C392.352 291.691 391.574 291.844 390.887 292.148C390.207 292.445 389.633 292.883 389.164 293.461C388.688 294.039 388.324 294.75 388.074 295.594C387.824 296.43 387.699 297.391 387.699 298.477V302.473C387.699 303.559 387.824 304.523 388.074 305.367C388.324 306.203 388.688 306.906 389.164 307.477C389.641 308.062 390.223 308.504 390.91 308.801C391.598 309.09 392.375 309.234 393.242 309.234C394.117 309.234 394.895 309.086 395.574 308.789C396.254 308.492 396.828 308.055 397.297 307.477C397.766 306.906 398.125 306.203 398.375 305.367C398.625 304.523 398.75 303.559 398.75 302.473ZM389.879 302.039C389.879 301.836 389.879 301.637 389.879 301.441C389.879 301.246 389.879 301.051 389.879 300.855V297.996C389.879 297.199 389.957 296.5 390.113 295.898C390.277 295.289 390.523 294.793 390.852 294.41C391.125 294.105 391.457 293.875 391.848 293.719C392.246 293.555 392.703 293.473 393.219 293.473C393.727 293.473 394.172 293.547 394.555 293.695C394.945 293.844 395.273 294.066 395.539 294.363C395.812 294.652 396.027 295.016 396.184 295.453C396.348 295.883 396.461 296.379 396.523 296.941L389.879 302.039ZM396.57 302.93C396.57 303.766 396.484 304.492 396.312 305.109C396.148 305.727 395.887 306.227 395.527 306.609C395.262 306.891 394.938 307.105 394.555 307.254C394.172 307.402 393.734 307.477 393.242 307.477C392.773 307.477 392.352 307.41 391.977 307.277C391.602 307.137 391.281 306.934 391.016 306.668C390.727 306.387 390.492 306.031 390.312 305.602C390.133 305.164 390.008 304.66 389.938 304.09L396.57 299.016C396.57 299.234 396.57 299.512 396.57 299.848C396.57 300.176 396.57 300.398 396.57 300.516V302.93ZM395.07 345V327.938H394.895L388.438 330.422V332.402L392.902 330.703V345H395.07ZM398.75 374.473V370.477C398.75 369.391 398.625 368.43 398.375 367.594C398.125 366.75 397.766 366.039 397.297 365.461C396.82 364.883 396.238 364.445 395.551 364.148C394.871 363.844 394.094 363.691 393.219 363.691C392.352 363.691 391.574 363.844 390.887 364.148C390.207 364.445 389.633 364.883 389.164 365.461C388.688 366.039 388.324 366.75 388.074 367.594C387.824 368.43 387.699 369.391 387.699 370.477V374.473C387.699 375.559 387.824 376.523 388.074 377.367C388.324 378.203 388.688 378.906 389.164 379.477C389.641 380.062 390.223 380.504 390.91 380.801C391.598 381.09 392.375 381.234 393.242 381.234C394.117 381.234 394.895 381.086 395.574 380.789C396.254 380.492 396.828 380.055 397.297 379.477C397.766 378.906 398.125 378.203 398.375 377.367C398.625 376.523 398.75 375.559 398.75 374.473ZM389.879 374.039C389.879 373.836 389.879 373.637 389.879 373.441C389.879 373.246 389.879 373.051 389.879 372.855V369.996C389.879 369.199 389.957 368.5 390.113 367.898C390.277 367.289 390.523 366.793 390.852 366.41C391.125 366.105 391.457 365.875 391.848 365.719C392.246 365.555 392.703 365.473 393.219 365.473C393.727 365.473 394.172 365.547 394.555 365.695C394.945 365.844 395.273 366.066 395.539 366.363C395.812 366.652 396.027 367.016 396.184 367.453C396.348 367.883 396.461 368.379 396.523 368.941L389.879 374.039ZM396.57 374.93C396.57 375.766 396.484 376.492 396.312 377.109C396.148 377.727 395.887 378.227 395.527 378.609C395.262 378.891 394.938 379.105 394.555 379.254C394.172 379.402 393.734 379.477 393.242 379.477C392.773 379.477 392.352 379.41 391.977 379.277C391.602 379.137 391.281 378.934 391.016 378.668C390.727 378.387 390.492 378.031 390.312 377.602C390.133 377.164 390.008 376.66 389.938 376.09L396.57 371.016C396.57 371.234 396.57 371.512 396.57 371.848C396.57 372.176 396.57 372.398 396.57 372.516V374.93ZM395.07 417V399.938H394.895L388.438 402.422V404.402L392.902 402.703V417H395.07Z" fill="#1263FF"/>
<path d="M483.75 194.473V190.477C483.75 189.391 483.625 188.43 483.375 187.594C483.125 186.75 482.766 186.039 482.297 185.461C481.82 184.883 481.238 184.445 480.551 184.148C479.871 183.844 479.094 183.691 478.219 183.691C477.352 183.691 476.574 183.844 475.887 184.148C475.207 184.445 474.633 184.883 474.164 185.461C473.688 186.039 473.324 186.75 473.074 187.594C472.824 188.43 472.699 189.391 472.699 190.477V194.473C472.699 195.559 472.824 196.523 473.074 197.367C473.324 198.203 473.688 198.906 474.164 199.477C474.641 200.062 475.223 200.504 475.91 200.801C476.598 201.09 477.375 201.234 478.242 201.234C479.117 201.234 479.895 201.086 480.574 200.789C481.254 200.492 481.828 200.055 482.297 199.477C482.766 198.906 483.125 198.203 483.375 197.367C483.625 196.523 483.75 195.559 483.75 194.473ZM474.879 194.039C474.879 193.836 474.879 193.637 474.879 193.441C474.879 193.246 474.879 193.051 474.879 192.855V189.996C474.879 189.199 474.957 188.5 475.113 187.898C475.277 187.289 475.523 186.793 475.852 186.41C476.125 186.105 476.457 185.875 476.848 185.719C477.246 185.555 477.703 185.473 478.219 185.473C478.727 185.473 479.172 185.547 479.555 185.695C479.945 185.844 480.273 186.066 480.539 186.363C480.812 186.652 481.027 187.016 481.184 187.453C481.348 187.883 481.461 188.379 481.523 188.941L474.879 194.039ZM481.57 194.93C481.57 195.766 481.484 196.492 481.312 197.109C481.148 197.727 480.887 198.227 480.527 198.609C480.262 198.891 479.938 199.105 479.555 199.254C479.172 199.402 478.734 199.477 478.242 199.477C477.773 199.477 477.352 199.41 476.977 199.277C476.602 199.137 476.281 198.934 476.016 198.668C475.727 198.387 475.492 198.031 475.312 197.602C475.133 197.164 475.008 196.66 474.938 196.09L481.57 191.016C481.57 191.234 481.57 191.512 481.57 191.848C481.57 192.176 481.57 192.398 481.57 192.516V194.93ZM480.07 525V507.938H479.895L473.438 510.422V512.402L477.902 510.703V525H480.07Z" fill="#1263FF"/>
<path d="M480.07 237V219.938H479.895L473.438 222.422V224.402L477.902 222.703V237H480.07ZM480.07 273V255.938H479.895L473.438 258.422V260.402L477.902 258.703V273H480.07ZM480.07 309V291.938H479.895L473.438 294.422V296.402L477.902 294.703V309H480.07ZM480.07 345V327.938H479.895L473.438 330.422V332.402L477.902 330.703V345H480.07ZM483.75 374.473V370.477C483.75 369.391 483.625 368.43 483.375 367.594C483.125 366.75 482.766 366.039 482.297 365.461C481.82 364.883 481.238 364.445 480.551 364.148C479.871 363.844 479.094 363.691 478.219 363.691C477.352 363.691 476.574 363.844 475.887 364.148C475.207 364.445 474.633 364.883 474.164 365.461C473.688 366.039 473.324 366.75 473.074 367.594C472.824 368.43 472.699 369.391 472.699 370.477V374.473C472.699 375.559 472.824 376.523 473.074 377.367C473.324 378.203 473.688 378.906 474.164 379.477C474.641 380.062 475.223 380.504 475.91 380.801C476.598 381.09 477.375 381.234 478.242 381.234C479.117 381.234 479.895 381.086 480.574 380.789C481.254 380.492 481.828 380.055 482.297 379.477C482.766 378.906 483.125 378.203 483.375 377.367C483.625 376.523 483.75 375.559 483.75 374.473ZM474.879 374.039C474.879 373.836 474.879 373.637 474.879 373.441C474.879 373.246 474.879 373.051 474.879 372.855V369.996C474.879 369.199 474.957 368.5 475.113 367.898C475.277 367.289 475.523 366.793 475.852 366.41C476.125 366.105 476.457 365.875 476.848 365.719C477.246 365.555 477.703 365.473 478.219 365.473C478.727 365.473 479.172 365.547 479.555 365.695C479.945 365.844 480.273 366.066 480.539 366.363C480.812 366.652 481.027 367.016 481.184 367.453C481.348 367.883 481.461 368.379 481.523 368.941L474.879 374.039ZM481.57 374.93C481.57 375.766 481.484 376.492 481.312 377.109C481.148 377.727 480.887 378.227 480.527 378.609C480.262 378.891 479.938 379.105 479.555 379.254C479.172 379.402 478.734 379.477 478.242 379.477C477.773 379.477 477.352 379.41 476.977 379.277C476.602 379.137 476.281 378.934 476.016 378.668C475.727 378.387 475.492 378.031 475.312 377.602C475.133 377.164 475.008 376.66 474.938 376.09L481.57 371.016C481.57 371.234 481.57 371.512 481.57 371.848C481.57 372.176 481.57 372.398 481.57 372.516V374.93ZM483.75 410.473V406.477C483.75 405.391 483.625 404.43 483.375 403.594C483.125 402.75 482.766 402.039 482.297 401.461C481.82 400.883 481.238 400.445 480.551 400.148C479.871 399.844 479.094 399.691 478.219 399.691C477.352 399.691 476.574 399.844 475.887 400.148C475.207 400.445 474.633 400.883 474.164 401.461C473.688 402.039 473.324 402.75 473.074 403.594C472.824 404.43 472.699 405.391 472.699 406.477V410.473C472.699 411.559 472.824 412.523 473.074 413.367C473.324 414.203 473.688 414.906 474.164 415.477C474.641 416.062 475.223 416.504 475.91 416.801C476.598 417.09 477.375 417.234 478.242 417.234C479.117 417.234 479.895 417.086 480.574 416.789C481.254 416.492 481.828 416.055 482.297 415.477C482.766 414.906 483.125 414.203 483.375 413.367C483.625 412.523 483.75 411.559 483.75 410.473ZM474.879 410.039C474.879 409.836 474.879 409.637 474.879 409.441C474.879 409.246 474.879 409.051 474.879 408.855V405.996C474.879 405.199 474.957 404.5 475.113 403.898C475.277 403.289 475.523 402.793 475.852 402.41C476.125 402.105 476.457 401.875 476.848 401.719C477.246 401.555 477.703 401.473 478.219 401.473C478.727 401.473 479.172 401.547 479.555 401.695C479.945 401.844 480.273 402.066 480.539 402.363C480.812 402.652 481.027 403.016 481.184 403.453C481.348 403.883 481.461 404.379 481.523 404.941L474.879 410.039ZM481.57 410.93C481.57 411.766 481.484 412.492 481.312 413.109C481.148 413.727 480.887 414.227 480.527 414.609C480.262 414.891 479.938 415.105 479.555 415.254C479.172 415.402 478.734 415.477 478.242 415.477C477.773 415.477 477.352 415.41 476.977 415.277C476.602 415.137 476.281 414.934 476.016 414.668C475.727 414.387 475.492 414.031 475.312 413.602C475.133 413.164 475.008 412.66 474.938 412.09L481.57 407.016C481.57 407.234 481.57 407.512 481.57 407.848C481.57 408.176 481.57 408.398 481.57 408.516V410.93ZM483.75 446.473V442.477C483.75 441.391 483.625 440.43 483.375 439.594C483.125 438.75 482.766 438.039 482.297 437.461C481.82 436.883 481.238 436.445 480.551 436.148C479.871 435.844 479.094 435.691 478.219 435.691C477.352 435.691 476.574 435.844 475.887 436.148C475.207 436.445 474.633 436.883 474.164 437.461C473.688 438.039 473.324 438.75 473.074 439.594C472.824 440.43 472.699 441.391 472.699 442.477V446.473C472.699 447.559 472.824 448.523 473.074 449.367C473.324 450.203 473.688 450.906 474.164 451.477C474.641 452.062 475.223 452.504 475.91 452.801C476.598 453.09 477.375 453.234 478.242 453.234C479.117 453.234 479.895 453.086 480.574 452.789C481.254 452.492 481.828 452.055 482.297 451.477C482.766 450.906 483.125 450.203 483.375 449.367C483.625 448.523 483.75 447.559 483.75 446.473ZM474.879 446.039C474.879 445.836 474.879 445.637 474.879 445.441C474.879 445.246 474.879 445.051 474.879 444.855V441.996C474.879 441.199 474.957 440.5 475.113 439.898C475.277 439.289 475.523 438.793 475.852 438.41C476.125 438.105 476.457 437.875 476.848 437.719C477.246 437.555 477.703 437.473 478.219 437.473C478.727 437.473 479.172 437.547 479.555 437.695C479.945 437.844 480.273 438.066 480.539 438.363C480.812 438.652 481.027 439.016 481.184 439.453C481.348 439.883 481.461 440.379 481.523 440.941L474.879 446.039ZM481.57 446.93C481.57 447.766 481.484 448.492 481.312 449.109C481.148 449.727 480.887 450.227 480.527 450.609C480.262 450.891 479.938 451.105 479.555 451.254C479.172 451.402 478.734 451.477 478.242 451.477C477.773 451.477 477.352 451.41 476.977 451.277C476.602 451.137 476.281 450.934 476.016 450.668C475.727 450.387 475.492 450.031 475.312 449.602C475.133 449.164 475.008 448.66 474.938 448.09L481.57 443.016C481.57 443.234 481.57 443.512 481.57 443.848C481.57 444.176 481.57 444.398 481.57 444.516V446.93ZM483.75 482.473V478.477C483.75 477.391 483.625 476.43 483.375 475.594C483.125 474.75 482.766 474.039 482.297 473.461C481.82 472.883 481.238 472.445 480.551 472.148C479.871 471.844 479.094 471.691 478.219 471.691C477.352 471.691 476.574 471.844 475.887 472.148C475.207 472.445 474.633 472.883 474.164 473.461C473.688 474.039 473.324 474.75 473.074 475.594C472.824 476.43 472.699 477.391 472.699 478.477V482.473C472.699 483.559 472.824 484.523 473.074 485.367C473.324 486.203 473.688 486.906 474.164 487.477C474.641 488.062 475.223 488.504 475.91 488.801C476.598 489.09 477.375 489.234 478.242 489.234C479.117 489.234 479.895 489.086 480.574 488.789C481.254 488.492 481.828 488.055 482.297 487.477C482.766 486.906 483.125 486.203 483.375 485.367C483.625 484.523 483.75 483.559 483.75 482.473ZM474.879 482.039C474.879 481.836 474.879 481.637 474.879 481.441C474.879 481.246 474.879 481.051 474.879 480.855V477.996C474.879 477.199 474.957 476.5 475.113 475.898C475.277 475.289 475.523 474.793 475.852 474.41C476.125 474.105 476.457 473.875 476.848 473.719C477.246 473.555 477.703 473.473 478.219 473.473C478.727 473.473 479.172 473.547 479.555 473.695C479.945 473.844 480.273 474.066 480.539 474.363C480.812 474.652 481.027 475.016 481.184 475.453C481.348 475.883 481.461 476.379 481.523 476.941L474.879 482.039ZM481.57 482.93C481.57 483.766 481.484 484.492 481.312 485.109C481.148 485.727 480.887 486.227 480.527 486.609C480.262 486.891 479.938 487.105 479.555 487.254C479.172 487.402 478.734 487.477 478.242 487.477C477.773 487.477 477.352 487.41 476.977 487.277C476.602 487.137 476.281 486.934 476.016 486.668C475.727 486.387 475.492 486.031 475.312 485.602C475.133 485.164 475.008 484.66 474.938 484.09L481.57 479.016C481.57 479.234 481.57 479.512 481.57 479.848C481.57 480.176 481.57 480.398 481.57 480.516V482.93Z" fill="black"/>
<path d="M229.905 73V71.4659C229.905 71 229.988 70.5057 230.152 69.983C230.323 69.4545 230.567 68.946 230.885 68.4574C231.209 67.9631 231.598 67.5341 232.053 67.1705L233.144 68.0568C232.786 68.5682 232.473 69.1023 232.206 69.6591C231.945 70.2102 231.814 70.8011 231.814 71.4318V73H229.905ZM234.269 73V71.4659C234.269 71 234.351 70.5057 234.516 69.983C234.686 69.4545 234.931 68.946 235.249 68.4574C235.573 67.9631 235.962 67.5341 236.417 67.1705L237.507 68.0568C237.15 68.5682 236.837 69.1023 236.57 69.6591C236.309 70.2102 236.178 70.8011 236.178 71.4318V73H234.269ZM239.728 89.9091V71.9091H241.671V73.9886H241.909C242.057 73.7614 242.262 73.4716 242.523 73.1193C242.79 72.7614 243.171 72.4432 243.665 72.1648C244.165 71.8807 244.841 71.7386 245.694 71.7386C246.796 71.7386 247.767 72.0142 248.608 72.5653C249.449 73.1165 250.105 73.8977 250.577 74.9091C251.049 75.9205 251.284 77.1136 251.284 78.4886C251.284 79.875 251.049 81.0767 250.577 82.0938C250.105 83.1051 249.452 83.8892 248.617 84.446C247.782 84.9972 246.819 85.2727 245.728 85.2727C244.887 85.2727 244.213 85.1335 243.708 84.8551C243.202 84.571 242.813 84.25 242.54 83.892C242.267 83.5284 242.057 83.2273 241.909 82.9886H241.739V89.9091H239.728ZM241.705 78.4545C241.705 79.4432 241.85 80.3153 242.14 81.071C242.429 81.821 242.853 82.4091 243.409 82.8352C243.966 83.2557 244.648 83.4659 245.455 83.4659C246.296 83.4659 246.998 83.2443 247.56 82.8011C248.128 82.3523 248.554 81.75 248.838 80.9943C249.128 80.233 249.273 79.3864 249.273 78.4545C249.273 77.5341 249.131 76.7045 248.847 75.9659C248.569 75.2216 248.145 74.6335 247.577 74.2017C247.015 73.7642 246.307 73.5455 245.455 73.5455C244.637 73.5455 243.949 73.7528 243.392 74.1676C242.836 74.5767 242.415 75.1506 242.131 75.8892C241.847 76.6222 241.705 77.4773 241.705 78.4545ZM259.841 85.2727C258.58 85.2727 257.492 84.9943 256.577 84.4375C255.668 83.875 254.966 83.0909 254.472 82.0852C253.983 81.0739 253.739 79.8977 253.739 78.5568C253.739 77.2159 253.983 76.0341 254.472 75.0114C254.966 73.983 255.654 73.1818 256.534 72.608C257.421 72.0284 258.455 71.7386 259.637 71.7386C260.319 71.7386 260.992 71.8523 261.657 72.0795C262.321 72.3068 262.926 72.6761 263.472 73.1875C264.017 73.6932 264.452 74.3636 264.776 75.1989C265.1 76.0341 265.262 77.0625 265.262 78.2841V79.1364H255.171V77.3977H263.216C263.216 76.6591 263.069 76 262.773 75.4205C262.483 74.8409 262.069 74.3835 261.529 74.0483C260.995 73.7131 260.364 73.5455 259.637 73.5455C258.836 73.5455 258.142 73.7443 257.557 74.142C256.978 74.5341 256.532 75.0455 256.219 75.6761C255.907 76.3068 255.75 76.983 255.75 77.7045V78.8636C255.75 79.8523 255.921 80.6903 256.262 81.3778C256.608 82.0597 257.088 82.5795 257.702 82.9375C258.316 83.2898 259.029 83.4659 259.841 83.4659C260.37 83.4659 260.847 83.392 261.273 83.2443C261.705 83.0909 262.077 82.8636 262.39 82.5625C262.702 82.2557 262.944 81.875 263.114 81.4205L265.057 81.9659C264.853 82.625 264.509 83.2045 264.026 83.7045C263.543 84.1989 262.946 84.5852 262.236 84.8636C261.526 85.1364 260.728 85.2727 259.841 85.2727ZM268.321 85V71.9091H270.265V73.8864H270.401C270.64 73.2386 271.071 72.7131 271.696 72.3097C272.321 71.9062 273.026 71.7045 273.81 71.7045C273.958 71.7045 274.142 71.7074 274.364 71.7131C274.586 71.7187 274.753 71.7273 274.867 71.7386V73.7841C274.799 73.767 274.642 73.7415 274.398 73.7074C274.159 73.6676 273.907 73.6477 273.64 73.6477C273.003 73.6477 272.435 73.7812 271.935 74.0483C271.441 74.3097 271.049 74.6733 270.759 75.1392C270.475 75.5994 270.333 76.125 270.333 76.7159V85H268.321ZM283.901 71.9091V73.6136H276.844V71.9091H283.901ZM278.958 85V70.1023C278.958 69.3523 279.134 68.7273 279.486 68.2273C279.838 67.7273 280.296 67.3523 280.858 67.1023C281.421 66.8523 282.015 66.7273 282.64 66.7273C283.134 66.7273 283.537 66.767 283.85 66.8466C284.162 66.9261 284.395 67 284.549 67.0682L283.969 68.8068C283.867 68.7727 283.725 68.7301 283.543 68.679C283.367 68.6278 283.134 68.6023 282.844 68.6023C282.179 68.6023 281.699 68.7699 281.404 69.1051C281.114 69.4403 280.969 69.9318 280.969 70.5795V85H278.958ZM291.669 85.2727C290.408 85.2727 289.32 84.9943 288.405 84.4375C287.496 83.875 286.794 83.0909 286.3 82.0852C285.811 81.0739 285.567 79.8977 285.567 78.5568C285.567 77.2159 285.811 76.0341 286.3 75.0114C286.794 73.983 287.482 73.1818 288.363 72.608C289.249 72.0284 290.283 71.7386 291.465 71.7386C292.147 71.7386 292.82 71.8523 293.485 72.0795C294.15 72.3068 294.755 72.6761 295.3 73.1875C295.846 73.6932 296.28 74.3636 296.604 75.1989C296.928 76.0341 297.09 77.0625 297.09 78.2841V79.1364H286.999V77.3977H295.044C295.044 76.6591 294.897 76 294.601 75.4205C294.311 74.8409 293.897 74.3835 293.357 74.0483C292.823 73.7131 292.192 73.5455 291.465 73.5455C290.664 73.5455 289.971 73.7443 289.385 74.142C288.806 74.5341 288.36 75.0455 288.047 75.6761C287.735 76.3068 287.578 76.983 287.578 77.7045V78.8636C287.578 79.8523 287.749 80.6903 288.09 81.3778C288.436 82.0597 288.917 82.5795 289.53 82.9375C290.144 83.2898 290.857 83.4659 291.669 83.4659C292.198 83.4659 292.675 83.392 293.101 83.2443C293.533 83.0909 293.905 82.8636 294.218 82.5625C294.53 82.2557 294.772 81.875 294.942 81.4205L296.885 81.9659C296.681 82.625 296.337 83.2045 295.854 83.7045C295.371 84.1989 294.775 84.5852 294.064 84.8636C293.354 85.1364 292.556 85.2727 291.669 85.2727ZM305.468 85.2727C304.24 85.2727 303.184 84.983 302.297 84.4034C301.411 83.8239 300.729 83.0256 300.252 82.0085C299.775 80.9915 299.536 79.8295 299.536 78.5227C299.536 77.1932 299.78 76.0199 300.269 75.0028C300.763 73.9801 301.451 73.1818 302.331 72.608C303.218 72.0284 304.252 71.7386 305.434 71.7386C306.354 71.7386 307.184 71.9091 307.922 72.25C308.661 72.5909 309.266 73.0682 309.738 73.6818C310.209 74.2955 310.502 75.0114 310.615 75.8295H308.604C308.451 75.233 308.11 74.7045 307.581 74.2443C307.059 73.7784 306.354 73.5455 305.468 73.5455C304.684 73.5455 303.996 73.75 303.405 74.1591C302.82 74.5625 302.363 75.1335 302.033 75.8722C301.709 76.6051 301.547 77.4659 301.547 78.4545C301.547 79.4659 301.706 80.3466 302.025 81.0966C302.348 81.8466 302.803 82.429 303.388 82.8438C303.979 83.2585 304.672 83.4659 305.468 83.4659C305.99 83.4659 306.465 83.375 306.891 83.1932C307.317 83.0114 307.678 82.75 307.973 82.4091C308.269 82.0682 308.479 81.6591 308.604 81.1818H310.615C310.502 81.9545 310.221 82.6506 309.772 83.2699C309.328 83.8835 308.74 84.3722 308.007 84.7358C307.28 85.0938 306.434 85.2727 305.468 85.2727ZM319.249 71.9091V73.6136H312.465V71.9091H319.249ZM314.442 68.7727H316.453V81.25C316.453 81.8182 316.536 82.2443 316.701 82.5284C316.871 82.8068 317.087 82.9943 317.348 83.0909C317.615 83.1818 317.897 83.2273 318.192 83.2273C318.414 83.2273 318.596 83.2159 318.738 83.1932C318.88 83.1648 318.993 83.142 319.078 83.125L319.488 84.9318C319.351 84.983 319.161 85.0341 318.917 85.0852C318.672 85.142 318.363 85.1705 317.988 85.1705C317.419 85.1705 316.863 85.0483 316.317 84.804C315.777 84.5597 315.328 84.1875 314.971 83.6875C314.618 83.1875 314.442 82.5568 314.442 81.7955V68.7727ZM324.727 67.5455V69.0795C324.727 69.5455 324.642 70.0426 324.471 70.571C324.306 71.0938 324.062 71.6023 323.738 72.0966C323.42 72.5852 323.034 73.0114 322.579 73.375L321.488 72.4886C321.846 71.9773 322.156 71.446 322.417 70.8949C322.684 70.3381 322.818 69.7443 322.818 69.1136V67.5455H324.727ZM329.091 67.5455V69.0795C329.091 69.5455 329.005 70.0426 328.835 70.571C328.67 71.0938 328.426 71.6023 328.102 72.0966C327.784 72.5852 327.397 73.0114 326.943 73.375L325.852 72.4886C326.21 71.9773 326.52 71.446 326.781 70.8949C327.048 70.3381 327.181 69.7443 327.181 69.1136V67.5455H329.091ZM256.79 121V107.909H258.801V121H256.79ZM257.813 105.727C257.421 105.727 257.083 105.594 256.799 105.327C256.52 105.06 256.381 104.739 256.381 104.364C256.381 103.989 256.52 103.668 256.799 103.401C257.083 103.134 257.421 103 257.813 103C258.205 103 258.54 103.134 258.819 103.401C259.103 103.668 259.245 103.989 259.245 104.364C259.245 104.739 259.103 105.06 258.819 105.327C258.54 105.594 258.205 105.727 257.813 105.727ZM268.179 107.909V109.614H261.395V107.909H268.179ZM263.372 104.773H265.383V117.25C265.383 117.818 265.466 118.244 265.63 118.528C265.801 118.807 266.017 118.994 266.278 119.091C266.545 119.182 266.826 119.227 267.122 119.227C267.343 119.227 267.525 119.216 267.667 119.193C267.809 119.165 267.923 119.142 268.008 119.125L268.417 120.932C268.281 120.983 268.091 121.034 267.846 121.085C267.602 121.142 267.292 121.17 266.917 121.17C266.349 121.17 265.792 121.048 265.247 120.804C264.707 120.56 264.258 120.188 263.9 119.688C263.548 119.188 263.372 118.557 263.372 117.795V104.773ZM276.552 121.273C275.291 121.273 274.203 120.994 273.288 120.438C272.379 119.875 271.677 119.091 271.183 118.085C270.694 117.074 270.45 115.898 270.45 114.557C270.45 113.216 270.694 112.034 271.183 111.011C271.677 109.983 272.365 109.182 273.245 108.608C274.132 108.028 275.166 107.739 276.348 107.739C277.029 107.739 277.703 107.852 278.368 108.08C279.032 108.307 279.637 108.676 280.183 109.188C280.728 109.693 281.163 110.364 281.487 111.199C281.811 112.034 281.973 113.062 281.973 114.284V115.136H271.882V113.398H279.927C279.927 112.659 279.779 112 279.484 111.42C279.194 110.841 278.779 110.384 278.24 110.048C277.706 109.713 277.075 109.545 276.348 109.545C275.547 109.545 274.853 109.744 274.268 110.142C273.689 110.534 273.243 111.045 272.93 111.676C272.618 112.307 272.461 112.983 272.461 113.705V114.864C272.461 115.852 272.632 116.69 272.973 117.378C273.319 118.06 273.799 118.58 274.413 118.938C275.027 119.29 275.74 119.466 276.552 119.466C277.081 119.466 277.558 119.392 277.984 119.244C278.416 119.091 278.788 118.864 279.1 118.562C279.413 118.256 279.654 117.875 279.825 117.42L281.768 117.966C281.564 118.625 281.22 119.205 280.737 119.705C280.254 120.199 279.657 120.585 278.947 120.864C278.237 121.136 277.439 121.273 276.552 121.273ZM285.032 121V107.909H286.975V109.955H287.146C287.419 109.256 287.859 108.713 288.467 108.327C289.075 107.935 289.805 107.739 290.657 107.739C291.521 107.739 292.24 107.935 292.814 108.327C293.393 108.713 293.845 109.256 294.169 109.955H294.305C294.64 109.278 295.143 108.741 295.814 108.344C296.484 107.94 297.288 107.739 298.225 107.739C299.396 107.739 300.353 108.105 301.098 108.838C301.842 109.565 302.214 110.699 302.214 112.239V121H300.203V112.239C300.203 111.273 299.939 110.582 299.41 110.168C298.882 109.753 298.26 109.545 297.544 109.545C296.623 109.545 295.91 109.824 295.404 110.381C294.899 110.932 294.646 111.631 294.646 112.477V121H292.6V112.034C292.6 111.29 292.359 110.69 291.876 110.236C291.393 109.776 290.771 109.545 290.01 109.545C289.487 109.545 288.998 109.685 288.544 109.963C288.095 110.241 287.731 110.628 287.453 111.122C287.18 111.611 287.044 112.176 287.044 112.818V121H285.032Z" fill="black"/>
<path d="M373.012 77.125V85H371.001V67.5455H373.012V73.9545H373.183C373.49 73.2784 373.95 72.7415 374.564 72.3438C375.183 71.9403 376.007 71.7386 377.035 71.7386C377.927 71.7386 378.708 71.9176 379.379 72.2756C380.049 72.6278 380.569 73.1705 380.939 73.9034C381.314 74.6307 381.501 75.5568 381.501 76.6818V85H379.49V76.8182C379.49 75.7784 379.22 74.9744 378.68 74.4062C378.146 73.8324 377.404 73.5455 376.456 73.5455C375.797 73.5455 375.206 73.6847 374.683 73.9631C374.166 74.2415 373.757 74.6477 373.456 75.1818C373.16 75.7159 373.012 76.3636 373.012 77.125ZM385.181 85V71.9091H387.192V85H385.181ZM386.203 69.7273C385.811 69.7273 385.473 69.5938 385.189 69.3267C384.911 69.0597 384.772 68.7386 384.772 68.3636C384.772 67.9886 384.911 67.6676 385.189 67.4006C385.473 67.1335 385.811 67 386.203 67C386.596 67 386.931 67.1335 387.209 67.4006C387.493 67.6676 387.635 67.9886 387.635 68.3636C387.635 68.7386 387.493 69.0597 387.209 69.3267C386.931 69.5938 386.596 69.7273 386.203 69.7273ZM396.16 90.1818C395.189 90.1818 394.353 90.0568 393.654 89.8068C392.956 89.5625 392.373 89.2386 391.907 88.8352C391.447 88.4375 391.081 88.0114 390.808 87.5568L392.41 86.4318C392.592 86.6705 392.822 86.9432 393.1 87.25C393.379 87.5625 393.76 87.8324 394.243 88.0597C394.731 88.2926 395.37 88.4091 396.16 88.4091C397.217 88.4091 398.089 88.1534 398.777 87.642C399.464 87.1307 399.808 86.3295 399.808 85.2386V82.5795H399.637C399.49 82.8182 399.279 83.1136 399.007 83.4659C398.74 83.8125 398.353 84.1222 397.848 84.3949C397.348 84.6619 396.672 84.7955 395.819 84.7955C394.762 84.7955 393.814 84.5455 392.973 84.0455C392.137 83.5455 391.475 82.8182 390.987 81.8636C390.504 80.9091 390.262 79.75 390.262 78.3864C390.262 77.0455 390.498 75.8778 390.97 74.8835C391.441 73.8835 392.098 73.1108 392.939 72.5653C393.779 72.0142 394.751 71.7386 395.853 71.7386C396.706 71.7386 397.382 71.8807 397.882 72.1648C398.387 72.4432 398.774 72.7614 399.041 73.1193C399.314 73.4716 399.524 73.7614 399.672 73.9886H399.876V71.9091H401.819V85.375C401.819 86.5 401.564 87.4148 401.052 88.1193C400.547 88.8295 399.865 89.3494 399.007 89.679C398.154 90.0142 397.206 90.1818 396.16 90.1818ZM396.092 82.9886C396.899 82.9886 397.581 82.804 398.137 82.4347C398.694 82.0653 399.118 81.5341 399.407 80.8409C399.697 80.1477 399.842 79.3182 399.842 78.3523C399.842 77.4091 399.7 76.5767 399.416 75.8551C399.132 75.1335 398.711 74.5682 398.154 74.1591C397.598 73.75 396.91 73.5455 396.092 73.5455C395.24 73.5455 394.529 73.7614 393.961 74.1932C393.399 74.625 392.975 75.2045 392.691 75.9318C392.413 76.6591 392.274 77.4659 392.274 78.3523C392.274 79.2614 392.416 80.0653 392.7 80.7642C392.99 81.4574 393.416 82.0028 393.978 82.4006C394.547 82.7926 395.251 82.9886 396.092 82.9886ZM407.512 77.125V85H405.501V67.5455H407.512V73.9545H407.683C407.99 73.2784 408.45 72.7415 409.064 72.3438C409.683 71.9403 410.507 71.7386 411.535 71.7386C412.427 71.7386 413.208 71.9176 413.879 72.2756C414.549 72.6278 415.069 73.1705 415.439 73.9034C415.814 74.6307 416.001 75.5568 416.001 76.6818V85H413.99V76.8182C413.99 75.7784 413.72 74.9744 413.18 74.4062C412.646 73.8324 411.904 73.5455 410.956 73.5455C410.297 73.5455 409.706 73.6847 409.183 73.9631C408.666 74.2415 408.257 74.6477 407.956 75.1818C407.66 75.7159 407.512 76.3636 407.512 77.125ZM367.598 103.545V121H365.485V103.545H367.598ZM385.677 103.545V121H383.632L374.12 107.295H373.95V121H371.836V103.545H373.882L383.427 117.284H383.598V103.545H385.677ZM389.907 121V103.545H400.373V105.42H392.02V111.318H399.588V113.193H392.02V121H389.907ZM406.106 103.545V121H403.993V103.545H406.106ZM409.39 105.42V103.545H422.48V105.42H416.992V121H414.878V105.42H409.39Z" fill="black"/>
<path d="M461.012 77.125V85H459.001V67.5455H461.012V73.9545H461.183C461.49 73.2784 461.95 72.7415 462.564 72.3438C463.183 71.9403 464.007 71.7386 465.035 71.7386C465.927 71.7386 466.708 71.9176 467.379 72.2756C468.049 72.6278 468.569 73.1705 468.939 73.9034C469.314 74.6307 469.501 75.5568 469.501 76.6818V85H467.49V76.8182C467.49 75.7784 467.22 74.9744 466.68 74.4062C466.146 73.8324 465.404 73.5455 464.456 73.5455C463.797 73.5455 463.206 73.6847 462.683 73.9631C462.166 74.2415 461.757 74.6477 461.456 75.1818C461.16 75.7159 461.012 76.3636 461.012 77.125ZM473.181 85V71.9091H475.192V85H473.181ZM474.203 69.7273C473.811 69.7273 473.473 69.5938 473.189 69.3267C472.911 69.0597 472.772 68.7386 472.772 68.3636C472.772 67.9886 472.911 67.6676 473.189 67.4006C473.473 67.1335 473.811 67 474.203 67C474.596 67 474.931 67.1335 475.209 67.4006C475.493 67.6676 475.635 67.9886 475.635 68.3636C475.635 68.7386 475.493 69.0597 475.209 69.3267C474.931 69.5938 474.596 69.7273 474.203 69.7273ZM484.16 90.1818C483.189 90.1818 482.353 90.0568 481.654 89.8068C480.956 89.5625 480.373 89.2386 479.907 88.8352C479.447 88.4375 479.081 88.0114 478.808 87.5568L480.41 86.4318C480.592 86.6705 480.822 86.9432 481.1 87.25C481.379 87.5625 481.76 87.8324 482.243 88.0597C482.731 88.2926 483.37 88.4091 484.16 88.4091C485.217 88.4091 486.089 88.1534 486.777 87.642C487.464 87.1307 487.808 86.3295 487.808 85.2386V82.5795H487.637C487.49 82.8182 487.279 83.1136 487.007 83.4659C486.74 83.8125 486.353 84.1222 485.848 84.3949C485.348 84.6619 484.672 84.7955 483.819 84.7955C482.762 84.7955 481.814 84.5455 480.973 84.0455C480.137 83.5455 479.475 82.8182 478.987 81.8636C478.504 80.9091 478.262 79.75 478.262 78.3864C478.262 77.0455 478.498 75.8778 478.97 74.8835C479.441 73.8835 480.098 73.1108 480.939 72.5653C481.779 72.0142 482.751 71.7386 483.853 71.7386C484.706 71.7386 485.382 71.8807 485.882 72.1648C486.387 72.4432 486.774 72.7614 487.041 73.1193C487.314 73.4716 487.524 73.7614 487.672 73.9886H487.876V71.9091H489.819V85.375C489.819 86.5 489.564 87.4148 489.052 88.1193C488.547 88.8295 487.865 89.3494 487.007 89.679C486.154 90.0142 485.206 90.1818 484.16 90.1818ZM484.092 82.9886C484.899 82.9886 485.581 82.804 486.137 82.4347C486.694 82.0653 487.118 81.5341 487.407 80.8409C487.697 80.1477 487.842 79.3182 487.842 78.3523C487.842 77.4091 487.7 76.5767 487.416 75.8551C487.132 75.1335 486.711 74.5682 486.154 74.1591C485.598 73.75 484.91 73.5455 484.092 73.5455C483.24 73.5455 482.529 73.7614 481.961 74.1932C481.399 74.625 480.975 75.2045 480.691 75.9318C480.413 76.6591 480.274 77.4659 480.274 78.3523C480.274 79.2614 480.416 80.0653 480.7 80.7642C480.99 81.4574 481.416 82.0028 481.978 82.4006C482.547 82.7926 483.251 82.9886 484.092 82.9886ZM495.512 77.125V85H493.501V67.5455H495.512V73.9545H495.683C495.99 73.2784 496.45 72.7415 497.064 72.3438C497.683 71.9403 498.507 71.7386 499.535 71.7386C500.427 71.7386 501.208 71.9176 501.879 72.2756C502.549 72.6278 503.069 73.1705 503.439 73.9034C503.814 74.6307 504.001 75.5568 504.001 76.6818V85H501.99V76.8182C501.99 75.7784 501.72 74.9744 501.18 74.4062C500.646 73.8324 499.904 73.5455 498.956 73.5455C498.297 73.5455 497.706 73.6847 497.183 73.9631C496.666 74.2415 496.257 74.6477 495.956 75.1818C495.66 75.7159 495.512 76.3636 495.512 77.125ZM454.689 112.273C454.689 114.114 454.356 115.705 453.691 117.045C453.027 118.386 452.115 119.42 450.956 120.148C449.797 120.875 448.473 121.239 446.984 121.239C445.495 121.239 444.172 120.875 443.012 120.148C441.853 119.42 440.941 118.386 440.277 117.045C439.612 115.705 439.279 114.114 439.279 112.273C439.279 110.432 439.612 108.841 440.277 107.5C440.941 106.159 441.853 105.125 443.012 104.398C444.172 103.67 445.495 103.307 446.984 103.307C448.473 103.307 449.797 103.67 450.956 104.398C452.115 105.125 453.027 106.159 453.691 107.5C454.356 108.841 454.689 110.432 454.689 112.273ZM452.643 112.273C452.643 110.761 452.39 109.486 451.885 108.446C451.385 107.406 450.706 106.619 449.848 106.085C448.995 105.551 448.041 105.284 446.984 105.284C445.927 105.284 444.97 105.551 444.112 106.085C443.26 106.619 442.581 107.406 442.075 108.446C441.575 109.486 441.325 110.761 441.325 112.273C441.325 113.784 441.575 115.06 442.075 116.099C442.581 117.139 443.26 117.926 444.112 118.46C444.97 118.994 445.927 119.261 446.984 119.261C448.041 119.261 448.995 118.994 449.848 118.46C450.706 117.926 451.385 117.139 451.885 116.099C452.39 115.06 452.643 113.784 452.643 112.273ZM469.697 103.545H471.811V115.102C471.811 116.295 471.529 117.361 470.967 118.298C470.41 119.23 469.623 119.966 468.606 120.506C467.589 121.04 466.396 121.307 465.027 121.307C463.657 121.307 462.464 121.04 461.447 120.506C460.43 119.966 459.64 119.23 459.078 118.298C458.521 117.361 458.243 116.295 458.243 115.102V103.545H460.356V114.932C460.356 115.784 460.544 116.543 460.919 117.207C461.294 117.866 461.828 118.386 462.521 118.767C463.22 119.142 464.055 119.33 465.027 119.33C465.998 119.33 466.833 119.142 467.532 118.767C468.231 118.386 468.765 117.866 469.135 117.207C469.51 116.543 469.697 115.784 469.697 114.932V103.545ZM475.077 105.42V103.545H488.168V105.42H482.679V121H480.566V105.42H475.077ZM491.43 121V103.545H501.896V105.42H493.544V111.318H501.112V113.193H493.544V121H491.43ZM507.63 103.545V121H505.516V103.545H507.63ZM510.913 105.42V103.545H524.004V105.42H518.515V121H516.402V105.42H510.913Z" fill="black"/>
</svg>
