<svg viewBox="0 0 449 264" fill="none" xmlns="http://www.w3.org/2000/svg">
<rect x="1.16815" y="200.92" width="447.398" height="63.0796" fill="#EEEEEE"/>
<rect x="0.5" y="0.5" width="447.566" height="263" stroke="#CCCCCC"/>
<path d="M194.236 103.41C194.236 112.135 187.162 119.21 178.437 119.21C169.71 119.21 162.637 112.135 162.637 103.41C162.637 94.6837 169.71 87.6106 178.437 87.6106C187.162 87.6106 194.236 94.6837 194.236 103.41Z" fill="#999999"/>
<path d="M198.502 131.217C195.816 126.161 190.602 123.001 184.757 123.001H171.801C166.113 123.001 160.899 126.161 158.055 131.217L143.362 158.866C141.467 162.342 142.888 166.608 146.206 168.346C147.312 168.978 148.418 169.137 149.524 169.137C152.052 169.137 154.422 167.715 155.686 165.503L164.376 149.072L157.582 221.118C157.108 225.542 160.425 229.649 165.007 230.124H165.798C169.905 230.124 173.54 226.964 173.855 222.698L178.279 176.09L182.861 222.698C183.335 226.964 186.811 230.124 190.919 230.124H191.709C196.133 229.65 199.451 225.7 199.135 221.118L192.183 149.072L200.873 165.503C202.768 168.979 206.877 170.243 210.353 168.346C213.829 166.451 215.093 162.342 213.196 158.866L198.502 131.217Z" fill="#999999"/>
<mask id="mask0_104_3" style="mask-type:alpha" maskUnits="userSpaceOnUse" x="195" y="0" width="254" height="264">
<path d="M195.08 94.0354L274.513 0H448.566V264H327.664L274.513 230.708L195.08 104.549V94.0354Z" fill="black"/>
</mask>
<g mask="url(#mask0_104_3)">
<path d="M258.274 180.565C247.014 165.551 262.028 141.154 265.781 123.326C273.288 143.594 263.904 169.93 258.274 180.565Z" fill="#666666"/>
<path d="M239.074 123.52C235.654 133.076 242.461 160.391 255.875 179.29C260.436 166.549 252.698 166.543 250.429 157.438C248.159 148.333 252.947 136.502 239.074 123.52Z" fill="#888888"/>
<path d="M278.918 142.093C267.658 142.093 262.966 153.353 260.151 177.75C270.473 170.243 271.411 155.229 276.103 151.476C280.794 147.723 276.103 147.723 287.363 155.229C282.671 150.538 290.178 142.093 278.918 142.093Z" fill="#999999"/>
<path d="M230.124 164.934C242.322 163.057 248.891 169.626 255.459 179.009C240.446 175.256 234.816 164.934 230.124 164.934Z" fill="#777777"/>
<rect x="243.261" y="175.873" width="28.1503" height="5.63006" rx="1" fill="#666666"/>
<path d="M245.331 180.791C245.23 180.181 245.7 179.626 246.318 179.626H268.386C268.993 179.626 269.46 180.163 269.376 180.764L264.962 212.544C264.894 213.039 264.471 213.407 263.972 213.407H251.615C251.126 213.407 250.709 213.053 250.628 212.571L245.331 180.791Z" fill="#666666"/>
<rect x="295.54" y="142.513" width="139.009" height="9.34513" fill="#999999"/>
<rect x="303.717" y="216.106" width="64.2478" height="9.34514" transform="rotate(-90 303.717 216.106)" fill="#999999"/>
<rect x="417.026" y="216.106" width="64.2478" height="9.34514" transform="rotate(-90 417.026 216.106)" fill="#999999"/>
<rect x="303.717" y="110.063" width="9.34513" height="32.708" fill="#CCCCCC"/>
<rect x="313.062" y="113.568" width="5.84071" height="29.2035" fill="#666666"/>
<rect x="318.903" y="110.063" width="5.84071" height="32.708" fill="#888888"/>
<rect x="324.743" y="110.063" width="5.84071" height="32.708" fill="#D9D9D9"/>
<rect x="331.411" y="110.776" width="5.84071" height="32.708" transform="rotate(-9.56534 331.411 110.776)" fill="#AAAAAA"/>
<rect x="362.124" y="126.159" width="46.7257" height="58.4071" rx="9" fill="#888888"/>
<rect x="360.956" y="175.221" width="49.0619" height="9.34513" rx="4.67257" fill="#888888"/>
<rect x="397.168" y="219.611" width="37.3805" height="9.34513" transform="rotate(-90 397.168 219.611)" fill="#888888"/>
<rect x="364.46" y="219.611" width="37.3805" height="9.34513" transform="rotate(-90 364.46 219.611)" fill="#888888"/>
<rect x="355.115" y="49.062" width="30.3717" height="33.8761" fill="#888888"/>
<rect x="358.619" y="52.5664" width="23.3628" height="26.8673" fill="#EEEEEE"/>
<path d="M358.619 67.7523L358.715 67.7363C363.191 66.9904 367.786 67.7883 371.748 69.999L379.646 74.4056V79.4337H358.619V67.7523Z" fill="#CCCCCC"/>
<path d="M381.982 71.8408C376.595 68.9677 370.059 69.3184 365.011 72.7515L358.619 77.0974V79.4337H381.982V71.8408Z" fill="#AAAAAA"/>
<circle cx="375.557" cy="57.8231" r="2.92035" fill="white"/>
<path d="M195.08 94.0354L274.513 0H448.566V264H327.664L274.513 230.708L195.08 104.549V94.0354Z" fill="#1263FF" fill-opacity="0.1"/>
</g>
<path d="M158 99C158 95.6863 160.686 93 164 93H192C195.314 93 198 95.6863 198 99V103C198 106.314 195.314 109 192 109H184.118C182.684 109 181.437 107.996 181.117 106.598C180.385 103.405 175.808 103.371 175.13 106.576C174.831 107.989 173.584 109 172.14 109H164C160.686 109 158 106.314 158 103V99Z" fill="#1263FF"/>
</svg>
