<svg  viewBox="0 0 449 264" fill="none" xmlns="http://www.w3.org/2000/svg">
<rect x="0.345215" y="200.92" width="447.398" height="63.0796" fill="#EEEEEE"/>
<rect x="0.845215" y="0.5" width="447.566" height="263" stroke="#CCCCCC"/>
<rect x="297.053" y="142.513" width="139.009" height="9.34513" fill="#999999"/>
<rect x="305.23" y="216.106" width="64.2478" height="9.34514" transform="rotate(-90 305.23 216.106)" fill="#999999"/>
<rect x="418.54" y="216.106" width="64.2478" height="9.34514" transform="rotate(-90 418.54 216.106)" fill="#999999"/>
<rect x="305.23" y="110.063" width="9.34513" height="32.708" fill="#CCCCCC"/>
<rect x="314.575" y="113.568" width="5.84071" height="29.2035" fill="#666666"/>
<rect x="320.416" y="110.063" width="5.84071" height="32.708" fill="#888888"/>
<rect x="326.257" y="110.063" width="5.84071" height="32.708" fill="#D9D9D9"/>
<rect x="332.925" y="110.776" width="5.84071" height="32.708" transform="rotate(-9.56534 332.925 110.776)" fill="#AAAAAA"/>
<rect x="363.637" y="126.159" width="46.7257" height="58.4071" rx="9" fill="#888888"/>
<rect x="362.469" y="175.221" width="49.0619" height="9.34513" rx="4.67257" fill="#888888"/>
<rect x="398.682" y="219.611" width="37.3805" height="9.34513" transform="rotate(-90 398.682 219.611)" fill="#888888"/>
<rect x="365.974" y="219.611" width="37.3805" height="9.34513" transform="rotate(-90 365.974 219.611)" fill="#888888"/>
<path d="M256.283 180.565C245.023 165.551 260.036 141.154 263.79 123.326C271.297 143.594 261.913 169.93 256.283 180.565Z" fill="#666666"/>
<path d="M237.083 123.52C233.662 133.076 240.47 160.391 253.884 179.29C258.445 166.549 250.707 166.543 248.438 157.438C246.168 148.333 250.956 136.502 237.083 123.52Z" fill="#888888"/>
<path d="M276.927 142.093C265.667 142.093 260.975 153.353 258.16 177.75C268.482 170.243 269.42 155.229 274.112 151.476C278.803 147.723 274.112 147.723 285.372 155.229C280.68 150.538 288.187 142.093 276.927 142.093Z" fill="#999999"/>
<path d="M228.133 164.934C240.331 163.057 246.9 169.626 253.468 179.009C238.455 175.256 232.825 164.934 228.133 164.934Z" fill="#777777"/>
<rect x="241.27" y="175.873" width="28.1503" height="5.63006" rx="1" fill="#666666"/>
<path d="M243.34 180.791C243.239 180.181 243.709 179.626 244.327 179.626H266.395C267.002 179.626 267.469 180.163 267.385 180.764L262.971 212.544C262.903 213.039 262.48 213.407 261.981 213.407H249.624C249.135 213.407 248.718 213.053 248.637 212.571L243.34 180.791Z" fill="#666666"/>
<rect x="12.0266" y="216.106" width="205.593" height="99.292" transform="rotate(-90 12.0266 216.106)" fill="#666666"/>
<rect x="16.6992" y="16.354" width="88.7788" height="126.159" fill="#999999"/>
<rect x="17.1992" y="209.766" width="63.2478" height="42.2212" transform="rotate(-90 17.1992 209.766)" stroke="#999999"/>
<rect x="62.7567" y="209.766" width="63.2478" height="42.2212" transform="rotate(-90 62.7567 209.766)" stroke="#999999"/>
<rect x="17.1992" y="54.4027" width="1.33628" height="87.7788" transform="rotate(-90 17.1992 54.4027)" stroke="#666666"/>
<rect x="17.1992" y="97.6239" width="1.33628" height="87.7788" transform="rotate(-90 17.1992 97.6239)" stroke="#666666"/>
<rect x="17.8673" y="20.1165" width="9.34513" height="32.708" fill="#CCCCCC"/>
<rect x="27.2124" y="23.6209" width="5.84071" height="29.2035" fill="#666666"/>
<rect x="33.0531" y="20.1165" width="5.84071" height="32.708" fill="#888888"/>
<rect x="38.8938" y="20.1165" width="5.84071" height="32.708" fill="#D9D9D9"/>
<rect x="44.7346" y="19.6607" width="5.84071" height="32.708" transform="rotate(-9.56534 44.7346 19.6607)" fill="#AAAAAA"/>
<rect x="16.6992" y="63.3377" width="9.34513" height="32.708" fill="#CCCCCC"/>
<rect x="37.239" y="66.8419" width="5.84071" height="29.2035" fill="#666666"/>
<rect x="43.0797" y="63.3375" width="5.84071" height="32.708" fill="#888888"/>
<rect x="48.9204" y="63.3375" width="5.84071" height="32.708" fill="#D9D9D9"/>
<rect x="26.0443" y="64.0501" width="5.84071" height="32.708" transform="rotate(-9.56534 26.0443 64.0501)" fill="#AAAAAA"/>
<rect x="58.7523" y="66.842" width="5.84071" height="29.2035" fill="#666666"/>
<rect x="64.593" y="63.3376" width="5.84071" height="32.708" fill="#888888"/>
<rect x="70.4337" y="63.3376" width="5.84071" height="32.708" fill="#D9D9D9"/>
<rect x="16.6992" y="113.31" width="5.84071" height="29.2035" fill="#666666"/>
<rect x="22.5399" y="109.805" width="5.84071" height="32.708" fill="#888888"/>
<rect x="28.3806" y="109.805" width="5.84071" height="32.708" fill="#D9D9D9"/>
<rect x="59.9204" y="108.895" width="9.34513" height="32.708" fill="#CCCCCC"/>
<rect x="69.2655" y="112.4" width="5.84071" height="29.2035" fill="#666666"/>
<rect x="86.3009" y="108.895" width="5.84071" height="32.708" fill="#888888"/>
<rect x="92.1416" y="108.895" width="5.84071" height="32.708" fill="#D9D9D9"/>
<rect x="75.1062" y="109.608" width="5.84071" height="32.708" transform="rotate(-9.56534 75.1062 109.608)" fill="#AAAAAA"/>
<rect x="353.124" y="49.062" width="30.3717" height="33.8761" fill="#888888"/>
<rect x="356.628" y="52.5664" width="23.3628" height="26.8673" fill="#EEEEEE"/>
<path d="M356.628 67.7523L356.724 67.7363C361.2 66.9904 365.795 67.7883 369.757 69.999L377.655 74.4056V79.4337H356.628V67.7523Z" fill="#CCCCCC"/>
<path d="M379.991 71.8408C374.604 68.9677 368.068 69.3184 363.02 72.7515L356.629 77.0974V79.4337H379.991V71.8408Z" fill="#AAAAAA"/>
<circle cx="373.566" cy="57.8231" r="2.92035" fill="white"/>
<path d="M195.749 103.41C195.749 112.135 188.675 119.21 179.95 119.21C171.224 119.21 164.151 112.135 164.151 103.41C164.151 94.6837 171.224 87.6106 179.95 87.6106C188.675 87.6106 195.749 94.6837 195.749 103.41Z" fill="#999999"/>
<path d="M200.015 131.217C197.33 126.161 192.116 123.001 186.27 123.001H173.314C167.626 123.001 162.412 126.161 159.569 131.217L144.876 158.866C142.98 162.342 144.402 166.608 147.719 168.346C148.825 168.978 149.931 169.136 151.037 169.136C153.566 169.136 155.935 167.715 157.199 165.503L165.889 149.072L159.095 221.118C158.621 225.541 161.938 229.649 166.521 230.124H167.311C171.418 230.124 175.053 226.964 175.368 222.698L179.792 176.09L184.375 222.698C184.848 226.964 188.324 230.124 192.432 230.124H193.222C197.646 229.65 200.964 225.7 200.648 221.118L193.696 149.072L202.386 165.503C204.282 168.979 208.39 170.243 211.866 168.346C215.342 166.451 216.606 162.342 214.71 158.866L200.015 131.217Z" fill="#999999"/>
<path d="M160.5 99C160.5 95.9624 162.962 93.5 166 93.5H194C197.038 93.5 199.5 95.9624 199.5 99V103C199.5 106.038 197.038 108.5 194 108.5H186.118C184.92 108.5 183.873 107.66 183.604 106.486C182.762 102.814 177.438 102.701 176.641 106.472C176.391 107.654 175.348 108.5 174.14 108.5H166C162.962 108.5 160.5 106.038 160.5 103V99Z" fill="#1263FF" fill-opacity="0.3" stroke="#1263FF"/>
</svg>
