<svg width="1049" height="400" viewBox="0 0 1049 400" fill="none" xmlns="http://www.w3.org/2000/svg">
<circle cx="204.5" cy="206.5" r="34.5" fill="#D9D9D9"/>
<path d="M189 203C189 197.477 193.477 193 199 193L1039 193C1044.52 193 1049 197.477 1049 203V210C1049 215.523 1044.52 220 1039 220H199C193.477 220 189 215.523 189 210V203Z" fill="#D9D9D9"/>
<circle cx="263.5" cy="326.5" r="34.5" fill="#D9D9D9"/>
<rect x="260" y="313" width="718" height="27" rx="10" fill="#D9D9D9"/>
<path d="M382.705 256.239C381.58 256.239 380.577 256.045 379.696 255.659C378.821 255.273 378.125 254.736 377.608 254.048C377.097 253.355 376.818 252.551 376.773 251.636H378.92C378.966 252.199 379.159 252.685 379.5 253.094C379.841 253.497 380.287 253.81 380.838 254.031C381.389 254.253 382 254.364 382.67 254.364C383.42 254.364 384.085 254.233 384.665 253.972C385.244 253.71 385.699 253.347 386.028 252.881C386.358 252.415 386.523 251.875 386.523 251.261C386.523 250.619 386.364 250.054 386.045 249.565C385.727 249.071 385.261 248.685 384.648 248.406C384.034 248.128 383.284 247.989 382.398 247.989H381V246.114H382.398C383.091 246.114 383.699 245.989 384.222 245.739C384.75 245.489 385.162 245.136 385.457 244.682C385.759 244.227 385.909 243.693 385.909 243.08C385.909 242.489 385.778 241.974 385.517 241.537C385.256 241.099 384.886 240.759 384.409 240.514C383.938 240.27 383.381 240.148 382.739 240.148C382.136 240.148 381.568 240.259 381.034 240.48C380.506 240.696 380.074 241.011 379.739 241.426C379.403 241.835 379.222 242.33 379.193 242.909H377.148C377.182 241.994 377.457 241.193 377.974 240.506C378.491 239.812 379.168 239.273 380.003 238.886C380.844 238.5 381.767 238.307 382.773 238.307C383.852 238.307 384.778 238.526 385.551 238.963C386.324 239.395 386.918 239.966 387.332 240.676C387.747 241.386 387.955 242.153 387.955 242.977C387.955 243.96 387.696 244.798 387.179 245.491C386.668 246.185 385.972 246.665 385.091 246.932V247.068C386.193 247.25 387.054 247.719 387.673 248.474C388.293 249.224 388.602 250.153 388.602 251.261C388.602 252.21 388.344 253.062 387.827 253.818C387.315 254.568 386.616 255.159 385.73 255.591C384.844 256.023 383.835 256.239 382.705 256.239ZM392.088 256V254.466L397.849 248.159C398.526 247.42 399.082 246.778 399.52 246.233C399.957 245.682 400.281 245.165 400.491 244.682C400.707 244.193 400.815 243.682 400.815 243.148C400.815 242.534 400.668 242.003 400.372 241.554C400.082 241.105 399.685 240.759 399.179 240.514C398.673 240.27 398.105 240.148 397.474 240.148C396.804 240.148 396.219 240.287 395.719 240.565C395.224 240.838 394.841 241.222 394.568 241.716C394.301 242.21 394.168 242.79 394.168 243.455H392.156C392.156 242.432 392.392 241.534 392.864 240.761C393.335 239.989 393.977 239.386 394.79 238.955C395.608 238.523 396.526 238.307 397.543 238.307C398.565 238.307 399.472 238.523 400.261 238.955C401.051 239.386 401.67 239.969 402.119 240.702C402.568 241.435 402.793 242.25 402.793 243.148C402.793 243.79 402.676 244.418 402.443 245.031C402.216 245.639 401.818 246.318 401.25 247.068C400.688 247.812 399.906 248.722 398.906 249.795L394.986 253.989V254.125H403.099V256H392.088ZM417.017 246.25C416.295 246.25 415.636 246.074 415.04 245.722C414.449 245.369 413.977 244.898 413.625 244.307C413.273 243.71 413.097 243.051 413.097 242.33C413.097 241.608 413.273 240.952 413.625 240.361C413.977 239.764 414.449 239.29 415.04 238.938C415.636 238.585 416.295 238.409 417.017 238.409C417.739 238.409 418.395 238.585 418.986 238.938C419.582 239.29 420.057 239.764 420.409 240.361C420.761 240.952 420.938 241.608 420.938 242.33C420.938 243.051 420.761 243.71 420.409 244.307C420.057 244.898 419.582 245.369 418.986 245.722C418.395 246.074 417.739 246.25 417.017 246.25ZM417.017 244.545C417.426 244.545 417.798 244.446 418.134 244.247C418.469 244.048 418.736 243.781 418.935 243.446C419.134 243.111 419.233 242.739 419.233 242.33C419.233 241.92 419.134 241.548 418.935 241.213C418.736 240.878 418.469 240.611 418.134 240.412C417.798 240.213 417.426 240.114 417.017 240.114C416.608 240.114 416.236 240.213 415.901 240.412C415.565 240.611 415.298 240.878 415.099 241.213C414.901 241.548 414.801 241.92 414.801 242.33C414.801 242.739 414.901 243.111 415.099 243.446C415.298 243.781 415.565 244.048 415.901 244.247C416.236 244.446 416.608 244.545 417.017 244.545ZM424.585 256V238.545H435.051V240.42H426.699V246.318H434.267V248.193H426.699V256H424.585Z" fill="black"/>
<path d="M906.807 256V254.466L912.568 248.159C913.244 247.42 913.801 246.778 914.239 246.233C914.676 245.682 915 245.165 915.21 244.682C915.426 244.193 915.534 243.682 915.534 243.148C915.534 242.534 915.386 242.003 915.091 241.554C914.801 241.105 914.403 240.759 913.898 240.514C913.392 240.27 912.824 240.148 912.193 240.148C911.523 240.148 910.938 240.287 910.438 240.565C909.943 240.838 909.56 241.222 909.287 241.716C909.02 242.21 908.886 242.79 908.886 243.455H906.875C906.875 242.432 907.111 241.534 907.582 240.761C908.054 239.989 908.696 239.386 909.509 238.955C910.327 238.523 911.244 238.307 912.261 238.307C913.284 238.307 914.19 238.523 914.98 238.955C915.77 239.386 916.389 239.969 916.838 240.702C917.287 241.435 917.511 242.25 917.511 243.148C917.511 243.79 917.395 244.418 917.162 245.031C916.935 245.639 916.537 246.318 915.969 247.068C915.406 247.812 914.625 248.722 913.625 249.795L909.705 253.989V254.125H917.818V256H906.807ZM927.474 238.545V256H925.361V240.761H925.259L920.997 243.591V241.443L925.361 238.545H927.474ZM932.494 256V254.466L938.256 248.159C938.932 247.42 939.489 246.778 939.926 246.233C940.364 245.682 940.688 245.165 940.898 244.682C941.114 244.193 941.222 243.682 941.222 243.148C941.222 242.534 941.074 242.003 940.778 241.554C940.489 241.105 940.091 240.759 939.585 240.514C939.08 240.27 938.511 240.148 937.881 240.148C937.21 240.148 936.625 240.287 936.125 240.565C935.631 240.838 935.247 241.222 934.974 241.716C934.707 242.21 934.574 242.79 934.574 243.455H932.562C932.562 242.432 932.798 241.534 933.27 240.761C933.741 239.989 934.384 239.386 935.196 238.955C936.014 238.523 936.932 238.307 937.949 238.307C938.972 238.307 939.878 238.523 940.668 238.955C941.457 239.386 942.077 239.969 942.526 240.702C942.974 241.435 943.199 242.25 943.199 243.148C943.199 243.79 943.082 244.418 942.849 245.031C942.622 245.639 942.224 246.318 941.656 247.068C941.094 247.812 940.312 248.722 939.312 249.795L935.392 253.989V254.125H943.506V256H932.494ZM957.423 246.25C956.702 246.25 956.043 246.074 955.446 245.722C954.855 245.369 954.384 244.898 954.031 244.307C953.679 243.71 953.503 243.051 953.503 242.33C953.503 241.608 953.679 240.952 954.031 240.361C954.384 239.764 954.855 239.29 955.446 238.938C956.043 238.585 956.702 238.409 957.423 238.409C958.145 238.409 958.801 238.585 959.392 238.938C959.989 239.29 960.463 239.764 960.815 240.361C961.168 240.952 961.344 241.608 961.344 242.33C961.344 243.051 961.168 243.71 960.815 244.307C960.463 244.898 959.989 245.369 959.392 245.722C958.801 246.074 958.145 246.25 957.423 246.25ZM957.423 244.545C957.832 244.545 958.205 244.446 958.54 244.247C958.875 244.048 959.142 243.781 959.341 243.446C959.54 243.111 959.639 242.739 959.639 242.33C959.639 241.92 959.54 241.548 959.341 241.213C959.142 240.878 958.875 240.611 958.54 240.412C958.205 240.213 957.832 240.114 957.423 240.114C957.014 240.114 956.642 240.213 956.307 240.412C955.972 240.611 955.705 240.878 955.506 241.213C955.307 241.548 955.207 241.92 955.207 242.33C955.207 242.739 955.307 243.111 955.506 243.446C955.705 243.781 955.972 244.048 956.307 244.247C956.642 244.446 957.014 244.545 957.423 244.545ZM964.991 256V238.545H975.457V240.42H967.105V246.318H974.673V248.193H967.105V256H964.991Z" fill="black"/>
<path d="M390.5 384.239C389.216 384.239 388.122 383.889 387.219 383.19C386.315 382.486 385.625 381.466 385.148 380.131C384.67 378.79 384.432 377.17 384.432 375.273C384.432 373.386 384.67 371.776 385.148 370.44C385.631 369.099 386.324 368.077 387.227 367.372C388.136 366.662 389.227 366.307 390.5 366.307C391.773 366.307 392.861 366.662 393.764 367.372C394.673 368.077 395.366 369.099 395.844 370.44C396.327 371.776 396.568 373.386 396.568 375.273C396.568 377.17 396.33 378.79 395.852 380.131C395.375 381.466 394.685 382.486 393.781 383.19C392.878 383.889 391.784 384.239 390.5 384.239ZM390.5 382.364C391.773 382.364 392.761 381.75 393.466 380.523C394.17 379.295 394.523 377.545 394.523 375.273C394.523 373.761 394.361 372.474 394.037 371.412C393.719 370.349 393.259 369.54 392.656 368.983C392.06 368.426 391.341 368.148 390.5 368.148C389.239 368.148 388.253 368.77 387.543 370.014C386.832 371.253 386.477 373.006 386.477 375.273C386.477 376.784 386.636 378.068 386.955 379.125C387.273 380.182 387.73 380.986 388.327 381.537C388.929 382.088 389.653 382.364 390.5 382.364ZM410.205 374.25C409.483 374.25 408.824 374.074 408.227 373.722C407.636 373.369 407.165 372.898 406.812 372.307C406.46 371.71 406.284 371.051 406.284 370.33C406.284 369.608 406.46 368.952 406.812 368.361C407.165 367.764 407.636 367.29 408.227 366.938C408.824 366.585 409.483 366.409 410.205 366.409C410.926 366.409 411.582 366.585 412.173 366.938C412.77 367.29 413.244 367.764 413.597 368.361C413.949 368.952 414.125 369.608 414.125 370.33C414.125 371.051 413.949 371.71 413.597 372.307C413.244 372.898 412.77 373.369 412.173 373.722C411.582 374.074 410.926 374.25 410.205 374.25ZM410.205 372.545C410.614 372.545 410.986 372.446 411.321 372.247C411.656 372.048 411.923 371.781 412.122 371.446C412.321 371.111 412.42 370.739 412.42 370.33C412.42 369.92 412.321 369.548 412.122 369.213C411.923 368.878 411.656 368.611 411.321 368.412C410.986 368.213 410.614 368.114 410.205 368.114C409.795 368.114 409.423 368.213 409.088 368.412C408.753 368.611 408.486 368.878 408.287 369.213C408.088 369.548 407.989 369.92 407.989 370.33C407.989 370.739 408.088 371.111 408.287 371.446C408.486 371.781 408.753 372.048 409.088 372.247C409.423 372.446 409.795 372.545 410.205 372.545ZM431.545 372H429.432C429.307 371.392 429.088 370.858 428.776 370.398C428.469 369.938 428.094 369.551 427.651 369.239C427.213 368.92 426.727 368.682 426.193 368.523C425.659 368.364 425.102 368.284 424.523 368.284C423.466 368.284 422.509 368.551 421.651 369.085C420.798 369.619 420.119 370.406 419.614 371.446C419.114 372.486 418.864 373.761 418.864 375.273C418.864 376.784 419.114 378.06 419.614 379.099C420.119 380.139 420.798 380.926 421.651 381.46C422.509 381.994 423.466 382.261 424.523 382.261C425.102 382.261 425.659 382.182 426.193 382.023C426.727 381.864 427.213 381.628 427.651 381.315C428.094 380.997 428.469 380.608 428.776 380.148C429.088 379.682 429.307 379.148 429.432 378.545H431.545C431.386 379.437 431.097 380.236 430.676 380.94C430.256 381.645 429.733 382.244 429.108 382.739C428.483 383.227 427.781 383.599 427.003 383.855C426.23 384.111 425.403 384.239 424.523 384.239C423.034 384.239 421.71 383.875 420.551 383.148C419.392 382.42 418.48 381.386 417.815 380.045C417.151 378.705 416.818 377.114 416.818 375.273C416.818 373.432 417.151 371.841 417.815 370.5C418.48 369.159 419.392 368.125 420.551 367.398C421.71 366.67 423.034 366.307 424.523 366.307C425.403 366.307 426.23 366.435 427.003 366.69C427.781 366.946 428.483 367.321 429.108 367.815C429.733 368.304 430.256 368.901 430.676 369.605C431.097 370.304 431.386 371.102 431.545 372Z" fill="black"/>
<path d="M813.943 366.545V384H811.83V368.761H811.727L807.466 371.591V369.443L811.83 366.545H813.943ZM824.656 384.239C823.372 384.239 822.278 383.889 821.375 383.19C820.472 382.486 819.781 381.466 819.304 380.131C818.827 378.79 818.588 377.17 818.588 375.273C818.588 373.386 818.827 371.776 819.304 370.44C819.787 369.099 820.48 368.077 821.384 367.372C822.293 366.662 823.384 366.307 824.656 366.307C825.929 366.307 827.017 366.662 827.92 367.372C828.83 368.077 829.523 369.099 830 370.44C830.483 371.776 830.724 373.386 830.724 375.273C830.724 377.17 830.486 378.79 830.009 380.131C829.531 381.466 828.841 382.486 827.938 383.19C827.034 383.889 825.94 384.239 824.656 384.239ZM824.656 382.364C825.929 382.364 826.918 381.75 827.622 380.523C828.327 379.295 828.679 377.545 828.679 375.273C828.679 373.761 828.517 372.474 828.193 371.412C827.875 370.349 827.415 369.54 826.812 368.983C826.216 368.426 825.497 368.148 824.656 368.148C823.395 368.148 822.409 368.77 821.699 370.014C820.989 371.253 820.634 373.006 820.634 375.273C820.634 376.784 820.793 378.068 821.111 379.125C821.429 380.182 821.886 380.986 822.483 381.537C823.085 382.088 823.81 382.364 824.656 382.364ZM839.656 384.239C838.372 384.239 837.278 383.889 836.375 383.19C835.472 382.486 834.781 381.466 834.304 380.131C833.827 378.79 833.588 377.17 833.588 375.273C833.588 373.386 833.827 371.776 834.304 370.44C834.787 369.099 835.48 368.077 836.384 367.372C837.293 366.662 838.384 366.307 839.656 366.307C840.929 366.307 842.017 366.662 842.92 367.372C843.83 368.077 844.523 369.099 845 370.44C845.483 371.776 845.724 373.386 845.724 375.273C845.724 377.17 845.486 378.79 845.009 380.131C844.531 381.466 843.841 382.486 842.938 383.19C842.034 383.889 840.94 384.239 839.656 384.239ZM839.656 382.364C840.929 382.364 841.918 381.75 842.622 380.523C843.327 379.295 843.679 377.545 843.679 375.273C843.679 373.761 843.517 372.474 843.193 371.412C842.875 370.349 842.415 369.54 841.812 368.983C841.216 368.426 840.497 368.148 839.656 368.148C838.395 368.148 837.409 368.77 836.699 370.014C835.989 371.253 835.634 373.006 835.634 375.273C835.634 376.784 835.793 378.068 836.111 379.125C836.429 380.182 836.886 380.986 837.483 381.537C838.085 382.088 838.81 382.364 839.656 382.364ZM859.361 374.25C858.639 374.25 857.98 374.074 857.384 373.722C856.793 373.369 856.321 372.898 855.969 372.307C855.616 371.71 855.44 371.051 855.44 370.33C855.44 369.608 855.616 368.952 855.969 368.361C856.321 367.764 856.793 367.29 857.384 366.938C857.98 366.585 858.639 366.409 859.361 366.409C860.082 366.409 860.739 366.585 861.33 366.938C861.926 367.29 862.401 367.764 862.753 368.361C863.105 368.952 863.281 369.608 863.281 370.33C863.281 371.051 863.105 371.71 862.753 372.307C862.401 372.898 861.926 373.369 861.33 373.722C860.739 374.074 860.082 374.25 859.361 374.25ZM859.361 372.545C859.77 372.545 860.142 372.446 860.477 372.247C860.812 372.048 861.08 371.781 861.278 371.446C861.477 371.111 861.577 370.739 861.577 370.33C861.577 369.92 861.477 369.548 861.278 369.213C861.08 368.878 860.812 368.611 860.477 368.412C860.142 368.213 859.77 368.114 859.361 368.114C858.952 368.114 858.58 368.213 858.244 368.412C857.909 368.611 857.642 368.878 857.443 369.213C857.244 369.548 857.145 369.92 857.145 370.33C857.145 370.739 857.244 371.111 857.443 371.446C857.642 371.781 857.909 372.048 858.244 372.247C858.58 372.446 858.952 372.545 859.361 372.545ZM880.702 372H878.588C878.463 371.392 878.244 370.858 877.932 370.398C877.625 369.938 877.25 369.551 876.807 369.239C876.369 368.92 875.884 368.682 875.349 368.523C874.815 368.364 874.259 368.284 873.679 368.284C872.622 368.284 871.665 368.551 870.807 369.085C869.955 369.619 869.276 370.406 868.77 371.446C868.27 372.486 868.02 373.761 868.02 375.273C868.02 376.784 868.27 378.06 868.77 379.099C869.276 380.139 869.955 380.926 870.807 381.46C871.665 381.994 872.622 382.261 873.679 382.261C874.259 382.261 874.815 382.182 875.349 382.023C875.884 381.864 876.369 381.628 876.807 381.315C877.25 380.997 877.625 380.608 877.932 380.148C878.244 379.682 878.463 379.148 878.588 378.545H880.702C880.543 379.437 880.253 380.236 879.832 380.94C879.412 381.645 878.889 382.244 878.264 382.739C877.639 383.227 876.938 383.599 876.159 383.855C875.386 384.111 874.56 384.239 873.679 384.239C872.19 384.239 870.866 383.875 869.707 383.148C868.548 382.42 867.636 381.386 866.972 380.045C866.307 378.705 865.974 377.114 865.974 375.273C865.974 373.432 866.307 371.841 866.972 370.5C867.636 369.159 868.548 368.125 869.707 367.398C870.866 366.67 872.19 366.307 873.679 366.307C874.56 366.307 875.386 366.435 876.159 366.69C876.938 366.946 877.639 367.321 878.264 367.815C878.889 368.304 879.412 368.901 879.832 369.605C880.253 370.304 880.543 371.102 880.702 372Z" fill="black"/>
<path d="M359.114 160V142.545H369.58V144.42H361.227V150.318H368.795V152.193H361.227V160H359.114ZM372.786 160V146.909H374.729V148.886H374.866C375.104 148.239 375.536 147.713 376.161 147.31C376.786 146.906 377.491 146.705 378.275 146.705C378.423 146.705 378.607 146.707 378.829 146.713C379.05 146.719 379.218 146.727 379.332 146.739V148.784C379.263 148.767 379.107 148.741 378.863 148.707C378.624 148.668 378.371 148.648 378.104 148.648C377.468 148.648 376.9 148.781 376.4 149.048C375.906 149.31 375.513 149.673 375.224 150.139C374.94 150.599 374.798 151.125 374.798 151.716V160H372.786ZM386.806 160.273C385.545 160.273 384.457 159.994 383.542 159.438C382.633 158.875 381.931 158.091 381.437 157.085C380.948 156.074 380.704 154.898 380.704 153.557C380.704 152.216 380.948 151.034 381.437 150.011C381.931 148.983 382.619 148.182 383.499 147.608C384.386 147.028 385.42 146.739 386.602 146.739C387.283 146.739 387.957 146.852 388.621 147.08C389.286 147.307 389.891 147.676 390.437 148.188C390.982 148.693 391.417 149.364 391.741 150.199C392.065 151.034 392.227 152.062 392.227 153.284V154.136H382.136V152.398H390.181C390.181 151.659 390.033 151 389.738 150.42C389.448 149.841 389.033 149.384 388.494 149.048C387.96 148.713 387.329 148.545 386.602 148.545C385.8 148.545 385.107 148.744 384.522 149.142C383.942 149.534 383.496 150.045 383.184 150.676C382.871 151.307 382.715 151.983 382.715 152.705V153.864C382.715 154.852 382.886 155.69 383.227 156.378C383.573 157.06 384.053 157.58 384.667 157.938C385.281 158.29 385.994 158.466 386.806 158.466C387.335 158.466 387.812 158.392 388.238 158.244C388.67 158.091 389.042 157.864 389.354 157.562C389.667 157.256 389.908 156.875 390.079 156.42L392.022 156.966C391.817 157.625 391.474 158.205 390.991 158.705C390.508 159.199 389.911 159.585 389.201 159.864C388.491 160.136 387.692 160.273 386.806 160.273ZM400.775 160.273C399.513 160.273 398.425 159.994 397.511 159.438C396.602 158.875 395.9 158.091 395.406 157.085C394.917 156.074 394.673 154.898 394.673 153.557C394.673 152.216 394.917 151.034 395.406 150.011C395.9 148.983 396.587 148.182 397.468 147.608C398.354 147.028 399.388 146.739 400.57 146.739C401.252 146.739 401.925 146.852 402.59 147.08C403.255 147.307 403.86 147.676 404.406 148.188C404.951 148.693 405.386 149.364 405.71 150.199C406.033 151.034 406.195 152.062 406.195 153.284V154.136H396.104V152.398H404.15C404.15 151.659 404.002 151 403.707 150.42C403.417 149.841 403.002 149.384 402.462 149.048C401.928 148.713 401.298 148.545 400.57 148.545C399.769 148.545 399.076 148.744 398.491 149.142C397.911 149.534 397.465 150.045 397.153 150.676C396.84 151.307 396.684 151.983 396.684 152.705V153.864C396.684 154.852 396.854 155.69 397.195 156.378C397.542 157.06 398.022 157.58 398.636 157.938C399.249 158.29 399.962 158.466 400.775 158.466C401.303 158.466 401.781 158.392 402.207 158.244C402.638 158.091 403.011 157.864 403.323 157.562C403.636 157.256 403.877 156.875 404.048 156.42L405.991 156.966C405.786 157.625 405.442 158.205 404.96 158.705C404.477 159.199 403.88 159.585 403.17 159.864C402.46 160.136 401.661 160.273 400.775 160.273ZM408.88 160V158.466L416.312 148.92V148.784H409.119V146.909H418.903V148.511L411.675 157.989V158.125H419.141V160H408.88ZM427.353 160.273C426.092 160.273 425.004 159.994 424.089 159.438C423.18 158.875 422.478 158.091 421.984 157.085C421.495 156.074 421.251 154.898 421.251 153.557C421.251 152.216 421.495 151.034 421.984 150.011C422.478 148.983 423.165 148.182 424.046 147.608C424.933 147.028 425.967 146.739 427.148 146.739C427.83 146.739 428.504 146.852 429.168 147.08C429.833 147.307 430.438 147.676 430.984 148.188C431.529 148.693 431.964 149.364 432.288 150.199C432.612 151.034 432.773 152.062 432.773 153.284V154.136H422.683V152.398H430.728C430.728 151.659 430.58 151 430.285 150.42C429.995 149.841 429.58 149.384 429.04 149.048C428.506 148.713 427.876 148.545 427.148 148.545C426.347 148.545 425.654 148.744 425.069 149.142C424.489 149.534 424.043 150.045 423.731 150.676C423.418 151.307 423.262 151.983 423.262 152.705V153.864C423.262 154.852 423.433 155.69 423.773 156.378C424.12 157.06 424.6 157.58 425.214 157.938C425.827 158.29 426.54 158.466 427.353 158.466C427.881 158.466 428.359 158.392 428.785 158.244C429.217 158.091 429.589 157.864 429.901 157.562C430.214 157.256 430.455 156.875 430.626 156.42L432.569 156.966C432.364 157.625 432.021 158.205 431.538 158.705C431.055 159.199 430.458 159.585 429.748 159.864C429.038 160.136 428.239 160.273 427.353 160.273Z" fill="black"/>
<path d="M921.114 163V145.545H927.216C928.432 145.545 929.435 145.756 930.224 146.176C931.014 146.591 931.602 147.151 931.989 147.855C932.375 148.554 932.568 149.33 932.568 150.182C932.568 150.932 932.435 151.551 932.168 152.04C931.906 152.528 931.56 152.915 931.128 153.199C930.702 153.483 930.239 153.693 929.739 153.83V154C930.273 154.034 930.81 154.222 931.349 154.562C931.889 154.903 932.341 155.392 932.705 156.028C933.068 156.665 933.25 157.443 933.25 158.364C933.25 159.239 933.051 160.026 932.653 160.724C932.256 161.423 931.628 161.977 930.77 162.386C929.912 162.795 928.795 163 927.42 163H921.114ZM923.227 161.125H927.42C928.801 161.125 929.781 160.858 930.361 160.324C930.946 159.784 931.239 159.131 931.239 158.364C931.239 157.773 931.088 157.227 930.787 156.727C930.486 156.222 930.057 155.818 929.5 155.517C928.943 155.21 928.284 155.057 927.523 155.057H923.227V161.125ZM923.227 153.216H927.148C927.784 153.216 928.358 153.091 928.869 152.841C929.386 152.591 929.795 152.239 930.097 151.784C930.403 151.33 930.557 150.795 930.557 150.182C930.557 149.415 930.29 148.764 929.756 148.23C929.222 147.69 928.375 147.42 927.216 147.42H923.227V153.216ZM941.768 163.273C940.587 163.273 939.55 162.991 938.658 162.429C937.771 161.866 937.078 161.08 936.578 160.068C936.084 159.057 935.837 157.875 935.837 156.523C935.837 155.159 936.084 153.969 936.578 152.952C937.078 151.935 937.771 151.145 938.658 150.582C939.55 150.02 940.587 149.739 941.768 149.739C942.95 149.739 943.984 150.02 944.871 150.582C945.763 151.145 946.456 151.935 946.95 152.952C947.45 153.969 947.7 155.159 947.7 156.523C947.7 157.875 947.45 159.057 946.95 160.068C946.456 161.08 945.763 161.866 944.871 162.429C943.984 162.991 942.95 163.273 941.768 163.273ZM941.768 161.466C942.666 161.466 943.405 161.236 943.984 160.776C944.564 160.315 944.993 159.71 945.271 158.96C945.55 158.21 945.689 157.398 945.689 156.523C945.689 155.648 945.55 154.832 945.271 154.077C944.993 153.321 944.564 152.71 943.984 152.244C943.405 151.778 942.666 151.545 941.768 151.545C940.871 151.545 940.132 151.778 939.553 152.244C938.973 152.71 938.544 153.321 938.266 154.077C937.987 154.832 937.848 155.648 937.848 156.523C937.848 157.398 937.987 158.21 938.266 158.96C938.544 159.71 938.973 160.315 939.553 160.776C940.132 161.236 940.871 161.466 941.768 161.466ZM950.771 163V149.909H952.782V163H950.771ZM951.793 147.727C951.401 147.727 951.063 147.594 950.779 147.327C950.501 147.06 950.362 146.739 950.362 146.364C950.362 145.989 950.501 145.668 950.779 145.401C951.063 145.134 951.401 145 951.793 145C952.185 145 952.521 145.134 952.799 145.401C953.083 145.668 953.225 145.989 953.225 146.364C953.225 146.739 953.083 147.06 952.799 147.327C952.521 147.594 952.185 147.727 951.793 147.727ZM958.477 145.545V163H956.466V145.545H958.477Z" fill="black"/>
<path d="M373.642 88.6459H366.518C364.806 88.6459 363.413 90.0383 363.413 91.7514V98.8758C363.413 100.589 364.806 101.981 366.518 101.981H373.642C375.355 101.981 376.748 100.589 376.748 98.8758V91.7514C376.748 90.0383 375.355 88.6459 373.642 88.6459ZM373.021 98.2544H367.138V92.3717H373.021V98.2544ZM403.866 22.326L406.674 15.739C407.001 14.9756 407.784 14.5224 408.613 14.6203L413.065 15.1593L415.246 10.1232C415.653 9.17868 416.747 8.74544 417.696 9.15355C418.641 9.56255 419.076 10.6595 418.667 11.6041L415.934 17.9174C415.605 18.6747 414.821 19.1253 413.999 19.0265L409.554 18.4884L407.294 23.7889C406.991 24.4969 406.302 24.9223 405.578 24.9223C405.334 24.9223 405.087 24.8738 404.849 24.7724C403.902 24.3678 403.462 23.2725 403.866 22.3264L403.866 22.326ZM369.998 71.2517V80.5615C369.998 82.2746 371.391 83.667 373.103 83.667H382.412C384.124 83.667 385.518 82.2746 385.518 80.5615V71.2517C385.518 69.5386 384.124 68.1462 382.412 68.1462H373.103C371.391 68.1462 369.998 69.5386 369.998 71.2517ZM373.725 71.8721H381.791V79.9392H373.725V71.8721ZM416.727 26.9637L419.496 30.4947L424.6 28.4749C425.552 28.098 426.638 28.565 427.017 29.5225C427.396 30.4791 426.927 31.5614 425.97 31.9399L419.574 34.471C419.35 34.5594 419.119 34.6018 418.888 34.6018C418.329 34.6018 417.784 34.3488 417.421 33.8887L414.658 30.3637L409.313 32.5143C408.359 32.8956 407.273 32.4363 406.89 31.4815C406.505 30.5266 406.969 29.4409 407.924 29.0569L414.566 26.3837C415.329 26.0761 416.214 26.3109 416.727 26.9634L416.727 26.9637ZM445.645 56.1403C446.372 56.8673 446.372 58.0475 445.645 58.7754L433.407 71.013C433.043 71.3769 432.566 71.5589 432.09 71.5589C431.613 71.5589 431.137 71.3769 430.773 71.013C430.045 70.2852 430.045 69.1058 430.773 68.378L443.01 56.1403C443.737 55.4125 444.917 55.4125 445.645 56.1403ZM451.143 43.7754H423.677C421.02 43.7754 418.856 45.9382 418.856 48.5956V76.062C418.856 76.4398 418.91 76.8028 418.993 77.1564H405.595C402.938 77.1564 400.775 79.3192 400.775 81.9775V109.444C400.775 112.101 402.937 114.265 405.595 114.265H433.064C435.721 114.265 437.885 112.102 437.885 109.444L437.884 81.9775C437.884 81.5997 437.83 81.2366 437.747 80.8831H451.144C453.802 80.8831 455.965 78.7203 455.965 76.062V48.5956C455.965 45.9382 453.802 43.7754 451.145 43.7754H451.143ZM434.156 109.447C434.156 110.05 433.665 110.541 433.062 110.541L405.594 110.54C404.99 110.54 404.501 110.049 404.501 109.446L404.5 81.9794C404.5 81.3763 404.99 80.885 405.593 80.885H433.061C433.664 80.885 434.156 81.3763 434.156 81.9794L434.156 109.447ZM452.238 76.0642C452.238 76.6673 451.747 77.1586 451.143 77.1586H423.677C423.074 77.1586 422.583 76.6673 422.583 76.0642V48.5978C422.583 47.9947 423.074 47.5043 423.677 47.5043H451.143C451.747 47.5043 452.238 47.9947 452.238 48.5978V76.0642ZM430.493 59.851C430.016 59.851 429.54 59.669 429.176 59.3051C428.448 58.5781 428.448 57.3979 429.176 56.6701L432.197 53.6486C432.925 52.9207 434.105 52.9207 434.832 53.6486C435.56 54.3756 435.56 55.5558 434.832 56.2836L431.811 59.3051C431.446 59.669 430.97 59.851 430.493 59.851H430.493ZM393.147 22.9416H345.348C344.149 22.9416 342.992 23.4433 342.173 24.3184C341.354 25.1936 340.93 26.3816 341.009 27.5773L346.505 110.207C346.656 112.482 348.563 114.266 350.843 114.266H387.648C389.93 114.266 391.835 112.482 391.986 110.207L397.482 27.5773C397.562 26.3815 397.138 25.1935 396.319 24.3184C395.502 23.4433 394.345 22.9416 393.146 22.9416H393.147ZM388.27 109.961C388.248 110.286 387.976 110.541 387.65 110.541H350.845C350.519 110.541 350.247 110.286 350.226 109.961L345.625 40.7963H392.871L388.27 109.961ZM393.119 37.0696H345.376L344.727 27.3302C344.713 27.0962 344.825 26.9385 344.894 26.8648C344.962 26.7912 345.113 26.6681 345.348 26.6681H393.147C393.381 26.6681 393.532 26.7912 393.601 26.8648C393.669 26.9385 393.782 27.0962 393.767 27.3302L393.119 37.0696ZM362.141 66.9494L362.142 66.9503C362.748 67.5542 363.541 67.8566 364.336 67.8566C365.131 67.8566 365.927 67.5533 366.532 66.9494L374.787 58.6951C375.997 57.4846 375.997 55.5159 374.787 54.3036L366.532 46.0493C365.321 44.8388 363.351 44.8388 362.14 46.0493L353.885 54.3036C352.675 55.515 352.676 57.4846 353.886 58.6942L362.141 66.9494ZM364.337 49.1238L371.712 56.4995L364.337 63.876L356.96 56.4995L364.337 49.1238ZM427.563 89.5225C428.291 90.2504 428.291 91.4297 427.563 92.1576L415.326 104.395C414.962 104.759 414.485 104.941 414.009 104.941C413.532 104.941 413.056 104.759 412.692 104.395C411.964 103.667 411.964 102.488 412.692 101.76L424.929 89.5225C425.656 88.7947 426.836 88.7947 427.563 89.5225ZM412.412 93.233C411.935 93.233 411.459 93.051 411.095 92.6871C410.367 91.9592 410.367 90.7799 411.095 90.052L414.116 87.0306C414.844 86.3027 416.023 86.3027 416.751 87.0306C417.479 87.7584 417.479 88.9377 416.751 89.6656L413.73 92.6871C413.365 93.051 412.888 93.233 412.412 93.233H412.412Z" fill="black"/>
<path d="M2.11364 216V198.545H12.5795V200.42H4.22727V206.318H11.7955V208.193H4.22727V216H2.11364ZM19.7791 216.307C18.9496 216.307 18.1967 216.151 17.5206 215.838C16.8445 215.52 16.3075 215.062 15.9098 214.466C15.5121 213.864 15.3132 213.136 15.3132 212.284C15.3132 211.534 15.4609 210.926 15.7564 210.46C16.0518 209.989 16.4467 209.619 16.9411 209.352C17.4354 209.085 17.9808 208.886 18.5774 208.756C19.1797 208.619 19.7848 208.511 20.3928 208.432C21.1882 208.33 21.8331 208.253 22.3274 208.202C22.8274 208.145 23.1911 208.051 23.4183 207.92C23.6513 207.79 23.7678 207.562 23.7678 207.239V207.17C23.7678 206.33 23.5376 205.676 23.0774 205.21C22.6229 204.744 21.9325 204.511 21.0064 204.511C20.0462 204.511 19.2933 204.722 18.7479 205.142C18.2024 205.562 17.8189 206.011 17.5973 206.489L15.6882 205.807C16.0291 205.011 16.4837 204.392 17.0518 203.949C17.6257 203.5 18.2507 203.187 18.9268 203.011C19.6087 202.83 20.2791 202.739 20.9382 202.739C21.3587 202.739 21.8416 202.79 22.3871 202.892C22.9382 202.989 23.4695 203.19 23.9808 203.497C24.4979 203.804 24.9268 204.267 25.2678 204.886C25.6087 205.506 25.7791 206.335 25.7791 207.375V216H23.7678V214.227H23.6655C23.5291 214.511 23.3018 214.815 22.9837 215.139C22.6655 215.463 22.2422 215.739 21.7138 215.966C21.1854 216.193 20.5405 216.307 19.7791 216.307ZM20.0859 214.5C20.8814 214.5 21.5518 214.344 22.0973 214.031C22.6484 213.719 23.0632 213.315 23.3416 212.821C23.6257 212.327 23.7678 211.807 23.7678 211.261V209.42C23.6825 209.523 23.495 209.616 23.2053 209.702C22.9212 209.781 22.5916 209.852 22.2166 209.915C21.8473 209.972 21.4865 210.023 21.1342 210.068C20.7876 210.108 20.5064 210.142 20.2905 210.17C19.7678 210.239 19.2791 210.349 18.8246 210.503C18.3757 210.651 18.0121 210.875 17.7337 211.176C17.4609 211.472 17.3246 211.875 17.3246 212.386C17.3246 213.085 17.5831 213.614 18.1001 213.972C18.6229 214.324 19.2848 214.5 20.0859 214.5ZM31.4616 208.125V216H29.4503V198.545H31.4616V204.955H31.6321C31.9389 204.278 32.3991 203.741 33.0128 203.344C33.6321 202.94 34.456 202.739 35.4844 202.739C36.3764 202.739 37.1577 202.918 37.8281 203.276C38.4986 203.628 39.0185 204.17 39.3878 204.903C39.7628 205.631 39.9503 206.557 39.9503 207.682V216H37.9389V207.818C37.9389 206.778 37.669 205.974 37.1293 205.406C36.5952 204.832 35.8537 204.545 34.9048 204.545C34.2457 204.545 33.6548 204.685 33.1321 204.963C32.6151 205.241 32.206 205.648 31.9048 206.182C31.6094 206.716 31.4616 207.364 31.4616 208.125ZM43.63 216V202.909H45.5732V204.886H45.7095C45.9482 204.239 46.38 203.713 47.005 203.31C47.63 202.906 48.3345 202.705 49.1186 202.705C49.2663 202.705 49.451 202.707 49.6726 202.713C49.8942 202.719 50.0618 202.727 50.1754 202.739V204.784C50.1072 204.767 49.951 204.741 49.7067 204.707C49.468 204.668 49.2152 204.648 48.9482 204.648C48.3118 204.648 47.7436 204.781 47.2436 205.048C46.7493 205.31 46.3572 205.673 46.0675 206.139C45.7834 206.599 45.6413 207.125 45.6413 207.716V216H43.63ZM57.6499 216.273C56.3885 216.273 55.3004 215.994 54.3857 215.438C53.4766 214.875 52.7749 214.091 52.2805 213.085C51.7919 212.074 51.5476 210.898 51.5476 209.557C51.5476 208.216 51.7919 207.034 52.2805 206.011C52.7749 204.983 53.4624 204.182 54.343 203.608C55.2294 203.028 56.2635 202.739 57.4453 202.739C58.1271 202.739 58.8004 202.852 59.4652 203.08C60.13 203.307 60.7351 203.676 61.2805 204.188C61.826 204.693 62.2607 205.364 62.5845 206.199C62.9084 207.034 63.0703 208.062 63.0703 209.284V210.136H52.9794V208.398H61.0249C61.0249 207.659 60.8771 207 60.5817 206.42C60.2919 205.841 59.8771 205.384 59.3374 205.048C58.8033 204.713 58.1726 204.545 57.4453 204.545C56.6442 204.545 55.951 204.744 55.3658 205.142C54.7862 205.534 54.3402 206.045 54.0277 206.676C53.7152 207.307 53.5589 207.983 53.5589 208.705V209.864C53.5589 210.852 53.7294 211.69 54.0703 212.378C54.4169 213.06 54.897 213.58 55.5107 213.938C56.1243 214.29 56.8374 214.466 57.6499 214.466C58.1783 214.466 58.6555 214.392 59.0817 214.244C59.5135 214.091 59.8857 213.864 60.1982 213.562C60.5107 213.256 60.7521 212.875 60.9226 212.42L62.8658 212.966C62.6612 213.625 62.3175 214.205 61.8345 214.705C61.3516 215.199 60.755 215.585 60.0447 215.864C59.3345 216.136 58.5362 216.273 57.6499 216.273ZM68.1413 208.125V216H66.13V202.909H68.0732V204.955H68.2436C68.5504 204.29 69.0163 203.756 69.6413 203.352C70.2663 202.943 71.0732 202.739 72.0618 202.739C72.9482 202.739 73.7237 202.92 74.3885 203.284C75.0533 203.642 75.5703 204.188 75.9396 204.92C76.3089 205.648 76.4936 206.568 76.4936 207.682V216H74.4822V207.818C74.4822 206.79 74.2152 205.989 73.6811 205.415C73.147 204.835 72.4141 204.545 71.4822 204.545C70.8402 204.545 70.2663 204.685 69.7607 204.963C69.2607 205.241 68.8658 205.648 68.576 206.182C68.2862 206.716 68.1413 207.364 68.1413 208.125ZM82.1804 208.125V216H80.169V198.545H82.1804V204.955H82.3509C82.6577 204.278 83.1179 203.741 83.7315 203.344C84.3509 202.94 85.1747 202.739 86.2031 202.739C87.0952 202.739 87.8764 202.918 88.5469 203.276C89.2173 203.628 89.7372 204.17 90.1065 204.903C90.4815 205.631 90.669 206.557 90.669 207.682V216H88.6577V207.818C88.6577 206.778 88.3878 205.974 87.848 205.406C87.3139 204.832 86.5724 204.545 85.6236 204.545C84.9645 204.545 84.3736 204.685 83.8509 204.963C83.3338 205.241 82.9247 205.648 82.6236 206.182C82.3281 206.716 82.1804 207.364 82.1804 208.125ZM99.8374 216.273C98.576 216.273 97.4879 215.994 96.5732 215.438C95.6641 214.875 94.9624 214.091 94.468 213.085C93.9794 212.074 93.7351 210.898 93.7351 209.557C93.7351 208.216 93.9794 207.034 94.468 206.011C94.9624 204.983 95.6499 204.182 96.5305 203.608C97.4169 203.028 98.451 202.739 99.6328 202.739C100.315 202.739 100.988 202.852 101.653 203.08C102.317 203.307 102.923 203.676 103.468 204.188C104.013 204.693 104.448 205.364 104.772 206.199C105.096 207.034 105.258 208.062 105.258 209.284V210.136H95.1669V208.398H103.212C103.212 207.659 103.065 207 102.769 206.42C102.479 205.841 102.065 205.384 101.525 205.048C100.991 204.713 100.36 204.545 99.6328 204.545C98.8317 204.545 98.1385 204.744 97.5533 205.142C96.9737 205.534 96.5277 206.045 96.2152 206.676C95.9027 207.307 95.7464 207.983 95.7464 208.705V209.864C95.7464 210.852 95.9169 211.69 96.2578 212.378C96.6044 213.06 97.0845 213.58 97.6982 213.938C98.3118 214.29 99.0249 214.466 99.8374 214.466C100.366 214.466 100.843 214.392 101.269 214.244C101.701 214.091 102.073 213.864 102.386 213.562C102.698 213.256 102.94 212.875 103.11 212.42L105.053 212.966C104.849 213.625 104.505 214.205 104.022 214.705C103.539 215.199 102.942 215.585 102.232 215.864C101.522 216.136 100.724 216.273 99.8374 216.273ZM108.317 216V202.909H110.329V216H108.317ZM109.34 200.727C108.948 200.727 108.61 200.594 108.326 200.327C108.048 200.06 107.908 199.739 107.908 199.364C107.908 198.989 108.048 198.668 108.326 198.401C108.61 198.134 108.948 198 109.34 198C109.732 198 110.067 198.134 110.346 198.401C110.63 198.668 110.772 198.989 110.772 199.364C110.772 199.739 110.63 200.06 110.346 200.327C110.067 200.594 109.732 200.727 109.34 200.727ZM119.706 202.909V204.614H112.922V202.909H119.706ZM114.899 199.773H116.911V212.25C116.911 212.818 116.993 213.244 117.158 213.528C117.328 213.807 117.544 213.994 117.805 214.091C118.072 214.182 118.354 214.227 118.649 214.227C118.871 214.227 119.053 214.216 119.195 214.193C119.337 214.165 119.45 214.142 119.536 214.125L119.945 215.932C119.808 215.983 119.618 216.034 119.374 216.085C119.129 216.142 118.82 216.17 118.445 216.17C117.876 216.17 117.32 216.048 116.774 215.804C116.234 215.56 115.786 215.188 115.428 214.688C115.075 214.188 114.899 213.557 114.899 212.795V199.773Z" fill="black"/>
<path d="M16.1591 331H14.0455C13.9205 330.392 13.7017 329.858 13.3892 329.398C13.0824 328.938 12.7074 328.551 12.2642 328.239C11.8267 327.92 11.3409 327.682 10.8068 327.523C10.2727 327.364 9.71591 327.284 9.13636 327.284C8.07955 327.284 7.12216 327.551 6.2642 328.085C5.41193 328.619 4.73295 329.406 4.22727 330.446C3.72727 331.486 3.47727 332.761 3.47727 334.273C3.47727 335.784 3.72727 337.06 4.22727 338.099C4.73295 339.139 5.41193 339.926 6.2642 340.46C7.12216 340.994 8.07955 341.261 9.13636 341.261C9.71591 341.261 10.2727 341.182 10.8068 341.023C11.3409 340.864 11.8267 340.628 12.2642 340.315C12.7074 339.997 13.0824 339.608 13.3892 339.148C13.7017 338.682 13.9205 338.148 14.0455 337.545H16.1591C16 338.437 15.7102 339.236 15.2898 339.94C14.8693 340.645 14.3466 341.244 13.7216 341.739C13.0966 342.227 12.3949 342.599 11.6165 342.855C10.8438 343.111 10.017 343.239 9.13636 343.239C7.64773 343.239 6.32386 342.875 5.16477 342.148C4.00568 341.42 3.09375 340.386 2.42898 339.045C1.7642 337.705 1.43182 336.114 1.43182 334.273C1.43182 332.432 1.7642 330.841 2.42898 329.5C3.09375 328.159 4.00568 327.125 5.16477 326.398C6.32386 325.67 7.64773 325.307 9.13636 325.307C10.017 325.307 10.8438 325.435 11.6165 325.69C12.3949 325.946 13.0966 326.321 13.7216 326.815C14.3466 327.304 14.8693 327.901 15.2898 328.605C15.7102 329.304 16 330.102 16.1591 331ZM24.7905 343.273C23.5291 343.273 22.4411 342.994 21.5263 342.438C20.6172 341.875 19.9155 341.091 19.4212 340.085C18.9325 339.074 18.6882 337.898 18.6882 336.557C18.6882 335.216 18.9325 334.034 19.4212 333.011C19.9155 331.983 20.603 331.182 21.4837 330.608C22.37 330.028 23.4041 329.739 24.5859 329.739C25.2678 329.739 25.9411 329.852 26.6058 330.08C27.2706 330.307 27.8757 330.676 28.4212 331.188C28.9666 331.693 29.4013 332.364 29.7251 333.199C30.049 334.034 30.2109 335.062 30.2109 336.284V337.136H20.12V335.398H28.1655C28.1655 334.659 28.0178 334 27.7223 333.42C27.4325 332.841 27.0178 332.384 26.478 332.048C25.9439 331.713 25.3132 331.545 24.5859 331.545C23.7848 331.545 23.0916 331.744 22.5064 332.142C21.9268 332.534 21.4808 333.045 21.1683 333.676C20.8558 334.307 20.6996 334.983 20.6996 335.705V336.864C20.6996 337.852 20.87 338.69 21.2109 339.378C21.5575 340.06 22.0376 340.58 22.6513 340.938C23.2649 341.29 23.978 341.466 24.7905 341.466C25.3189 341.466 25.7962 341.392 26.2223 341.244C26.6541 341.091 27.0263 340.864 27.3388 340.562C27.6513 340.256 27.8928 339.875 28.0632 339.42L30.0064 339.966C29.8018 340.625 29.4581 341.205 28.9751 341.705C28.4922 342.199 27.8956 342.585 27.1854 342.864C26.4751 343.136 25.6768 343.273 24.7905 343.273ZM35.282 325.545V343H33.2706V325.545H35.282ZM48.2386 332.841L46.4318 333.352C46.3182 333.051 46.1506 332.759 45.929 332.474C45.7131 332.185 45.4176 331.946 45.0426 331.759C44.6676 331.571 44.1875 331.477 43.6023 331.477C42.8011 331.477 42.1335 331.662 41.5994 332.031C41.071 332.395 40.8068 332.858 40.8068 333.42C40.8068 333.92 40.9886 334.315 41.3523 334.605C41.7159 334.895 42.2841 335.136 43.0568 335.33L45 335.807C46.1705 336.091 47.0426 336.526 47.6165 337.111C48.1903 337.69 48.4773 338.437 48.4773 339.352C48.4773 340.102 48.2614 340.773 47.8295 341.364C47.4034 341.955 46.8068 342.42 46.0398 342.761C45.2727 343.102 44.3807 343.273 43.3636 343.273C42.0284 343.273 40.9233 342.983 40.0483 342.403C39.1733 341.824 38.6193 340.977 38.3864 339.864L40.2955 339.386C40.4773 340.091 40.821 340.619 41.3267 340.972C41.8381 341.324 42.5057 341.5 43.3295 341.5C44.267 341.5 45.0114 341.301 45.5625 340.903C46.1193 340.5 46.3977 340.017 46.3977 339.455C46.3977 339 46.2386 338.619 45.9205 338.312C45.6023 338 45.1136 337.767 44.4545 337.614L42.2727 337.102C41.0739 336.818 40.1932 336.378 39.6307 335.781C39.0739 335.179 38.7955 334.426 38.7955 333.523C38.7955 332.784 39.0028 332.131 39.4176 331.562C39.8381 330.994 40.4091 330.548 41.1307 330.224C41.858 329.901 42.6818 329.739 43.6023 329.739C44.8977 329.739 45.9148 330.023 46.6534 330.591C47.3977 331.159 47.9261 331.909 48.2386 332.841ZM51.505 343V329.909H53.5163V343H51.505ZM52.5277 327.727C52.1357 327.727 51.7976 327.594 51.5135 327.327C51.2351 327.06 51.0959 326.739 51.0959 326.364C51.0959 325.989 51.2351 325.668 51.5135 325.401C51.7976 325.134 52.1357 325 52.5277 325C52.9197 325 53.255 325.134 53.5334 325.401C53.8175 325.668 53.9595 325.989 53.9595 326.364C53.9595 326.739 53.8175 327.06 53.5334 327.327C53.255 327.594 52.9197 327.727 52.5277 327.727ZM65.4503 337.648V329.909H67.4616V343H65.4503V340.784H65.3139C65.0071 341.449 64.5298 342.014 63.8821 342.48C63.2344 342.94 62.4162 343.17 61.4276 343.17C60.6094 343.17 59.8821 342.991 59.2457 342.634C58.6094 342.27 58.1094 341.724 57.7457 340.997C57.3821 340.264 57.2003 339.341 57.2003 338.227V329.909H59.2116V338.091C59.2116 339.045 59.4787 339.807 60.0128 340.375C60.5526 340.943 61.2401 341.227 62.0753 341.227C62.5753 341.227 63.0838 341.099 63.6009 340.844C64.1236 340.588 64.5611 340.196 64.9134 339.668C65.2713 339.139 65.4503 338.466 65.4503 337.648ZM80.4183 332.841L78.6115 333.352C78.4979 333.051 78.3303 332.759 78.1087 332.474C77.8928 332.185 77.5973 331.946 77.2223 331.759C76.8473 331.571 76.3672 331.477 75.782 331.477C74.9808 331.477 74.3132 331.662 73.7791 332.031C73.2507 332.395 72.9865 332.858 72.9865 333.42C72.9865 333.92 73.1683 334.315 73.532 334.605C73.8956 334.895 74.4638 335.136 75.2365 335.33L77.1797 335.807C78.3501 336.091 79.2223 336.526 79.7962 337.111C80.37 337.69 80.657 338.437 80.657 339.352C80.657 340.102 80.4411 340.773 80.0092 341.364C79.5831 341.955 78.9865 342.42 78.2195 342.761C77.4524 343.102 76.5604 343.273 75.5433 343.273C74.2081 343.273 73.103 342.983 72.228 342.403C71.353 341.824 70.799 340.977 70.5661 339.864L72.4751 339.386C72.657 340.091 73.0007 340.619 73.5064 340.972C74.0178 341.324 74.6854 341.5 75.5092 341.5C76.4467 341.5 77.1911 341.301 77.7422 340.903C78.299 340.5 78.5774 340.017 78.5774 339.455C78.5774 339 78.4183 338.619 78.1001 338.312C77.782 338 77.2933 337.767 76.6342 337.614L74.4524 337.102C73.2536 336.818 72.3729 336.378 71.8104 335.781C71.2536 335.179 70.9751 334.426 70.9751 333.523C70.9751 332.784 71.1825 332.131 71.5973 331.562C72.0178 330.994 72.5888 330.548 73.3104 330.224C74.0376 329.901 74.8615 329.739 75.782 329.739C77.0774 329.739 78.0945 330.023 78.8331 330.591C79.5774 331.159 80.1058 331.909 80.4183 332.841Z" fill="black"/>
<circle cx="205" cy="207" r="19" fill="black"/>
<circle cx="262" cy="327" r="19" fill="black"/>
<path d="M205 206.5C205 202.91 207.91 200 211.5 200H611.5C615.09 200 618 202.91 618 206.5C618 210.09 615.09 213 611.5 213H211.5C207.91 213 205 210.09 205 206.5Z" fill="black"/>
<path d="M262 326.5C262 322.91 264.91 320 268.5 320H564.5C568.09 320 571 322.91 571 326.5C571 330.09 568.09 333 564.5 333H268.5C264.91 333 262 330.09 262 326.5Z" fill="black"/>
<rect x="890.395" y="57" width="35" height="12.6555" transform="rotate(41.5563 890.395 57)" fill="white" stroke="black" stroke-width="4"/>
<circle cx="941.5" cy="37.5" r="35.5" fill="white" stroke="black" stroke-width="4" stroke-linejoin="round"/>
<circle cx="942" cy="51" r="10" fill="white" stroke="black" stroke-width="4" stroke-linejoin="round"/>
<path d="M896 101C896 78.9086 913.909 61 936 61H948C970.091 61 988 78.9086 988 101V114H896V101Z" fill="white" stroke="black" stroke-width="4" stroke-linejoin="round"/>
<path d="M918.933 89.2893C920.625 89.2893 922.035 88.7258 923.303 87.7384C924.714 90.6996 927.815 92.8139 931.34 92.8139C936.133 92.8139 940.222 88.8663 940.222 83.9316C940.222 78.9969 936.275 75.0493 931.34 75.0493C928.661 75.0493 926.405 76.1773 924.714 78.0105C923.445 76.1774 921.33 75.0493 918.933 75.0493C914.985 75.0493 911.884 78.151 911.884 82.0985C911.884 86.0461 914.985 89.2893 918.933 89.2893V89.2893ZM931.198 78.7155C934.16 78.7155 936.556 81.1121 936.556 84.0731C936.556 87.0342 934.159 89.4308 931.198 89.4308C928.237 89.4308 925.841 87.0342 925.841 84.0731C925.841 81.1121 928.237 78.7155 931.198 78.7155ZM918.933 78.7155C920.907 78.7155 922.458 80.2664 922.458 82.2401C922.458 84.2138 920.907 85.7647 918.933 85.7647C916.959 85.7647 915.408 84.2138 915.408 82.2401C915.408 80.2664 916.959 78.7155 918.933 78.7155Z" fill="black"/>
<path d="M948.822 78.7153C951.783 78.7153 954.179 76.3187 954.179 73.3577C954.179 70.3966 951.783 68 948.822 68C945.86 68 943.464 70.3966 943.464 73.3577C943.464 76.3187 945.86 78.7153 948.822 78.7153ZM948.822 71.6661C949.809 71.6661 950.655 72.5119 950.655 73.4992C950.655 74.4866 949.809 75.3323 948.822 75.3323C947.834 75.3323 946.988 74.4866 946.988 73.4992C946.988 72.5119 947.834 71.6661 948.822 71.6661Z" fill="black"/>
<path d="M904.834 108.604H978.851C979.839 108.604 980.684 107.758 980.684 106.771V104.938C980.684 96.4783 978.005 88.4426 972.93 81.6759L972.366 80.9708C972.084 80.5479 971.521 80.2656 970.956 80.2656L954.602 80.2666C954.32 80.2666 953.897 80.4072 953.614 80.5489C951.358 82.0997 948.398 82.382 945.86 81.5362C945.296 81.3956 944.732 81.3956 944.168 81.8185C943.746 82.1007 943.463 82.6642 943.463 83.3694V83.6516V83.9338C943.463 90.7009 937.965 96.3407 931.056 96.3407C927.955 96.3407 924.995 95.2128 922.597 92.9569C922.174 92.534 921.609 92.3934 921.046 92.534C916.534 93.5214 912.305 91.6882 909.909 88.022C909.626 87.4585 908.921 87.1762 908.358 87.1762C907.794 87.1762 907.23 87.5991 906.948 88.1636C904.269 93.5213 903 99.1604 903 105.081V106.915C903.001 107.758 903.847 108.604 904.834 108.604L904.834 108.604ZM908.922 92.2496C912.024 95.3512 916.395 96.9021 921.047 96.1971C923.867 98.5938 927.533 99.8625 931.198 99.8625C939.375 99.8625 946.142 93.6589 946.988 85.6233C949.807 86.0462 952.769 85.4827 955.165 84.0724H969.969C974.621 90.276 977.018 97.4657 977.018 105.22H906.526C906.526 100.568 907.371 96.3388 908.922 92.2495L908.922 92.2496Z" fill="black"/>
<rect x="930" y="186" width="13" height="42" fill="#1263FF"/>
<rect x="398" y="186" width="13" height="42" fill="#1263FF"/>
<rect x="831" y="306" width="13" height="42" fill="#1263FF"/>
<rect x="399" y="306" width="13" height="42" fill="#1263FF"/>
<path d="M610.907 207.604C611.24 206.551 610.657 205.427 609.604 205.093C608.551 204.76 607.427 205.343 607.093 206.396L610.907 207.604ZM575.225 308.921C575.733 309.901 576.941 310.284 577.921 309.775L593.899 301.486C594.879 300.977 595.262 299.77 594.753 298.79C594.244 297.809 593.037 297.427 592.057 297.935L577.854 305.304L570.486 291.101C569.977 290.121 568.77 289.738 567.79 290.247C566.809 290.756 566.427 291.963 566.935 292.943L575.225 308.921ZM607.093 206.396L575.093 307.396L578.907 308.604L610.907 207.604L607.093 206.396Z" fill="#1263FF"/>
<circle cx="609.5" cy="206.5" r="9.5" fill="#1263FF"/>
<circle cx="567.5" cy="326.5" r="9.5" fill="#1263FF"/>
</svg>
