<svg width="899" height="358" viewBox="0 0 899 358" fill="none" xmlns="http://www.w3.org/2000/svg">
<path d="M35.1136 221.841L33.3068 222.352C33.1932 222.051 33.0256 221.759 32.804 221.474C32.5881 221.185 32.2926 220.946 31.9176 220.759C31.5426 220.571 31.0625 220.477 30.4773 220.477C29.6761 220.477 29.0085 220.662 28.4744 221.031C27.946 221.395 27.6818 221.858 27.6818 222.42C27.6818 222.92 27.8636 223.315 28.2273 223.605C28.5909 223.895 29.1591 224.136 29.9318 224.33L31.875 224.807C33.0455 225.091 33.9176 225.526 34.4915 226.111C35.0653 226.69 35.3523 227.437 35.3523 228.352C35.3523 229.102 35.1364 229.773 34.7045 230.364C34.2784 230.955 33.6818 231.42 32.9148 231.761C32.1477 232.102 31.2557 232.273 30.2386 232.273C28.9034 232.273 27.7983 231.983 26.9233 231.403C26.0483 230.824 25.4943 229.977 25.2614 228.864L27.1705 228.386C27.3523 229.091 27.696 229.619 28.2017 229.972C28.7131 230.324 29.3807 230.5 30.2045 230.5C31.142 230.5 31.8864 230.301 32.4375 229.903C32.9943 229.5 33.2727 229.017 33.2727 228.455C33.2727 228 33.1136 227.619 32.7955 227.312C32.4773 227 31.9886 226.767 31.3295 226.614L29.1477 226.102C27.9489 225.818 27.0682 225.378 26.5057 224.781C25.9489 224.179 25.6705 223.426 25.6705 222.523C25.6705 221.784 25.8778 221.131 26.2926 220.562C26.7131 219.994 27.2841 219.548 28.0057 219.224C28.733 218.901 29.5568 218.739 30.4773 218.739C31.7727 218.739 32.7898 219.023 33.5284 219.591C34.2727 220.159 34.8011 220.909 35.1136 221.841ZM46.63 226.648V218.909H48.6413V232H46.63V229.784H46.4936C46.1868 230.449 45.7095 231.014 45.0618 231.48C44.4141 231.94 43.5959 232.17 42.6072 232.17C41.7891 232.17 41.0618 231.991 40.4254 231.634C39.7891 231.27 39.2891 230.724 38.9254 229.997C38.5618 229.264 38.38 228.341 38.38 227.227V218.909H40.3913V227.091C40.3913 228.045 40.6584 228.807 41.1925 229.375C41.7322 229.943 42.4197 230.227 43.255 230.227C43.755 230.227 44.2635 230.099 44.7805 229.844C45.3033 229.588 45.7408 229.196 46.093 228.668C46.451 228.139 46.63 227.466 46.63 226.648ZM52.598 232V214.545H54.6094V220.989H54.7798C54.9276 220.761 55.1321 220.472 55.3935 220.119C55.6605 219.761 56.0412 219.443 56.5355 219.165C57.0355 218.881 57.7116 218.739 58.5639 218.739C59.6662 218.739 60.6378 219.014 61.4787 219.565C62.3196 220.116 62.9759 220.898 63.4474 221.909C63.919 222.92 64.1548 224.114 64.1548 225.489C64.1548 226.875 63.919 228.077 63.4474 229.094C62.9759 230.105 62.3224 230.889 61.4872 231.446C60.652 231.997 59.6889 232.273 58.598 232.273C57.7571 232.273 57.0838 232.134 56.5781 231.855C56.0724 231.571 55.6832 231.25 55.4105 230.892C55.1378 230.528 54.9276 230.227 54.7798 229.989H54.5412V232H52.598ZM54.5753 225.455C54.5753 226.443 54.7202 227.315 55.0099 228.071C55.2997 228.821 55.723 229.409 56.2798 229.835C56.8366 230.256 57.5185 230.466 58.3253 230.466C59.1662 230.466 59.8679 230.244 60.4304 229.801C60.9986 229.352 61.4247 228.75 61.7088 227.994C61.9986 227.233 62.1435 226.386 62.1435 225.455C62.1435 224.534 62.0014 223.705 61.7173 222.966C61.4389 222.222 61.0156 221.634 60.4474 221.202C59.8849 220.764 59.1776 220.545 58.3253 220.545C57.5071 220.545 56.8196 220.753 56.2628 221.168C55.706 221.577 55.2855 222.151 55.0014 222.889C54.7173 223.622 54.5753 224.477 54.5753 225.455ZM76.5043 221.841L74.6974 222.352C74.5838 222.051 74.4162 221.759 74.1946 221.474C73.9787 221.185 73.6832 220.946 73.3082 220.759C72.9332 220.571 72.4531 220.477 71.8679 220.477C71.0668 220.477 70.3991 220.662 69.8651 221.031C69.3366 221.395 69.0724 221.858 69.0724 222.42C69.0724 222.92 69.2543 223.315 69.6179 223.605C69.9815 223.895 70.5497 224.136 71.3224 224.33L73.2656 224.807C74.4361 225.091 75.3082 225.526 75.8821 226.111C76.456 226.69 76.7429 227.437 76.7429 228.352C76.7429 229.102 76.527 229.773 76.0952 230.364C75.669 230.955 75.0724 231.42 74.3054 231.761C73.5384 232.102 72.6463 232.273 71.6293 232.273C70.294 232.273 69.1889 231.983 68.3139 231.403C67.4389 230.824 66.8849 229.977 66.652 228.864L68.5611 228.386C68.7429 229.091 69.0866 229.619 69.5923 229.972C70.1037 230.324 70.7713 230.5 71.5952 230.5C72.5327 230.5 73.277 230.301 73.8281 229.903C74.3849 229.5 74.6634 229.017 74.6634 228.455C74.6634 228 74.5043 227.619 74.1861 227.312C73.8679 227 73.3793 226.767 72.7202 226.614L70.5384 226.102C69.3395 225.818 68.4588 225.378 67.8963 224.781C67.3395 224.179 67.0611 223.426 67.0611 222.523C67.0611 221.784 67.2685 221.131 67.6832 220.562C68.1037 219.994 68.6747 219.548 69.3963 219.224C70.1236 218.901 70.9474 218.739 71.8679 218.739C73.1634 218.739 74.1804 219.023 74.919 219.591C75.6634 220.159 76.1918 220.909 76.5043 221.841ZM85.2592 232.273C83.9979 232.273 82.9098 231.994 81.995 231.438C81.0859 230.875 80.3842 230.091 79.8899 229.085C79.4013 228.074 79.157 226.898 79.157 225.557C79.157 224.216 79.4013 223.034 79.8899 222.011C80.3842 220.983 81.0717 220.182 81.9524 219.608C82.8388 219.028 83.8729 218.739 85.0547 218.739C85.7365 218.739 86.4098 218.852 87.0746 219.08C87.7393 219.307 88.3445 219.676 88.8899 220.188C89.4354 220.693 89.87 221.364 90.1939 222.199C90.5178 223.034 90.6797 224.062 90.6797 225.284V226.136H80.5888V224.398H88.6342C88.6342 223.659 88.4865 223 88.1911 222.42C87.9013 221.841 87.4865 221.384 86.9467 221.048C86.4126 220.713 85.782 220.545 85.0547 220.545C84.2536 220.545 83.5604 220.744 82.9751 221.142C82.3956 221.534 81.9496 222.045 81.6371 222.676C81.3246 223.307 81.1683 223.983 81.1683 224.705V225.864C81.1683 226.852 81.3388 227.69 81.6797 228.378C82.0263 229.06 82.5064 229.58 83.12 229.938C83.7337 230.29 84.4467 230.466 85.2592 230.466C85.7876 230.466 86.2649 230.392 86.6911 230.244C87.1229 230.091 87.495 229.864 87.8075 229.562C88.12 229.256 88.3615 228.875 88.532 228.42L90.4751 228.966C90.2706 229.625 89.9268 230.205 89.4439 230.705C88.9609 231.199 88.3643 231.585 87.6541 231.864C86.9439 232.136 86.1456 232.273 85.2592 232.273ZM99.4325 218.909V220.614H92.6484V218.909H99.4325ZM94.6257 215.773H96.6371V228.25C96.6371 228.818 96.7195 229.244 96.8842 229.528C97.0547 229.807 97.2706 229.994 97.532 230.091C97.799 230.182 98.0803 230.227 98.3757 230.227C98.5973 230.227 98.7791 230.216 98.9212 230.193C99.0632 230.165 99.1768 230.142 99.2621 230.125L99.6712 231.932C99.5348 231.983 99.3445 232.034 99.1001 232.085C98.8558 232.142 98.5462 232.17 98.1712 232.17C97.603 232.17 97.0462 232.048 96.5007 231.804C95.9609 231.56 95.5121 231.188 95.1541 230.688C94.8018 230.188 94.6257 229.557 94.6257 228.795V215.773ZM115.31 214.545V232H113.197V216.761H113.094L108.833 219.591V217.443L113.197 214.545H115.31Z" fill="black"/>
<path d="M798.114 40.8409L796.307 41.3523C796.193 41.0511 796.026 40.7585 795.804 40.4744C795.588 40.1847 795.293 39.946 794.918 39.7585C794.543 39.571 794.062 39.4773 793.477 39.4773C792.676 39.4773 792.009 39.6619 791.474 40.0312C790.946 40.3949 790.682 40.858 790.682 41.4205C790.682 41.9205 790.864 42.3153 791.227 42.6051C791.591 42.8949 792.159 43.1364 792.932 43.3295L794.875 43.8068C796.045 44.0909 796.918 44.5256 797.491 45.1108C798.065 45.6903 798.352 46.4375 798.352 47.3523C798.352 48.1023 798.136 48.7727 797.705 49.3636C797.278 49.9545 796.682 50.4205 795.915 50.7614C795.148 51.1023 794.256 51.2727 793.239 51.2727C791.903 51.2727 790.798 50.983 789.923 50.4034C789.048 49.8239 788.494 48.9773 788.261 47.8636L790.17 47.3864C790.352 48.0909 790.696 48.6193 791.202 48.9716C791.713 49.3239 792.381 49.5 793.205 49.5C794.142 49.5 794.886 49.3011 795.438 48.9034C795.994 48.5 796.273 48.017 796.273 47.4545C796.273 47 796.114 46.6193 795.795 46.3125C795.477 46 794.989 45.767 794.33 45.6136L792.148 45.1023C790.949 44.8182 790.068 44.3778 789.506 43.7812C788.949 43.179 788.67 42.4261 788.67 41.5227C788.67 40.7841 788.878 40.1307 789.293 39.5625C789.713 38.9943 790.284 38.5483 791.006 38.2244C791.733 37.9006 792.557 37.7386 793.477 37.7386C794.773 37.7386 795.79 38.0227 796.528 38.5909C797.273 39.1591 797.801 39.9091 798.114 40.8409ZM809.63 45.6477V37.9091H811.641V51H809.63V48.7841H809.494C809.187 49.4489 808.71 50.0142 808.062 50.4801C807.414 50.9403 806.596 51.1705 805.607 51.1705C804.789 51.1705 804.062 50.9915 803.425 50.6335C802.789 50.2699 802.289 49.7244 801.925 48.9972C801.562 48.2642 801.38 47.3409 801.38 46.2273V37.9091H803.391V46.0909C803.391 47.0455 803.658 47.8068 804.192 48.375C804.732 48.9432 805.42 49.2273 806.255 49.2273C806.755 49.2273 807.263 49.0994 807.781 48.8438C808.303 48.5881 808.741 48.196 809.093 47.6676C809.451 47.1392 809.63 46.4659 809.63 45.6477ZM815.598 51V33.5455H817.609V39.9886H817.78C817.928 39.7614 818.132 39.4716 818.393 39.1193C818.661 38.7614 819.041 38.4432 819.536 38.1648C820.036 37.8807 820.712 37.7386 821.564 37.7386C822.666 37.7386 823.638 38.0142 824.479 38.5653C825.32 39.1165 825.976 39.8977 826.447 40.9091C826.919 41.9205 827.155 43.1136 827.155 44.4886C827.155 45.875 826.919 47.0767 826.447 48.0938C825.976 49.1051 825.322 49.8892 824.487 50.446C823.652 50.9972 822.689 51.2727 821.598 51.2727C820.757 51.2727 820.084 51.1335 819.578 50.8551C819.072 50.571 818.683 50.25 818.411 49.892C818.138 49.5284 817.928 49.2273 817.78 48.9886H817.541V51H815.598ZM817.575 44.4545C817.575 45.4432 817.72 46.3153 818.01 47.071C818.3 47.821 818.723 48.4091 819.28 48.8352C819.837 49.2557 820.518 49.4659 821.325 49.4659C822.166 49.4659 822.868 49.2443 823.43 48.8011C823.999 48.3523 824.425 47.75 824.709 46.9943C824.999 46.233 825.143 45.3864 825.143 44.4545C825.143 43.5341 825.001 42.7045 824.717 41.9659C824.439 41.2216 824.016 40.6335 823.447 40.2017C822.885 39.7642 822.178 39.5455 821.325 39.5455C820.507 39.5455 819.82 39.7528 819.263 40.1676C818.706 40.5767 818.286 41.1506 818.001 41.8892C817.717 42.6222 817.575 43.4773 817.575 44.4545ZM839.504 40.8409L837.697 41.3523C837.584 41.0511 837.416 40.7585 837.195 40.4744C836.979 40.1847 836.683 39.946 836.308 39.7585C835.933 39.571 835.453 39.4773 834.868 39.4773C834.067 39.4773 833.399 39.6619 832.865 40.0312C832.337 40.3949 832.072 40.858 832.072 41.4205C832.072 41.9205 832.254 42.3153 832.618 42.6051C832.982 42.8949 833.55 43.1364 834.322 43.3295L836.266 43.8068C837.436 44.0909 838.308 44.5256 838.882 45.1108C839.456 45.6903 839.743 46.4375 839.743 47.3523C839.743 48.1023 839.527 48.7727 839.095 49.3636C838.669 49.9545 838.072 50.4205 837.305 50.7614C836.538 51.1023 835.646 51.2727 834.629 51.2727C833.294 51.2727 832.189 50.983 831.314 50.4034C830.439 49.8239 829.885 48.9773 829.652 47.8636L831.561 47.3864C831.743 48.0909 832.087 48.6193 832.592 48.9716C833.104 49.3239 833.771 49.5 834.595 49.5C835.533 49.5 836.277 49.3011 836.828 48.9034C837.385 48.5 837.663 48.017 837.663 47.4545C837.663 47 837.504 46.6193 837.186 46.3125C836.868 46 836.379 45.767 835.72 45.6136L833.538 45.1023C832.339 44.8182 831.459 44.3778 830.896 43.7812C830.339 43.179 830.061 42.4261 830.061 41.5227C830.061 40.7841 830.268 40.1307 830.683 39.5625C831.104 38.9943 831.675 38.5483 832.396 38.2244C833.124 37.9006 833.947 37.7386 834.868 37.7386C836.163 37.7386 837.18 38.0227 837.919 38.5909C838.663 39.1591 839.192 39.9091 839.504 40.8409ZM848.259 51.2727C846.998 51.2727 845.91 50.9943 844.995 50.4375C844.086 49.875 843.384 49.0909 842.89 48.0852C842.401 47.0739 842.157 45.8977 842.157 44.5568C842.157 43.2159 842.401 42.0341 842.89 41.0114C843.384 39.983 844.072 39.1818 844.952 38.608C845.839 38.0284 846.873 37.7386 848.055 37.7386C848.737 37.7386 849.41 37.8523 850.075 38.0795C850.739 38.3068 851.344 38.6761 851.89 39.1875C852.435 39.6932 852.87 40.3636 853.194 41.1989C853.518 42.0341 853.68 43.0625 853.68 44.2841V45.1364H843.589V43.3977H851.634C851.634 42.6591 851.487 42 851.191 41.4205C850.901 40.8409 850.487 40.3835 849.947 40.0483C849.413 39.7131 848.782 39.5455 848.055 39.5455C847.254 39.5455 846.56 39.7443 845.975 40.142C845.396 40.5341 844.95 41.0455 844.637 41.6761C844.325 42.3068 844.168 42.983 844.168 43.7045V44.8636C844.168 45.8523 844.339 46.6903 844.68 47.3778C845.026 48.0597 845.506 48.5795 846.12 48.9375C846.734 49.2898 847.447 49.4659 848.259 49.4659C848.788 49.4659 849.265 49.392 849.691 49.2443C850.123 49.0909 850.495 48.8636 850.808 48.5625C851.12 48.2557 851.362 47.875 851.532 47.4205L853.475 47.9659C853.271 48.625 852.927 49.2045 852.444 49.7045C851.961 50.1989 851.364 50.5852 850.654 50.8636C849.944 51.1364 849.146 51.2727 848.259 51.2727ZM862.433 37.9091V39.6136H855.648V37.9091H862.433ZM857.626 34.7727H859.637V47.25C859.637 47.8182 859.719 48.2443 859.884 48.5284C860.055 48.8068 860.271 48.9943 860.532 49.0909C860.799 49.1818 861.08 49.2273 861.376 49.2273C861.597 49.2273 861.779 49.2159 861.921 49.1932C862.063 49.1648 862.177 49.142 862.262 49.125L862.671 50.9318C862.535 50.983 862.344 51.0341 862.1 51.0852C861.856 51.142 861.546 51.1705 861.171 51.1705C860.603 51.1705 860.046 51.0483 859.501 50.804C858.961 50.5597 858.512 50.1875 858.154 49.6875C857.802 49.1875 857.626 48.5568 857.626 47.7955V34.7727ZM872.174 51V49.4659L877.935 43.1591C878.612 42.4205 879.168 41.7784 879.606 41.233C880.043 40.6818 880.367 40.1648 880.577 39.6818C880.793 39.1932 880.901 38.6818 880.901 38.1477C880.901 37.5341 880.754 37.0028 880.458 36.554C880.168 36.1051 879.771 35.7585 879.265 35.5142C878.759 35.2699 878.191 35.1477 877.56 35.1477C876.89 35.1477 876.305 35.2869 875.805 35.5653C875.31 35.8381 874.927 36.2216 874.654 36.7159C874.387 37.2102 874.254 37.7898 874.254 38.4545H872.242C872.242 37.4318 872.478 36.5341 872.95 35.7614C873.421 34.9886 874.063 34.3864 874.876 33.9545C875.694 33.5227 876.612 33.3068 877.629 33.3068C878.651 33.3068 879.558 33.5227 880.347 33.9545C881.137 34.3864 881.756 34.9687 882.205 35.7017C882.654 36.4347 882.879 37.25 882.879 38.1477C882.879 38.7898 882.762 39.4176 882.529 40.0312C882.302 40.6392 881.904 41.3182 881.336 42.0682C880.773 42.8125 879.992 43.7216 878.992 44.7955L875.072 48.9886V49.125H883.185V51H872.174Z" fill="black"/>
<path d="M715.114 276.841L713.307 277.352C713.193 277.051 713.026 276.759 712.804 276.474C712.588 276.185 712.293 275.946 711.918 275.759C711.543 275.571 711.062 275.477 710.477 275.477C709.676 275.477 709.009 275.662 708.474 276.031C707.946 276.395 707.682 276.858 707.682 277.42C707.682 277.92 707.864 278.315 708.227 278.605C708.591 278.895 709.159 279.136 709.932 279.33L711.875 279.807C713.045 280.091 713.918 280.526 714.491 281.111C715.065 281.69 715.352 282.437 715.352 283.352C715.352 284.102 715.136 284.773 714.705 285.364C714.278 285.955 713.682 286.42 712.915 286.761C712.148 287.102 711.256 287.273 710.239 287.273C708.903 287.273 707.798 286.983 706.923 286.403C706.048 285.824 705.494 284.977 705.261 283.864L707.17 283.386C707.352 284.091 707.696 284.619 708.202 284.972C708.713 285.324 709.381 285.5 710.205 285.5C711.142 285.5 711.886 285.301 712.438 284.903C712.994 284.5 713.273 284.017 713.273 283.455C713.273 283 713.114 282.619 712.795 282.312C712.477 282 711.989 281.767 711.33 281.614L709.148 281.102C707.949 280.818 707.068 280.378 706.506 279.781C705.949 279.179 705.67 278.426 705.67 277.523C705.67 276.784 705.878 276.131 706.293 275.562C706.713 274.994 707.284 274.548 708.006 274.224C708.733 273.901 709.557 273.739 710.477 273.739C711.773 273.739 712.79 274.023 713.528 274.591C714.273 275.159 714.801 275.909 715.114 276.841ZM726.63 281.648V273.909H728.641V287H726.63V284.784H726.494C726.187 285.449 725.71 286.014 725.062 286.48C724.414 286.94 723.596 287.17 722.607 287.17C721.789 287.17 721.062 286.991 720.425 286.634C719.789 286.27 719.289 285.724 718.925 284.997C718.562 284.264 718.38 283.341 718.38 282.227V273.909H720.391V282.091C720.391 283.045 720.658 283.807 721.192 284.375C721.732 284.943 722.42 285.227 723.255 285.227C723.755 285.227 724.263 285.099 724.781 284.844C725.303 284.588 725.741 284.196 726.093 283.668C726.451 283.139 726.63 282.466 726.63 281.648ZM732.598 287V269.545H734.609V275.989H734.78C734.928 275.761 735.132 275.472 735.393 275.119C735.661 274.761 736.041 274.443 736.536 274.165C737.036 273.881 737.712 273.739 738.564 273.739C739.666 273.739 740.638 274.014 741.479 274.565C742.32 275.116 742.976 275.898 743.447 276.909C743.919 277.92 744.155 279.114 744.155 280.489C744.155 281.875 743.919 283.077 743.447 284.094C742.976 285.105 742.322 285.889 741.487 286.446C740.652 286.997 739.689 287.273 738.598 287.273C737.757 287.273 737.084 287.134 736.578 286.855C736.072 286.571 735.683 286.25 735.411 285.892C735.138 285.528 734.928 285.227 734.78 284.989H734.541V287H732.598ZM734.575 280.455C734.575 281.443 734.72 282.315 735.01 283.071C735.3 283.821 735.723 284.409 736.28 284.835C736.837 285.256 737.518 285.466 738.325 285.466C739.166 285.466 739.868 285.244 740.43 284.801C740.999 284.352 741.425 283.75 741.709 282.994C741.999 282.233 742.143 281.386 742.143 280.455C742.143 279.534 742.001 278.705 741.717 277.966C741.439 277.222 741.016 276.634 740.447 276.202C739.885 275.764 739.178 275.545 738.325 275.545C737.507 275.545 736.82 275.753 736.263 276.168C735.706 276.577 735.286 277.151 735.001 277.889C734.717 278.622 734.575 279.477 734.575 280.455ZM756.504 276.841L754.697 277.352C754.584 277.051 754.416 276.759 754.195 276.474C753.979 276.185 753.683 275.946 753.308 275.759C752.933 275.571 752.453 275.477 751.868 275.477C751.067 275.477 750.399 275.662 749.865 276.031C749.337 276.395 749.072 276.858 749.072 277.42C749.072 277.92 749.254 278.315 749.618 278.605C749.982 278.895 750.55 279.136 751.322 279.33L753.266 279.807C754.436 280.091 755.308 280.526 755.882 281.111C756.456 281.69 756.743 282.437 756.743 283.352C756.743 284.102 756.527 284.773 756.095 285.364C755.669 285.955 755.072 286.42 754.305 286.761C753.538 287.102 752.646 287.273 751.629 287.273C750.294 287.273 749.189 286.983 748.314 286.403C747.439 285.824 746.885 284.977 746.652 283.864L748.561 283.386C748.743 284.091 749.087 284.619 749.592 284.972C750.104 285.324 750.771 285.5 751.595 285.5C752.533 285.5 753.277 285.301 753.828 284.903C754.385 284.5 754.663 284.017 754.663 283.455C754.663 283 754.504 282.619 754.186 282.312C753.868 282 753.379 281.767 752.72 281.614L750.538 281.102C749.339 280.818 748.459 280.378 747.896 279.781C747.339 279.179 747.061 278.426 747.061 277.523C747.061 276.784 747.268 276.131 747.683 275.562C748.104 274.994 748.675 274.548 749.396 274.224C750.124 273.901 750.947 273.739 751.868 273.739C753.163 273.739 754.18 274.023 754.919 274.591C755.663 275.159 756.192 275.909 756.504 276.841ZM765.259 287.273C763.998 287.273 762.91 286.994 761.995 286.438C761.086 285.875 760.384 285.091 759.89 284.085C759.401 283.074 759.157 281.898 759.157 280.557C759.157 279.216 759.401 278.034 759.89 277.011C760.384 275.983 761.072 275.182 761.952 274.608C762.839 274.028 763.873 273.739 765.055 273.739C765.737 273.739 766.41 273.852 767.075 274.08C767.739 274.307 768.344 274.676 768.89 275.188C769.435 275.693 769.87 276.364 770.194 277.199C770.518 278.034 770.68 279.062 770.68 280.284V281.136H760.589V279.398H768.634C768.634 278.659 768.487 278 768.191 277.42C767.901 276.841 767.487 276.384 766.947 276.048C766.413 275.713 765.782 275.545 765.055 275.545C764.254 275.545 763.56 275.744 762.975 276.142C762.396 276.534 761.95 277.045 761.637 277.676C761.325 278.307 761.168 278.983 761.168 279.705V280.864C761.168 281.852 761.339 282.69 761.68 283.378C762.026 284.06 762.506 284.58 763.12 284.938C763.734 285.29 764.447 285.466 765.259 285.466C765.788 285.466 766.265 285.392 766.691 285.244C767.123 285.091 767.495 284.864 767.808 284.562C768.12 284.256 768.362 283.875 768.532 283.42L770.475 283.966C770.271 284.625 769.927 285.205 769.444 285.705C768.961 286.199 768.364 286.585 767.654 286.864C766.944 287.136 766.146 287.273 765.259 287.273ZM779.433 273.909V275.614H772.648V273.909H779.433ZM774.626 270.773H776.637V283.25C776.637 283.818 776.719 284.244 776.884 284.528C777.055 284.807 777.271 284.994 777.532 285.091C777.799 285.182 778.08 285.227 778.376 285.227C778.597 285.227 778.779 285.216 778.921 285.193C779.063 285.165 779.177 285.142 779.262 285.125L779.671 286.932C779.535 286.983 779.344 287.034 779.1 287.085C778.856 287.142 778.546 287.17 778.171 287.17C777.603 287.17 777.046 287.048 776.501 286.804C775.961 286.56 775.512 286.188 775.154 285.688C774.802 285.188 774.626 284.557 774.626 283.795V270.773ZM795.072 287.239C793.947 287.239 792.944 287.045 792.063 286.659C791.188 286.273 790.492 285.736 789.975 285.048C789.464 284.355 789.185 283.551 789.14 282.636H791.288C791.333 283.199 791.526 283.685 791.867 284.094C792.208 284.497 792.654 284.81 793.205 285.031C793.756 285.253 794.367 285.364 795.038 285.364C795.788 285.364 796.452 285.233 797.032 284.972C797.612 284.71 798.066 284.347 798.396 283.881C798.725 283.415 798.89 282.875 798.89 282.261C798.89 281.619 798.731 281.054 798.413 280.565C798.094 280.071 797.629 279.685 797.015 279.406C796.401 279.128 795.651 278.989 794.765 278.989H793.367V277.114H794.765C795.458 277.114 796.066 276.989 796.589 276.739C797.117 276.489 797.529 276.136 797.825 275.682C798.126 275.227 798.276 274.693 798.276 274.08C798.276 273.489 798.146 272.974 797.884 272.537C797.623 272.099 797.254 271.759 796.776 271.514C796.305 271.27 795.748 271.148 795.106 271.148C794.504 271.148 793.935 271.259 793.401 271.48C792.873 271.696 792.441 272.011 792.106 272.426C791.771 272.835 791.589 273.33 791.56 273.909H789.515C789.549 272.994 789.825 272.193 790.342 271.506C790.859 270.812 791.535 270.273 792.37 269.886C793.211 269.5 794.134 269.307 795.14 269.307C796.219 269.307 797.146 269.526 797.918 269.963C798.691 270.395 799.285 270.966 799.7 271.676C800.114 272.386 800.322 273.153 800.322 273.977C800.322 274.96 800.063 275.798 799.546 276.491C799.035 277.185 798.339 277.665 797.458 277.932V278.068C798.56 278.25 799.421 278.719 800.04 279.474C800.66 280.224 800.969 281.153 800.969 282.261C800.969 283.21 800.711 284.062 800.194 284.818C799.683 285.568 798.984 286.159 798.097 286.591C797.211 287.023 796.202 287.239 795.072 287.239Z" fill="black"/>
<circle cx="563.5" cy="321.5" r="15.5" transform="rotate(-180 563.5 321.5)" fill="#D9D9D9"/>
<circle cx="388.5" cy="286.5" r="15.5" transform="rotate(-180 388.5 286.5)" fill="#DDDDDD"/>
<circle cx="527.5" cy="321.5" r="15.5" transform="rotate(-180 527.5 321.5)" fill="#DDDDDD"/>
<circle cx="563.5" cy="251.5" r="15.5" transform="rotate(-180 563.5 251.5)" fill="#CCCCCC"/>
<circle cx="563.5" cy="286.5" r="15.5" transform="rotate(-180 563.5 286.5)" fill="#D9D9D9"/>
<circle cx="563.5" cy="216.5" r="15.5" transform="rotate(-180 563.5 216.5)" fill="#D9D9D9"/>
<circle cx="458.5" cy="321.5" r="15.5" transform="rotate(-180 458.5 321.5)" fill="#D9D9D9"/>
<circle cx="527.5" cy="251.5" r="15.5" transform="rotate(-180 527.5 251.5)" fill="#D9D9D9"/>
<circle cx="527.5" cy="286.5" r="15.5" transform="rotate(-180 527.5 286.5)" fill="#999999"/>
<circle cx="527.5" cy="216.5" r="15.5" transform="rotate(-180 527.5 216.5)" fill="#D9D9D9"/>
<circle cx="493.5" cy="286.5" r="15.5" transform="rotate(-180 493.5 286.5)" fill="#CCCCCC"/>
<circle cx="493.5" cy="321.5" r="15.5" transform="rotate(-180 493.5 321.5)" fill="#999999"/>
<circle cx="493.5" cy="251.5" r="15.5" transform="rotate(-180 493.5 251.5)" fill="#999999"/>
<circle cx="423.5" cy="321.5" r="15.5" transform="rotate(-180 423.5 321.5)" fill="#999999"/>
<circle cx="458.5" cy="251.5" r="15.5" transform="rotate(-180 458.5 251.5)" fill="#DDDDDD"/>
<circle cx="458.5" cy="286.5" r="15.5" transform="rotate(-180 458.5 286.5)" fill="#CCCCCC"/>
<circle cx="458.5" cy="216.5" r="15.5" transform="rotate(-180 458.5 216.5)" fill="#D9D9D9"/>
<circle cx="423.5" cy="251.5" r="15.5" transform="rotate(-180 423.5 251.5)" fill="#D9D9D9"/>
<circle cx="423.5" cy="286.5" r="15.5" transform="rotate(-180 423.5 286.5)" fill="#D9D9D9"/>
<circle cx="423.5" cy="216.5" r="15.5" transform="rotate(-180 423.5 216.5)" fill="#D9D9D9"/>
<circle cx="388.5" cy="321.5" r="15.5" transform="rotate(-180 388.5 321.5)" fill="#CCCCCC"/>
<circle cx="388.5" cy="216.5" r="15.5" transform="rotate(-180 388.5 216.5)" fill="#D9D9D9"/>
<circle cx="388.5" cy="251.5" r="15.5" transform="rotate(-180 388.5 251.5)" fill="#999999"/>
<circle cx="388.5" cy="181.5" r="15.5" transform="rotate(-180 388.5 181.5)" fill="#CCCCCC"/>
<circle cx="353.5" cy="321.5" r="15.5" transform="rotate(-180 353.5 321.5)" fill="#DDDDDD"/>
<circle cx="353.5" cy="286.5" r="15.5" transform="rotate(-180 353.5 286.5)" fill="#D9D9D9"/>
<path d="M323 232V335C323 346.046 331.954 355 343 355H576C587.046 355 596 346.046 596 335V232" stroke="#666666" stroke-width="6"/>
<circle cx="120.5" cy="128.5" r="15.5" transform="rotate(-180 120.5 128.5)" fill="#CCCCCC"/>
<circle cx="85.5" cy="128.5" r="15.5" transform="rotate(-180 85.5 128.5)" fill="#D9D9D9"/>
<circle cx="85.5" cy="167.5" r="15.5" transform="rotate(-180 85.5 167.5)" fill="#CCCCCC"/>
<circle cx="120.5" cy="167.5" r="15.5" transform="rotate(-180 120.5 167.5)" fill="#999999"/>
<circle cx="50.5" cy="128.5" r="15.5" transform="rotate(-180 50.5 128.5)" fill="#CCCCCC"/>
<circle cx="15.5" cy="128.5" r="15.5" transform="rotate(-180 15.5 128.5)" fill="#D9D9D9"/>
<circle cx="50.5" cy="167.5" r="15.5" transform="rotate(-180 50.5 167.5)" fill="#CCCCCC"/>
<circle cx="15.5" cy="167.5" r="15.5" transform="rotate(-180 15.5 167.5)" fill="#DDDDDD"/>
<circle cx="637.5" cy="50.5" r="15.5" transform="rotate(-180 637.5 50.5)" fill="#DDDDDD"/>
<circle cx="707.5" cy="15.5" r="15.5" transform="rotate(-180 707.5 15.5)" fill="#D9D9D9"/>
<circle cx="707.5" cy="50.5" r="15.5" transform="rotate(-180 707.5 50.5)" fill="#999999"/>
<circle cx="672.5" cy="15.5" r="15.5" transform="rotate(-180 672.5 15.5)" fill="#999999"/>
<circle cx="637.5" cy="15.5" r="15.5" transform="rotate(-180 637.5 15.5)" fill="#DDDDDD"/>
<circle cx="742.5" cy="15.5" r="15.5" transform="rotate(-180 742.5 15.5)" fill="#D9D9D9"/>
<circle cx="672.5" cy="50.5" r="15.5" transform="rotate(-180 672.5 50.5)" fill="#D9D9D9"/>
<circle cx="738.5" cy="232.5" r="15.5" transform="rotate(90 738.5 232.5)" fill="#DDDDDD"/>
<circle cx="773.5" cy="232.5" r="15.5" transform="rotate(90 773.5 232.5)" fill="#D9D9D9"/>
<circle cx="808.5" cy="232.5" r="15.5" transform="rotate(90 808.5 232.5)" fill="#999999"/>
<circle cx="703.5" cy="197.5" r="15.5" transform="rotate(90 703.5 197.5)" fill="#999999"/>
<circle cx="703.5" cy="232.5" r="15.5" transform="rotate(90 703.5 232.5)" fill="#DDDDDD"/>
<circle cx="773.5" cy="197.5" r="15.5" transform="rotate(90 773.5 197.5)" fill="#D9D9D9"/>
<circle cx="738.5" cy="197.5" r="15.5" transform="rotate(90 738.5 197.5)" fill="#D9D9D9"/>
<path d="M179 122C257 89.9999 308.833 144 325 175M573.5 66C539.5 83.5 528.5 120 525 168.5M704.5 155.5C673.5 114 599.833 145.667 590.5 175" stroke="#D9D9D9" stroke-width="4" stroke-linecap="round" stroke-linejoin="round"/>
</svg>
