<svg xmlns="http://www.w3.org/2000/svg" viewBox="0 0 186.86 47.68">
	<defs>
		<style>
			.cls-1 {
				fill: none;
				stroke: #a54949;
				stroke-linecap: round;
				stroke-linejoin: round;
				stroke-width: 2px;
			}
		</style>
	</defs>
	<g id="Layer_2" data-name="Layer 2">
		<g id="Layer_2-2" data-name="Layer 2">
			<path
				class="cls-1"
				d="M21.14,6.8C8.6-2.49.38,17.65,17.55,18.37-8.93,31.27-.35,60.68,20.31,38.86"
			/>
			<path
				class="cls-1"
				d="M23.38,39.64C32.53,35.06,38.57,21,35.55,20.08s-13,22.57-7.67,25.79S54.38,22.47,49.08,21s-19.1,38.66,4,19.51,2-12.51,0,0C51,53.38,66.4,42.42,66.56,32.25,61,50.17,70.62,48,76.65,41.2"
			/>
			<path
				class="cls-1"
				d="M76.65,41.2c2.71-5.1,1.65-11.86,1.2-11.86-.76,0-.42,16.75-1.46,17.07s3-15.9,8.49-16.39-.59,13.8,1.7,16,6.44-1.49,9-6.38"
			/>
			<path
				class="cls-1"
				d="M144.74,16.33c.51-17.37-14.81-20.37-10-7s15.84,30.22,8.43,34.31S125.59,42.1,121,29.34"
			/>
			<path
				class="cls-1"
				d="M149.08,34.46c14.81-12,10.22-22.22,8.69-22.22s-6.39,33.81-7.41,33.63,3.34-12.53,8.43-12.67c4.71-.12-1.13,11.68,1.71,12.64,7.81,2.65,17.95-13.94,15.91-14.19s-6.64,12.67-2,14.76,11.49-8.53,11.49-8.53"
			/>
			<line class="cls-1" x1="176.62" y1="25.46" x2="176.62" y2="26.33" />
		</g>
	</g>
</svg>
