<svg width="189" height="50" viewBox="0 0 189 50" fill="none" xmlns="http://www.w3.org/2000/svg">
<path d="M22.1385 6.80139C9.59845 -2.48861 1.37845 17.6514 18.5485 18.3714C-7.93155 31.2714 0.648455 60.6814 21.3085 38.8614" stroke="black" stroke-width="2.5" stroke-linecap="round" stroke-linejoin="round"/>
<path d="M24.3784 39.6414C33.5284 35.0614 39.5684 21.0014 36.5484 20.0814C33.5284 19.1614 23.5484 43.6514 28.8784 46.8714C34.2084 50.0914 55.3784 22.4714 50.0784 21.0014C44.7784 19.5314 30.9784 59.6614 54.0784 40.5114M54.0784 40.5114C56.0784 28.0014 77.1784 21.3614 54.0784 40.5114ZM54.0784 40.5114C51.9984 53.3814 67.3984 42.4214 67.5584 32.2514C61.9984 50.1714 71.6184 48.0014 77.6484 41.2014" stroke="black" stroke-width="2.5" stroke-linecap="round" stroke-linejoin="round"/>
<path d="M77.6485 41.2014C80.3585 36.1014 79.2985 29.3414 78.8485 29.3414C78.0885 29.3414 78.4285 46.0914 77.3885 46.4114C76.3485 46.7314 80.3885 30.5114 85.8785 30.0214C91.3685 29.5314 85.2885 43.8214 87.5785 46.0214C89.8685 48.2214 94.0185 44.5314 96.5785 39.6414" stroke="black" stroke-width="2.5" stroke-linecap="round" stroke-linejoin="round"/>
<path d="M145.739 17.3314C146.249 -0.0385904 130.929 -3.03859 135.739 10.3314C140.549 23.7014 151.579 40.5514 144.169 44.6414C136.759 48.7314 126.589 43.1014 121.999 30.3414" stroke="black" stroke-width="2.5" stroke-linecap="round" stroke-linejoin="round"/>
<path d="M150.078 34.4614C164.888 22.4614 160.298 12.2414 158.768 12.2414C157.238 12.2414 152.378 46.0514 151.358 45.8714C150.338 45.6914 154.698 33.3414 159.788 33.2014C164.498 33.0814 158.658 44.8814 161.498 45.8414C169.308 48.4914 179.448 31.9014 177.408 31.6514C175.368 31.4014 170.768 43.3214 175.408 45.4114C180.048 47.5014 186.898 37.8814 186.898 37.8814" stroke="black" stroke-width="2.5" stroke-linecap="round" stroke-linejoin="round"/>
<path d="M177.619 25.4614V26.3314" stroke="black" stroke-width="2.5" stroke-linecap="round" stroke-linejoin="round"/>
</svg>
