<svg xmlns="http://www.w3.org/2000/svg" viewBox="0 0 466.53 753.94">
    <defs>
        <style>
            .cls-1,
            .cls-2 {
                fill: none;
                stroke: #000;
                stroke-linecap: round;
                stroke-linejoin: round;
                stroke-width: 3px;
            }

            .cls-2 {
                fill-rule: evenodd;
            }
        </style>
    </defs>
    <g id="Layer_2" data-name="Layer 2">
        <g id="Layer_2-2" data-name="Layer 2">
            <path class="cls-1"
                d="M91.15,226.79c-1.11-4.27-4.29-7.66-6.14-11.66-7.49-16.14,8.36-34.45,5.72-52.06-.79-5.24-3.68-9-6.16-13.49-1.54-2.8-8.13-9.53-8.33-12.27a58.23,58.23,0,0,1-11,38.29c3.54-8.17,2.53-17.56.69-26.27s-4.44-17.44-3.9-26.33C63.46,100.19,84.28,85.63,89,63.85c1-4.72,1.47-9.57,2.9-14.19,3.86-12.48,14.57-21.9,26.46-27.3s25-7.33,38-9.21c14.57-15.71,38-14.24,56.34-3.23,4.68,2.8,8.86,6.41,13.58,9.15,12.32,7.16,27.62,8.06,39.57,15.81a40.39,40.39,0,0,1,17.76,27.83c1.88,13.31-3,26.88-1.29,40.21a41.52,41.52,0,0,0,26,32.74L293,136.94c-1.62,6.49,4.07,12.29,6.35,18.58,3.25,9-.68,18.93-5.63,27.1s-11.1,16-12.79,25.42c-2.32,12.94,5.48,27,17.7,31.85,5.74,2.28,12.7,3,16.41,8,3.52,4.68,2.61,11.38.26,16.74s-5.94,10.17-7.62,15.78-.77,12.67,4.19,15.78c4.57,2.86,10.61,1.31,15.76,2.91,7.17,2.22,11.06,10.6,9.9,18a14.69,14.69,0,0,1-.45,2.07c-2.3,7.89-9.39,13.65-17.1,16.47A38.76,38.76,0,0,1,307.44,338a30.74,30.74,0,0,0,11.8-13.41c2-4.51,2.57-10.64-1.35-13.65s-10.7-1.7-12.94-6c-1.29-2.49-.21-5.57-.87-8.3-.82-3.36-4-5.49-7-7.28L294.87,288l-32.32-19.62.21-.51a12.72,12.72,0,0,0-12.26-17.29,16.73,16.73,0,0,0-3.77.59l-2-14.18c7-7.53,13.37-15.76,17-25.32,2.88-7.5,4-15.58,4.43-23.61,0-.17,0-.33,0-.5a26.06,26.06,0,0,0,9.88-7.92,40,40,0,0,0,7.09-16.37c2-9.6,1.5-20-3.19-28.66-.89-1.64-2.09-3.33-3.9-3.83-2.27-.63-4.57.86-6.32,2.45a34.41,34.41,0,0,0-6,7.1c-.58-8.78-1.83-20.32-8.23-23a10.91,10.91,0,0,0-4.19-.45c-5.45,0-11.55-1.74-14.06-6.57-2.31-4.43-.84-9.77,0-14.71s.27-11-4.13-13.41c-2.19-1.18-4.81-1.1-7.3-1l-25.5,1.18A45,45,0,0,0,195.08,63a12.52,12.52,0,0,0-4.55-5.35c-3.82-2.14-8.54-.51-12.67.93-6.6,2.29-14.69,3.78-20.78-.52-7.34-5.18-7.33-9-17.11-5.34a55.81,55.81,0,0,0-31.88,30.54c-2,4.92-3.31,10.1-5.26,15-1.84,4.67-4.28,9.13-5.62,14-1.77,6.36-1.58,13.08-1.15,19.66a289.25,289.25,0,0,0,7.82,50.5c4.3,17.44,10.32,34.67,20.31,49.59a88.6,88.6,0,0,0,24.59,24.82h0c.66,4.55,1.19,9.11,1.48,13.67-4.46.58-9.11,1.73-11.52,5.41-1.86,2.84-1.81,6.32-1.9,9.79a19.32,19.32,0,0,1-7.12,5c.28,5.77-4.66,10.26-7.27,15.41s-2.88,11-3.28,16.7-.94,11.42-2.87,16.77-5.39,10.36-10.39,13.08c-2.11,1.14-5.17,1.65-6.57-.3-.81-1.13-.7-2.65-.62-4,0-.07,0-.15,0-.22A55.17,55.17,0,0,0,94,322.39c-1.73.05-2.95,1.72-3.6,3.33-2.68,6.55-.69,13.94-.27,21s-2.47,16-9.31,17.85c-9.18-9-13.23-22.7-11.22-35.34a37.78,37.78,0,0,1,3.59-11.18c3.57-7.05,9.39-13.55,9.41-21.45,0-10.49-10.31-18.92-10.11-29.4.14-7.67,5.84-13.93,10.81-19.77S93.09,234.21,91.15,226.79Z" />
            <path class="cls-1"
                d="M213.23,210.32c-1.25,5.44-5,10.09-9.7,13.18a40.56,40.56,0,0,1-15.64,5.7,47.66,47.66,0,0,1-20.66-.56c-5.76-1.58-13.64-5.29-15.87-11.08C171.16,213.12,193,213.41,213.23,210.32Z" />
            <path class="cls-1"
                d="M280,134.59c4.69,8.62,5.21,19.06,3.19,28.66a40,40,0,0,1-7.09,16.37,26.06,26.06,0,0,1-9.88,7.92c.71-13.21-.28-26.45-1.86-39.57-.23-1.9-.35-4.61-.55-7.66a34.41,34.41,0,0,1,6-7.1c1.75-1.59,4.05-3.08,6.32-2.45C277.9,131.26,279.1,133,280,134.59Z" />
            <path class="cls-1"
                d="M138.15,342.71c-2.09,56.14,1.78,112.73,7,168.67.57,6.19,1.15,12.38,2,18.54.27,1.89.83,4.11,2.63,4.76,3.63-3.62,5.68-7.83,7.45-12.64,12.06-32.81,23-66,35-98.86,15-40.95,31.85-81.74,57.47-117,4.78-6.59,9.89-13,13.53-20.29,1.09-2.19,0-3.2-.85-5.5s-2-4.64-1.67-7.07a19.35,19.35,0,0,1,1.86-4.94l.21-.51a12.72,12.72,0,0,0-12.26-17.29,16.73,16.73,0,0,0-3.77.59l.63,4.45h0l.81,5.74c.43,3,.86,6.19.12,9.18-1,4-3.83,7.13-6.63,10.1a569.84,569.84,0,0,1-50.18,47.1c-5.93,4.93-12,9.77-18.93,13.16-1.85.91-4,1.73-5.93,1.08-2.44-.82-3.6-3.53-4.48-6l-11.35-31.27a27.05,27.05,0,0,1-1.84-7,32.93,32.93,0,0,1,.66-7.26,93.53,93.53,0,0,0,.66-20c-4.46.58-9.11,1.73-11.52,5.41-1.86,2.84-1.81,6.32-1.9,9.79a28.76,28.76,0,0,1-.37,4.57c-1.26,6.84-6.95,12.39-7.57,19.32-.32,3.68.84,7.31,2,10.83Z" />
            <path class="cls-1"
                d="M150.73,613.82c5,6.91,3.23,18.24-1.48,24.72a6.27,6.27,0,0,1-3,2.51c-2.62.85-5.19-1.44-6.74-3.73a23.46,23.46,0,0,1-4.27-15.4C136.16,613.77,144.09,604.68,150.73,613.82Z" />
            <path class="cls-1"
                d="M162.66,151.26a23,23,0,0,1-.73,22.89c-4.14,6.76-11.43,11.49-19.36,13.48-15.82,4-30.25-4.61-35.07-19.25-3.07-9.31-2.36-21,6.62-27,7.72-5.16,18.38-5.43,27.28-3.58,6.48,1.35,12.48,4,16.6,7.62A21.27,21.27,0,0,1,162.66,151.26Z" />
            <path class="cls-1"
                d="M103.25,415.48a170.86,170.86,0,0,0-36.86-20.43,201.79,201.79,0,0,0,32.35-46.92c0,.07,0,.15,0,.22-.08,1.39-.19,2.91.62,4,1.4,1.95,4.46,1.44,6.57.3,5-2.72,8.46-7.72,10.39-13.08s2.48-11.09,2.87-16.77.7-11.6,3.28-16.7,7.55-9.64,7.27-15.41a19.32,19.32,0,0,0,7.12-5,28.76,28.76,0,0,1-.37,4.57c-1.26,6.84-6.95,12.39-7.57,19.32-.32,3.68.84,7.31,2,10.83l7.26,22.28c-2.09,56.14,1.78,112.73,7,168.67.57,6.19,1.15,12.38,2,18.54.27,1.89.83,4.11,2.63,4.76,3.63-3.62,5.68-7.83,7.45-12.64,12.06-32.81,23-66,35-98.86,15-40.95,31.85-81.74,57.47-117,4.78-6.59,9.89-13,13.53-20.29,1.09-2.19,0-3.2-.85-5.5s-2-4.64-1.67-7.07a19.35,19.35,0,0,1,1.86-4.94L294.87,288a1071.17,1071.17,0,0,0-17.2,105.82,8.45,8.45,0,0,1-1,3.69c-1.2,1.86-3.59,2.47-5.75,2.93l-35.6,7.52a178.76,178.76,0,0,0,27.19,36.13,535.65,535.65,0,0,0-112.6,137.28c-16.61-22.13-30.49-46.45-44.22-70.57L69.1,446.5A113.66,113.66,0,0,0,103.25,415.48Z" />
            <path class="cls-1"
                d="M183.42,149.17a21.43,21.43,0,0,1,6.69-11.07c4.13-3.63,10.13-6.28,16.61-7.63,8.89-1.85,19.56-1.58,27.28,3.58,9,6,9.68,17.67,6.62,27-4.82,14.64-19.25,23.24-35.08,19.26-7.92-2-15.22-6.73-19.35-13.49A23.24,23.24,0,0,1,183.42,149.17Z" />
            <path class="cls-1"
                d="M10.12,636.52C7.61,634.27,5,632,3.4,629.06c-2.59-4.83-2-10.68-1.38-16.13C7.55,561.7,8.8,511.16,12.26,460.67a155.81,155.81,0,0,0,11.6,30.91c5.8,11.53,13.08,22.47,16.73,34.85,2.22,7.54,3,15.38,3.72,23.23.28,3.3.55,6.61.9,9.9a208.15,208.15,0,0,0,17.84,65c3.17,6.89,6.76,13.75,7.9,21.25a36.72,36.72,0,0,1,.37,3.77h0c.32,6.47-.86,13-1.69,19.49-2.19,17.08-.28,34.16-2.33,51a258.24,258.24,0,0,0-1.4,32.32H12.69a27.71,27.71,0,0,1-.46-6.25c.19-4.43,1.54-8.75,1.79-13.18.43-7.87-2.59-15.45-4.51-23.09-4-15.79,4-30.06,15.93-40.44,2.62-2.28,5.75-4.88,5.56-8.34-.12-2.06-1.43-3.83-2.73-5.44A162.1,162.1,0,0,0,10.12,636.52Z" />
            <path class="cls-1"
                d="M248.17,261.35c.43,3,.86,6.19.12,9.18-1,4-3.83,7.13-6.63,10.1a569.84,569.84,0,0,1-50.18,47.1c-5.93,4.93-12,9.77-18.93,13.16-1.85.91-4,1.73-5.93,1.08-2.44-.82-3.6-3.53-4.48-6l-11.35-31.27a27.05,27.05,0,0,1-1.84-7,32.93,32.93,0,0,1,.66-7.26,93.53,93.53,0,0,0,.66-20c-.29-4.56-.82-9.12-1.48-13.67a68.47,68.47,0,0,0,16.78,8.06c2.52.8,5,1.53,7.47,2.16h0c1.79,1.86,3.76,3.58,5.72,5.27a89.78,89.78,0,0,0,13.76,10.36c5,2.85,10.63,4.8,16.37,4.66,6.86-.15,13.39-3.27,18.72-7.59s9.58-9.8,13.6-15.35q3.14-4.35,6.14-8.8Z" />
            <path class="cls-1"
                d="M156.75,713.76c5.25,6.1,3.77,16.58-.89,22.5a4.87,4.87,0,0,1-1.75,1.54,4.34,4.34,0,0,1-2.87.05,11.26,11.26,0,0,1-6.94-6.35,20.6,20.6,0,0,1-1.52-9.5C143.13,713.8,149.44,705.25,156.75,713.76Z" />
            <path class="cls-2"
                d="M162.66,151.26a21.27,21.27,0,0,0-4.66-5.82c-4.12-3.63-10.12-6.27-16.6-7.62-8.9-1.85-19.56-1.58-27.28,3.58-9,6-9.69,17.67-6.62,27,4.82,14.64,19.25,23.23,35.07,19.25,7.93-2,15.22-6.72,19.36-13.48A23,23,0,0,0,162.66,151.26Zm20.76-2.09a23.24,23.24,0,0,0,2.77,17.63c4.13,6.76,11.43,11.5,19.35,13.49,15.83,4,30.26-4.62,35.08-19.26,3.06-9.31,2.36-21-6.62-27-7.72-5.16-18.39-5.43-27.28-3.58-6.48,1.35-12.48,4-16.61,7.63A21.43,21.43,0,0,0,183.42,149.17Zm29.81,61.15c-20.24,3.09-42.07,2.8-61.87,7.24,2.23,5.79,10.11,9.5,15.87,11.08a47.66,47.66,0,0,0,20.66.56,40.56,40.56,0,0,0,15.64-5.7C208.19,220.41,212,215.76,213.23,210.32ZM198.67,237.1c-3.9,1.3-7.63,3.11-11.58,4.26-2.06.6-10.26.24-10.37,2.4-.14,2.7,8.32,4.71,10.39,5a9.94,9.94,0,0,0,7.83-1.8C197.72,244.65,198.42,240.71,198.67,237.1ZM264.35,148c1.58,13.12,2.57,26.36,1.86,39.57,0,.17,0,.33,0,.5-.46,8-1.55,16.11-4.43,23.61-3.67,9.56-10.08,17.79-17,25.32l-1.53,1.64c-10.06,10.63-21.45,20.48-34.81,26.7-11.87,5.53-23.35,4.83-35.33,1.75h0c-2.47-.63-4.95-1.36-7.47-2.16a68.47,68.47,0,0,1-16.78-8.06h0A88.6,88.6,0,0,1,124.19,232c-10-14.92-16-32.15-20.31-49.59a289.25,289.25,0,0,1-7.82-50.5c-.43-6.58-.62-13.3,1.15-19.66,1.34-4.83,3.78-9.29,5.62-14,2-4.94,3.25-10.12,5.26-15A55.81,55.81,0,0,1,140,52.72c9.78-3.64,9.77.16,17.11,5.34,6.09,4.3,14.18,2.81,20.78.52,4.13-1.44,8.85-3.07,12.67-.93A12.52,12.52,0,0,1,195.08,63a45,45,0,0,1,5.26,19.42l25.5-1.18c2.49-.12,5.11-.2,7.3,1,4.4,2.37,4.92,8.47,4.13,13.41s-2.26,10.28,0,14.71c2.51,4.83,8.61,6.59,14.06,6.57a10.91,10.91,0,0,1,4.19.45c6.4,2.63,7.65,14.17,8.23,23C264,143.36,264.12,146.07,264.35,148Z" />
            <path class="cls-2"
                d="M142.78,722a20.6,20.6,0,0,0,1.52,9.5,11.26,11.26,0,0,0,6.94,6.35,4.34,4.34,0,0,0,2.87-.05,4.87,4.87,0,0,0,1.75-1.54c4.66-5.92,6.14-16.4.89-22.5C149.44,705.25,143.13,713.8,142.78,722Zm-7.5-100.08a23.46,23.46,0,0,0,4.27,15.4c1.55,2.29,4.12,4.58,6.74,3.73a6.27,6.27,0,0,0,3-2.51c4.71-6.48,6.49-17.81,1.48-24.72C144.09,604.68,136.16,613.77,135.28,621.92ZM364.46,752.44l-1-.44c-6.06-2.48-12-1-17.89-3.1.44-16.08,14-13.11,25.91-14.63,13.45-1.72,36.52,4.74,47.88-2.53,16.05-10.26-12.8-23.78-22.9-23.87A98.34,98.34,0,0,0,358,715.63c-4.66,2-24.86,17.75-26.4,12.13a7.07,7.07,0,0,1,.5-4.09c1.4-4,2.88-9.37-.7-11.6-8.25-5.14-12.41,1.18-8.51-12,2.8-9.47,7.31-17.9,14.52-24.82,9.3-8.93,28.7-15.61,24.05-30.29-3.63-11.46-13.78-19.41-17.58-31.19a100.3,100.3,0,0,1-4.22-38.46c1.11-11.51,7.14-31,16-38.75-2.58-15-12.88-28.27-16.93-42.92-3.75-13.59,2.11-26.3,6.6-39.36,8.78-25.54,17.71-50.84,30.48-74.73,6.1-11.41,10.9-23.61,17.54-34.7-6.07-1.07-12.16-2-17.36-4.37-13.68-6.19-26.25-14.51-38.39-23.37a14.69,14.69,0,0,1-.45,2.07c-2.3,7.89-9.39,13.65-17.1,16.47A38.76,38.76,0,0,1,307.44,338a30.74,30.74,0,0,0,11.8-13.41c2-4.51,2.57-10.64-1.35-13.65s-10.7-1.7-12.94-6c-1.29-2.49-.21-5.57-.87-8.3-.82-3.36-4-5.49-7-7.28L294.87,288a1071.17,1071.17,0,0,0-17.2,105.82,8.45,8.45,0,0,1-1,3.69c-1.2,1.86-3.59,2.47-5.75,2.93l-35.6,7.52a178.76,178.76,0,0,0,27.19,36.13,535.65,535.65,0,0,0-112.6,137.28c-16.61-22.13-30.49-46.45-44.22-70.57L69.1,446.5a113.66,113.66,0,0,0,34.15-31,170.86,170.86,0,0,0-36.86-20.43,201.79,201.79,0,0,0,32.35-46.92A55.17,55.17,0,0,0,94,322.39c-1.73.05-2.95,1.72-3.6,3.33-2.68,6.55-.69,13.94-.27,21s-2.47,16-9.31,17.85c-9.18-9-13.23-22.7-11.22-35.34A139.22,139.22,0,0,1,45.93,337c-4.4.93-9,1.58-12.75,4.13-6.17,4.24-8,12.38-9.33,19.74-6.06,33.37-9.31,66.58-11.59,99.82a155.81,155.81,0,0,0,11.6,30.91c5.8,11.53,13.08,22.47,16.73,34.85,2.22,7.54,3,15.38,3.72,23.23.28,3.3.55,6.61.9,9.9a208.15,208.15,0,0,0,17.84,65c3.17,6.89,6.76,13.75,7.9,21.25a36.72,36.72,0,0,1,.37,3.77h0c.32,6.47-.86,13-1.69,19.49-2.19,17.08-.28,34.16-2.33,51a258.24,258.24,0,0,0-1.4,32.32Z" />
            <path class="cls-1"
                d="M393.3,344.86c7.89,1.38,15.73,3,21.51,8.1,6.4,5.69,4.12,11.38,5.54,18.94,2,10.61,7.7,21,11.6,31,6.69,17.15,11.46,37,3.28,53.47-4,8-11,15.73-9.06,24.43a26.22,26.22,0,0,0,3.44,7.54L440,505.88c4.58,7.75,9.33,16.8,6.42,25.32-.91,2.67-2.53,5.09-3.1,7.85-.74,3.63.44,7.35,1.57,10.89a478.81,478.81,0,0,1,18.67,83.48c1.27,9.6,2.23,19.38.68,28.94-1.69,10.33-6.27,20.09-7.29,30.5-.7,7.28.35,14.66-.48,21.91,0,.47-.11.93-.18,1.4-1.15,7.69-5.62,15.74-13.18,17.58a1.94,1.94,0,0,1-1.49-.14c-3.52,2.74-3,1.93-3.64,6.88-.23,1.8.09,3.68-.46,5.41a10.45,10.45,0,0,1-3.11,4.24c-.84.79-1.7,1.55-2.58,2.3H364.46l-1-.44c-6.06-2.48-12-1-17.89-3.1.44-16.08,14-13.11,25.91-14.63,13.45-1.72,36.52,4.74,47.88-2.53,16.05-10.26-12.8-23.78-22.9-23.87A98.34,98.34,0,0,0,358,715.63c-4.66,2-24.86,17.75-26.4,12.13a7.07,7.07,0,0,1,.5-4.09c1.4-4,2.88-9.37-.7-11.6-8.25-5.14-12.41,1.18-8.51-12,2.8-9.47,7.31-17.9,14.52-24.82,9.3-8.93,28.7-15.61,24.05-30.29-3.63-11.46-13.78-19.41-17.58-31.19a100.3,100.3,0,0,1-4.22-38.46c1.11-11.51,7.14-31,16-38.75-2.58-15-12.88-28.27-16.93-42.92-3.75-13.59,2.11-26.3,6.6-39.36,8.78-25.54,17.71-50.84,30.48-74.73C381.86,368.15,386.66,356,393.3,344.86Z" />
            <path class="cls-1"
                d="M339.64,701.14c7.38-5.51,17-6.79,26.18-7.63,19.34-1.76,39.17-2.3,57.87,3,12.12,3.42,23.78,9.59,32.77,18.29" />
            <path class="cls-1"
                d="M186.41,124.39A103.38,103.38,0,0,1,226.86,113c2.52-.17,5.21-.21,7.38,1.1.26.15.54.42.45.71s-.68,0-.45-.15" />
            <path class="cls-1" d="M183.42,149.17c-3.76,0-7.44,1.86-11.24,2.06a31.67,31.67,0,0,1-4.35-.2" />
            <path class="cls-1"
                d="M179.54,201c-2.17,2.71-6.7.83-8.76-1.95-2.95-4-3.73-9.23-3.53-14.19s1.26-9.86,1.6-14.82a71.43,71.43,0,0,0-1-19" />
            <path class="cls-1" d="M167.83,151a17.35,17.35,0,0,0-4.38.05,7,7,0,0,0-.79.18" />
            <path class="cls-1"
                d="M167.83,151c-1.86-9.07-6.06-17.17-14.1-21.74a63.31,63.31,0,0,0-23.3-8.24,40.89,40.89,0,0,0-24.16,4" />
            <path class="cls-1"
                d="M37,569.93,25,579.25a4.36,4.36,0,0,1-2.44,1.15c-2.59,0-2.87-3.81-2.1-6.29A87.65,87.65,0,0,1,32,550.24a6.17,6.17,0,0,1,1.89-2,5.85,5.85,0,0,1,3.59-.4,26,26,0,0,1,6.88,1.83" />
            <path class="cls-1"
                d="M37.84,641.47a20.82,20.82,0,0,0-12.28-.38,6.12,6.12,0,0,1-3.06.39,4.73,4.73,0,0,1-2-1.3,20,20,0,0,1-5.7-10.09c6.85-2.4,14.45-1.92,21.43.09s13.42,5.49,19.74,9.06a95.81,95.81,0,0,1,15.39,10.33" />
            <path class="cls-1" d="M138.15,342.71c8.07,19.35,14.21,32.05,29.68,31.54s67-46.63,74.43-57.36" />
        </g>
    </g>
</svg>